<?xml version="1.0" encoding="UTF-8"?>
<svg id="Layer_2" data-name="Layer 2" xmlns="http://www.w3.org/2000/svg" viewBox="0 0 880.1 252.6">
  <defs>
    <style>
      .cls-1 {
        fill: #42210b;
      }

      .cls-2 {
        fill: #603813;
      }
    </style>
  </defs>
  <g id="Layer_1-2" data-name="Layer 1">
    <g>
      <g>
        <path class="cls-2" d="m858.8,106.23c0-11.48-3.64-22.18-9-31.06,0,0,0-.02,0-.03,0-39.6-183.75-53.84-410.19-53.84S29.8,35.55,29.8,75.14c0,0,0,.02,0,.03-5.36,8.88-8.5,19.58-8.5,31.06v38.75c0,11.68,3.26,22.54,8.79,31.51,7.21,38.49,187.66,54.81,409.53,54.81s403.7-16.26,410.19-54.86c5.44-8.92,9-19.88,9-31.45v-38.75Z"/>
        <path class="cls-1" d="m439.62,252.6c-117.07,0-216.6-4.54-287.81-13.12-91.02-10.97-132.85-27-141.58-54.75-6.7-12-10.23-25.67-10.23-39.74v-38.75c0-13.27,3.14-26.19,9.11-37.68,4.7-24.93,35.49-35.18,46.16-38.73,21.68-7.22,51.81-12.98,92.1-17.6C217.96,4.11,316.29,0,439.62,0s221.75,4.11,292.43,12.21c40.35,4.62,70.51,10.38,92.22,17.6,10.68,3.55,41.46,13.79,46.21,38.68,6.31,11.92,9.62,24.87,9.62,37.74v38.75c0,13.68-3.57,27.27-10.34,39.5-8.39,27.92-50.25,44.03-141.57,55.01-71.32,8.58-171.11,13.11-288.58,13.11ZM50.7,170.81c3.38,3.14,23.7,17.54,119.59,27.9,68.35,7.39,161.48,11.29,269.33,11.29s201.16-3.88,269.58-11.22c95.67-10.27,116.37-24.55,119.92-27.78l.36-2.14,2.14-3.51c3.8-6.23,5.89-13.46,5.89-20.37v-38.75c0-8.44-3.23-15.57-5.94-20.05l-3.06-5.08v-2.76c-2.76-2.12-11.04-7.05-33-12.47-21.36-5.27-50.54-9.75-86.75-13.29-67.64-6.62-158.2-9.98-269.14-9.98s-201.4,3.36-268.96,9.98c-36.15,3.54-65.3,8.01-86.62,13.29-21.92,5.42-30.18,10.35-32.93,12.46v2.77l-3.06,5.08c-3.56,5.89-5.44,12.83-5.44,20.05v38.75c0,7.34,1.94,14.37,5.62,20.33l2.08,3.37.4,2.13Z"/>
      </g>
      <g>
        <path class="cls-1" d="m84.45,75.33c4.57-4.05,10.21-5.15,12.59-2.46s.61,8.15-3.96,12.2-15.9,10.2-18.28,7.51,5.08-13.2,9.65-17.25Z"/>
        <path class="cls-1" d="m76.72,95.27c-1.43,0-2.63-.39-3.47-1.33-4.2-4.74,6.67-17.36,9.82-20.16,5.51-4.88,12.32-5.89,15.51-2.29,3.19,3.6,1.37,10.24-4.13,15.12-2.53,2.24-11.94,8.66-17.73,8.66Zm-.33-4.1c2.06.51,10.64-3.5,15.32-7.64,3.85-3.41,5.17-7.72,3.78-9.29-1.39-1.57-5.83-.77-9.68,2.64-4.68,4.15-9.68,12.18-9.43,14.29Z"/>
      </g>
      <g>
        <path class="cls-1" d="m470.13,187.82c3.99,2.3,4.48,8.92,1.1,14.77s-9.35,8.73-13.34,6.43c-3.99-2.3-9.45-11.78-6.07-17.64,3.38-5.85,14.32-5.86,18.31-3.56Z"/>
        <path class="cls-1" d="m460.96,212.26c-1.54,0-3.01-.37-4.3-1.12-2.54-1.46-5.22-4.86-6.83-8.65-1.99-4.67-2.04-9.05-.14-12.34,1.9-3.29,5.72-5.44,10.76-6.05,4.09-.5,8.37.12,10.91,1.59h0c5.24,3.03,6.12,10.99,2,18.13-1.88,3.25-4.54,5.83-7.5,7.26-1.64.79-3.31,1.18-4.9,1.18Zm2.3-23.41c-.72,0-1.46.04-2.22.13-3.42.42-6,1.74-7.09,3.63-1.09,1.89-.94,4.79.41,7.96,1.32,3.11,3.4,5.53,4.77,6.32,1.62.94,3.58.25,4.6-.24,2.05-.99,4.01-2.91,5.38-5.29,2.65-4.59,2.56-9.82-.21-11.41h0c-1.06-.61-3.18-1.1-5.64-1.1Z"/>
      </g>
      <g>
        <path class="cls-1" d="m107.56,134.74c6.11,0,11.06,1.48,11.06,3.31s-4.95,3.31-11.06,3.31-18.66-1.48-18.66-3.31,12.55-3.31,18.66-3.31Z"/>
        <path class="cls-1" d="m107.56,142.84c-3.24,0-8-.4-11.84-.99-6.9-1.06-8.29-2.24-8.29-3.8s1.39-2.74,8.29-3.8c3.84-.59,8.6-.99,11.84-.99,4.65,0,12.53,1.01,12.53,4.79s-7.88,4.79-12.53,4.79Zm-15.85-4.79c3.3.93,10.69,1.84,15.85,1.84,5.5,0,8.7-1.19,9.47-1.84-.77-.65-3.97-1.84-9.47-1.84-5.17,0-12.55.91-15.85,1.84Z"/>
      </g>
      <g>
        <path class="cls-1" d="m414.83,66.71c-4.57,4.05-11.65,3.53-15.8-1.16-4.16-4.69-3.82-11.78.75-15.83,4.57-4.05,17.33-8.57,21.49-3.88s-1.87,16.82-6.44,20.87Z"/>
        <path class="cls-1" d="m407.62,72.16c-.34,0-.69-.01-1.04-.04-3.7-.27-7.1-1.96-9.59-4.77s-3.76-6.39-3.58-10.09c.18-3.73,1.8-7.13,4.56-9.58,2.72-2.41,7.45-4.7,12.06-5.83,6.01-1.47,10.73-.7,13.28,2.18,2.55,2.88,2.75,7.65.57,13.45-1.68,4.44-4.52,8.86-7.23,11.27-2.51,2.22-5.68,3.42-9.02,3.42Zm8-25.6c-1.24,0-2.69.19-4.28.58-3.7.91-7.7,2.8-9.74,4.61-1.66,1.47-2.62,3.51-2.73,5.76-.11,2.28.68,4.48,2.22,6.22s3.63,2.78,5.91,2.95c2.24.16,4.39-.55,6.05-2.02h0c2.04-1.81,4.4-5.56,5.75-9.12,1.38-3.64,1.55-6.67.46-7.9-.63-.72-1.92-1.08-3.62-1.08Z"/>
      </g>
      <g>
        <path class="cls-1" d="m251.92,42.65c-5.29-3.05-6.85-10.26-3.48-16.09s10.38-8.08,15.67-5.03c5.29,3.05,13.43,14.06,10.06,19.89s-16.97,4.28-22.26,1.23Z"/>
        <path class="cls-1" d="m264.01,48.19c-.09,0-.18,0-.27,0-4.86-.04-10.05-1.26-13.24-3.1-3.26-1.88-5.51-5.02-6.33-8.85-.81-3.73-.16-7.67,1.82-11.1,1.98-3.43,5.07-5.96,8.7-7.13,3.73-1.2,7.58-.82,10.83,1.06,3.18,1.84,6.83,5.73,9.3,9.92,3.19,5.41,3.83,10.32,1.8,13.83-2,3.46-6.47,5.36-12.61,5.36Zm-5.03-25.2c-.84,0-1.71.14-2.56.41-2.29.74-4.26,2.36-5.53,4.57-1.28,2.21-1.7,4.73-1.19,7.08.49,2.25,1.78,4.08,3.64,5.15h0c1.9,1.1,5.99,2.3,10.46,2.34,4.07.06,7-.91,7.94-2.53.94-1.62.27-4.67-1.77-8.14-2.27-3.85-5.35-6.79-7.26-7.89-1.13-.65-2.4-.98-3.72-.98Z"/>
      </g>
      <g>
        <path class="cls-1" d="m550.97,73.61c6.11,0,11.06,7.43,11.06,16.6,0,9.17-4.95,16.6-11.06,16.6-6.11,0-18.66-7.43-18.66-16.6s12.55-16.6,18.66-16.6Z"/>
        <path class="cls-1" d="m550.97,110.1c-3.9,0-9.25-2.18-13.63-5.54-5.37-4.13-8.33-9.23-8.33-14.35s2.96-10.21,8.33-14.35c4.38-3.37,9.73-5.54,13.63-5.54,8.05,0,14.35,8.74,14.35,19.89s-6.3,19.89-14.35,19.89Zm0-33.19c-4.8,0-15.36,6.43-15.36,13.3s10.56,13.3,15.36,13.3c4.13,0,7.76-6.21,7.76-13.3s-3.63-13.3-7.76-13.3Z"/>
      </g>
      <g>
        <path class="cls-1" d="m628.85,24.2c4.57-4.05,11.07-4.18,14.52-.29s2.54,10.33-2.03,14.38c-4.57,4.05-16.76,9.22-20.21,5.33-3.45-3.89,3.15-15.37,7.72-19.42Z"/>
        <path class="cls-1" d="m625.14,47.5c-2.38,0-4.46-.64-5.87-2.23-2.26-2.55-2.1-6.82.46-12.34,1.86-4.02,4.87-8.27,7.47-10.58,5.59-4.95,13.67-4.99,18.02-.08,4.35,4.91,3.34,12.93-2.25,17.88-3.33,2.95-11.59,7.35-17.84,7.35Zm11.6-23.94c-2.1,0-4.37.84-6.25,2.51-2.11,1.87-4.68,5.55-6.26,8.96-1.75,3.78-1.87,6.25-1.25,6.96,1.76,1.99,12.06-1.43,16.7-5.54,3.54-3.14,4.36-8.01,1.82-10.87-1.19-1.34-2.91-2.01-4.77-2.01Z"/>
      </g>
      <g>
        <path class="cls-1" d="m765.66,48.87c5.29,3.05,7.47,9.18,4.87,13.69-2.6,4.51-9,5.68-14.29,2.63s-14.05-12.98-11.45-17.49,15.58-1.88,20.87,1.17Z"/>
        <path class="cls-1" d="m762.39,69.35c-2.46,0-5.03-.65-7.39-2.02-5.31-3.07-16.23-14.18-12.36-20.88,1.7-2.95,5.8-4.15,11.85-3.47,4.4.49,9.39,2,12.41,3.74,6.47,3.73,9.06,11.39,5.78,17.08-2.08,3.6-6.03,5.56-10.28,5.56Zm-11.19-21.59c-2.16,0-3.79.37-4.26,1.17-1.33,2.3,5.17,11,10.54,14.09,4.1,2.36,8.98,1.59,10.89-1.72,1.91-3.31.14-7.93-3.96-10.29h0c-3.48-2.01-9.24-3.26-13.22-3.26Z"/>
      </g>
      <g>
        <path class="cls-1" d="m679.97,174.09c6.11,0,11.06,2.72,11.06,6.07s-4.95,6.07-11.06,6.07c-6.11,0-18.66-2.72-18.66-6.07s12.55-6.07,18.66-6.07Z"/>
        <path class="cls-1" d="m679.97,188.23c-3.34,0-8.23-.75-12.16-1.85-5.71-1.61-8.49-3.64-8.49-6.21s2.78-4.6,8.49-6.21c3.94-1.11,8.82-1.85,12.16-1.85,7.32,0,13.05,3.54,13.05,8.07s-5.73,8.07-13.05,8.07Zm-16.55-8.07c1.52,1.64,10.46,4.08,16.55,4.08,5.1,0,9.06-2.19,9.06-4.08s-3.96-4.08-9.06-4.08c-6.09,0-15.03,2.44-16.55,4.08Z"/>
      </g>
      <g>
        <path class="cls-1" d="m552.39,175.49c4.57,4.05,10.21,5.15,12.59,2.46s.61-8.15-3.96-12.2-15.9-10.2-18.28-7.51,5.08,13.2,9.65,17.25Z"/>
        <path class="cls-1" d="m561.22,181.48c-3.17,0-6.91-1.53-10.2-4.44-2.51-2.23-5.65-6.08-7.82-9.6-3.14-5.09-3.79-8.55-2-10.56,1.79-2.02,5.3-1.78,10.73.72,3.75,1.73,7.96,4.38,10.47,6.61,5.51,4.88,7.32,11.52,4.13,15.12-1.29,1.45-3.17,2.15-5.31,2.15Zm-16.89-21.82c-.26,2.11,4.75,10.15,9.43,14.29,3.85,3.41,8.29,4.21,9.68,2.64,1.39-1.57.07-5.88-3.78-9.29-4.68-4.15-13.25-8.14-15.32-7.64Z"/>
      </g>
      <g>
        <path class="cls-1" d="m385.5,140.08c6.11,0,11.06-2.59,11.06-5.78s-4.95-5.78-11.06-5.78c-6.11,0-18.66,2.59-18.66,5.78,0,3.19,12.55,5.78,18.66,5.78Z"/>
        <path class="cls-1" d="m385.5,142.03c-2.57,0-20.61-1.54-20.61-7.73s18.04-7.73,20.61-7.73c7.41,0,13,3.32,13,7.73s-5.59,7.73-13,7.73Zm-16.55-7.73c1.7,1.58,10.38,3.84,16.55,3.84,5.56,0,9.11-2.27,9.11-3.84s-3.55-3.84-9.11-3.84c-6.16,0-14.84,2.26-16.55,3.84Z"/>
      </g>
      <g>
        <path class="cls-1" d="m762.78,184.11c-4.57-4.05-11.65-3.53-15.8,1.16s-3.82,11.78.75,15.83c4.57,4.05,17.33,8.57,21.49,3.88,4.16-4.69-1.87-16.82-6.44-20.87Z"/>
        <path class="cls-1" d="m763.5,209.7c-1.68,0-3.53-.24-5.52-.73-4.61-1.13-9.34-3.42-12.06-5.83-2.77-2.45-4.39-5.85-4.56-9.58-.17-3.7,1.1-7.29,3.58-10.09,2.48-2.8,5.89-4.5,9.59-4.77,3.72-.27,7.3.93,10.06,3.38h0c2.72,2.41,5.56,6.83,7.23,11.27,2.19,5.79,1.99,10.57-.56,13.45-1.71,1.92-4.38,2.91-7.76,2.91Zm-7.95-25.59c-.21,0-.42,0-.63.02-2.27.17-4.37,1.21-5.91,2.95s-2.32,3.94-2.22,6.22c.11,2.25,1.08,4.29,2.73,5.76,2.04,1.81,6.05,3.71,9.74,4.61,3.78.93,6.81.74,7.9-.5,1.09-1.23.92-4.26-.46-7.9-1.34-3.56-3.71-7.31-5.75-9.12h0c-1.5-1.33-3.4-2.04-5.42-2.04Z"/>
      </g>
      <g>
        <path class="cls-1" d="m599.86,208.17c-5.29,3.05-6.85,10.26-3.48,16.09s10.38,8.08,15.67,5.03c5.29-3.05,13.43-14.06,10.06-19.89s-16.97-4.28-22.26-1.23Z"/>
        <path class="cls-1" d="m606.94,233.49c-1.43,0-2.87-.23-4.3-.69-3.63-1.17-6.72-3.7-8.7-7.13-1.98-3.43-2.63-7.37-1.82-11.1.83-3.83,3.08-6.97,6.33-8.85h0c3.18-1.84,8.38-3.05,13.24-3.1,6.28-.07,10.85,1.85,12.88,5.36,2.03,3.51,1.39,8.42-1.8,13.83-2.47,4.19-6.12,8.08-9.3,9.92-2.01,1.16-4.24,1.75-6.53,1.75Zm5.02-25.21c-.07,0-.15,0-.22,0-4.47.04-8.56,1.24-10.46,2.34h0c-1.86,1.07-3.15,2.9-3.64,5.15-.51,2.35-.08,4.86,1.19,7.08,1.28,2.21,3.24,3.83,5.53,4.57,2.19.7,4.42.5,6.28-.57,1.9-1.1,4.99-4.04,7.26-7.89,2.05-3.47,2.71-6.52,1.77-8.14-.92-1.59-3.8-2.54-7.71-2.54Z"/>
      </g>
      <g>
        <path class="cls-1" d="m732.91,130.21c6.11,0,11.06-7.43,11.06-16.6,0-9.17-4.95-16.6-11.06-16.6-6.11,0-18.66,7.43-18.66,16.6s12.55,16.6,18.66,16.6Z"/>
        <path class="cls-1" d="m732.91,133.51c-3.9,0-9.25-2.18-13.63-5.54-5.37-4.13-8.33-9.23-8.33-14.35s2.96-10.21,8.33-14.35c4.38-3.37,9.73-5.54,13.63-5.54,8.05,0,14.35,8.74,14.35,19.89s-6.3,19.89-14.35,19.89Zm0-33.19c-4.8,0-15.36,6.43-15.36,13.3s10.56,13.3,15.36,13.3c4.13,0,7.76-6.21,7.76-13.3s-3.63-13.3-7.76-13.3Z"/>
      </g>
      <g>
        <path class="cls-1" d="m158.11,127.56c4.57,4.05,11.65,3.53,15.8-1.16s3.82-11.78-.75-15.83c-4.57-4.05-17.33-8.57-21.49-3.88-4.16,4.69,1.87,16.82,6.44,20.87Z"/>
        <path class="cls-1" d="m165.34,133.01c-3.23,0-6.46-1.12-9.04-3.41h0c-4.89-4.33-12.48-18.16-6.67-24.72,5.81-6.56,20.45-.68,25.34,3.65,2.77,2.45,4.39,5.85,4.56,9.58.17,3.7-1.1,7.29-3.58,10.09-2.81,3.17-6.72,4.8-10.61,4.8Zm-5.42-7.49c3.44,3.05,8.8,2.63,11.96-.93,1.54-1.73,2.32-3.94,2.22-6.22-.11-2.25-1.08-4.29-2.73-5.76-5.15-4.56-15.52-6.51-17.64-4.11-2.12,2.39,1.06,12.46,6.21,17.02h0Z"/>
      </g>
      <g>
        <path class="cls-1" d="m321.03,103.5c5.29-3.05,6.85-10.26,3.48-16.09-3.37-5.83-10.38-8.08-15.67-5.03s-13.43,14.06-10.06,19.89c3.37,5.83,16.97,4.28,22.26,1.23Z"/>
        <path class="cls-1" d="m308.94,109.05c-6.14,0-10.61-1.9-12.61-5.36-2.03-3.51-1.39-8.42,1.8-13.83,2.47-4.19,6.12-8.08,9.3-9.92,3.26-1.88,7.1-2.26,10.83-1.06,3.63,1.17,6.72,3.7,8.7,7.13,1.98,3.43,2.63,7.37,1.82,11.1-.83,3.83-3.08,6.97-6.33,8.85-3.18,1.84-8.38,3.05-13.24,3.1-.09,0-.18,0-.27,0Zm5.03-25.2c-1.32,0-2.58.33-3.72.98-1.9,1.1-4.99,4.04-7.26,7.89-2.05,3.47-2.71,6.52-1.77,8.14.94,1.62,3.9,2.59,7.93,2.53,4.47-.04,8.56-1.24,10.46-2.34h0c1.86-1.07,3.15-2.9,3.64-5.15.51-2.35.08-4.86-1.19-7.08-1.28-2.21-3.24-3.83-5.53-4.57-.86-.27-1.72-.41-2.56-.41Z"/>
      </g>
      <g>
        <path class="cls-1" d="m279.98,188.46c-6.11,0-11.06,7.43-11.06,16.6,0,9.17,4.95,16.6,11.06,16.6,6.11,0,18.66-7.43,18.66-16.6,0-9.17-12.55-16.6-18.66-16.6Z"/>
        <path class="cls-1" d="m279.98,224.95c-8.05,0-14.35-8.74-14.35-19.89s6.3-19.89,14.35-19.89c3.9,0,9.25,2.18,13.63,5.54,5.37,4.13,8.33,9.23,8.33,14.35s-2.96,10.21-8.33,14.35c-4.38,3.37-9.73,5.54-13.63,5.54Zm0-33.19c-4.13,0-7.76,6.21-7.76,13.3s3.63,13.3,7.76,13.3c4.8,0,15.36-6.43,15.36-13.3s-10.56-13.3-15.36-13.3Z"/>
      </g>
      <g>
        <path class="cls-2" d="m858.96,75.68c0-4.16-3.64-8.03-9-11.25,0,0,0,0,0,0,0-14.35-184.13-43.43-410.56-43.43S29.96,50.08,29.96,64.42c0,0,0,0,0,0-5.36,3.22-8.5,7.09-8.5,11.25v14.04c0,4.23,3.26,8.17,8.79,11.42,7.21,13.94,180.28,39.86,402.15,39.86s411.07-25.89,417.56-39.88c5.44-3.23,9-7.2,9-11.4v-14.04Z"/>
        <path class="cls-1" d="m432.39,153.82c-99.14,0-199.66-5.25-283.03-14.78-34.99-4-65.11-8.58-87.1-13.24-25.53-5.41-35.83-9.88-40.7-14.97-11.18-7.47-12.92-16.32-12.92-21.1v-14.04c0-4.52,1.56-12.75,11.31-19.97,3.8-5.3,10.47-7.95,13.58-9.19,6.07-2.42,14.72-4.92,25.7-7.44,22.01-5.05,52.78-10.05,88.98-14.48,50.13-6.14,154.62-16.43,291.19-16.43s241.43,10.29,291.75,16.43c36.35,4.43,67.25,9.44,89.36,14.48,11.03,2.52,19.72,5.02,25.82,7.43,3.11,1.23,9.77,3.87,13.6,9.13,9.7,7,11.86,14.63,11.86,20.04v14.04c0,4.69-1.76,13.41-13.03,21-4.97,5.26-15.78,9.68-43.01,15.1-23.26,4.63-55.15,9.2-92.24,13.22-50.85,5.52-156.28,14.77-291.11,14.77ZM40.53,93.11c7.13,3.5,38.96,12.58,121.53,21.53,80.45,8.72,176.46,13.53,270.34,13.53s193.18-4.8,277.81-13.51c79.51-8.18,119.71-17.03,129.32-21.53l.47-1.01,3.41-2.03c1.42-.85,2.26-1.53,2.73-1.97v-10.7c-.49-.45-1.35-1.14-2.78-2l-6.22-3.74v-1.3c-12.12-4.9-51.55-13.88-123.48-22.02-82.88-9.38-180.28-14.55-274.26-14.55s-191.13,5.17-273.7,14.54c-71.59,8.13-110.85,17.11-122.92,22.01v1.32l-6.22,3.74c-1.18.71-1.88,1.28-2.28,1.65v11.25c.42.39,1.18,1.01,2.46,1.76l3.19,1.88.59,1.15Zm800.38-.72h0s0,0,0,0Z"/>
      </g>
      <g>
        <path class="cls-1" d="m84.6,64.49c4.57-1.47,10.21-1.87,12.59-.89s.61,2.95-3.96,4.42-15.9,3.69-18.28,2.72,5.08-4.78,9.65-6.25Z"/>
        <path class="cls-1" d="m76.95,72.21c-1.05,0-1.91-.1-2.46-.33-.8-.33-1.26-.98-1.23-1.74.12-3.16,10.86-6.8,10.97-6.84,4.88-1.57,10.79-1.95,13.44-.86,1.65.67,1.85,1.76,1.83,2.34-.08,2.11-3.24,3.56-5.88,4.41-3.03.97-11.87,3.01-16.67,3.01Zm-.51-2.47c3.22.13,11.84-1.44,16.42-2.91,2.54-.81,3.65-1.61,4.03-2.02-.04-.02-.1-.05-.16-.07-1.88-.77-7.05-.58-11.74.93h0c-3.3,1.06-6.97,2.9-8.55,4.07Z"/>
      </g>
      <g>
        <path class="cls-1" d="m470.29,105.24c3.99.83,4.48,3.23,1.1,5.35-3.38,2.12-9.35,3.16-13.34,2.33s-9.45-4.27-6.07-6.39,14.32-2.12,18.31-1.29Z"/>
        <path class="cls-1" d="m461.14,114.69c-1.2,0-2.35-.1-3.39-.32-3.03-.63-7.75-2.9-8.26-5.77-.14-.76-.1-2.2,1.7-3.33,4.05-2.54,15.61-2.28,19.4-1.48h0c3.49.73,4.31,2.46,4.48,3.42.17.95.02,2.81-2.89,4.63-2.83,1.78-7.19,2.84-11.04,2.85Zm2.37-8.5c-4.29,0-8.99.49-10.74,1.59-.31.19-.37.32-.37.32.04.68,2.82,2.71,5.96,3.37,3.6.75,9.21-.22,12.25-2.13,1.36-.85,1.57-1.49,1.55-1.6-.02-.12-.48-.69-2.17-1.05h0c-1.55-.32-3.94-.5-6.48-.5Z"/>
      </g>
      <g>
        <path class="cls-1" d="m107.72,86.01c6.11,0,11.06.54,11.06,1.2s-4.95,1.2-11.06,1.2-18.66-.54-18.66-1.2,12.55-1.2,18.66-1.2Z"/>
        <path class="cls-1" d="m107.72,89.3c-3.19,0-7.88-.14-11.67-.35-7.88-.44-7.88-.82-7.88-1.73s0-1.3,7.88-1.73c3.79-.21,8.48-.35,11.67-.35,11.94,0,11.94,1.46,11.94,2.09s0,2.09-11.94,2.09Zm-10.87-2.09c3.56.19,7.73.31,10.87.31s5.58-.13,7.4-.31c-1.81-.18-4.35-.31-7.4-.31s-7.3.13-10.87.31Z"/>
      </g>
      <g>
        <path class="cls-1" d="m414.99,61.37c-4.57,1.47-11.65,1.28-15.8-.42s-3.82-4.27.75-5.73,17.33-3.11,21.49-1.41c4.16,1.7-1.87,6.09-6.44,7.56Z"/>
        <path class="cls-1" d="m407.75,64c-3.34,0-6.7-.52-9.19-1.54-3.33-1.36-3.98-3.15-3.93-4.4.05-1.33.92-3.17,4.8-4.41,4.19-1.35,17.75-3.35,22.61-1.36,2.17.89,2.44,2.4,2.41,3.22-.13,3.48-6.1,6.5-8.97,7.42-2.24.72-4.99,1.07-7.74,1.07Zm8.04-9.28c-5.05,0-12,.97-15.36,2.05-2.22.71-2.52,1.43-2.52,1.44.04.09.47.63,1.9,1.21,3.78,1.54,10.5,1.72,14.68.38h0c3.5-1.12,6.3-3.39,6.66-4.31-.07-.04-.17-.1-.34-.17-1.04-.42-2.85-.6-5.01-.6Z"/>
      </g>
      <g>
        <path class="cls-1" d="m252.08,52.65c-5.29-1.11-6.85-3.72-3.48-5.83,3.37-2.11,10.38-2.93,15.67-1.82s13.43,5.09,10.06,7.21-16.97,1.55-22.26.45Z"/>
        <path class="cls-1" d="m264.17,55.33c-4.85,0-9.88-.48-12.44-1.02h0c-3.85-.81-6.18-2.42-6.56-4.54-.17-.94-.07-2.77,2.52-4.39,3.75-2.35,11.18-3.25,16.92-2.05,3.54.74,11.51,3.58,12.16,7.2.1.58.16,2.04-1.54,3.11-1.99,1.25-6.45,1.69-11.06,1.69Zm-11.75-4.35c5.3,1.11,17.76,1.45,20.81-.11-1.01-1.16-5.21-3.35-9.32-4.21-4.82-1.01-11.43-.28-14.42,1.6-.76.48-.97.84-.98.93.04.19.88,1.16,3.91,1.79h0Z"/>
      </g>
      <g>
        <path class="cls-1" d="m551.12,63.87c6.11,0,11.06,2.69,11.06,6.01s-4.95,6.01-11.06,6.01c-6.11,0-18.66-2.69-18.66-6.01s12.55-6.01,18.66-6.01Z"/>
        <path class="cls-1" d="m551.12,77.87c-2.57,0-20.64-1.59-20.64-8s18.07-8,20.64-8c7.43,0,13.04,3.44,13.04,8s-5.61,8-13.04,8Zm-16.55-8c1.55,1.64,10.31,4.03,16.55,4.03,5.54,0,9.07-2.39,9.07-4.03s-3.53-4.03-9.07-4.03c-6.25,0-15,2.39-16.55,4.03Z"/>
      </g>
      <g>
        <path class="cls-1" d="m629.01,45.97c4.57-1.47,11.07-1.51,14.52-.11,3.45,1.41,2.54,3.74-2.03,5.21s-16.76,3.34-20.21,1.93c-3.45-1.41,3.15-5.57,7.72-7.04Z"/>
        <path class="cls-1" d="m625.33,55c-1.92,0-3.55-.18-4.61-.61-1.76-.72-1.91-2.04-1.89-2.57.13-3.49,7.7-6.62,9.72-7.27h0c4.93-1.58,11.76-1.61,15.54-.07,2.7,1.1,3.05,2.7,3.02,3.56-.05,1.29-.99,3.11-5.16,4.45-3.19,1.03-11.08,2.5-16.62,2.5Zm-3.34-3.32c3.07,1.06,14.3-.5,19.04-2.02,2.18-.7,2.92-1.45,3.07-1.7-.08-.11-.36-.39-1.14-.71-3.11-1.27-9.29-1.2-13.5.15h0c-3.39,1.09-6.65,3.2-7.47,4.28Z"/>
      </g>
      <g>
        <path class="cls-1" d="m765.81,54.9c5.29,1.11,7.47,3.33,4.87,4.96-2.6,1.63-9,2.06-14.29.95s-14.05-4.7-11.45-6.34,15.58-.68,20.87.42Z"/>
        <path class="cls-1" d="m762.52,62.92c-2.13,0-4.35-.21-6.44-.65-.12-.03-12.39-2.89-13.08-6.72-.16-.92.26-1.8,1.14-2.35,3.43-2.15,17.67-.67,21.97.23h0c2.45.51,6.63,1.77,7.11,4.44.13.72.07,2.1-1.76,3.25-1.86,1.17-5.25,1.79-8.95,1.79Zm-16-7.46c1.69,1.2,6.27,3.07,10.18,3.89,5.38,1.12,11.16.52,13.18-.76.18-.11.29-.2.35-.26-.29-.36-1.5-1.29-4.72-1.96h0c-5.36-1.12-15.7-1.67-18.99-.91Z"/>
      </g>
      <g>
        <path class="cls-1" d="m680.12,100.27c6.11,0,11.06.99,11.06,2.2s-4.95,2.2-11.06,2.2c-6.11,0-18.66-.99-18.66-2.2s12.55-2.2,18.66-2.2Z"/>
        <path class="cls-1" d="m680.12,105.87c-3.21,0-7.93-.26-11.74-.65-6.95-.71-8.12-1.42-8.12-2.75s1.17-2.04,8.12-2.75c3.81-.39,8.53-.65,11.74-.65,3.69,0,12.26.33,12.26,3.4s-8.57,3.4-12.26,3.4Zm-14.5-3.4c3.78.54,9.95,1,14.5,1s7.66-.53,9.11-1c-1.45-.47-4.54-1-9.11-1s-10.72.46-14.5,1Z"/>
      </g>
      <g>
        <path class="cls-1" d="m552.54,100.78c4.57,1.47,10.21,1.87,12.59.89s.61-2.95-3.96-4.42-15.9-3.69-18.28-2.72,5.08,4.78,9.65,6.25Z"/>
        <path class="cls-1" d="m561.34,103.44c-2.78,0-6.17-.51-9.18-1.48h0c-.11-.04-10.85-3.68-10.97-6.84-.03-.76.43-1.41,1.23-1.74,3.1-1.27,15.43,1.5,19.13,2.69,2.64.85,5.8,2.3,5.88,4.41.02.59-.18,1.67-1.83,2.34-1.02.42-2.52.62-4.26.62Zm-16.97-7.92c1.57,1.17,5.25,3.01,8.55,4.07h0c4.69,1.51,9.86,1.69,11.74.93.06-.03.11-.05.16-.07-.37-.4-1.49-1.2-4.03-2.02-4.59-1.47-13.19-3.04-16.42-2.91Z"/>
      </g>
      <g>
        <path class="cls-1" d="m385.66,87.95c6.11,0,11.06-.94,11.06-2.1s-4.95-2.1-11.06-2.1-18.66.94-18.66,2.1,12.55,2.1,18.66,2.1Z"/>
        <path class="cls-1" d="m385.66,89.12c-3.21,0-7.92-.25-11.73-.62-7.55-.73-8.1-1.49-8.1-2.65s.54-1.91,8.1-2.65c3.81-.37,8.53-.62,11.73-.62,11.04,0,12.23,2.28,12.23,3.27s-1.19,3.27-12.23,3.27Zm-14.29-3.27c3.8.5,9.82.92,14.29.92s7.52-.48,9.03-.92c-1.5-.44-4.56-.92-9.03-.92s-10.49.42-14.29.92Z"/>
      </g>
      <g>
        <path class="cls-1" d="m762.93,103.9c-4.57-1.47-11.65-1.28-15.8.42-4.16,1.7-3.82,4.27.75,5.73,4.57,1.47,17.33,3.11,21.49,1.41s-1.87-6.09-6.44-7.56Z"/>
        <path class="cls-1" d="m763.7,113.82c-5.91,0-13.4-1.26-16.33-2.2-3.87-1.24-4.74-3.09-4.8-4.41-.05-1.26.59-3.04,3.93-4.4,4.53-1.85,11.97-2.06,16.93-.46,2.87.92,8.83,3.95,8.97,7.42.03.82-.24,2.33-2.41,3.22-1.47.6-3.73.84-6.29.84Zm-17.85-6.71s.38.7,2.52,1.39c4.8,1.54,16.91,2.86,20.37,1.45.17-.07.27-.13.34-.17-.36-.92-3.16-3.18-6.66-4.31h0c-4.18-1.34-10.9-1.17-14.68.38-1.41.58-1.85,1.12-1.89,1.27h0Z"/>
      </g>
      <g>
        <path class="cls-1" d="m600.02,112.62c-5.29,1.11-6.85,3.72-3.48,5.83s10.38,2.93,15.67,1.82,13.43-5.09,10.06-7.21-16.97-1.55-22.26-.45Z"/>
        <path class="cls-1" d="m607.08,122.47c-4.39,0-8.82-.93-11.44-2.58-2.59-1.62-2.69-3.45-2.52-4.39.38-2.12,2.71-3.74,6.56-4.54h0c5-1.05,19.42-1.9,23.51.67,1.7,1.07,1.65,2.53,1.54,3.11-.65,3.62-8.62,6.46-12.16,7.2-1.72.36-3.6.53-5.48.53Zm5.05-9.13c-4.3,0-9.01.37-11.77.95h0c-3.02.63-3.86,1.6-3.91,1.81.01.07.22.44.98.91,2.99,1.88,9.59,2.61,14.42,1.6,4.11-.86,8.3-3.04,9.32-4.21-1.46-.75-5.09-1.06-9.05-1.06Z"/>
      </g>
      <g>
        <path class="cls-1" d="m733.06,84.37c6.11,0,11.06-2.69,11.06-6.01s-4.95-6.01-11.06-6.01c-6.11,0-18.66,2.69-18.66,6.01s12.55,6.01,18.66,6.01Z"/>
        <path class="cls-1" d="m733.06,86.36c-2.57,0-20.64-1.59-20.64-8s18.07-8,20.64-8c7.43,0,13.04,3.44,13.04,8s-5.61,8-13.04,8Zm-16.55-8c1.55,1.64,10.31,4.03,16.55,4.03,5.54,0,9.07-2.39,9.07-4.03s-3.53-4.03-9.07-4.03c-6.25,0-15,2.39-16.55,4.03Z"/>
      </g>
      <g>
        <path class="cls-1" d="m158.27,83.41c4.57,1.47,11.65,1.28,15.8-.42s3.82-4.27-.75-5.73c-4.57-1.47-17.33-3.11-21.49-1.41s1.87,6.09,6.44,7.56Z"/>
        <path class="cls-1" d="m165.51,86.05c-2.75,0-5.5-.35-7.74-1.07h0c-2.87-.92-8.83-3.95-8.97-7.42-.03-.82.24-2.33,2.41-3.22,4.86-1.99,18.42.02,22.62,1.36,3.87,1.24,4.74,3.09,4.8,4.41.05,1.25-.59,3.04-3.93,4.4-2.48,1.02-5.84,1.54-9.19,1.54Zm-13.4-8.5c.36.92,3.16,3.18,6.66,4.31h0c4.18,1.34,10.9,1.17,14.68-.38,1.41-.58,1.85-1.12,1.89-1.27h0s-.38-.7-2.52-1.39c-4.8-1.54-16.91-2.86-20.37-1.45-.17.07-.27.13-.34.17Z"/>
      </g>
      <g>
        <path class="cls-1" d="m321.18,74.7c5.29-1.11,6.85-3.72,3.48-5.83s-10.38-2.93-15.67-1.82-13.43,5.09-10.06,7.21c3.37,2.11,16.97,1.55,22.26.45Z"/>
        <path class="cls-1" d="m309.08,77.38c-4.62,0-9.07-.44-11.06-1.69-1.7-1.07-1.65-2.53-1.54-3.11.65-3.62,8.62-6.46,12.16-7.2,5.75-1.2,13.18-.3,16.93,2.05,2.59,1.62,2.69,3.45,2.52,4.39-.38,2.12-2.71,3.74-6.56,4.54h0c-2.56.54-7.59,1.02-12.44,1.02Zm-9.07-4.46c3.05,1.56,15.52,1.22,20.82.11,3.03-.63,3.86-1.6,3.91-1.81-.01-.07-.22-.44-.98-.91-2.99-1.88-9.59-2.61-14.42-1.6-4.11.86-8.3,3.04-9.32,4.21Z"/>
      </g>
      <g>
        <path class="cls-1" d="m280.14,105.48c-6.11,0-11.06,2.69-11.06,6.01s4.95,6.01,11.06,6.01c6.11,0,18.66-2.69,18.66-6.01s-12.55-6.01-18.66-6.01Z"/>
        <path class="cls-1" d="m280.14,119.49c-7.43,0-13.04-3.44-13.04-8s5.61-8,13.04-8c2.57,0,20.64,1.59,20.64,8s-18.07,8-20.64,8Zm0-12.02c-5.54,0-9.07,2.39-9.07,4.03s3.53,4.03,9.07,4.03c6.25,0,15-2.39,16.55-4.03-1.55-1.64-10.31-4.03-16.55-4.03Z"/>
      </g>
    </g>
  </g>
</svg>