<?xml version="1.0" encoding="UTF-8"?>
<svg id="Layer_2" data-name="Layer 2" xmlns="http://www.w3.org/2000/svg" viewBox="0 0 800 843.85">
  <defs>
    <style>
      .cls-1, .cls-2, .cls-3, .cls-4, .cls-5, .cls-6, .cls-7, .cls-8, .cls-9, .cls-10, .cls-11, .cls-12, .cls-13, .cls-14, .cls-15, .cls-16, .cls-17, .cls-18, .cls-19, .cls-20, .cls-21, .cls-22, .cls-23, .cls-24, .cls-25, .cls-26, .cls-27, .cls-28, .cls-29, .cls-30, .cls-31, .cls-32, .cls-33, .cls-34, .cls-35, .cls-36, .cls-37, .cls-38, .cls-39, .cls-40, .cls-41, .cls-42, .cls-43, .cls-44, .cls-45, .cls-46, .cls-47, .cls-48, .cls-49, .cls-50, .cls-51, .cls-52 {
        stroke-miterlimit: 10;
      }

      .cls-1, .cls-3, .cls-12, .cls-14, .cls-19, .cls-22, .cls-23, .cls-25, .cls-26, .cls-28, .cls-31, .cls-32, .cls-34, .cls-36, .cls-37, .cls-38, .cls-39, .cls-44, .cls-45, .cls-47 {
        fill: #42210b;
      }

      .cls-1, .cls-3, .cls-12, .cls-14, .cls-19, .cls-22, .cls-23, .cls-25, .cls-26, .cls-28, .cls-31, .cls-32, .cls-34, .cls-36, .cls-37, .cls-38, .cls-39, .cls-44, .cls-45, .cls-47, .cls-49, .cls-51 {
        stroke: #42210b;
      }

      .cls-1, .cls-50 {
        stroke-width: 3.18px;
      }

      .cls-2 {
        stroke-width: 2.53px;
      }

      .cls-2, .cls-21, .cls-27, .cls-48 {
        fill: #d10000;
      }

      .cls-2, .cls-27 {
        stroke: #ed4d00;
      }

      .cls-3 {
        stroke-width: 1.85px;
      }

      .cls-4, .cls-5 {
        stroke-width: 19.12px;
      }

      .cls-4, .cls-5, .cls-10, .cls-30, .cls-33, .cls-41 {
        stroke: #39b44a;
      }

      .cls-4, .cls-10 {
        fill: #8bc53f;
      }

      .cls-5, .cls-30, .cls-33, .cls-41 {
        fill: #39b44a;
      }

      .cls-6 {
        stroke-width: 3.88px;
      }

      .cls-6, .cls-9, .cls-13, .cls-17, .cls-18, .cls-20, .cls-29, .cls-43 {
        stroke: #664690;
      }

      .cls-6, .cls-9, .cls-13, .cls-18, .cls-29, .cls-43 {
        fill: none;
      }

      .cls-7 {
        stroke-width: 3.23px;
      }

      .cls-7, .cls-15, .cls-16, .cls-24, .cls-35, .cls-40, .cls-42, .cls-46, .cls-50, .cls-52 {
        stroke: #c59b6d;
      }

      .cls-7, .cls-15, .cls-16, .cls-42, .cls-46, .cls-50, .cls-52 {
        fill: #ffd69e;
      }

      .cls-8 {
        stroke-width: 6.51px;
      }

      .cls-8, .cls-11 {
        fill: #fff;
        stroke: #ff5c00;
      }

      .cls-9 {
        stroke-width: 4.49px;
      }

      .cls-10 {
        stroke-width: 10.06px;
      }

      .cls-11 {
        font-family: CooperBlack, 'Cooper Black';
        font-size: 140.62px;
        stroke-width: 6.44px;
      }

      .cls-12 {
        stroke-width: 1.91px;
      }

      .cls-13 {
        stroke-width: 4.89px;
      }

      .cls-14 {
        stroke-width: 1px;
      }

      .cls-15, .cls-22 {
        stroke-width: 2.79px;
      }

      .cls-16, .cls-19 {
        stroke-width: 2.77px;
      }

      .cls-17 {
        fill: #664690;
      }

      .cls-17, .cls-20, .cls-21 {
        stroke-width: 22.61px;
      }

      .cls-18 {
        stroke-width: 3.69px;
      }

      .cls-20 {
        fill: #b6c4fa;
      }

      .cls-21, .cls-48 {
        stroke: #a80000;
      }

      .cls-23 {
        stroke-width: 2.79px;
      }

      .cls-24, .cls-25 {
        stroke-width: 2.19px;
      }

      .cls-24, .cls-35, .cls-40 {
        fill: #c59b6d;
      }

      .cls-53 {
        letter-spacing: -.03em;
      }

      .cls-26 {
        stroke-width: 1.32px;
      }

      .cls-27 {
        stroke-width: 3.54px;
      }

      .cls-28 {
        stroke-width: 1.35px;
      }

      .cls-29 {
        stroke-width: 3.94px;
      }

      .cls-30 {
        stroke-width: 1.33px;
      }

      .cls-31 {
        stroke-width: 1.66px;
      }

      .cls-32 {
        stroke-width: 1.66px;
      }

      .cls-33 {
        stroke-width: 3.86px;
      }

      .cls-34, .cls-35 {
        stroke-width: 2.24px;
      }

      .cls-36 {
        stroke-width: 2.23px;
      }

      .cls-37 {
        stroke-width: 1.68px;
      }

      .cls-38 {
        stroke-width: 1.68px;
      }

      .cls-39, .cls-40 {
        stroke-width: 2.32px;
      }

      .cls-41 {
        stroke-width: 1.53px;
      }

      .cls-42, .cls-44 {
        stroke-width: 3.71px;
      }

      .cls-43 {
        stroke-width: 2.19px;
      }

      .cls-45, .cls-46 {
        stroke-width: 3.07px;
      }

      .cls-47 {
        stroke-width: 1.4px;
      }

      .cls-48 {
        stroke-width: 13.5px;
      }

      .cls-49 {
        stroke-width: 14.42px;
      }

      .cls-49, .cls-51 {
        fill: #603813;
      }

      .cls-51, .cls-52 {
        stroke-width: 23.96px;
      }
    </style>
  </defs>
  <g id="Layer_1-2" data-name="Layer 1">
    <g>
      <text class="cls-11" transform="translate(91.89 805.33)"><tspan x="0" y="0">BU</tspan><tspan class="cls-53" x="216.15" y="0">R</tspan><tspan x="321.68" y="0">GER</tspan></text>
      <g>
        <g>
          <g>
            <path class="cls-52" d="m637.42,593.84c0-6.46-2.05-12.47-5.06-17.47,0,0,0-.01,0-.02,0-22.27-103.35-30.28-230.72-30.28s-230.51,8.01-230.51,30.28c0,0,0,.01,0,.02-3.02,5-4.78,11.01-4.78,17.47v21.8c0,6.57,1.83,12.68,4.94,17.72,4.05,21.65,105.56,30.83,230.35,30.83s227.07-9.15,230.72-30.86c3.06-5.02,5.06-11.18,5.06-17.69v-21.8Z"/>
            <path class="cls-52" d="m637.21,580.31c0-6.46-2.05-12.47-5.06-17.47,0,0,0-.01,0-.02,0-22.27-103.35-30.28-230.72-30.28s-230.51,8.01-230.51,30.28c0,0,0,.01,0,.02-3.02,5-4.78,11.01-4.78,17.47v21.8c0,6.57,1.83,12.68,4.94,17.72,4.05,21.65,105.56,30.83,230.35,30.83s227.07-9.15,230.72-30.86c3.06-5.02,5.06-11.18,5.06-17.69v-21.8Z"/>
            <path class="cls-52" d="m637.44,559.13c0-6.46-2.05-12.47-5.06-17.47,0,0,0-.01,0-.02,0-22.27-103.35-30.28-230.72-30.28s-230.51,8.01-230.51,30.28c0,0,0,.01,0,.02-3.02,5-4.78,11.01-4.78,17.47v21.8c0,6.57,1.83,12.68,4.94,17.72,4.05,21.65,105.56,30.83,230.35,30.83s227.07-9.15,230.72-30.86c3.06-5.02,5.06-11.18,5.06-17.69v-21.8Z"/>
          </g>
          <path class="cls-16" d="m355.55,599.43c2.24,1.3,2.52,5.02.62,8.31s-5.26,4.91-7.51,3.62-5.32-6.63-3.42-9.92,8.05-3.3,10.3-2Z"/>
          <path class="cls-50" d="m232.25,535.21c-2.97-1.72.85-3.32,2.74-6.6s1.53-1.72,4.5,0,7.17,2.63,5.28,5.91-9.54,2.41-12.52.69Z"/>
          <path class="cls-42" d="m493.82,517.19c3.43,0,6.22,4.18,6.22,9.33s-2.78,9.33-6.22,9.33c-3.43,0-10.5-4.18-10.5-9.33s7.06-9.33,10.5-9.33Z"/>
          <path class="cls-15" d="m303.64,553.52c2.57-2.28,6.23-2.35,8.17-.16s1.43,5.81-1.14,8.09-9.43,5.19-11.37,3,1.77-8.64,4.34-10.92Z"/>
          <path class="cls-7" d="m583.07,543.64c2.81,1.62,3.41,5.84,1.35,9.41s-6.02,5.16-8.83,3.54-6.91-7.86-4.84-11.43,9.51-3.14,12.32-1.52Z"/>
          <path class="cls-46" d="m615.77,586.66c-2.57-2.28-6.55-1.99-8.89.65s-2.15,6.62.42,8.9,9.75,4.82,12.09,2.18-1.05-9.46-3.62-11.74Z"/>
          <path class="cls-50" d="m428.52,567c-2.97,1.72-3.85,5.77-1.96,9.05s5.84,4.55,8.82,2.83,7.55-7.91,5.66-11.19-9.54-2.41-12.52-.69Z"/>
          <path class="cls-42" d="m530.91,611.46c3.43,0,6.22-4.18,6.22-9.33s-2.78-9.33-6.22-9.33c-3.43,0-10.5,4.18-10.5,9.33s7.06,9.33,10.5,9.33Z"/>
          <path class="cls-46" d="m221.11,600.41c2.57,2.28,6.55,1.99,8.89-.65s2.15-6.62-.42-8.9-9.75-4.82-12.09-2.18,1.05,9.46,3.62,11.74Z"/>
          <path class="cls-50" d="m384.74,532.31c2.97-1.72,3.85-5.77,1.96-9.05s-5.84-4.55-8.82-2.83-7.55,7.91-5.66,11.19,9.54,2.41,12.52.69Z"/>
        </g>
        <g>
          <g>
            <path class="cls-51" d="m632.82,520.94c0-6.46-2.05-12.47-5.06-17.47,0,0,0-.01,0-.02,0-22.27-103.35-30.28-230.72-30.28s-230.51,8.01-230.51,30.28c0,0,0,.01,0,.02-3.02,5-4.78,11.01-4.78,17.47v21.8c0,6.57,1.83,12.68,4.94,17.72,4.05,21.65,105.56,30.83,230.35,30.83s227.07-9.15,230.72-30.86c3.06-5.02,5.06-11.18,5.06-17.69v-21.8Z"/>
            <path class="cls-39" d="m197.27,503.56c2.57-2.28,5.74-2.9,7.08-1.39s.34,4.59-2.23,6.86-8.94,5.73-10.28,4.22,2.86-7.42,5.43-9.7Z"/>
            <path class="cls-19" d="m414.21,566.83c2.24,1.3,2.52,5.02.62,8.31s-5.26,4.91-7.51,3.62-5.32-6.63-3.42-9.92,8.05-3.3,10.3-2Z"/>
            <path class="cls-31" d="m210.27,536.98c3.43,0,6.22.83,6.22,1.86s-2.78,1.86-6.22,1.86-10.5-.83-10.5-1.86,7.06-1.86,10.5-1.86Z"/>
            <path class="cls-45" d="m383.1,498.71c-2.57,2.28-6.55,1.99-8.89-.65s-2.15-6.62.42-8.9,9.75-4.82,12.09-2.18-1.05,9.46-3.62,11.74Z"/>
            <path class="cls-1" d="m291.47,485.18c-2.97-1.72-3.85-5.77-1.96-9.05s5.84-4.55,8.82-2.83,7.55,7.91,5.66,11.19-9.54,2.41-12.52.69Z"/>
            <path class="cls-44" d="m459.67,502.59c3.43,0,6.22,4.18,6.22,9.33s-2.78,9.33-6.22,9.33c-3.43,0-10.5-4.18-10.5-9.33s7.06-9.33,10.5-9.33Z"/>
            <path class="cls-22" d="m503.48,474.8c2.57-2.28,6.23-2.35,8.17-.16s1.43,5.81-1.14,8.09-9.43,5.19-11.37,3,1.77-8.64,4.34-10.92Z"/>
            <path class="cls-23" d="m580.43,488.68c2.97,1.72,4.2,5.16,2.74,7.7s-5.06,3.2-8.04,1.48-7.9-7.3-6.44-9.84,8.76-1.06,11.74.66Z"/>
            <path class="cls-34" d="m532.23,559.11c3.43,0,6.22,1.53,6.22,3.42s-2.78,3.42-6.22,3.42-10.5-1.53-10.5-3.42,7.06-3.42,10.5-3.42Z"/>
            <path class="cls-39" d="m460.47,559.9c2.57,2.28,5.74,2.9,7.08,1.39s.34-4.59-2.23-6.86-8.94-5.73-10.28-4.22,2.86,7.42,5.43,9.7Z"/>
            <path class="cls-25" d="m366.6,539.98c3.43,0,6.22-1.46,6.22-3.25s-2.78-3.25-6.22-3.25-10.5,1.46-10.5,3.25,7.06,3.25,10.5,3.25Z"/>
            <path class="cls-45" d="m578.81,564.75c-2.57-2.28-6.55-1.99-8.89.65s-2.15,6.62.42,8.9,9.75,4.82,12.09,2.18-1.05-9.46-3.62-11.74Z"/>
            <path class="cls-1" d="m487.17,578.28c-2.97,1.72-3.85,5.77-1.96,9.05s5.84,4.55,8.82,2.83,7.55-7.91,5.66-11.19-9.54-2.41-12.52-.69Z"/>
            <path class="cls-44" d="m562.01,534.43c3.43,0,6.22-4.18,6.22-9.33s-2.78-9.33-6.22-9.33c-3.43,0-10.5,4.18-10.5,9.33s7.06,9.33,10.5,9.33Z"/>
            <path class="cls-45" d="m238.7,532.94c2.57,2.28,6.55,1.99,8.89-.65s2.15-6.62-.42-8.9-9.75-4.82-12.09-2.18,1.05,9.46,3.62,11.74Z"/>
            <path class="cls-1" d="m330.34,519.41c2.97-1.72,3.85-5.77,1.96-9.05s-5.84-4.55-8.82-2.83-7.55,7.91-5.66,11.19,9.54,2.41,12.52.69Z"/>
            <path class="cls-44" d="m307.25,567.2c-3.43,0-6.22,4.18-6.22,9.33s2.78,9.33,6.22,9.33c3.43,0,10.5-4.18,10.5-9.33s-7.06-9.33-10.5-9.33Z"/>
          </g>
          <g>
            <path class="cls-49" d="m632.91,503.76c0-2.34-2.05-4.52-5.06-6.33,0,0,0,0,0,0,0-8.07-103.57-24.43-230.93-24.43s-230.3,16.36-230.3,24.43c0,0,0,0,0,0-3.02,1.81-4.78,3.99-4.78,6.33v7.9c0,2.38,1.83,4.59,4.94,6.42,4.05,7.84,101.41,22.42,226.2,22.42s231.22-14.56,234.87-22.43c3.06-1.82,5.06-4.05,5.06-6.41v-7.9Z"/>
            <path class="cls-47" d="m197.35,497.46c2.57-.83,5.74-1.05,7.08-.5s.34,1.66-2.23,2.49-8.94,2.08-10.28,1.53,2.86-2.69,5.43-3.51Z"/>
            <path class="cls-32" d="m414.29,520.39c2.24.47,2.52,1.82.62,3.01s-5.26,1.78-7.51,1.31-5.32-2.4-3.42-3.59,8.05-1.19,10.3-.73Z"/>
            <path class="cls-14" d="m210.36,509.57c3.43,0,6.22.3,6.22.68s-2.78.68-6.22.68-10.5-.3-10.5-.68,7.06-.68,10.5-.68Z"/>
            <path class="cls-3" d="m383.19,495.71c-2.57.83-6.55.72-8.89-.24s-2.15-2.4.42-3.23,9.75-1.75,12.09-.79-1.05,3.43-3.62,4.25Z"/>
            <path class="cls-12" d="m291.55,490.8c-2.97-.62-3.85-2.09-1.96-3.28s5.84-1.65,8.82-1.03,7.55,2.86,5.66,4.05-9.54.87-12.52.25Z"/>
            <path class="cls-36" d="m459.76,497.11c3.43,0,6.22,1.51,6.22,3.38s-2.78,3.38-6.22,3.38-10.5-1.51-10.5-3.38,7.06-3.38,10.5-3.38Z"/>
            <path class="cls-38" d="m503.57,487.04c2.57-.83,6.23-.85,8.17-.06s1.43,2.1-1.14,2.93-9.43,1.88-11.37,1.09,1.77-3.13,4.34-3.96Z"/>
            <path class="cls-37" d="m580.52,492.07c2.97.62,4.2,1.87,2.74,2.79s-5.06,1.16-8.04.54-7.9-2.65-6.44-3.56,8.76-.38,11.74.24Z"/>
            <path class="cls-28" d="m532.32,517.59c3.43,0,6.22.55,6.22,1.24s-2.78,1.24-6.22,1.24-10.5-.55-10.5-1.24,7.06-1.24,10.5-1.24Z"/>
            <path class="cls-47" d="m460.56,517.87c2.57.83,5.74,1.05,7.08.5s.34-1.66-2.23-2.49-8.94-2.08-10.28-1.53,2.86,2.69,5.43,3.51Z"/>
            <path class="cls-26" d="m366.69,510.66c3.43,0,6.22-.53,6.22-1.18s-2.78-1.18-6.22-1.18-10.5.53-10.5,1.18,7.06,1.18,10.5,1.18Z"/>
            <path class="cls-3" d="m578.9,519.63c-2.57-.83-6.55-.72-8.89.24s-2.15,2.4.42,3.23,9.75,1.75,12.09.79-1.05-3.43-3.62-4.25Z"/>
            <path class="cls-12" d="m487.26,524.53c-2.97.62-3.85,2.09-1.96,3.28s5.84,1.65,8.82,1.03,7.55-2.86,5.66-4.05-9.54-.87-12.52-.25Z"/>
            <path class="cls-36" d="m562.09,508.65c3.43,0,6.22-1.51,6.22-3.38s-2.78-3.38-6.22-3.38-10.5,1.51-10.5,3.38,7.06,3.38,10.5,3.38Z"/>
            <path class="cls-3" d="m238.79,508.11c2.57.83,6.55.72,8.89-.24s2.15-2.4-.42-3.23-9.75-1.75-12.09-.79,1.05,3.43,3.62,4.25Z"/>
            <path class="cls-12" d="m330.42,503.2c2.97-.62,3.85-2.09,1.96-3.28s-5.84-1.65-8.82-1.03-7.55,2.86-5.66,4.05,9.54.87,12.52.25Z"/>
            <path class="cls-36" d="m307.34,520.52c-3.43,0-6.22,1.51-6.22,3.38s2.78,3.38,6.22,3.38,10.5-1.51,10.5-3.38-7.06-3.38-10.5-3.38Z"/>
          </g>
        </g>
        <g>
          <path class="cls-17" d="m397.79,533.48c125.06,0,226.93-15.4,230.58-34.73,3.06-4.47,5.06-9.96,5.06-15.75v-19.41c0-5.75-2.05-11.1-5.06-15.55,0,0,0,0,0-.01,0-19.83-103.25-35.9-230.61-35.9s-230.61,16.07-230.61,35.9c0,0,0,0,0,.01-3.02,4.45-4.78,9.8-4.78,15.55v19.41c0,5.85,1.83,11.29,4.94,15.78,4.05,19.27,105.69,34.7,230.48,34.7"/>
          <path class="cls-20" d="m635.42,445.37c0-5.75-2.05-11.1-5.06-15.55,0,0,0,0,0-.01,0-19.83-103.25-35.9-230.61-35.9s-230.61,16.07-230.61,35.9c0,0,0,0,0,.01-3.02,4.45-4.78,9.8-4.78,15.55v19.41c0,5.85,1.83,11.29,4.94,15.78,4.05,19.27,100.64,34.45,225.44,34.45s231.98-15.15,235.63-34.47c3.06-4.47,5.06-9.96,5.06-15.75v-19.41Z"/>
          <ellipse class="cls-43" cx="393.67" cy="452.14" rx="18.34" ry="4.92"/>
          <ellipse class="cls-18" cx="395.01" cy="452.28" rx="30.37" ry="8.44"/>
          <ellipse class="cls-29" cx="396.38" cy="452.39" rx="54.35" ry="15.65"/>
          <ellipse class="cls-29" cx="394.73" cy="452.3" rx="90" ry="25"/>
          <ellipse class="cls-13" cx="393.8" cy="451.92" rx="111.84" ry="31.07"/>
          <ellipse class="cls-29" cx="393.47" cy="451.7" rx="158.76" ry="44.1"/>
          <path class="cls-29" d="m524.44,448.34c0,20.35-59.66,41.9-133.09,41.9s-132.81-21.56-132.81-41.9,59.38-33.47,132.81-33.47,133.09,13.12,133.09,33.47Z"/>
          <ellipse class="cls-6" cx="391.44" cy="452.98" rx="185.42" ry="52.91"/>
          <ellipse class="cls-9" cx="394.87" cy="454.79" rx="217.26" ry="60.35"/>
        </g>
        <g>
          <path class="cls-21" d="m629.86,411.84c0-5.75-2.05-11.1-5.06-15.55,0,0,0,0,0-.01,0-19.83-103.25-35.9-230.61-35.9s-230.61,16.07-230.61,35.9c0,0,0,0,0,.01-3.02,4.45-4.78,9.8-4.78,15.55v19.41c0,5.85,1.83,11.29,4.94,15.78,4.05,19.27,105.69,34.7,230.48,34.7s226.93-15.4,230.58-34.73c3.06-4.47,5.06-9.96,5.06-15.75v-19.41Z"/>
          <g>
            <path class="cls-21" d="m629.6,393.62c0-5.75-2.05-11.1-5.06-15.55,0,0,0,0,0-.01,0-19.83-103.25-35.9-230.61-35.9s-230.61,16.07-230.61,35.9c0,0,0,0,0,.01-3.02,4.45-4.78,9.8-4.78,15.55v19.41c0,5.85,1.83,11.29,4.94,15.78,4.05,19.27,105.69,34.7,230.48,34.7s226.93-15.4,230.58-34.73c3.06-4.47,5.06-9.96,5.06-15.75v-19.41Z"/>
            <path class="cls-48" d="m392.14,380.02l74.89-17.32c1.6-.37,2.98,1.16,2.44,2.71l-8.54,24.81c-.43,1.24.38,2.57,1.69,2.75l72.27,10.07c2.4.33,2.4,3.8,0,4.13l-72.27,10.07c-1.3.18-2.11,1.5-1.69,2.75l8.54,24.81c.53,1.55-.85,3.08-2.44,2.71l-74.89-17.32c-.31-.07-.63-.07-.94,0l-74.89,17.32c-1.6.37-2.98-1.16-2.44-2.71l8.54-24.81c.43-1.24-.38-2.57-1.69-2.75l-72.27-10.07c-2.4-.33-2.4-3.8,0-4.13l72.27-10.07c1.3-.18,2.11-1.5,1.69-2.75l-8.54-24.81c-.53-1.55.85-3.08,2.44-2.71l74.89,17.32c.31.07.63.07.94,0Z"/>
            <path class="cls-27" d="m342.7,415.33c3.92-3.47,8.75-4.42,10.79-2.11s.52,6.99-3.39,10.46-13.63,8.74-15.67,6.43,4.35-11.31,8.27-14.78Z"/>
            <path class="cls-27" d="m440.3,415.46c-4.03-3.34-8.89-4.13-10.86-1.75s-.29,7,3.74,10.34,13.91,8.29,15.88,5.91-4.72-11.16-8.76-14.5Z"/>
            <path class="cls-27" d="m349.7,384.4c4.53,2.62,6.96,6.9,5.42,9.57s-6.46,2.71-11,.09-12.6-10.16-11.06-12.83,12.11.55,16.64,3.17Z"/>
            <path class="cls-2" d="m328.21,402.34c5.24,0,9.48,1.27,9.48,2.84s-4.24,2.84-9.48,2.84-16-1.27-16-2.84,10.76-2.84,16-2.84Z"/>
            <path class="cls-27" d="m440.07,394.28c-4.03,3.34-8.89,4.13-10.86,1.75s-.29-7,3.74-10.34,13.91-8.29,15.88-5.91-4.72,11.16-8.76,14.5Z"/>
            <path class="cls-2" d="m451.28,402.31c-5.24,0-9.48,1.27-9.48,2.84s4.24,2.84,9.48,2.84c5.24,0,16-1.27,16-2.84s-10.76-2.84-16-2.84Z"/>
            <ellipse class="cls-2" cx="391.67" cy="402.62" rx="23.06" ry="6.47"/>
          </g>
        </g>
        <g>
          <g>
            <path class="cls-4" d="m407.34,202.08l69.35,63.22c.8.73-44.11-39.58-62.11-56.37-1.9-1.77-.07-4.89,2.4-4.09,0,0,8.22,2.63,20,6.4,1.96.63,4.03,1.29,6.17,1.97,11.86,4.54,21.98,11.29,34.92,11.29,2.81.56,5.62,1.69,8.62,3.34,1.76.87,3.54,1.68,5.33,2.43,8.96,3.77,18.24,6.13,27.68,7.22,1.89.22,3.78.39,5.68.5,22.98-.56,46.04-3.38,69.1-1.13,2.25.56,1.69,5.06,2.68,8.09.2,1.41.35,2.98.63,4.72,7.94,19.81,20.31,37.81,2.88,57.5-1.12,1.12-1.12,3.94-.86,6.35,0,1.23.02,2.47.03,3.71.19,28.41-.3,56.39-1.54,69.15-.24,2.44-3.52,3.03-4.6.84l-33.45-67.69c-1.27-2.57-5.18-1.21-4.57,1.59.18.8.55,1.57,1.13,2.24l52.1,60.61c.29.33,15.8,23.24,16.03,23.62,7.17,12.29-13.05,5.53-25.87,11.53-.64.3-40.35-1.43-41.06-1.4l-8.34,2.21c-1.72.46-3.66.97-5.68,1.64-16.99,10.48-36.11,11.04-55.33,14.54l-3.57.95c-10.27,2.72-17.42,4.62-17.42,4.62-.83.14-1.68-.16-2.24-.79l-14.3-16.27c-.67-.76-1.74-1.03-2.69-.67l-47.36,17.96c-1.14.02,17.95-17.55,17.05-16.84-8.41,6.61-15.43,21.82-23.8,15.16-.78-.62-51.76-3.98-58.83-4.45-.52-.03-1.01-.23-1.4-.57l-18.28-15.39c-.63-.53-1.49-.71-2.27-.47-4.23,1.31-15.68,6.62-19.44,7.34-.51.1-1.04.03-1.5-.2,0,0-23.46-11.26-35.19-16.89l-4.72-2.27c-.74-.59-1.31-.59-1.87-.59,1.69-2.81,9.56-7.31,4.5-7.87-19.69-1.12-38.25,0-54.34-13.08-1.81-.56-3.79-1.1-5.84-1.67l-12.47-3.43c-2.38-.65-4.6-1.26-6.49-1.78-4.09-2.54-15.34-1.41-12.53-5.35,13.5-19.69,19.69-38.25,12.37-60.18-1.12-3.37,2.81-7.87,6.67-8.52,1.4-.38,2.92-.52,4.53-.48,8.03.2,18.18,4.75,25.91,5.18l5.31,1.14,2.12.46c2.07.44-1.37.61-6.9.52-1.9-.04-4.03-.11-6.31-.22-3.33-1.2-7.38-1.37-11.63-1.2-2.13.08-4.3.26-6.48.5-7.59,1.51-16.02,2.07-21.49-4.06-1.1-1.34-1.92-3.01-2.41-5.12-2.25-9.56,6.19-18.56.48-28.17-.39-1.42-.65-2.83-.73-4.25-.43-7.1,3.48-14.26,9.81-19.88,7.31-6.19,16.87-7.31,25.31-11.81,3.94-2.25,8.44-4.5,12.08-7.2,1.06-.72,2.09-1.42,3.08-2.1,6.95-4.73,12.6-8.23,15.21-9.24.64-.25,1.36-.21,1.97.1,0,0,12.36,6.21,28.15,14.15,1.21.61,2.45,1.23,3.7,1.86,14.55,9.17,28.61,18.17,45.48,22.67,3.94,1.12,6.75,3.94,10.41,5.43,1.46.74,2.73,1.37,3.77,1.89,2.07,1.04,3.22,1.62,3.22,1.62.21.01-1.97-1.12-5.86-3.06-1.3-.65-2.78-1.38-4.38-2.18-17.28-7.64-36.4-13.26-51.64-25.4-1.22-.64-2.42-1.24-3.6-1.82-9.44-4.68-17.81-8.88-23.3-11.73-2.15-1.12-1.52-4.34.89-4.58l14.04-1.38,5.62-.55c12.03-2.68,19.91,7.44,31.16,9.69,1.12,0,2.81,0,3.94-.56,8.44-5.06,15.19-16.87,26.21-11.66,1.77.63,3.54,1.33,5.32,1.98,5.32,1.95,10.66,3.5,16.28,1.81,7.31-2.81,12.94-10.12,20.56-11.25,1.41-.26,2.82-.42,4.2-.55,19.31-1.89,32.95-3.23,32.95-3.23.42-.04.82-.19,1.16-.43,1.96-1.42,4.68-1.3,6.51.36Z"/>
            <path class="cls-5" d="m607.28,409.56l-95.95-36.22c-1.45-.63-2.9-1.21-4.35-1.79-10.35-4.75-19.35-10.38-29.48-13.19-13.5-3.94-26.44-8.44-39.41-12.57-1.2-.42-2.65-.93-4.32-1.52-12.41-4.38-36.65-12.92-55.14-19.44-1.16-.41-2.29-.81-3.41-1.2-27.08-8.02-52.39-22.08-80.89-19.84-2.47-.29-4.81-.59-6.93-.91-6.36-.94-10.71-1.96-10.34-3.01h0c.37-1.05,5.11-1.53,11.67-1.66,1.09-.02,2.23-.03,3.41-.04,9.87,0,21.12-3.94,29.56-.57,26.44,10.12,52.31,18.56,78.81,27.81l4.42,1.6,18.38,6.66,4.59,1.67c29.35,8.94,58.6,14.56,84.87,30.78l4.49,1.63c46.11,16.72,82.65,29.98,82.65,29.98,3.5,1.23,25.98,6.06,24.75,9.56l-5.06,8.44c-1.23,3.5-8.83-4.95-12.33-6.19Z"/>
            <path class="cls-5" d="m409.69,329.35l-2.98-3.86c-.93-1.21-2.07-2.65-3.88-4.29-9.69-8.97-22.06-12.34-33.88-19.66-2.25-1.69-5.06-3.94-3.94-6.19,3.37-8.44,5.06-18-1.44-25.08-.72-1-1.53-2.07-2.37-3.16-6.2-7.62-13.63-16.77-13.63-16.77,0,0-1.46-1.82-2.92-3.62-4.38-6.49-12.26-8.74-17.88-14.36,9,2.25,16.87,7.31,21.9,14.55,1.02,1.28,2.18,2.73,3.45,4.33l11.95,15.01c.75.94,1.51,1.89,2.25,2.86,8.82,8.25,2.64,17.81,1.51,27.37,0,2.25,3.37,3.94,6.19,5.62,12.37,6.75,25.87,11.81,35.87,21.79.48.54,2.31,2.26,3.84,3.97s2.81,3.41,2.21,3.9l-3.6,1.98c-1.21.98-1.78-3.34-2.65-4.41Z"/>
            <path class="cls-5" d="m482.28,353.04c-7.02-9.31-17.7-15.5-22.2-26.18-.7-1.62-1.41-3.23-2.12-4.82s-1.43-3.18-2.16-4.75c-5.85-10.67-18.78-13.48-29.47-17.98-2.81-1.12-6.19-2.81-7.31-5.06-2.81-8.44,7.87-12.94,6.54-20.75-.49-2.06-1.84-3.95-1.84-3.95-.82-1.11-16.45-12.41-15.19-13.33h0c1.25-.92,16.53,10,17.35,11.11,0,0,.64.89,1.68,2.58,3.84,6.91-2.35,13.66-4.6,19.84-.56,1.12,0,2.25.56,3.37,11.25,9.56,28.12,10.12,35.25,23.6.8,1.58,1.58,3.17,2.36,4.77.78,1.6,1.55,3.21,2.33,4.82,5.62,10.69,15.75,18,24.75,27,1.12,1.69,3.94,3.37,2.25,5.06-.56,1.12-4.5,3.94-5.07-.54-.98-1.68-2.23-3.85-3.11-4.77Z"/>
            <path class="cls-5" d="m552.37,383.33l-28.14-59.53-15.39-31.04-4.12-8.38c-.62-1.24-12.76-15.71-11.71-16.23h0c1.05-.52,12.93,13.52,13.54,14.75l46.49,95.59c.62,1.24,5.22,8.44,4.16,8.96l-3.06.7c-1.05.52-1.16-3.57-1.77-4.81Z"/>
            <path class="cls-5" d="m370.93,317.99c-15.48,1-31.79.43-47.28,2.58l-6.77.38-10.27.57-34.64,1.06-9.34.33c-1.38.04-19.91-5.29-19.87-3.73h0c.05,1.56,18.07,6.84,19.45,6.8,0,0,36.14-1.48,66.26-2.71,1.43-.06,2.85-.12,4.25-.18,14.86-.73,30.05-.17,44.67-1.85,2.25-.56-.56-2.25-1.28-4.16-.92-1.51-3.66.86-5.18.92Z"/>
            <path class="cls-5" d="m469.75,354.3c-3.48,4.06-8.54,5.18-13.51,5.3l-3.74.39c-19.19,2-44.77,4.67-44.77,4.67l-34.54,2.74-9.31.78c-1.38.11-20.15-4.32-20.02-2.77h0c.12,1.55,18.38,5.96,19.76,5.85,0,0,64.05-5.73,92.51-8.27,2.03-.18,3.89-.36,5.52-.54,5.19-.71,10.82-1.28,13.63-5.21,1.69-1.69-1.69-4.5-3.2-6.66-1.38-2.49-1.54,3.01-2.32,3.72Z"/>
            <path class="cls-5" d="m529.59,381.45l-63.43,17.66-33.55,8.67-9.04,2.37c-1.34.34-20.23.63-19.94,1.77h0c.29,1.14,18.68.94,20.02.59l102.71-27.38c1.34-.34,9.79-1.57,9.5-2.71l-1.48-2.77c-.29-1.14-3.46,1.46-4.8,1.81Z"/>
          </g>
          <g>
            <path class="cls-10" d="m407.26,195.03l69.35,63.22c.8.73-44.11-39.58-62.11-56.37-1.9-1.77-.07-4.89,2.4-4.09,0,0,8.22,2.63,20,6.4,1.96.63,4.03,1.28,6.15,2.07,13.63,9.8,29.94,12.61,45.77,16.3,1.68.82,3.35,1.7,5.04,2.55,5.08,2.53,10.35,4.72,16.26,5.57,3.23.42,6.43.6,9.61.62,1.59.01,3.17-.01,4.76-.06,23.32-1.68,46.38-5.06,68.88-.56,3.8.84,4.11,6.43,4.32,12,.07,1.86.13,3.71.3,5.38,1.01,15.24,18.44,28.18,11.69,42.8-3.94,7.87-11.25,14.62-9.88,24.31,0,1.21,0,2.42.01,3.63.05,25.31-.46,49.07-1.57,60.54-.24,2.44-3.52,3.03-4.6.84l-33.45-67.69c-1.27-2.57-5.18-1.21-4.57,1.59.18.8.55,1.57,1.13,2.24l52.1,60.61c.29.33,15.8,23.24,16.03,23.62,7.17,12.29-13.05,5.53-25.87,11.53-.64.3-40.35-1.43-41.06-1.4l-8.34,2.21-5.78,1.53c-17.38,8.63-35.94,11.44-55.23,14.65l-3.58.95c-10.27,2.72-17.42,4.62-17.42,4.62-.83.14-1.68-.16-2.24-.79l-14.3-16.27c-.67-.76-1.74-1.03-2.69-.67l-47.36,17.96c-1.14.02,17.95-17.55,17.05-16.84-8.41,6.61-15.43,21.82-23.8,15.16-.78-.62-51.76-3.98-58.83-4.45-.52-.03-1.01-.23-1.4-.57l-18.28-15.39c-.63-.53-1.49-.71-2.27-.47-4.23,1.31-15.68,6.62-19.44,7.34-.51.1-1.04.03-1.5-.2,0,0-19.71-9.46-32.03-15.37l-3.16-1.51c-2.02-.88-4.27-2-7.08-2.57,2.25-2.81,7.31-5.62,6.19-6.75-7.31-7.31-18.56,1.69-28.12-.56-8.44-2.81-15.75-7.87-23.08-12.38-1.41-.7-3.2-1.25-5.16-1.84l-6.26-1.72c-1.25-.34-2.52-.69-3.78-1.04-8.4-4.95-26.96-4.95-24.71-8.33,14.62-18.56,14.06-38.81,6.19-57.93-1.12-2.81,1.69-5.06,3.17-7.76,1.26-1.28,2.7-2.21,4.28-2.87,9.49-3.94,24.02,2.15,34.08,3.7l5.31,1.14,2.12.46c2.07.44-1.37.61-6.9.52-1.95-.05-4.13-.13-6.52-.26-4.47-1.89-10.5-1.42-16.42-.76-1.97.22-3.93.46-5.82.63-4.3.14-9.36,1.27-13.23-2.27-.87-.92-1.48-2.16-1.76-3.77-1.69-8.44,4.5-18-1.71-25.39-.79-1.34-1.59-2.68-2.24-4.05-1.3-2.74-2.05-5.62-1.68-8.81,3.37-18,24.75-20.25,38.22-29.78,1.14-.82,2.26-1.62,3.36-2.41,11.04-7.92,20.99-14.45,24.72-15.89.64-.25,1.36-.21,1.97.1,0,0,12.36,6.21,28.15,14.15,1.21.61,2.45,1.25,3.72,1.93,9.54,6.02,17.42,15.58,28.67,19.52,10.69,3.37,21.94,3.94,30.98,10.41l3.25,1.63c.14,0-.8-.5-2.59-1.42-.9-.46-2.01-1.02-3.29-1.66-3.04-1.66-5.85-3.91-9.22-3.91-20.25-1.69-34.31-15.19-50.41-25.5-1.18-.59-2.34-1.16-3.49-1.73-8-3.98-15.01-7.5-19.81-10-2.15-1.12-1.52-4.34.89-4.58,0,0,5.33-.52,14.04-1.38l5.62-.55c10.98-1.83,20.54,4.92,31.79,3.8,6.19-.56,10.69-5.06,16.31-7.31,3.37-1.12,7.31-1.12,10.44.08,1.31.37,2.62.8,3.92,1.25,3.92,1.35,7.86,2.89,12.08,3.74,2.81.56,5.62-.56,7.87-1.12,7.31-3.37,12.94-9,21.03-10.48,1.43-.2,2.84-.36,4.22-.49,19.31-1.89,32.95-3.23,32.95-3.23.42-.04.82-.19,1.16-.43,1.96-1.42,4.68-1.3,6.51.36Z"/>
            <path class="cls-33" d="m607.21,402.51l-95.95-36.22c-1.49-.84-2.98-1.52-4.52-2.25-9.54-5.12-19.1-11.31-29.23-14.69-16.31-6.19-33.19-8.44-49.43-14.11l-3.21-1.13-21.82-7.69-3.93-1.39c-25.67-8.86-51.54-16.17-77.41-26.86-7.87-3.37-18,0-27.47-1.48-2.45-.23-4.79-.53-6.91-.85-6.36-.94-10.71-1.96-10.34-3.01h0c.37-1.05,5.11-1.53,11.67-1.66,1.09-.02,2.23-.03,3.41-.05,10.51.3,21.76-4.77,30.76-.27,30.94,16.31,64.12,21.37,95.8,34.13,1.56.55,3.09,1.1,4.61,1.65,31.77,6.4,62.15,14.27,89.38,32.08,1.55.66,3.07,1.27,4.57,1.99,46.11,16.72,82.65,29.98,82.65,29.98,3.5,1.23,25.98,6.06,24.75,9.56l-5.06,8.44c-1.23,3.5-8.83-4.95-12.33-6.19Z"/>
            <path class="cls-41" d="m409.3,322.3c-9.41-8.37-21.22-13.44-32.47-19.06-3.37-2.25-10.12-5.62-7.87-9.56,3.94-7.87,6.75-16.31.36-23.48,0,0-1.03-1.33-2.71-3.4l-13.43-16.52c-1.62-1.99-3.04-3.73-4.04-4.96-5.48-9.01-15.04-12.39-22.35-19.14,9.56,4.5,19.69,8.44,25.28,18.04,1.27,1.58,2.65,3.32,4.13,5.17l13.96,17.53c.84,1.05,1.68,2.11,2.5,3.18,7.58,6.7,2.51,14.57.26,22.45-1.12,3.37,1.69,6.19,4.5,8.44,12.94,9,28.69,11.81,38.39,23.75l-3.52,1.99c-1.21.98-1.94-3.35-2.97-4.43Z"/>
            <path class="cls-41" d="m477.08,342.13c-6.32-6.27-13.07-12.46-15.32-20.9-.42-1.48-.89-2.92-1.4-4.33-.57-1.38-1.17-2.72-1.88-4-7.42-10.79-20.92-11.92-31.6-18.67-1.12-.56-1.69-2.25-1.69-3.37,1.69-9,8.44-16.87,1.19-24.59l-2.75-3.78c-.82-1.11-16.45-12.41-15.19-13.33h0c1.25-.92,16.53,10,17.35,11.11l5.34,7.42c.63,1.81,1.47,3.76,1.84,6.01,1.78,6.47-5.53,13.78.09,18.28,9.56,8.44,24.19,10.69,29.87,23.13.78,1.55,1.53,3.11,2.27,4.69.74,1.58,1.46,3.18,2.16,4.8,3.94,9.56,14.62,14.62,20.25,23.62-2.25.56-5.62,2.81-6.93-1.18-1.23-1.76-2.67-3.98-3.62-4.93Z"/>
            <path class="cls-30" d="m552.29,376.28l-28.14-59.53-15.39-31.04-4.12-8.38c-.62-1.24-12.76-15.71-11.71-16.23h0c1.05-.52,12.93,13.52,13.54,14.75l46.49,95.59c.62,1.24,5.22,8.44,4.16,8.96l-3.06.7c-1.05.52-1.16-3.57-1.77-4.81Z"/>
            <path class="cls-41" d="m366.87,311.08c-21.54-2.22-42.35,2.28-62.9,3.46-1.6.06-3.85.13-6.41.21-10.26.32-25.66.79-25.66.79l-9.34.33c-1.38.04-19.91-5.29-19.87-3.73h0c.05,1.56,18.07,6.84,19.45,6.8l39.95-1.63,4.34-.18c23.15-2.64,45.65-2.07,68.71-3.2-1.69-1.12-2.81-2.25-4.32-3.63-1.61-1.57-2.5.79-3.95.79Z"/>
            <path class="cls-41" d="m464.61,343.48c-2.28,7.01-9.59,9.82-16.12,9.86-1.31.15-2.66.29-4.01.43-17.62,1.84-36.83,3.84-36.83,3.84l-34.54,2.74-9.31.78c-1.38.11-20.15-4.32-20.02-2.77h0c.12,1.55,18.38,5.96,19.76,5.85l82.26-7.35,3.64-.33c7.84.14,16.28-2.11,20.21-9.42,1.69-3.37-2.25-5.06-3.39-7.97-1.1-2.36-1.13,3.39-1.64,4.34Z"/>
            <path class="cls-30" d="m529.51,374.41l-63.43,17.66-33.55,8.67-9.04,2.37c-1.34.34-20.23.63-19.94,1.77h0c.29,1.14,18.68.94,20.02.59l102.71-27.38c1.34-.34,9.79-1.57,9.5-2.71l-1.48-2.77c-.29-1.14-3.46,1.46-4.8,1.81Z"/>
          </g>
        </g>
        <g>
          <path class="cls-52" d="m621.29,281.91c0-6.46-2.05-12.47-5.06-17.47,0,0,0-.01,0-.02,0-22.27-103.45-121.27-230.82-121.27s-230.41,99-230.41,121.27c0,0,0,.01,0,.02-3.02,5-4.78,11.01-4.78,17.47v21.8c0,6.57,1.83,12.68,4.94,17.72,4.05,21.65,105.56,30.83,230.35,30.83s227.07-9.15,230.72-30.86c3.06-5.02,5.06-11.18,5.06-17.69v-21.8Z"/>
          <path class="cls-40" d="m200.7,274.53c2.57-2.28,5.74-2.9,7.08-1.39s.34,4.59-2.23,6.86-8.94,5.73-10.28,4.22,2.86-7.42,5.43-9.7Z"/>
          <path class="cls-35" d="m542.41,292.95c3.43,0,6.22,1.53,6.22,3.42s-2.78,3.42-6.22,3.42-10.5-1.53-10.5-3.42,7.06-3.42,10.5-3.42Z"/>
          <path class="cls-24" d="m376.78,273.82c3.43,0,6.22-1.46,6.22-3.25s-2.78-3.25-6.22-3.25c-3.43,0-10.5,1.46-10.5,3.25s7.06,3.25,10.5,3.25Z"/>
          <path class="cls-40" d="m490.48,250.33c1.23,3.21.69,6.39-1.2,7.12s-4.41-1.3-5.64-4.5-2.21-10.39-.32-11.11,5.94,5.29,7.16,8.5Z"/>
          <path class="cls-35" d="m263.56,287.69c-1.21,3.21-3.62,5.28-5.39,4.62s-2.21-3.81-1-7.02,5.13-9.28,6.9-8.62.71,7.81-.5,11.03Z"/>
          <path class="cls-24" d="m281.93,242.38c-1.21,3.21-.83,6.33.85,6.97s4.03-1.46,5.24-4.67,2.34-10.33.66-10.97-5.53,5.46-6.75,8.67Z"/>
          <path class="cls-24" d="m335.93,213.14c-1.21,3.21-.83,6.33.85,6.97s4.03-1.46,5.24-4.67,2.34-10.33.66-10.97-5.53,5.46-6.75,8.67Z"/>
          <path class="cls-40" d="m218.06,219.17c2.57,2.28,5.74,2.9,7.08,1.39s.34-4.59-2.23-6.86-8.94-5.73-10.28-4.22,2.86,7.42,5.43,9.7Z"/>
          <path class="cls-35" d="m403.97,320.55c3.43,0,6.22-1.53,6.22-3.42s-2.78-3.42-6.22-3.42-10.5,1.53-10.5,3.42,7.06,3.42,10.5,3.42Z"/>
          <path class="cls-24" d="m387.4,182.75c3.43,0,6.22,1.46,6.22,3.25s-2.78,3.25-6.22,3.25c-3.43,0-10.5-1.46-10.5-3.25s7.06-3.25,10.5-3.25Z"/>
          <path class="cls-40" d="m501.09,206.25c1.23-3.21.69-6.39-1.2-7.12s-4.41,1.3-5.64,4.5-2.21,10.39-.32,11.11,5.94-5.29,7.16-8.5Z"/>
          <path class="cls-35" d="m288.24,182.95c-1.21-3.21-3.62-5.28-5.39-4.62s-2.21,3.81-1,7.02,5.13,9.28,6.9,8.62.71-7.81-.5-11.03Z"/>
          <path class="cls-24" d="m318.99,303.63c-1.21-3.21-.83-6.33.85-6.97s4.03,1.46,5.24,4.67,2.34,10.33.66,10.97-5.53-5.46-6.75-8.67Z"/>
          <path class="cls-40" d="m349.12,163.34c2.57-2.28,5.74-2.9,7.08-1.39s.34,4.59-2.23,6.86-8.94,5.73-10.28,4.22,2.86-7.42,5.43-9.7Z"/>
          <path class="cls-35" d="m569.9,263.89c3.43,0,6.22,1.53,6.22,3.42s-2.78,3.42-6.22,3.42c-3.43,0-10.5-1.53-10.5-3.42s7.06-3.42,10.5-3.42Z"/>
          <path class="cls-24" d="m418.33,223.39c3.43,0,6.22-1.46,6.22-3.25s-2.78-3.25-6.22-3.25c-3.43,0-10.5,1.46-10.5,3.25s7.06,3.25,10.5,3.25Z"/>
          <path class="cls-40" d="m562.96,219.58c1.23,3.21.69,6.39-1.2,7.12s-4.41-1.3-5.64-4.5-2.21-10.39-.32-11.11,5.94,5.29,7.16,8.5Z"/>
          <path class="cls-35" d="m450.23,287.88c-1.21,3.21-3.62,5.28-5.39,4.62s-2.21-3.81-1-7.02,5.13-9.28,6.9-8.62.71,7.81-.5,11.03Z"/>
          <path class="cls-24" d="m429.79,186.89c-1.21,3.21-.83,6.33.85,6.97s4.03-1.46,5.24-4.67,2.34-10.33.66-10.97-5.53,5.46-6.75,8.67Z"/>
        </g>
      </g>
      <text/>
      <g>
        <path class="cls-8" d="m113.62,219.58c-3.14,3.19-4.69,4.82-7.77,8.12-5.35,5.82-9.14,10.3-11.35,13.19-1.98,2.59-3.4,4.51-4.31,5.6-2.22,2.66-4.53,4.36-6.94,5.05-2.37.67-4.37.39-5.94-.86-1.02-.81-1.59-1.75-1.7-2.81-.11-1.06.13-3.23.76-6.52.36-1.91-.01-3.75-1.12-5.52-1.11-1.77-3.92-5.1-8.41-9.87-8.58-9.11-18.06-17.51-27.55-25.65-4.12-3.54-7.27-5.48-9.32-5.83-2.05-.35-4.81.58-8.16,2.89-3.88,2.66-6.8,3.32-8.77,1.75-1.61-1.28-2.07-3.41-1.34-6.4.73-2.99,2.49-6.18,5.3-9.52,1.54-1.83,3.59-4.11,6.11-6.81,4.19-4.48,8.7-9.37,13.54-14.51,6.95-7.39,14.05-14.71,21.26-21.81,3.35-3.3,6.5-6.2,9.34-8.74,6.75-6.03,12.65-10.3,17.54-12.99,4.88-2.69,9.66-4.29,14.26-4.82,7.51-.89,13.14,1.44,16.98,6.67,1.91,2.6,3.02,5.68,3.39,9.22.37,3.54-.1,6.95-1.4,10.25-.92,2.36-1.03,3.97-.37,4.82.72.92,2.34.89,4.85-.04,4.91-1.83,10.1-2.46,15.46-1.84,5.54.64,9.92,3.4,13.19,8.06,3.86,5.51,4.8,12.31,3.48,20.18-2.01,11.9-10.87,22.14-19.67,29.83-1.53,1.33-5.38,4.52-11.37,9.82-5.46,4.82-8.75,7.94-9.96,9.09Zm-48.84-58.55c4.02,4.14,6.03,6.21,10.05,10.35,1.59,1.64,3,2.52,4.22,2.64s2.52-.5,3.94-1.85c3.37-3.22,5.16-6.3,5.37-9.37.2-3.06-1.18-6.28-4.2-9.66-2.93-3.27-6.06-5.03-9.43-5.21-3.37-.18-6.68,1.23-9.87,4.27-1.69,1.61-2.54,3.06-2.55,4.35-.01,1.28.81,2.77,2.47,4.48Zm28.1,28.94c1.85,1.91,2.78,2.86,4.63,4.77,4.26,4.39,7.49,6.91,9.67,7.59,2.18.68,4.46-.13,6.88-2.4,6.34-5.95,6.51-11.9,1.4-18.12-5.74-6.98-15.24-7.71-21.71-1.23-1.84,1.85-2.99,3.47-3.12,4.83-.13,1.36.62,2.88,2.25,4.55Z"/>
        <path class="cls-8" d="m257.95,62.63c2.08,6.51,3.13,9.76,5.21,16.27,3.15,9.83,4.48,17.07,4.09,21.71-1.16,11.12-8.55,20.35-17.09,27.04-6.54,5.51-14.69,10.4-22.44,13.81-13.26,5.84-26.63,10.55-41.46,10.05-6.2-.35-11.42-1.85-15.61-4.65-4.2-2.8-8.71-7.83-13.46-15.16-1.85-2.86-4.77-7.68-8.76-14.36-2.82-4.72-4.74-7.84-5.7-9.33-2.1-3.26-3.89-5.3-5.38-6.11-1.48-.82-3.71-1.04-6.69-.63-4.65.69-7.69.07-9.09-1.97-1.03-1.5-1.03-3.46.02-5.86s2.97-4.83,5.74-7.25c6.36-5.57,13.84-10.77,21.19-14.81,7.87-4.33,15.95-8.6,24.59-11.35,6.74-2.14,11-1.35,12.72,2.23.85,1.77.63,3.61-.63,5.52-.28.45-1.68,1.93-4.16,4.49-1.52,1.5-2.21,3.19-2.06,5.06.15,1.87,1.16,4.57,2.96,8.09,4,7.78,7.73,15.78,11.49,23.71,3.45,7.26,8.67,11.41,15.45,12.74,5.55,1.09,11.41.19,17.76-2.64,4.03-1.8,7.43-4,10.23-6.64,2.8-2.64,4.64-5.43,5.56-8.31.72-2.23.99-4.51.72-6.81-.27-2.29-1.09-5.25-2.47-8.88-2.2-5.76-3.3-8.64-5.49-14.4-4.49-10.93-7.39-17.24-8.67-18.92-1.28-1.68-3.78-2.47-7.43-2.25-3.44.2-5.92.17-7.38-.18-1.46-.36-2.45-1.13-2.95-2.34-1.08-2.58.25-5.37,4.08-8.29,3.83-2.92,10.56-6.27,20.25-9.66,9.5-3.33,16.66-4.87,21.32-4.96,4.66-.09,7.36,1.24,8.13,3.88.38,1.3.29,2.37-.26,3.21-.55.84-2.18,2.36-4.86,4.58-2.78,2.31-4.14,4.32-4.1,6,.04,1.68,1.58,7.47,4.63,17.38Z"/>
        <path class="cls-8" d="m307.11,12.74c7.2-1.3,14.16-2,20.72-2,8.83,0,13.46,2.22,13.95,6.29.16,1.35-.14,2.4-.9,3.17-.76.77-2.78,2.03-6.01,3.76-2.69,1.45-4.23,4.05-4.59,7.78s.24,10.85,1.83,21.24c1.66,10.82,2.96,22.05,6.44,32.53.57,1.29,1.3,2.23,2.18,2.84.88.61,2.34,1.19,4.37,1.77,3.71.93,5.7,2.75,6.01,5.39.44,3.71-2.45,6.61-8.54,8.87-7.8,2.9-16.51,4.78-24.44,6.5-6.38,1.38-24.03,5.31-27.01-2.49-.68-1.77.57-4.37,3.45-7,2.2-2.01,3.32-4.3,3.16-6.72-.71-11.02-3.92-22.4-6.54-33.29-2.79-11.58-5.42-18.86-7.8-21.74-1.31-1.65-3.8-2.79-7.35-3.47-2.78-.53-4.76-1.13-5.83-1.7-1.08-.58-1.79-1.49-2.14-2.75-.54-1.93.31-3.83,2.57-5.67,2.26-1.84,6.62-4.04,12.9-6.54,7.4-2.94,15.71-5.36,23.57-6.78Z"/>
        <path class="cls-8" d="m408.58,36.3c-.2,10.71-.39,21.42-.59,32.13-.13,7.23.52,11.94,1.94,14.04,1.7,2.51,5.43,3.83,11.13,4.12,6.13.3,11.04-.49,14.81-2.52,3.77-2.02,6.69-5.42,8.58-10.17,1.16-2.9,3.21-4.25,6.18-3.91,2.97.34,5.25,1.75,6.82,4.19,1.57,2.44,2.08,5.43,1.59,8.94-.8,5.73-4.16,11.49-9.74,17.45-1.76,1.9-3.24,3.18-4.46,3.82-1.22.64-2.62.88-4.22.72-6.78-1.44-10.19-2.09-17.05-3.24-18.21-.83-36.21-.67-54.39.48-3.57.27-6.11.13-7.64-.48-2.23-.87-3.46-2.36-3.68-4.49-.13-1.3.12-2.3.77-3,.65-.7,2.29-1.78,4.96-3.17,2.91-1.52,4.76-3.44,5.44-5.77.57-1.95.52-7.55-.13-16.77-.3-4.28-.87-10.45-1.75-18.47-.84-7.7-1.49-13.54-1.8-17.42-.3-3.69-.84-6.25-1.72-7.56-.88-1.31-2.58-2.18-5.11-2.58-4.18-.72-6.89-1.31-8.07-1.85-2.11-.96-3.26-2.17-3.42-3.66-.37-3.39,3.18-6.4,10.74-8.83,8.54-2.74,17.65-3.39,26.4-3.83,9.14-.46,18.85-.28,27.95,1.3,7.86,1.37,11.74,4.2,11.56,7.98-.07,1.54-.65,2.66-1.72,3.35-1.07.7-3.64,1.59-7.66,2.73-2.39.73-3.91,2.05-4.57,3.95-.66,1.9-1.04,6.07-1.16,12.51Z"/>
        <path class="cls-8" d="m490.24,111.27c-2.2-.5-3.3-.74-5.5-1.21-3.21-.68-6.85-1.28-10.88-1.72-2.54-.28-4.3-.48-5.27-.65-3.43-.58-6.11-1.73-8.06-3.49-1.95-1.75-2.78-3.77-2.45-6.09.23-1.62.89-2.81,2-3.57,1.11-.76,2.85-1.29,5.14-1.46,2.16-.16,3.75-.64,4.67-1.55.92-.91,1.89-2.84,2.8-5.74,1.05-3.33,2.63-10.04,4.72-19.93,2.08-9.82,4.03-19.74,5.81-29.62.69-3.85.74-6.51.17-7.93s-2.31-2.77-5.12-4.05c-4.06-1.84-5.93-4.24-5.5-7.15.34-2.26,2.1-3.81,5.31-4.61,3.21-.8,7.54-.75,12.93.24,1.77.32,3.87.73,6.26,1.26,5.27,1.16,9.12,2.08,11.51,2.61,10.19,2.23,20.39,4.6,30.51,7.07,2.39.58,5.44,1.37,8.9,2.49,11.14,3.61,22.36,7.83,32.03,14.92,9.28,6.8,16.56,16.69,19.1,27.91,2.21,9.76-.45,19.39-4.06,27.93-1.96,4.64-5.43,9.11-9.39,13.11-3.96,4-8.14,7.12-12.55,9.4-9.34,4.67-19.89,6.27-30.25,5.47-6.59-.47-13.2-1.78-19.97-3.93-3.58-1.25-5.38-1.86-8.98-3.03-3.1-.99-4.66-1.47-7.78-2.4-6.05-1.83-11.43-3.22-16.1-4.28Zm35.85-69.3c-4.74,17.44-9.47,34.87-14.21,52.31-.77,2.84-.61,5.05.48,6.63,1.08,1.58,3.3,2.8,6.52,3.78,16.59,5.09,27.91-7.55,33.04-21.95,3-8.43,5.31-18.24,3.05-27.12-2.29-9.03-10.86-14.69-19.46-17.05-2.87-.79-5.06-.97-6.47-.43s-2.39,1.82-2.94,3.85Z"/>
        <path class="cls-8" d="m733.13,198.57c-2.9,10.71-6.13,21.33-9.7,31.83-.95,2.92-1.41,5.04-1.35,6.38s.66,2.94,1.83,4.8c2.26,3.61,2.26,6.35-.01,8.15-2.67,2.12-6.25,1.63-10.51-1.32-6.61-4.58-12.24-11.09-17.74-16.94-6.35-6.76-12.97-13.56-18.73-20.79-1.73-2.17-2.77-4.32-3.11-6.37-.35-2.05.07-3.76,1.29-5.12.93-1.04,1.98-1.56,3.15-1.54,1.16.02,2.85.59,5.04,1.73,2.46,1.27,4.31,1.29,5.52,0,2.14-2.28,1.71-5.28-1.39-8.85-3.32-3.83-8.48-8.79-15.5-14.6-5.91-4.89-9.76-7.37-11.4-7.68-1.01-.19-2.15,0-3.43.54-1.28.55-2.25,1.28-2.93,2.17-.62.82-.83,1.49-.64,2.02.19.53,1.12,1.91,2.77,4.05,2.13,2.76,2.45,5.63.87,7.12-5.77,5.45-17.49-3.01-23.63-7.41-7.05-5.06-12.18-8.95-15.03-12.01-2.63-2.83-3.11-5.66-1.36-8.48.76-1.23,1.71-1.96,2.85-2.18,1.14-.22,2.82-.02,5.03.62,3.59,1.04,6.71,1.29,9.34.72,2.63-.57,7.16-2.51,13.73-5.67,7.49-3.63,15.12-7.06,22.8-10.26,8.53-3.56,14.77-6.24,18.51-8.33,3.74-2.09,6.82-4.59,9.2-7.53,2.52-3.12,4.51-5.11,5.97-5.95,1.46-.84,3.51-1.17,6.17-.96,5.65.34,11.32,2.86,16.84,7.62,5.21,4.49,9.08,10.4,10.97,17.27,4.95,18-1.02,39.12-5.45,56.98Zm-52.58-37.5c5.46,4.46,8.15,6.75,13.46,11.45,2.44,2.16,4.02,2.85,4.77,2.02,1.03-1.15,1.91-5.48,2.37-13.08.23-3.47.19-5.93-.06-7.38-.25-1.44-.86-2.58-1.82-3.39-1.73-1.46-4.18-1.46-7.31,0-.46.17-2.21.87-5.22,2.15-5,2.07-7.75,3.53-8.33,4.26-.73.91-.02,2.22,2.12,3.97Z"/>
      </g>
    </g>
  </g>
</svg>