<?xml version="1.0" encoding="UTF-8"?>
<svg id="Layer_2" data-name="Layer 2" xmlns="http://www.w3.org/2000/svg" viewBox="0 0 166.81 876.92">
  <g id="Layer_1-2" data-name="Layer 1">
    <path d="m166.8,252.67l-.18-219.67v-4.87c0-15.54-12.59-28.13-28.13-28.13H28.75C13.22,0,.62,12.59.62,28.13v4.87l-.62,219.67c0,4.21,2.9,7.66,6.43,7.66h12.98c15.2,0,27.65,12.07,28.12,27.26l15.14,491.4c.06,1.91-.08,3.82-.41,5.7l-14.16,81.17c-1.01,5.77,3.43,11.05,9.29,11.05h49.83c5.79,0,10.22-5.18,9.32-10.9l-12.55-79.69c-.27-1.7-.38-3.42-.33-5.14l13.41-493.69c.41-15.16,12.76-27.26,27.92-27.37l18.64-.13c3.54,0,3.18-3.12,3.18-7.33ZM36.7,156.99h-5.15c-3.27.01-5.92-2.64-5.92-5.91V39.92c0-3.27,2.65-5.92,5.92-5.92h5.17c3.27,0,5.92,2.65,5.92,5.92l-.02,111.15c0,3.26-2.64,5.91-5.91,5.92Zm22.88-5.86l-.9-111.16c-.03-3.29,2.63-5.96,5.92-5.96h3.25c3.27,0,5.92,2.65,5.92,5.92l-.02,111.16c0,3.27-2.65,5.91-5.91,5.92h-2.34c-3.25,0-5.9-2.62-5.92-5.87Zm37.05,5.87h0c-3.25,0-5.88-2.62-5.91-5.87l-.9-111.17c-.03-3.29,2.63-5.96,5.92-5.96h5.11c3.27,0,5.92,2.65,5.92,5.92l-.02,111.17c0,3.27-2.65,5.92-5.92,5.92h-4.21Zm36.08,0h-3.07c-3.25,0-5.89-2.62-5.92-5.87l-.9-111.17c-.03-3.29,2.63-5.96,5.92-5.96h3.97c3.27,0,5.92,2.65,5.92,5.92v111.17c0,3.27-2.65,5.92-5.92,5.92Z"/>
  </g>
</svg>