<?xml version="1.0" encoding="UTF-8"?>
<svg id="Layer_2" data-name="Layer 2" xmlns="http://www.w3.org/2000/svg" viewBox="0 0 881.23 288.34">
  <defs>
    <style>
      .cls-1 {
        fill: #664690;
      }

      .cls-2 {
        fill: #b6c4fa;
      }
    </style>
  </defs>
  <g id="Layer_1-2" data-name="Layer 1">
    <g>
      <g>
        <path class="cls-1" d="m438.65,268.24c222.33,0,403.45-27.38,409.94-61.75,5.44-7.95,9-17.7,9-28v-34.5c0-10.22-3.64-19.74-9-27.65,0,0,0-.02,0-.02,0-35.25-183.56-63.82-410-63.82S28.6,81.07,28.6,116.32c0,0,0,.02,0,.02-5.36,7.91-8.5,17.43-8.5,27.65v34.5c0,10.4,3.26,20.06,8.79,28.05,7.21,34.26,187.9,61.7,409.77,61.7"/>
        <path class="cls-1" d="m438.65,288.34c-108.11,0-210.52-6.47-288.38-18.22-38.61-5.83-69.59-12.72-92.08-20.48-34.13-11.77-44.26-24.71-47.77-34.59-6.84-11-10.43-23.57-10.43-36.55v-34.5c0-12.21,3.18-24.07,9.24-34.58,5.94-26.67,47.7-44.28,136.35-58.08,78.43-12.21,182.49-18.93,293.01-18.93s214.58,6.72,293.01,18.93c88.59,13.79,130.35,31.38,136.34,58.02,6.4,10.9,9.76,22.78,9.76,34.65v34.5c0,12.63-3.63,25.11-10.54,36.32-3.38,10-13.44,23.02-47.51,34.82-22.44,7.77-53.42,14.67-92.09,20.5-77.88,11.74-180.48,18.21-288.91,18.21ZM48.14,200.43c3.64,3.2,25.53,18.56,120.65,31.75,74.22,10.29,170.06,15.96,269.87,15.96s195.72-5.64,269.92-15.89c94.71-13.08,116.86-28.32,120.68-31.62l.38-2.02,2.38-3.48c3.54-5.17,5.49-11.08,5.49-16.65v-34.5c0-6.78-3.01-12.65-5.54-16.37l-3.46-5.11v-2.73c-5.19-4.09-29.28-18.64-120.03-31.23-74.23-10.29-170.07-15.96-269.87-15.96s-195.65,5.67-269.87,15.96c-90.75,12.59-114.84,27.14-120.03,31.23v2.73l-3.46,5.11c-3.3,4.86-5.04,10.53-5.04,16.37v34.5c0,5.94,1.8,11.68,5.21,16.61l2.31,3.33.42,1.99Zm-.62-.6h0s0,0,0,0Z"/>
      </g>
      <g>
        <path class="cls-2" d="m861.13,111.6c0-10.22-3.64-19.74-9-27.65,0,0,0-.02,0-.02,0-35.25-183.56-63.82-410-63.82S32.13,48.67,32.13,83.92c0,0,0,.02,0,.02-5.36,7.91-8.5,17.43-8.5,27.65v34.5c0,10.4,3.26,20.06,8.79,28.05,7.21,34.26,178.93,61.24,400.79,61.24s412.43-26.93,418.92-61.29c5.44-7.95,9-17.7,9-28v-34.5Z"/>
        <path class="cls-1" d="m433.21,255.49c-107.76,0-208.6-6.39-283.95-18-37.41-5.76-67.4-12.62-89.13-20.38-16.87-6.02-39.34-16-46.09-34.33-6.88-11.03-10.51-23.64-10.51-36.67v-34.5c0-12.21,3.18-24.06,9.24-34.58,5.94-26.67,47.7-44.28,136.35-58.08C227.55,6.72,331.61,0,442.13,0s214.58,6.72,293.01,18.93c88.59,13.79,130.35,31.38,136.34,58.02,6.4,10.9,9.76,22.78,9.76,34.65v34.5c0,12.69-3.67,25.23-10.63,36.47-6.57,18.4-29.39,28.17-49.07,34.69-23.15,7.67-55.13,14.49-95.03,20.27-79.98,11.59-184.14,17.97-293.28,17.97ZM51.71,168.25c3.31,3.05,23.94,18.31,115.72,31.29,71.86,10.16,166.25,15.76,265.77,15.76s197.81-5.57,274.03-15.68c97.97-13,121.4-28.17,125.59-31.61l.34-1.78,2.38-3.48c3.54-5.17,5.49-11.08,5.49-16.65v-34.5c0-6.78-3.01-12.65-5.54-16.37l-3.46-5.11v-2.73c-5.19-4.09-29.28-18.64-120.03-31.23-74.23-10.29-170.07-15.96-269.87-15.96s-195.65,5.67-269.87,15.96c-90.75,12.59-114.84,27.14-120.03,31.23v2.73l-3.46,5.11c-3.3,4.86-5.04,10.53-5.04,16.37v34.5c0,5.94,1.8,11.68,5.21,16.61l2.31,3.33.46,2.21Zm-.53-.54h0,0Z"/>
      </g>
      <path class="cls-1" d="m431.32,134.34c-16.64,0-34.56-3.35-34.56-10.7s17.91-10.7,34.56-10.7,34.56,3.35,34.56,10.7-17.91,10.7-34.56,10.7Zm0-17.5c-19.84,0-30.67,4.5-30.67,6.8s10.82,6.8,30.67,6.8,30.67-4.5,30.67-6.8-10.83-6.8-30.67-6.8Z"/>
      <path class="cls-1" d="m433.71,142.17c-14.71,0-28.58-1.6-39.06-4.51-12.09-3.36-18.22-7.99-18.22-13.76s6.13-10.41,18.22-13.76c10.48-2.91,24.35-4.51,39.06-4.51s28.58,1.6,39.06,4.51c12.09,3.36,18.22,7.99,18.22,13.76s-6.13,10.41-18.22,13.76c-10.48,2.91-24.35,4.51-39.06,4.51Zm0-30c-32.82,0-50.72,7.75-50.72,11.72s17.9,11.72,50.72,11.72,50.72-7.75,50.72-11.72-17.9-11.72-50.72-11.72Z"/>
      <path class="cls-1" d="m436.14,155.39c-48.54,0-100.13-10.97-100.13-31.31s51.59-31.31,100.13-31.31,100.13,10.97,100.13,31.31-51.59,31.31-100.13,31.31Zm0-55.63c-25.49,0-49.42,2.84-67.36,8.01-19,5.47-25.77,12.01-25.77,16.3s6.77,10.83,25.77,16.3c17.95,5.17,41.87,8.01,67.36,8.01s49.42-2.84,67.36-8.01c19-5.47,25.77-12.01,25.77-16.3s-6.77-10.83-25.77-16.3c-17.95-5.17-41.87-8.01-67.36-8.01Z"/>
      <path class="cls-1" d="m433.21,171.87c-43.05,0-83.56-4.67-114.07-13.15-40.85-11.35-49.43-25.19-49.43-34.8s8.57-23.45,49.43-34.8c30.52-8.48,71.03-13.15,114.07-13.15s83.56,4.67,114.07,13.15c40.85,11.35,49.43,25.19,49.43,34.8s-8.57,23.45-49.43,34.8c-30.52,8.48-71.03,13.15-114.07,13.15Zm0-88.89c-42.43,0-82.28,4.58-112.2,12.89-27.74,7.71-44.3,18.19-44.3,28.05s16.56,20.35,44.3,28.05c29.92,8.31,69.77,12.89,112.2,12.89s82.28-4.58,112.2-12.89c27.74-7.71,44.3-18.19,44.3-28.05s-16.56-20.35-44.3-28.05c-29.92-8.31-69.77-12.89-112.2-12.89Z"/>
      <path class="cls-1" d="m431.55,182.82c-53.49,0-103.84-5.8-141.76-16.34-50.77-14.1-61.42-31.3-61.42-43.25s10.66-29.14,61.42-43.25c37.92-10.53,88.27-16.34,141.76-16.34s103.84,5.8,141.76,16.34c50.77,14.1,61.42,31.3,61.42,43.25s-10.66,29.14-61.42,43.25c-37.92,10.53-88.27,16.34-141.76,16.34Zm0-110.47c-52.73,0-102.25,5.69-139.44,16.02-34.47,9.58-55.05,22.61-55.05,34.86s20.58,25.29,55.05,34.87c37.19,10.33,86.71,16.02,139.44,16.02s102.25-5.69,139.44-16.02c34.47-9.58,55.05-22.61,55.05-34.87s-20.58-25.29-55.05-34.86c-37.19-10.33-86.71-16.02-139.44-16.02Z"/>
      <path class="cls-1" d="m430.97,204.76c-75.7,0-146.92-8.2-200.52-23.09-31.83-8.84-85.23-28.24-85.23-58.81s53.4-49.97,85.23-58.81c53.61-14.89,124.82-23.09,200.52-23.09s146.92,8.2,200.52,23.09c31.83,8.84,85.23,28.24,85.23,58.81s-53.4,49.97-85.23,58.81c-53.61,14.89-124.82,23.09-200.52,23.09Zm0-156.81c-75.09,0-145.63,8.11-198.65,22.84-50.91,14.14-80.11,33.12-80.11,52.07s29.2,37.93,80.11,52.07c53.01,14.73,123.56,22.84,198.65,22.84s145.63-8.11,198.65-22.84c50.91-14.14,80.11-33.12,80.11-52.07s-29.2-37.93-80.11-52.07c-53.01-14.73-123.56-22.84-198.65-22.84Z"/>
      <path class="cls-1" d="m427.21,194.89c-61.81,0-121.51-8.47-168.1-23.86-45.44-15-71.51-34.74-71.51-54.14s24.82-35.33,71.78-46.72c43.32-10.5,102.92-16.28,167.83-16.28s124.64,5.78,168.08,16.28c47.12,11.39,72.03,27.54,72.03,46.72s-26.16,39.12-71.76,54.14c-46.73,15.39-106.52,23.86-168.35,23.86Zm0-134c-64.37,0-123.39,5.71-166.18,16.09-42.84,10.38-66.43,24.56-66.43,39.91s24.93,33.7,66.7,47.49c45.91,15.16,104.83,23.51,165.91,23.51s120.12-8.35,166.16-23.51c41.92-13.8,66.95-31.56,66.95-47.49s-23.68-29.52-66.68-39.91c-42.92-10.37-102.03-16.09-166.43-16.09Z"/>
      <path class="cls-1" d="m427.37,222.64c-88.37,0-171.49-9.83-234.05-27.68-63.88-18.23-99.06-43.03-99.06-69.83s35.18-51.61,99.06-69.83c62.56-17.85,145.68-27.68,234.05-27.68s171.48,9.83,234.05,27.68c63.88,18.23,99.06,43.03,99.06,69.83s-35.18,51.61-99.06,69.83c-62.56,17.85-145.68,27.68-234.05,27.68Zm0-188.12c-87.74,0-170.19,9.74-232.15,27.42-59.77,17.05-94.05,40.09-94.05,63.19s34.28,46.14,94.05,63.19c61.96,17.68,144.41,27.42,232.15,27.42s170.19-9.74,232.15-27.42c59.77-17.05,94.05-40.09,94.05-63.19s-34.28-46.14-94.05-63.19c-61.96-17.68-144.41-27.42-232.15-27.42Z"/>
      <path class="cls-1" d="m433.46,239.63c-103.52,0-200.9-11.21-274.19-31.57-74.84-20.79-116.05-49.1-116.05-79.71s41.22-58.93,116.05-79.71c73.29-20.36,170.67-31.57,274.19-31.57s200.9,11.21,274.19,31.57c74.84,20.79,116.05,49.1,116.05,79.71s-41.22,58.93-116.05,79.71c-73.29,20.36-170.67,31.57-274.19,31.57Zm0-214.59c-102.82,0-199.44,11.11-272.05,31.28-70.04,19.46-110.21,45.71-110.21,72.02s40.17,52.57,110.21,72.02c72.62,20.17,169.23,31.28,272.05,31.28s199.44-11.11,272.05-31.28c70.04-19.46,110.21-45.71,110.21-72.02s-40.17-52.57-110.21-72.02c-72.62-20.17-169.23-31.28-272.05-31.28Z"/>
    </g>
  </g>
</svg>