<?xml version="1.0" encoding="UTF-8"?>
<svg id="Layer_2" data-name="Layer 2" xmlns="http://www.w3.org/2000/svg" viewBox="0 0 880.98 939.89">
  <defs>
    <style>
      .cls-1 {
        fill: #8bc53f;
      }

      .cls-2 {
        fill: #a57c52;
      }

      .cls-3 {
        fill: #754c24;
      }
    </style>
  </defs>
  <g id="Layer_1-2" data-name="Layer 1">
    <g>
      <g>
        <path class="cls-2" d="m170.05,850.32c0-22.9,27.72-59.21,95.25-73.21,56.81-11.77,130.61,0,212.09,0,93.71,0,194.38-32.24,253.37-17.16,53.27,13.62,69.53,73.51,69.53,93.52,0,21.09,13.03,54.48-45.4,68.3-58.43,13.82-253.68,1.24-342.84,1.24-74.11,0-112.57,14.29-167.06,4.37-76.64-13.96-74.93-52.41-74.93-77.06Z"/>
        <path class="cls-3" d="m284.8,939.89c-13.26,0-26.79-.98-41.44-3.65-35.66-6.5-59.04-18.76-71.5-37.48-10.87-16.35-10.84-33.99-10.83-46.87v-1.57c0-15.33,9.23-32.34,25.32-46.67,18.55-16.52,45.21-28.75,77.11-35.36,38.09-7.89,83.78-5.51,132.16-2.98,26.31,1.37,53.51,2.8,81.76,2.8,39.69,0,80.38-5.84,119.72-11.48,51.7-7.42,100.54-14.43,135.87-5.4,25.3,6.47,46.17,23.3,60.37,48.69,11.01,19.68,15.94,41.08,15.94,53.55,0,2.72.26,5.88.54,9.22,1.69,20.3,4.53,54.26-52.88,67.84-42.32,10.01-149.77,6.69-244.58,3.77-38.11-1.18-74.11-2.29-100.33-2.29-29.81,0-54.11,2.38-75.56,4.48-18,1.76-34.62,3.39-51.68,3.39Zm42.39-159.02c-21.77,0-41.79,1.28-60.07,5.06-64.17,13.3-88.08,46.55-88.08,64.39v1.59c-.04,24.19-.08,54.29,67.54,66.61,31.02,5.65,56.22,3.18,88.13.06,21.86-2.14,46.63-4.57,77.32-4.57,26.5,0,62.63,1.11,100.89,2.3,89.05,2.75,199.88,6.17,239.88-3.29,42.32-10.01,40.74-28.86,39.08-48.82-.31-3.73-.61-7.25-.61-10.72,0-8.19-3.63-26.86-13.65-44.76-8.18-14.63-23.34-33.44-49.11-40.03-31.86-8.14-78.97-1.38-128.85,5.78-39.97,5.74-81.3,11.67-122.28,11.67-28.72,0-56.16-1.43-82.7-2.82-24.11-1.26-46.61-2.44-67.5-2.44Z"/>
      </g>
      <g>
        <path class="cls-2" d="m751.09,722.39c0-22.9-23.31-59.21-80.11-73.21-47.78-11.77-109.84,0-178.37,0-78.81,0-163.48-32.24-213.08-17.16-44.8,13.62-58.48,73.51-58.48,93.52,0,21.09-10.96,54.48,38.18,68.3s162.58,10.09,237.57,10.09c62.33,0,145.43,5.44,191.27-4.48,64.45-13.96,63.02-52.41,63.02-77.06Z"/>
        <path class="cls-3" d="m603.6,813.68c-18.27,0-37.28-.39-56.06-.78-17.94-.37-34.89-.72-50.74-.72-12.54,0-26.08.1-40.41.21-73.76.57-157.36,1.21-199.4-10.61-21.17-5.95-34.56-15.94-40.93-30.55-5.42-12.41-4.49-25.66-3.74-36.31.24-3.39.46-6.59.46-9.39,0-12.22,4.09-33.25,13.22-52.67,11.92-25.35,29.6-42.21,51.11-48.75,30.12-9.16,71.4-2.11,115.11,5.35,33.01,5.63,67.15,11.46,100.38,11.46,23.7,0,46.54-1.42,68.64-2.79,40.83-2.54,79.4-4.93,111.7,3.03,27.07,6.67,49.68,18.98,65.38,35.61,13.35,14.14,21.01,30.76,21.01,45.61v1.57c.02,12.64.04,29.95-8.89,45.91-10.5,18.77-30.33,31.08-60.64,37.65-22.57,4.89-53.2,6.17-86.22,6.17Zm-106.8-18.01c16.02,0,33.05.35,51.08.72,51.76,1.07,105.27,2.17,138.44-5.02,56.58-12.25,56.54-42.83,56.51-67.4v-1.59c0-18.17-20.04-51.94-73.83-65.19-29.85-7.36-65.48-5.14-106.73-2.58-22.35,1.39-45.46,2.82-69.67,2.82-34.62,0-69.46-5.94-103.15-11.69-41.73-7.12-81.14-13.85-107.53-5.83-39.67,12.06-52.62,67.77-52.62,85.62,0,3.38-.24,6.86-.5,10.55-1.44,20.48-2.8,39.83,32.67,49.8,39.78,11.18,125.73,10.52,194.8,9.99,14.37-.11,27.93-.21,40.54-.21Z"/>
      </g>
      <g>
        <path class="cls-2" d="m658.08,666.53c-37.53,12.54-124.17,9.16-181.43,9.16-47.6,0-111.07,4.94-146.07-4.07-49.22-12.67-48.13-47.56-48.13-69.94,0-20.42,17.18-52.58,58.92-65.76-4.17-4.14-7.09-9.2-8.31-14.27-2.95-12.17,1.97-13.91,9.29-24.71.82-1.2,8.41-6.54,9.53-7.52l3.8-3.36c2.98-2.65,7.15-3.96,11.34-3.59,2.18.2,4.93.56,8.37,1.22,14.46,2.74,27.8-11.1,41.82-14.64,25.1-6.35,19.85-13.39,25.82-21.51,4.87-6.61,10.84-6.86,16.52-29.27,7.81-30.84,25.3-55.35-4.13-74.11,16.8-16.71,32.67-15.88,48.8,3.17l22.23,26.29c2.21,2.62,4.03,5.47,5.44,8.49l19.31,41.59c3.24,6.97,8.17,13.22,14.46,18.3l59.47,48.06c6.03,7.12,10.23,17.79,11.41,27.83,2.09.48,4.11,1.07,6.07,1.78,34.21,12.36,44.66,66.72,44.66,84.88,0,19.14,8.37,49.45-29.16,61.99Z"/>
        <path class="cls-3" d="m395.13,686.13c-25.5,0-49.2-1.18-66.81-5.71-55.02-14.17-54.98-55.25-54.96-77.33v-1.42c0-13.31,5.73-28.32,15.72-41.17,9.57-12.31,22.57-22.17,38.02-28.93-1.27-2.53-2.25-5.14-2.88-7.78-3.32-13.69,1.42-19.81,6.43-26.29,1.32-1.71,2.69-3.47,4.17-5.66,1.25-1.83,2.99-3.25,8.79-7.55.84-.62,1.97-1.46,2.32-1.75l3.72-3.29c4.84-4.29,11.46-6.43,18.16-5.85,2.84.25,5.95.71,9.29,1.35,5.72,1.08,12.58-2.65,19.85-6.61,5.68-3.09,11.55-6.28,18.03-7.92,14-3.54,14.97-6.05,16.45-9.84.89-2.29,2-5.15,4.28-8.24,1.65-2.24,3.31-3.87,4.78-5.3,3.4-3.32,6.6-6.46,10.24-20.81,1.7-6.72,3.78-12.97,5.79-19.02,7.87-23.67,10.65-34.59-6-45.2l-9.58-6.1,8.05-8.01c10.11-10.06,20.56-14.94,31.03-14.49,10.8.46,21.27,6.59,31.12,18.22l22.23,26.29c2.74,3.25,5,6.79,6.74,10.53l19.31,41.59c2.63,5.67,6.76,10.88,11.93,15.07l60.13,48.6.55.65c5.85,6.9,10.33,16.51,12.49,26.54.39.13.77.26,1.15.4,37.9,13.69,50.65,69.89,50.65,93.43,0,2.54.17,5.44.35,8.52,1.09,18.4,2.91,49.19-35.73,62.1-32.68,10.92-96.87,10.33-153.5,9.82-10.93-.1-21.26-.19-30.82-.19-12.06,0-24.98.32-38.65.65-14.35.35-28.88.71-42.87.71Zm-45.75-183.37c-1.61,2.32-3.11,4.27-4.35,5.86-4.07,5.26-4.4,5.69-3.14,10.88.85,3.49,2.94,7.03,5.89,9.96l10.67,10.59-14.34,4.53c-20.32,6.42-52.56,27.59-52.56,57.09v1.44c-.02,21.85-.05,49.05,41.31,59.7,24.83,6.39,65.43,5.4,104.71,4.44,13.79-.34,26.82-.66,39.1-.66,9.64,0,20.01.09,30.98.19,52.47.48,117.77,1.07,147.57-8.88h0c25.42-8.49,24.41-25.63,23.34-43.78-.2-3.35-.39-6.51-.39-9.59,0-15.99-9.52-65.81-38.65-76.33-1.58-.57-3.27-1.07-5.02-1.47l-6.24-1.44-.75-6.36c-.97-8.29-4.32-16.78-8.81-22.4l-58.76-47.48c-7.32-5.93-13.2-13.38-16.99-21.55l-19.31-41.59c-1.06-2.28-2.45-4.45-4.14-6.46l-22.22-26.28c-6.43-7.59-12.49-11.57-18.01-11.8-2.91-.12-6.03.79-9.32,2.73,17.49,17.6,10.29,39.24,3.84,58.64-1.91,5.74-3.88,11.67-5.42,17.74-4.53,17.86-9.54,23.86-15.16,29.35-1.16,1.14-2.08,2.03-2.85,3.08-.84,1.15-1.32,2.36-1.97,4.04-1.26,3.24-2.98,7.67-7.88,11.73-4.54,3.76-11.23,6.67-21.06,9.15-4.26,1.08-8.89,3.59-13.8,6.26-9.3,5.06-19.84,10.79-31.95,8.5-2.77-.53-5.28-.9-7.49-1.1-1.69-.15-3.38.35-4.49,1.34l-3.8,3.37c-.66.58-1.53,1.23-3.46,2.66-1.34,1-3.97,2.95-5.07,3.88Zm-.33.29h0,0Z"/>
      </g>
      <path class="cls-1" d="m805.58,539.25l-15.53-8.85c17.6-30.9,31.98-62.57,42.75-94.12l.71-2.1c.63-2.02,1.29-3.99,1.93-5.89,1.54-4.58,2.99-8.92,3.73-13.22-.03-.66-.63-2.34-1.02-3.46-.56-1.59-1.2-3.4-1.59-5.38-.82-4.14-.31-7.96,1.51-11.35,2.64-5.75,3.61-10,3.23-14.18l-.11-1.26.24-1.24c.5-2.56,2.09-6,5.05-8.04-.54-1.34-1.6-2.95-2.31-3.99-3.01-4.02-3.01-10.14.13-14.09l.73-.92.94-.7c2.38-1.77,4.85-2.81,7.25-3.46l.72-14.8c.29-6.05.12-12.05-.07-18.4-.09-3.05-.18-6.21-.21-9.34-.07-.99-.16-1.67-.24-2.16-.12-.86-.25-1.72-.37-2.58l-.04-.31c-.06-.61-.13-1.21-.2-1.82-1.02-8.74-2.64-16.98-4.82-24.48-.09-.32-.19-.65-.29-.97-3.82-7.79-2.15-15.31-.66-21.04-4.42-1.6-9.39-3.8-13.35-8.19l-.43-.52c-.63-.81-1.26-1.61-1.9-2.39-5-6.07-10.84-11.02-17.35-14.73l8.85-15.53c8.41,4.79,15.91,11.14,22.29,18.89.67.82,1.34,1.65,1.99,2.5,1.69,1.71,4.86,2.8,8.21,3.95.79.27,1.58.54,2.36.82l.41.16c6.14,2.56,9.18,9.53,7.11,16.06-.21.87-.44,1.73-.67,2.59-1.37,5.2-1.84,7.7-.7,9.8l.43.79.26.86c.2.65.39,1.31.59,1.97,2.45,8.45,4.27,17.66,5.41,27.38.07.61.14,1.23.21,1.86.1.74.21,1.47.32,2.2l6.53-11.44-5.55,44.4c-.11.89,1.58,3.33,2.82,5.11,1.61,2.32,3.39,4.88,4.64,8l.16-.06c2.03,3.98,1.62,8.78-.86,12.15l-22.14,38.82c-.79,2.25-1.68,4.3-2.54,6.16l-.05.11c.15.73.52,1.76.91,2.86,1.07,3.04,2.54,7.2,1.87,11.89l-.03.2c-.96,5.8-2.74,11.1-4.46,16.23-.62,1.84-1.25,3.74-1.83,5.6l-.06.2-.76,2.26c-11.14,32.63-25.98,65.33-44.14,97.21Zm48.46-136.78h0s0,0,0,0Zm9.14-52.36c-.1.62-.1,1.26.02,1.92l4.62-1.81-3.55-2.02-1.09,1.91Z"/>
      <path class="cls-1" d="m182.59,700.4c-10.92,0-12.42-13-12.92-17.28-.7-6.06-.84-13.96-.97-21.59-.13-7.38-.33-19.19-1.42-23.95-.19-.08-.37-.15-.56-.23-4.27-1.59-6.48-5.23-7.94-11.35-.12.56-.23,1.03-.32,1.4-1.82,7.36-7.88,7.67-9.08,7.63l-1.29-.02v17.88l-15.91-38.26c-.28-.29-.57-.6-.86-.93-.85-.99-1.98-2.38-3.44-4.25-.67-.85-1.38-1.77-2.12-2.73-1.72-1.91-3.41-3.89-5.09-5.93-2.16,2.02-4.54,4.27-6.6,6.22-3.38,3.19-6.86,6.48-9.52,8.93-5.16,4.77-7.3,6.75-11.55,6.34l-4.04-.39-2.33-3.23c-1.62-2.2-3.44-6.58,1.22-12.34.71-.88,1.72-2.06,3.09-3.62,2.44-2.77,5.75-6.42,8.95-9.95,2.63-2.9,5.82-6.42,8.23-9.14-12.12-14.05-25.02-28.47-27.83-31.25-.79-.78-1.37-1.57-1.79-2.38l-3.6-2.24,2.58-7.69.52-.85c.69-1.14,1.46-2.16,2.27-3.08.86-2.49,1.95-5.62,3.33-9.48.03-.08.05-.15.08-.23-1.42-1.83-2.62-4.01-3.36-6.62l-.14-.5-.08-.52c-.38-2.36-.06-4.39.22-5.72l.22-1.06.46-.96c-3.62-6.79-4.64-13.72-5.1-19.24v-.12c-3.15-3.65-3.5-7.04-.13-27.81-1.83,1.33-4.07,2.16-6.83,1.81-4.01-.5-7.2-3.49-8.15-7.63C24.86,420.44-7.72,348.32,1.62,305.57c3.61-16.51,13.17-28.11,27.64-33.56l6.29,16.73c-8.77,3.3-14.16,10.05-16.47,20.64-3.67,16.78.94,42.26,12.63,69.91,9.76,23.08,23.56,45.56,37.79,61.8.62-1.22,1.21-2.4,1.74-3.46,7.75-15.45,11.29-22.48,19.07-22.06,3.85.22,7.11,2.67,8.54,6.41,1.37,3.54,1.03,6.89-3.15,31.2-1.58,9.18-4.12,23.95-4.42,29.33,1.57,2.52,2.39,5.24,2.46,8.12.19,2.12.45,4.01.82,5.7,2.28-6.28,4.61-12.68,5.52-15.26v-52.87l17.4,51.45c.31.92.51,1.52.47,2.86h0c0,.45,0,.78-.1,1.32-.3,2.88-1.31,8.31-3.53,20.37-1.72,9.32-4.31,23.4-4.5,25.72.02-.24.1-1.66-.56-3.38.37,1.43.47,2.92.25,4.38l-.18,1.16-.47,1.08c-2.61,5.93-7.25,9.06-10.99,11.58-.07.05-.14.09-.21.14,7.25,7.99,21.22,23.62,32.55,37.1v-11.14l15.36,30.2c.64-3.09,1.29-6.14,1.92-8.93,2.37-10.41,3.94-17.32,11.08-18.31,2.63-.39,5.26.29,7.42,1.92,5.04,3.81,5.99,11.08,7.83,28.61.55,5.29,1.42,13.57,2.34,17.56l.06.02c9.73,3.7,9.97,17.11,10.35,39.32.15,8.49.37,21.32,1.73,24.39-.43-.97-2.46-3.09-5.71-3.09v17.88Z"/>
      <path class="cls-1" d="m410.56,325.51c-9.24-2.86-17.93-7.46-25.84-13.65-.84-.66-1.67-1.33-2.49-2.01-2-1.3-5.34-1.68-8.86-2.08-.84-.1-1.67-.19-2.49-.3l-.44-.07c-6.54-1.18-11.01-7.33-10.4-14.15.02-.89.06-1.79.09-2.68.21-5.33.15-7.85-1.36-9.65-.17-.2-.33-.41-.49-.62-.51.14-1.02.29-1.45.41-2.72.79-5.79,1.68-9.12,1.51-5.66-.29-10.17-3.72-12.06-9.17-1.18-3.39-.21-5.76,1.55-10.05.72-1.76,1.65-3.96,2.62-6.25l-3.77-40.57c-.08-.89-2.26-2.91-3.86-4.39-.25-.23-.51-.47-.76-.71-2.41,2.6-5.2,5.57-8.1,8.66-.86.92-1.77,1.89-2.69,2.88l-23.25,25.8-6.01-11.21c-2.98-5.55.75-9.87,2.54-11.95.96-1.11,2.33-2.64,4.19-4.67,2.64-2.88,5.96-6.44,9.37-10.07l16.95-18.81,14.55-47c-.17-.31-.34-.64-.49-.99-.3-.68-.89-1.64-1.52-2.65-1.7-2.74-4.03-6.49-4.39-11.21v-.2c-.32-5.87.27-11.44.85-16.82.21-1.93.42-3.92.58-5.86l.02-.21q.24-2.2,7.93-15.99c2.1-3.77,4.85-8.7,6.03-10.91,1.13-10.8,1.13-19.17,1.14-27.27,0-14.91,0-29,7.33-52.63l17.07,5.29c-6.52,21.04-6.53,32.65-6.53,47.34,0,8.55,0,18.24-1.41,30.77q-.24,2.18-8.02,16.12c-2.05,3.67-4.71,8.45-5.9,10.67-.15,1.56-.31,3.09-.47,4.58-.52,4.81-1,9.35-.8,13.72.17.64,1.12,2.15,1.74,3.16.26.41.52.84.79,1.28,2.11.47,5.17,1.05,7.44,1.48,12.16,2.3,16.71,3.16,19.38,7.62,1.25,2.09,1.62,4.57,1.05,6.91-1.66,7.06-8.91,10.36-17.29,14.16-.77.35-1.67.76-2.61,1.2,1.22.8,2.45,1.61,3.57,2.34,3.17,2.08,6.35,4.16,8.72,5.75,1.26.84,2.3,1.55,3.02,2.06,5.94,4.19,5.18,8.96,4.19,11.43l-1.51,3.79-3.86,1.35c-3.99,1.39-6.55-.05-11.65-2.91-1.03-.58-2.19-1.24-3.43-1.94-.05,3.06-1.31,6.06-3.58,8.24-1.6,1.53-3.32,2.68-5.04,3.58l2.49,14.61c1.02,5.97,2.48,11.79,4.03,17.96.74,2.96,1.51,6.02,2.22,9.08.28.93.51,1.56.7,2.06.3.8.61,1.62.92,2.43l.1.29c1.12,3.36.16,5.71-1.59,9.98-.88,2.16-2.08,4.98-3.27,7.8-.02.06-.05.11-.07.17,5.02-.78,11.68-.36,15.5,6.65.16.3.32.59.49.89,5.4,6.79,5.4,14.5,5.18,20.41,4.6.6,9.86,1.66,14.63,5,.28.2.54.4.79.6.77.64,1.52,1.26,2.29,1.86,6.19,4.85,12.96,8.43,20.11,10.65l-5.29,17.07Zm-70.68-179.45l.29,11.25c1.16-1.69,2.89-3.4,5.39-5.05,1.02-.67,2.12-1.31,3.27-1.92-4.51-1.05-7.2-2.15-8.95-4.27Zm7.95-64.66s0,.02,0,.03c0,0,0-.02,0-.03Z"/>
    </g>
  </g>
</svg>