<?xml version="1.0" encoding="UTF-8"?>
<svg id="Layer_2" data-name="Layer 2" xmlns="http://www.w3.org/2000/svg" viewBox="0 0 917.65 931.5">
  <defs>
    <style>
      .cls-1 {
        fill: none;
      }

      .cls-2 {
        font-family: CooperBlack, 'Cooper Black';
        font-size: 67.34px;
        stroke: #ff5c00;
        stroke-width: 3px;
      }

      .cls-2, .cls-3 {
        fill: #fff;
      }

      .cls-2, .cls-4 {
        stroke-miterlimit: 10;
      }

      .cls-5, .cls-4 {
        fill: #ffdda9;
      }

      .cls-6 {
        fill: #e6e6e6;
      }

      .cls-7 {
        fill: #fbed21;
      }

      .cls-8 {
        fill: #b3b3b3;
      }

      .cls-9 {
        fill: #cdcae5;
      }

      .cls-10 {
        fill: #b2b2b2;
      }

      .cls-11 {
        fill: #c59b6d;
      }

      .cls-12 {
        fill: #cbcbcb;
      }

      .cls-13 {
        fill: #754c24;
      }

      .cls-4 {
        stroke: #000;
      }

      .cls-14 {
        opacity: .21;
      }

      .cls-15 {
        opacity: .54;
      }
    </style>
  </defs>
  <g id="Layer_1-2" data-name="Layer 1">
    <path class="cls-8" d="m829.92,773.67l69.67,11.84,1.54.26c4.93.84,9.6-2.47,10.44-7.4l5.94-34.8c.84-4.93-2.47-9.6-7.4-10.44l-1.54-.26-69.62-12.1c-1.34-.23-2.58.5-2.78,1.63l-.7,4.12c-.82,4.82-5.33,8.11-10.17,7.44l-156.64-21.82c-.61-.08-1.21-.23-1.79-.44l-24.97-8.89c-1.78-.63-3.69.49-4.01,2.35l-2.7,15.8c-.31,1.84,1.09,3.52,2.95,3.54l25.95.34c.55,0,1.11.07,1.65.17l155.82,30.99c4.78.95,7.95,5.52,7.17,10.34l-.97,5.92c-.19,1.12.82,1.18,2.15,1.4Zm37.39-36.07l.28-1.63c.18-1.04,1.16-1.74,2.2-1.56l35.25,6.02c1.04.18,1.73,1.16,1.56,2.2l-.28,1.64c-.18,1.04-1.16,1.73-2.2,1.56l-35.24-6.03c-1.04-.18-1.73-1.16-1.56-2.19Zm.62,7.57l35.3,5.74c1.04.17,1.75,1.16,1.57,2.2l-.18,1.03c-.18,1.04-1.16,1.73-2.2,1.56l-35.25-6.03c-1.04-.18-1.73-1.16-1.56-2.19l.13-.74c.18-1.03,1.15-1.73,2.18-1.56Zm-3.87,11.43h0c.18-1.03,1.15-1.72,2.18-1.56l35.3,5.74c1.04.17,1.75,1.16,1.57,2.2l-.28,1.62c-.18,1.04-1.16,1.73-2.2,1.56l-35.25-6.03c-1.04-.18-1.73-1.16-1.56-2.2l.23-1.33Zm-1.95,11.44l.17-.97c.18-1.03,1.15-1.73,2.18-1.56l35.3,5.74c1.04.17,1.75,1.16,1.57,2.2l-.22,1.26c-.18,1.04-1.16,1.73-2.2,1.56l-35.25-6.02c-1.04-.18-1.73-1.16-1.56-2.2Z"/>
    <g class="cls-15">
      <path class="cls-9" d="m374.94,36.36c-.83,3.51-.02,6.7,1.8,7.13s3.97-2.07,4.79-5.57c.83-3.51,1.04-11.06-.78-11.49s-4.99,6.43-5.82,9.94Z"/>
      <path class="cls-11" d="m377.16,44.68c-.23,0-.46-.03-.68-.08-2.51-.59-3.66-4.25-2.65-8.5h0c.35-1.47,3.66-11.62,7.19-10.79,1.44.34,2.16,2.14,2.26,5.67.07,2.39-.19,5.29-.63,7.2-.91,3.87-3.19,6.51-5.48,6.51Zm-1.11-8.06h0c-.75,3.2.06,5.54.95,5.75.88.2,2.66-1.53,3.42-4.72.83-3.53.72-8.81.05-10.02-1.14.78-3.59,5.46-4.42,8.99Z"/>
    </g>
    <g>
      <g>
        <path d="m396.95,53.21c-7.44,0-13.41-3.08-13.5-3.13l.27-.52c.13.07,13.3,6.85,24.74,0l.3.5c-3.93,2.35-8.06,3.14-11.81,3.14Z"/>
        <path d="m408.1,50.45l-.27-.52c.13-.07,13.58-7.01,25.31,0l-.3.5c-11.45-6.85-24.61-.06-24.74,0Z"/>
      </g>
      <g>
        <path d="m445.77,53.37c-7.44,0-13.41-3.08-13.5-3.13l.27-.52c.13.07,13.3,6.85,24.74,0l.3.5c-3.93,2.35-8.06,3.14-11.81,3.14Z"/>
        <path d="m456.92,50.62l-.27-.52c.13-.07,13.58-7.01,25.31,0l-.3.5c-11.46-6.85-24.61-.06-24.74,0Z"/>
      </g>
    </g>
    <g>
      <path d="m397.04,59.3c-7.44,0-13.41-3.08-13.5-3.13l.27-.52c.13.07,13.29,6.85,24.74,0l.3.5c-3.93,2.35-8.06,3.14-11.81,3.14Z"/>
      <path d="m408.19,56.54l-.27-.52c.13-.07,13.58-7.01,25.31,0l-.3.5c-11.46-6.85-24.61-.06-24.74,0Z"/>
    </g>
    <g>
      <path d="m445.86,59.46c-7.44,0-13.41-3.08-13.5-3.13l.27-.52c.13.07,13.29,6.85,24.74,0l.3.5c-3.93,2.35-8.06,3.14-11.81,3.14Z"/>
      <path d="m457.01,56.7l-.27-.52c.13-.07,13.58-7.01,25.31,0l-.3.5c-11.45-6.85-24.61-.06-24.74,0Z"/>
    </g>
    <g>
      <path d="m396.46,65.13c-7.44,0-13.41-3.08-13.5-3.13l.27-.52c.13.07,13.3,6.85,24.74,0l.3.5c-3.93,2.35-8.06,3.14-11.81,3.14Z"/>
      <path d="m407.6,62.37l-.27-.52c.13-.07,13.58-7.01,25.31,0l-.3.5c-11.46-6.85-24.61-.06-24.74,0Z"/>
    </g>
    <g>
      <path d="m445.27,65.29c-7.44,0-13.41-3.08-13.5-3.13l.27-.52c.13.07,13.3,6.85,24.74,0l.3.5c-3.93,2.35-8.06,3.14-11.81,3.14Z"/>
      <path d="m456.42,62.53l-.27-.52c.13-.07,13.58-7.01,25.31,0l-.3.5c-11.46-6.85-24.61-.06-24.74,0Z"/>
    </g>
    <g>
      <path class="cls-5" d="m103.38,644.61c-.86-.27.9-.02,0,0h0Z"/>
      <path d="m103.35,644.83h-.04c-.2-.07-.44-.15-.39-.38.05-.24.34-.2.51-.17.17.02.45.06.44.31-.01.24-.27.24-.48.25h-.04Z"/>
    </g>
    <g>
      <path class="cls-5" d="m133.67,653.39c-.08-.03-.15-.06-.23-.1-1.39-.65.52,0,.23.1Z"/>
      <path d="m133.67,653.62l-.08-.03c-.08-.03-.16-.07-.24-.1-.5-.24-.69-.32-.63-.54l.04-.18h.2s.91.22.96.55l.03.18-.28.12Z"/>
    </g>
    <g>
      <path class="cls-5" d="m705.56,645.54c-.08.03-.15.07-.23.1-.29-.1,1.61-.75.23-.1Z"/>
      <path d="m705.33,645.87l-.25-.09v-.21c.05-.32.92-.54.96-.54h.18s.06.17.06.17c.05.21-.13.3-.63.53h0c-.08.04-.16.07-.24.11l-.08.03Z"/>
    </g>
    <g>
      <path class="cls-5" d="m735.62,636.86c-.9-.02.86-.27,0,0h0Z"/>
      <path d="m735.65,637.08h-.04c-.21,0-.47-.01-.48-.25-.01-.24.27-.28.44-.31.17-.02.45-.07.51.17.05.23-.19.31-.39.37h-.04Z"/>
    </g>
    <g>
      <path class="cls-5" d="m688.63,659.27c-.13-.2-.25-.41-.35-.64l-.99-3.11c.48,1.23.93,2.48,1.34,3.74Z"/>
      <path d="m689.33,660.7l-.88-1.3c-.14-.2-.26-.43-.37-.67l-1-3.13.42-.15c.48,1.23.94,2.49,1.35,3.76l.48,1.49Z"/>
    </g>
    <g>
      <path class="cls-5" d="m705.56,645.54c-.08.03-.15.07-.23.1-.29-.1,1.61-.75.23-.1Z"/>
      <path d="m705.33,645.87l-.25-.09v-.21c.05-.32.92-.54.96-.54h.18s.06.17.06.17c.05.21-.13.3-.63.53h0c-.08.04-.16.07-.24.11l-.08.03Z"/>
    </g>
    <g>
      <path class="cls-5" d="m735.62,636.86c-.9-.02.86-.27,0,0h0Z"/>
      <path d="m735.65,637.08h-.04c-.21,0-.47-.01-.48-.25-.01-.24.27-.28.44-.31.17-.02.45-.07.51.17.05.23-.19.31-.39.37h-.04Z"/>
    </g>
    <g>
      <path class="cls-5" d="m687.29,655.53c-.68-1.77-1.44-3.5-2.27-5.21.19-.03.39-.07.58-.1l1.68,5.3Z"/>
      <path d="m687.08,655.61c-.67-1.74-1.43-3.49-2.26-5.19l-.13-.26.29-.05c.19-.04.4-.07.59-.1l.19-.03,1.74,5.49-.42.15Zm-1.73-5.12c.11.22.21.45.32.68l-.22-.69s-.07.01-.1.02Z"/>
    </g>
    <path class="cls-4" d="m686.3,768.51c.97,3.52.85,14.1,3,17,3.58,4.83,9.9.4,12-5,4.89-12.55-2.13-21.54,4.83-32.72.88-1.42,9.16-.44,9.77,10.7.4,7.18.4.02.4,7.02,0,10.42.16,3.36,0,12-.1,5.81.04,12,7,12,8,0,1.21,0,6,0,9,0,.75-33.53,7.34-39.87,2.41-2.32,8.18-.6,7.6,2.95l9.46,30c.49,1.56,1.48,2.95,2.87,3.82,2.93,1.81,4.74,1.11,8.74-.89,1.61-.8,3.41-.15,4-5,0,0-3.5,8.5,0,0,2.74-6.65-9.6-30.04-7.13-36.86,1.1-3.03,9.94,13.49,10.89,16.73l3.87,6.13c1.43,4.83,3.06,9.99,7.33,12.66,2.37,1.48,5.26,1.53,7.23-.28,2.13-1.95,6.73-5.69,5.8-8.38-10-29-.99-6.99-9.86-28.68-.07-.16-.14-.33-.2-.49-2.07-5.24-4.93-9.62-6.55-14.97-.37-1.2-1.42-4.26-1.95-6.41-2-8.23-5.19-16.65.37-14.12,5.99,2.72,40.46,25.42,42.55,24.7,9.97-3.42,7.73-12.13-.47-20.28-8.2-8.15-34.57-32.68-44.53-37.62-10.66-5.28-21.42-11.08-28.86-20.2-.25-.86-.8-1.66-1.73-2.27-1.04-1.46-1.99-3-2.85-4.63-.01-.03-.03-.06-.04-.09-.11-.26-.23-.51-.34-.77l-.78-2.44c-.02-.18-.08-.35-.16-.52l-75.54-237.4s-43.23-60.63-68.77-96.45c-.82-1.17-1.61-2.31-2.39-3.43-10.36-14.55-24.35-32.62-44.19-30.89-1.09-.04-2.26-.08-3.48-.11-25.75-.64-77.24-1.91-77.24-1.91.6-1.03.48.04.48-1.24v-30.34c0-3.85-4.15-28.44-8-28.44h-80.52c-3.85,0-6,24.59-6,28.44v30.34c0,1.28-.41.79.19,1.82,0,0-72.54,1.29-90.68,1.61-2.59.05-4.06.1-4.06.1-12.24,3.24-17.48,16.65-27.42,23.39-2.77,2.56-5.75,6.25-9.05,10.38-26.47,33.05-74.98,93.63-74.98,93.63l-71.95,250.11c-.66,1.28-.66,2.75-.15,4.14-.4.1-.78.38-1.14.94-4.09,6.15-7.46,8.17-14.64,14.42-7.67,6.66-18.34,25.6-26.16,31.39-13.54,10.04-20.55,32.52-34.1,42.58-6.24,4.63-13.3,7.57-17.38,14.47-.45.77-2.71,3.93-3.09,4.76-4.03,8.87,3.47,9.85,11.59,5.36,11.79-6.52,25.03-23.52,37.53-27.65,1.59-.52,7.32,5.53.66,14.48-4.29,5.77-19,17.53-25.48,23.8-7.5,7.23-11.68,11.61-17.33,18.14-3.8,4.41-3.71,7.3,1.33,12.08,5.5,5.23,27.91-16.89,34.52-22.62,8.03-6.95,19.45-24.28,28.56-24.94,3.33-.24,6.67,4.76,3.95,7.12l-42.35,49.4c-8.37,7.74-3.12,16.79,5.92,16.44,1.8-.06,6.51-2.7,10.07-6.05,0,0,13.68-13.5,22.19-24.56,4.38-5.7,17.41-26.97,23.67-30.62,2.79-1.63-1,16.72-2.33,19.83l-20.65,48.04c-1.99,4.62-4.04,9.62-2.47,14.41.87,2.66,3.07,4.55,5.74,4.42,2.88-.14,4.72-2.64,6.32-4.98,19.28-28.23,26.91-44.6,33.97-66.95.05-.17.1-.34.16-.51,1.77-5.36,2.37-10.56,4.55-15.7.48-1.15,1.64-4.18,2.61-6.17,3.72-7.61,6.67-16.12,9.32-10.62,2.86,5.92,14.82,45.42,16.89,46.2,9.85,3.75,13.7-4.37,12.62-15.89-1.08-11.51-5.65-47.23-10.15-57.41-7.72-17.44-6.97-39.65,1.95-58.03-.5-.09-1-.17-1.5-.26l69.72-242.35,44.8-56.11,2.33,51.3c0,11.85-7,127.66-5.25,282.73h316.54c4.08-182.46-7-277.87-7-289.72l-.58-40.81,37.9,52.72,74.27,233.43c-.02.17-.02.35-.02.53.06.44.12.89.18,1.33.06.23.15.45.24.66.56,5.29-.16-.24-1.58,8.54-1.63,10.02,2.29,31.41-.02,40.86-3.98,16.38,2.28,37.58,1.28,54.58"/>
    <g>
      <path class="cls-5" d="m103.38,644.61c-.86-.27.9-.02,0,0h0Z"/>
      <path d="m103.35,644.83h-.04c-.2-.07-.44-.15-.39-.38.05-.24.34-.2.51-.17.17.02.45.06.44.31-.01.24-.27.24-.48.25h-.04Z"/>
    </g>
    <g>
      <path class="cls-5" d="m133.67,653.39c-.08-.03-.15-.06-.23-.1-1.39-.65.52,0,.23.1Z"/>
      <path d="m133.67,653.62l-.08-.03c-.08-.03-.16-.07-.24-.1-.5-.24-.69-.32-.63-.54l.04-.18h.2s.91.22.96.55l.03.18-.28.12Z"/>
    </g>
    <g>
      <path class="cls-5" d="m505.68,95.3c-1.99-1.9-4.8-2.52-8.33-1.84l-1,.19.12,9.8.56.35c1.34.85,3.19,7.48,3.19,17.71,0,9.26-1.54,15.94-2.99,17.54l-.32.36.1,8.48.1.23c.69,1.6,2.24,2.61,3.87,2.61.26,0,.53-.03.79-.08,1.77-.37,3.67-2.13,3.67-5.98,0-4.45.86-10.35,1.78-16.59,1.98-13.51,4.02-27.49-1.52-32.78Z"/>
      <path d="m500.96,151.23c-1.86,0-3.56-1.14-4.33-2.91l-.14-.42-.1-8.68.46-.5c1.19-1.3,2.86-7.5,2.86-17.2,0-10.26-1.9-16.61-2.96-17.29l-.78-.5-.12-10.49,1.41-.27c3.7-.72,6.65-.05,8.77,1.97h0c5.73,5.47,3.66,19.57,1.67,33.21-.91,6.23-1.77,12.11-1.77,16.52,0,4.15-2.1,6.06-4.07,6.47-.29.06-.6.09-.89.09Zm-3.47-3.44l.06.13c.71,1.62,2.43,2.58,4.1,2.24,1.58-.33,3.27-1.94,3.27-5.49,0-4.48.86-10.4,1.78-16.66,1.96-13.4,3.99-27.24-1.37-32.35h0c-1.87-1.79-4.52-2.36-7.89-1.71l-.59.11.11,9.12.33.21c1.68,1.07,3.42,8.15,3.42,18.13s-1.57,16.17-3.12,17.87l-.19.21.1,8.18Z"/>
    </g>
    <g>
      <path class="cls-5" d="m475.1,14.6c-13.93-13.07-39.08-13.99-57.16-13.99-21.35,0-44.16,1.56-59.32,19.24-13.75,16.03-22.21,42.55-25.86,70.08-23.85-3.62-8.44,33.16-8.44,50.01,0,5.83,6.05,5.83,7.64,2.97,7.17,56.94,42.94,100.22,85.99,100.22,14.67,0,35.66-1.03,47.79-9.91,27.75-20.3,39.51-64.75,39.51-111.34,0-41.85-6.92-85.47-30.15-107.26Z"/>
      <path d="m418.18,244.01c-42.65,0-78.95-42.39-86.31-100.8l-.34-2.7-1.32,2.38c-.62,1.11-2.22,1.7-3.64,1.33-1.55-.4-2.44-1.83-2.44-3.91,0-4.68-1.13-10.74-2.33-17.15-2.22-11.88-4.73-25.33.31-30.54,2.02-2.09,5.15-2.78,9.56-2.12l.9.14.12-.9c4.08-30.71,13.32-55.77,26.02-70.56C373.9,1.48,396.42,0,418.18,0s44.25,1.66,57.35,13.94c25.03,23.48,30.29,71.73,30.29,108.07,0,52.82-14.47,93.69-39.7,112.13-12.1,8.85-33.16,9.87-47.94,9.87Zm-86.03-106.7l.73,5.78c7.29,57.89,43.17,99.91,85.3,99.91,14.64,0,35.48-1,47.34-9.68,24.96-18.25,39.28-58.83,39.28-111.32,0-36.14-5.2-84.1-29.97-107.33-12.84-12.04-35.84-13.67-56.65-13.67s-43.79,1.45-58.71,18.83c-12.57,14.65-21.73,39.52-25.78,70.04l-.26,1.92-1.92-.29c-4.06-.62-6.9-.02-8.67,1.82-4.68,4.84-2.22,18.02-.04,29.64,1.21,6.47,2.35,12.57,2.35,17.35,0,1.14.29,2.57,1.68,2.93.97.25,2.11-.14,2.5-.84l2.83-5.1Z"/>
    </g>
    <g>
      <circle cx="401.07" cy="110.45" r="7.58"/>
      <path d="m401.07,119.42c-4.95,0-8.97-4.02-8.97-8.97s4.02-8.97,8.97-8.97,8.97,4.02,8.97,8.97-4.02,8.97-8.97,8.97Zm0-15.16c-3.41,0-6.19,2.77-6.19,6.19s2.78,6.19,6.19,6.19,6.19-2.77,6.19-6.19-2.77-6.19-6.19-6.19Z"/>
    </g>
    <g>
      <circle cx="468.69" cy="110.45" r="7.58"/>
      <path d="m468.69,119.42c-4.95,0-8.97-4.02-8.97-8.97s4.02-8.97,8.97-8.97,8.97,4.02,8.97,8.97-4.02,8.97-8.97,8.97Zm0-15.16c-3.41,0-6.19,2.77-6.19,6.19s2.77,6.19,6.19,6.19,6.19-2.77,6.19-6.19-2.77-6.19-6.19-6.19Z"/>
    </g>
    <path d="m446.76,95.51v-6.25c3.26,0,7.5-.98,11.98-2.02,9.53-2.21,21.39-4.95,31.75.06l-2.72,5.63c-8.38-4.05-18.6-1.69-27.62.4-4.84,1.12-9.41,2.18-13.39,2.18Z"/>
    <path d="m417.17,95.4c-3.98,0-8.55-1.06-13.39-2.18-9.02-2.09-19.24-4.45-27.62-.4l-2.72-5.63c10.36-5.01,22.22-2.27,31.75-.06,4.48,1.04,8.72,2.02,11.98,2.02v6.25Z"/>
    <g>
      <g>
        <path d="m442.08,156.19c-3.23,0-6.87-.79-10.63-2.38-1.38-.58-3.66-2.24-5.49-3.57-.6-.43-1.15-.83-1.6-1.15-.83-.57-1.82-.47-2.21-.4-.68.13-1.04.39-1.09.47.05-.07.04-.25-.06-.35l-.79.79c-.27-.27-.37-.73,0-1.17.65-.78,3.03-1.5,4.8-.27.46.32,1.02.73,1.62,1.16,1.79,1.3,4.01,2.91,5.27,3.44,9.28,3.92,15.74,2.23,18.7-.67,2.47-2.42,3.03-5.95,1.54-9.69-.95-2.39-3.78-5.47-7.06-9.03-2.1-2.28-4.27-4.63-6.26-7.15-1.85-2.32-1.96-7.11-2.08-12.17-.17-7.1-.37-15.15-5.37-17.4l.46-1.02c5.65,2.53,5.86,10.96,6.04,18.39.12,4.87.23,9.47,1.84,11.5,1.97,2.48,4.13,4.82,6.21,7.09,3.35,3.64,6.25,6.79,7.28,9.38,1.66,4.18,1.01,8.15-1.8,10.9-2.22,2.17-5.48,3.27-9.3,3.27Z"/>
        <g>
          <path d="m432.26,153.88c-1.17-.58-4.16-2.39-6.38-3.96s-4.71-1.87-5.57-.66.85.79,3.21,2.02c2.71,1.41,14.11,5.29,8.74,2.6Z"/>
          <path d="m433.65,155.42c-1.97,0-9.56-3.09-10.44-3.55-.85-.44-1.59-.65-2.19-.82-.75-.21-1.34-.38-1.55-.95-.17-.49.08-.93.29-1.22.56-.79,1.59-1.14,2.9-.99,1.16.14,2.44.67,3.6,1.49,2.25,1.59,5.23,3.38,6.29,3.91,1.44.72,1.76.98,1.79,1.44l.02.39-.34.24c-.08.05-.21.07-.38.07Zm-12.77-5.81c.15.05.34.1.5.15.62.18,1.48.42,2.45.92,1,.52,3.13,1.35,5.14,2.06-1.17-.72-2.43-1.54-3.48-2.29-.97-.69-2.06-1.14-2.99-1.25-.76-.09-1.35.06-1.62.4Z"/>
        </g>
      </g>
      <g>
        <path d="m433.39,154.62c.44-.12.96-.56,1.2-.17l.58.58,5.83,1.17h-2.91l-4.66-.58h0l-1.38-.63,1.02-.28.33-.09Z"/>
        <path d="m441,156.21h-2.91l-4.66-.58-1.39-.64h0s1.35-.37,1.35-.37h0s0,0,0,0c.13-.03.26-.1.39-.16.33-.15.64-.29.81,0l.58.58,5.83,1.17h0Zm-8.95-1.22l1.37.63,4.66.58h2.88l-5.8-1.16-.58-.58c-.17-.28-.48-.14-.8.01-.13.06-.26.12-.39.16l-1.34.37Z"/>
      </g>
    </g>
    <path d="m402.73,180.18l-.41-2.48.21,1.24-.23-1.23c.19-.05.83-.35,1.41-.62,2.68-1.25,7.66-3.59,13.89-4.06,14.64-1.12,41.62.26,44.77,3.93l-1.91,1.63c-1.89-2.05-25.17-4.4-42.67-3.06-5.77.44-10.48,2.65-13.01,3.83-1.1.51-1.6.74-2.03.82Z"/>
    <path d="m435.34,184.47c-4.72,0-9.88-.42-12.08-1.07-.97-.29-1.4-.61-1.4-1.04h.58s0,0,0,0c0,0,.16.46,3,.9,6.24.97,17.95.86,18.82-.47l.49.32c-.63.97-4.81,1.36-9.41,1.36Z"/>
    <path d="m422.96,220.6c-.47,0-.94,0-1.42-.02-8.72-.19-18.21-2.37-18.73-7.91l1.38-.13c.36,3.82,7.18,6.43,17.38,6.66,12.62.28,26.79-3.32,27.65-9.61l1.37.19c-.95,6.89-14.55,10.82-27.64,10.82Z"/>
    <g>
      <g>
        <path class="cls-3" d="m256.84,266.09c9.28.29,15.7-7.87,25.12-7.58h83.55c8.16,22.15,11.24,26.82,55.96,26.82s50.13-3.5,55.96-26.82c0,0,37.2.62,67.42,1.12l4.71.08c21.43-.9,41.25,10.17,54.63,27.36.89,1.08,1.79,2.19,2.71,3.31,26.33,33.12,64.95,81.69,64.95,81.69l-66.88,65.36-20.51-27.65v258.83H253.5v-263.43l-24.27,32.73-66.88-65.36s36.71-46.18,63.41-79.77c3.81-4.8,7.42-9.34,11.07-12.76,5.97-6.07,14.72-7.82,20.29-13.94"/>
        <path d="m584.96,669.11H253v-262.42l-23.71,31.98-67.61-66.07,63.69-80.13c3.83-4.82,7.45-9.37,11.12-12.81,2.96-3.01,6.62-4.98,10.15-6.89,3.76-2.03,7.32-3.95,10.11-7.02l.09.08v-.24c4.52.14,8.26-1.73,12.24-3.71,3.95-1.97,8.03-4.01,12.89-3.86h83.89s.12.33.12.33c8.21,22.29,11.16,26.49,55.49,26.49s49.87-3.99,55.48-26.44l.1-.39,72.52,1.2c20.66-.87,40.71,9.17,55.02,27.56.88,1.06,1.78,2.18,2.7,3.31l65.23,82.05-67.61,66.07-19.95-26.89v257.81Zm-330.96-1h329.96v-259.84l21.07,28.4,66.15-64.64-64.67-81.34c-.91-1.12-1.81-2.23-2.7-3.31-14.11-18.14-33.87-28.04-54.22-27.18l-71.76-1.19c-6.01,23.79-12.51,26.81-56.35,26.81s-48.15-4.7-56.31-26.82h-83.21c-4.61-.15-8.59,1.84-12.43,3.76-3.77,1.88-7.66,3.82-12.19,3.83-2.89,3.1-6.61,5.11-10.22,7.05-3.47,1.88-7.07,3.82-9.93,6.73-3.64,3.41-7.23,7.93-11.04,12.72l-63.13,79.42,66.15,64.64,24.83-33.49v264.44Z"/>
      </g>
      <path class="cls-1" d="m585.91,670.07H252.04v-260.47l-22.64,30.53-69.02-67.44,64.23-80.8c3.85-4.85,7.49-9.42,11.22-12.91,3.03-3.08,6.75-5.09,10.35-7.04,3.69-1.99,7.17-3.88,9.86-6.82l.8.72.04-1.2c4.25.13,7.91-1.69,11.77-3.61,4.06-2.03,8.26-4.12,13.35-3.96h84.53s.35.95.35.95c7.7,20.9,9.53,25.86,54.59,25.86s49.01-3.56,54.55-25.71l.28-1.12,73.28,1.21c20.92-.89,41.26,9.29,55.76,27.93.87,1.04,1.77,2.16,2.69,3.29l65.78,82.73-69.02,67.44-18.88-25.45v255.87Zm-330.96-2.91h328.04v-261.78l22.14,29.85,64.74-63.27-64.13-80.66c-.9-1.11-1.8-2.22-2.69-3.29-13.94-17.91-33.41-27.68-53.45-26.84l-4.79-.08-66.27-1.1c-6.07,23.51-13.5,26.8-57.09,26.8s-48.78-4.72-56.98-26.82h-82.54c-4.41-.13-8.1,1.71-12,3.66-3.76,1.87-7.63,3.81-12.2,3.92-2.95,3.04-6.62,5.02-10.18,6.94-3.41,1.84-6.94,3.75-9.7,6.56-3.61,3.39-7.19,7.88-10.97,12.64l-62.6,78.74,64.74,63.27,25.91-34.93v266.38Z"/>
    </g>
    <g>
      <g>
        <g>
          <g>
            <path class="cls-11" d="m463.49,436.82c0-.99-.31-1.91-.77-2.67,0,0,0,0,0,0,0-3.4-15.79-4.63-35.25-4.63s-35.22,1.22-35.22,4.63c0,0,0,0,0,0-.46.76-.73,1.68-.73,2.67v3.33c0,1,.28,1.94.76,2.71.62,3.31,16.13,4.71,35.19,4.71s34.69-1.4,35.25-4.71c.47-.77.77-1.71.77-2.7v-3.33Z"/>
            <path class="cls-13" d="m427.47,449.4c-33.89,0-36.45-3.89-36.93-5.88-.56-1.02-.85-2.18-.85-3.37v-3.33c0-1.14.27-2.24.78-3.23.44-2.52,3.98-3.94,11.89-4.85,6.07-.7,14.52-1.05,25.11-1.05s19.06.35,25.13,1.05c7.92.91,11.46,2.33,11.9,4.85.54,1.02.82,2.13.82,3.23v3.33c0,1.16-.3,2.31-.86,3.35-.45,2.01-3.02,5.9-36.99,5.9Zm-33.42-7.02c1.13,1.2,9.43,3.36,33.42,3.36s32.32-2.15,33.47-3.34l.03-.19.18-.3c.33-.54.51-1.16.51-1.75v-3.33c0-.73-.28-1.34-.51-1.72l-.26-.44v-.24c-.73-.6-5.43-3.06-33.42-3.06s-32.66,2.46-33.39,3.06v.24l-.26.44c-.31.51-.47,1.1-.47,1.72v3.33c0,.63.17,1.23.48,1.75l.18.29.04.19Z"/>
          </g>
          <g>
            <path class="cls-11" d="m463.46,434.75c0-.99-.31-1.91-.77-2.67,0,0,0,0,0,0,0-3.4-15.79-4.63-35.25-4.63s-35.22,1.22-35.22,4.63c0,0,0,0,0,0-.46.76-.73,1.68-.73,2.67v3.33c0,1,.28,1.94.76,2.71.62,3.31,16.13,4.71,35.19,4.71s34.69-1.4,35.25-4.71c.47-.77.77-1.71.77-2.7v-3.33Z"/>
            <path class="cls-13" d="m427.44,447.33c-33.89,0-36.45-3.89-36.93-5.88-.56-1.02-.85-2.18-.85-3.37v-3.33c0-1.14.27-2.24.78-3.23.44-2.52,3.98-3.94,11.89-4.85,6.07-.7,14.52-1.05,25.11-1.05s19.06.35,25.13,1.05c7.92.91,11.46,2.33,11.9,4.85.54,1.02.82,2.13.82,3.23v3.33c0,1.16-.3,2.31-.86,3.35-.45,2.01-3.02,5.9-36.99,5.9Zm-33.42-7.02c1.13,1.2,9.43,3.36,33.42,3.36s32.32-2.15,33.47-3.34l.03-.19.18-.3c.33-.54.51-1.16.51-1.75v-3.33c0-.73-.28-1.34-.51-1.72l-.26-.44v-.24c-.73-.6-5.43-3.06-33.42-3.06s-32.66,2.46-33.39,3.06v.24l-.26.44c-.31.51-.47,1.1-.47,1.72v3.33c0,.63.17,1.24.48,1.75l.18.29.04.19Z"/>
          </g>
          <g>
            <path class="cls-11" d="m463.49,431.52c0-.99-.31-1.91-.77-2.67,0,0,0,0,0,0,0-3.4-15.79-4.63-35.25-4.63s-35.22,1.22-35.22,4.63c0,0,0,0,0,0-.46.76-.73,1.68-.73,2.67v3.33c0,1,.28,1.94.76,2.71.62,3.31,16.13,4.71,35.19,4.71s34.69-1.4,35.25-4.71c.47-.77.77-1.71.77-2.7v-3.33Z"/>
            <path class="cls-13" d="m427.47,444.1c-33.88,0-36.45-3.89-36.93-5.88-.56-1.02-.85-2.18-.85-3.37v-3.33c0-1.14.27-2.24.78-3.23.44-2.52,3.97-3.95,11.89-4.85,6.07-.7,14.52-1.05,25.11-1.05s19.06.35,25.13,1.05c7.92.91,11.46,2.33,11.9,4.85.54,1.02.82,2.13.82,3.23v3.33c0,1.16-.3,2.31-.86,3.35-.45,2.01-3.02,5.9-36.99,5.9Zm-33.42-7.02c1.13,1.2,9.43,3.36,33.42,3.36s32.32-2.15,33.47-3.34l.03-.19.18-.3c.33-.54.51-1.16.51-1.75v-3.33c0-.73-.28-1.34-.51-1.72l-.26-.44v-.24c-.73-.6-5.43-3.06-33.42-3.06s-32.66,2.46-33.39,3.06v.24l-.26.44c-.31.51-.47,1.1-.47,1.72v3.33c0,.63.17,1.23.48,1.75l.18.29.04.19Z"/>
          </g>
        </g>
        <g>
          <path class="cls-11" d="m420.43,437.67c.34.2.39.77.09,1.27s-.8.75-1.15.55-.81-1.01-.52-1.52,1.23-.5,1.57-.31Z"/>
          <path class="cls-13" d="m419.64,439.78c-.13,0-.26-.03-.37-.1-.42-.24-.96-1.17-.6-1.8.16-.28.49-.47.92-.52.35-.04.72.01.94.14.45.26.53.94.17,1.56-.26.46-.68.73-1.06.73Zm.2-2.01c-.06,0-.13,0-.19.01-.29.04-.52.15-.61.31-.22.38.17,1.07.44,1.23.24.14.63-.08.86-.48.23-.39.22-.84-.02-.98-.09-.05-.27-.09-.48-.09Z"/>
        </g>
        <g>
          <path class="cls-11" d="m401.59,427.86c-.45-.26.13-.51.42-1.01s.23-.26.69,0,1.1.4.81.9-1.46.37-1.91.11Z"/>
          <path class="cls-13" d="m402.61,428.34c-.43,0-.88-.11-1.15-.26-.06-.04-.25-.15-.28-.36-.03-.23.13-.41.31-.59.11-.11.23-.24.31-.38.13-.23.23-.38.4-.41.16-.03.27.06.37.14.06.05.13.11.25.18.09.05.19.1.28.14.3.14.6.29.69.58.05.16.02.33-.08.51-.19.33-.64.46-1.1.46Zm-.93-.7s.02.01.03.02c.4.23,1.4.3,1.58-.02.03-.05.05-.1.04-.12-.03-.09-.27-.2-.44-.29-.11-.05-.22-.1-.32-.16-.13-.07-.22-.14-.29-.2-.02.03-.04.06-.07.11-.11.19-.26.35-.37.47-.06.06-.13.14-.16.19Z"/>
        </g>
        <g>
          <path class="cls-11" d="m441.55,425.11c.52,0,.95.64.95,1.43s-.43,1.43-.95,1.43-1.6-.64-1.6-1.43,1.08-1.43,1.6-1.43Z"/>
          <path class="cls-13" d="m441.55,428.25c-.65,0-1.89-.72-1.89-1.71s1.24-1.71,1.89-1.71c.69,0,1.23.75,1.23,1.71s-.54,1.71-1.23,1.71Zm0-2.85c-.41,0-1.32.55-1.32,1.14s.91,1.14,1.32,1.14c.36,0,.67-.53.67-1.14s-.31-1.14-.67-1.14Z"/>
        </g>
        <g>
          <path class="cls-11" d="m412.5,430.66c.39-.35.95-.36,1.25-.03s.22.89-.17,1.24-1.44.79-1.74.46.27-1.32.66-1.67Z"/>
          <path class="cls-13" d="m412.17,432.66c-.22,0-.39-.06-.5-.19-.19-.22-.18-.59.04-1.06.16-.35.42-.71.64-.91h0c.48-.42,1.17-.43,1.55,0,.37.42.29,1.11-.19,1.54-.22.2-.62.41-.98.53-.21.07-.4.1-.56.1Zm1-2.06c-.18,0-.38.07-.54.22h0c-.18.16-.4.48-.54.77-.15.32-.16.54-.11.6.05.06.26.08.61-.03.31-.1.65-.28.83-.44.3-.27.37-.69.16-.93-.1-.12-.25-.17-.41-.17Z"/>
        </g>
        <g>
          <path class="cls-11" d="m455.19,429.15c.43.25.52.89.21,1.44s-.92.79-1.35.54-1.06-1.2-.74-1.75,1.45-.48,1.88-.23Z"/>
          <path class="cls-13" d="m454.42,431.47c-.17,0-.34-.04-.49-.13-.27-.15-.56-.49-.75-.86-.24-.47-.27-.9-.08-1.22.18-.32.57-.51,1.1-.54.42-.02.86.06,1.12.21h0c.55.32.68,1.11.3,1.77-.18.31-.45.55-.75.67-.15.06-.29.09-.44.09Zm-.09-2.26s-.07,0-.11,0c-.35.02-.6.13-.7.29-.1.17-.06.44.1.75.16.32.4.57.55.66.14.08.32.09.5.01.2-.08.38-.25.51-.46.24-.42.19-.93-.12-1.1h0c-.14-.08-.43-.15-.74-.15Z"/>
        </g>
        <g>
          <path class="cls-11" d="m460.18,435.72c-.39-.35-1-.3-1.36.1s-.33,1.01.06,1.36,1.49.74,1.85.33-.16-1.45-.55-1.79Z"/>
          <path class="cls-13" d="m460.25,437.92c-.56,0-1.23-.31-1.51-.57-.49-.43-.53-1.19-.08-1.69.21-.24.51-.39.82-.41.32-.02.63.08.86.29h0c.42.37,1.07,1.56.57,2.12-.16.18-.4.25-.67.25Zm-.68-2.2s-.04,0-.05,0c-.2.01-.38.1-.51.25-.27.31-.25.77.04,1.03.38.34,1.31.59,1.52.35.21-.24-.15-1.13-.53-1.46h0c-.13-.11-.29-.18-.47-.18Z"/>
        </g>
        <g>
          <path class="cls-11" d="m431.58,432.72c-.45.26-.59.88-.3,1.38s.89.69,1.35.43,1.15-1.21.86-1.71-1.46-.37-1.91-.11Z"/>
          <path class="cls-13" d="m432.18,434.89c-.43,0-.87-.24-1.12-.67-.17-.29-.23-.63-.16-.95.07-.33.26-.6.54-.76h0c.27-.16.72-.26,1.14-.27.55,0,.93.16,1.11.46.17.3.12.72-.15,1.19-.21.36-.53.69-.8.85-.18.1-.37.15-.56.15Zm-.49-1.96c-.16.09-.27.25-.31.44-.04.2,0,.42.1.61.22.38.68.54,1.01.34.16-.09.43-.35.62-.68.18-.3.23-.56.15-.7-.08-.14-.33-.22-.68-.22-.38,0-.74.11-.9.2h0Z"/>
        </g>
        <g>
          <path class="cls-11" d="m447.22,439.51c.52,0,.95-.64.95-1.43s-.43-1.43-.95-1.43-1.6.64-1.6,1.43,1.08,1.43,1.6,1.43Z"/>
          <path class="cls-13" d="m447.22,439.8c-.65,0-1.89-.72-1.89-1.71s1.24-1.71,1.89-1.71c.69,0,1.23.75,1.23,1.71s-.54,1.71-1.23,1.71Zm0-2.85c-.41,0-1.32.55-1.32,1.14s.91,1.14,1.32,1.14c.36,0,.67-.53.67-1.14s-.31-1.14-.67-1.14Z"/>
        </g>
        <g>
          <path class="cls-11" d="m399.89,437.82c.39.35,1,.3,1.36-.1s.33-1.01-.06-1.36-1.49-.74-1.85-.33.16,1.45.55,1.79Z"/>
          <path class="cls-13" d="m400.51,438.29c-.28,0-.55-.1-.78-.29h0c-.42-.37-1.07-1.56-.57-2.12.5-.56,1.76-.06,2.18.31.49.43.53,1.19.08,1.69-.24.27-.58.41-.91.41Zm-.47-.64c.3.26.76.23,1.03-.08.27-.31.25-.77-.04-1.03-.38-.34-1.31-.59-1.52-.35-.21.24.15,1.13.53,1.46h0Z"/>
        </g>
        <g>
          <path class="cls-11" d="m424.89,427.42c.45-.26.59-.88.3-1.38s-.89-.69-1.35-.43-1.15,1.21-.86,1.71,1.46.37,1.91.11Z"/>
          <path class="cls-13" d="m423.85,427.9c-.53,0-.91-.16-1.08-.46-.17-.3-.12-.72.15-1.19.21-.36.53-.69.8-.85.28-.16.61-.19.93-.09.31.1.58.32.75.61s.23.63.16.95c-.07.33-.26.6-.54.76h0c-.27.16-.72.26-1.14.27h-.02Zm.43-2.17c-.11,0-.22.03-.32.08-.16.09-.43.35-.62.68-.18.3-.23.56-.15.7.08.14.34.21.68.22.38,0,.74-.11.9-.2.16-.09.27-.25.31-.44.04-.2,0-.42-.1-.61-.11-.19-.28-.33-.48-.39-.07-.02-.15-.04-.22-.04Z"/>
        </g>
      </g>
      <g>
        <path class="cls-11" d="m466.14,423.47c0-1.08-.34-2.08-.84-2.91,0,0,0,0,0,0,0-3.71-17.23-5.05-38.47-5.05s-38.44,1.34-38.44,5.05c0,0,0,0,0,0-.5.83-.8,1.84-.8,2.91v3.63c0,1.1.31,2.11.82,2.96.68,3.61,17.6,5.14,38.41,5.14s37.86-1.53,38.47-5.15c.51-.84.84-1.86.84-2.95v-3.63Z"/>
        <path class="cls-13" d="m426.82,437.2c-36.98,0-39.79-4.24-40.3-6.42-.61-1.11-.93-2.38-.93-3.68v-3.63c0-1.24.29-2.45.85-3.52.48-2.75,4.34-4.3,12.97-5.29,6.62-.76,15.84-1.15,27.41-1.15s20.8.39,27.43,1.15c8.64.99,12.51,2.55,12.99,5.29.59,1.11.9,2.32.9,3.53v3.63c0,1.26-.32,2.52-.94,3.65-.49,2.19-3.29,6.44-40.37,6.44Zm-36.48-7.66c1.24,1.31,10.29,3.67,36.48,3.67s35.27-2.35,36.53-3.65l.04-.21.2-.33c.36-.58.55-1.26.55-1.91v-3.63c0-.79-.3-1.46-.56-1.88l-.29-.48v-.27c-.8-.66-5.93-3.34-36.47-3.34s-35.65,2.69-36.44,3.34v.27l-.29.48c-.33.55-.51,1.2-.51,1.88v3.63c0,.69.18,1.35.53,1.91l.19.32.04.21Z"/>
      </g>
      <g>
        <g>
          <path class="cls-11" d="m465.98,418.97c0-.39-.34-.75-.84-1.06,0,0,0,0,0,0,0-1.35-17.27-4.07-38.51-4.07s-38.4,2.73-38.4,4.07c0,0,0,0,0,0-.5.3-.8.67-.8,1.06v1.32c0,.4.31.77.82,1.07.68,1.31,16.91,3.74,37.72,3.74s38.56-2.43,39.16-3.74c.51-.3.84-.68.84-1.07v-1.32Z"/>
          <path class="cls-13" d="m425.97,426.3c-14.34,0-34.77-1.48-38.32-3.91h0c-1.23-.71-1.42-1.62-1.42-2.1v-1.32c0-.41.13-1.13.95-1.79.51-.85,2.71-1.85,12.14-3,4.7-.58,14.5-1.54,27.31-1.54s22.64.97,27.36,1.54c9.43,1.15,11.66,2.14,12.18,2.99.82.64,1.01,1.31,1.01,1.8v1.32c0,.44-.16,1.25-1.2,1.96-.61.64-2.77,1.59-12.7,2.67-4.77.52-14.66,1.39-27.3,1.39Zm-36.75-5.69c1.92,1.01,16.42,3.28,36.75,3.28s36.01-2.23,38.18-3.28l.04-.1.32-.19c.13-.08.21-.14.26-.19v-1s-.13-.11-.26-.19l-.58-.35v-.13c-2.72-1.16-18-3.42-37.3-3.42s-34.49,2.26-37.2,3.42v.13l-.58.35c-.11.07-.18.12-.22.16v1.05s.11.09.23.17l.3.18.06.11Zm75.07-.07h0s0,0,0,0Z"/>
        </g>
        <g>
          <path class="cls-11" d="m393.35,417.92c.43-.14.96-.18,1.18-.08s.06.28-.37.41-1.49.35-1.71.26.48-.45.9-.59Z"/>
          <path class="cls-13" d="m392.63,418.64c-.1,0-.17,0-.23-.03-.08-.03-.12-.09-.12-.16.01-.3,1.02-.64,1.03-.64.46-.15,1.01-.18,1.26-.08.15.06.17.17.17.22,0,.2-.3.33-.55.41-.28.09-1.12.28-1.57.28Zm-.04-.23c.3.01,1.11-.13,1.54-.27.24-.08.34-.15.38-.19,0,0,0,0-.01,0-.18-.07-.66-.05-1.1.09h0c-.31.1-.65.27-.8.38Z"/>
        </g>
        <g>
          <path class="cls-11" d="m429.53,421.74c.37.08.42.3.1.5s-.88.3-1.25.22-.89-.4-.57-.6,1.34-.2,1.72-.12Z"/>
          <path class="cls-13" d="m428.67,422.63c-.11,0-.22,0-.32-.03-.28-.06-.73-.27-.77-.54-.01-.07,0-.21.16-.31.38-.24,1.46-.21,1.82-.14h0c.33.07.4.23.42.32.02.09,0,.26-.27.43-.27.17-.67.27-1.04.27Zm.22-.8c-.4,0-.84.05-1.01.15-.03.02-.03.03-.03.03,0,.06.26.25.56.32.34.07.86-.02,1.15-.2.13-.08.15-.14.15-.15,0-.01-.04-.06-.2-.1h0c-.15-.03-.37-.05-.61-.05Z"/>
        </g>
        <g>
          <path class="cls-11" d="m395.52,419.94c.57,0,1.04.05,1.04.11s-.46.11-1.04.11-1.75-.05-1.75-.11,1.18-.11,1.75-.11Z"/>
          <path class="cls-13" d="m395.52,420.25c-1.22,0-1.83-.07-1.83-.2s.62-.2,1.83-.2c1.12,0,1.12.14,1.12.2s0,.2-1.12.2Zm-1.02-.2c.33.02.73.03,1.02.03s.52-.01.69-.03c-.17-.02-.41-.03-.69-.03s-.69.01-1.02.03Z"/>
        </g>
        <g>
          <path class="cls-11" d="m424.34,417.63c-.43.14-1.09.12-1.48-.04s-.36-.4.07-.54,1.63-.29,2.02-.13-.18.57-.6.71Z"/>
          <path class="cls-13" d="m423.66,417.87c-.31,0-.63-.05-.86-.14-.31-.13-.37-.29-.37-.41,0-.12.09-.3.45-.41.39-.13,1.67-.31,2.12-.13.2.08.23.22.23.3-.01.33-.57.61-.84.7h0c-.21.07-.47.1-.73.1Zm.75-.87c-.47,0-1.12.09-1.44.19-.21.07-.24.13-.24.14,0,0,.04.06.18.11.35.14.98.16,1.38.04h0c.33-.11.59-.32.62-.41,0,0-.02,0-.03-.01-.1-.04-.27-.06-.47-.06Z"/>
        </g>
        <g>
          <path class="cls-11" d="m409.06,416.81c-.5-.1-.64-.35-.33-.55s.97-.27,1.47-.17,1.26.48.94.68-1.59.15-2.09.04Z"/>
          <path class="cls-13" d="m410.2,417.06c-.45,0-.93-.05-1.17-.1-.36-.08-.58-.23-.61-.43-.02-.09,0-.26.24-.41.35-.22,1.05-.3,1.59-.19.33.07,1.08.34,1.14.68,0,.05.02.19-.15.29-.19.12-.6.16-1.04.16Zm-.47-.86c-.35,0-.71.07-.9.19-.08.05-.09.09-.09.09,0,.02.08.11.37.17.5.1,1.67.14,1.95-.01-.1-.11-.49-.31-.87-.39-.14-.03-.29-.04-.45-.04Z"/>
        </g>
        <g>
          <path class="cls-11" d="m437.11,417.86c.57,0,1.04.25,1.04.56s-.46.56-1.04.56-1.75-.25-1.75-.56,1.18-.56,1.75-.56Z"/>
          <path class="cls-13" d="m437.11,419.18c-.24,0-1.94-.15-1.94-.75s1.7-.75,1.94-.75c.7,0,1.22.32,1.22.75s-.53.75-1.22.75Zm0-1.13c-.61,0-1.48.25-1.57.4.08.11.96.36,1.57.36.52,0,.85-.22.85-.38s-.33-.38-.85-.38Z"/>
        </g>
        <g>
          <path class="cls-11" d="m444.41,416.18c.43-.14,1.04-.14,1.36,0s.24.35-.19.49-1.57.31-1.9.18.3-.52.72-.66Z"/>
          <path class="cls-13" d="m444.07,417.03c-.18,0-.33-.02-.43-.06-.17-.07-.18-.19-.18-.24.01-.33.72-.62.91-.68h0c.46-.15,1.1-.15,1.46,0,.25.1.29.25.28.33,0,.12-.09.29-.48.42-.3.1-1.04.23-1.56.23Zm-.31-.31c.33.1,1.35-.05,1.78-.19.22-.07.28-.14.29-.16h0s-.03-.03-.11-.06c-.29-.12-.87-.11-1.27.01h0c-.32.1-.62.3-.7.4Z"/>
        </g>
        <g>
          <path class="cls-11" d="m457.25,417.02c.5.1.7.31.46.47s-.84.19-1.34.09-1.32-.44-1.07-.59,1.46-.06,1.96.04Z"/>
          <path class="cls-13" d="m456.94,417.77c-.2,0-.41-.02-.6-.06-.01,0-1.16-.27-1.23-.63-.02-.09.02-.17.11-.22.32-.2,1.66-.06,2.06.02.23.05.62.17.67.42.01.07,0,.2-.16.3-.17.11-.49.17-.84.17Zm-1.5-.7c.16.11.59.29.95.36.5.11,1.05.05,1.24-.07.03-.02.04-.03.04-.03,0,0-.11-.11-.45-.18-.5-.11-1.47-.16-1.78-.08Z"/>
        </g>
        <g>
          <path class="cls-11" d="m449.21,421.28c.57,0,1.04.09,1.04.21s-.46.21-1.04.21-1.75-.09-1.75-.21,1.18-.21,1.75-.21Z"/>
          <path class="cls-13" d="m449.21,421.8c-.08,0-1.86,0-1.86-.32s1.79-.32,1.86-.32c.35,0,1.15.03,1.15.32s-.8.32-1.15.32Zm-1.36-.32c.35.05.93.09,1.36.09s.72-.05.85-.09c-.14-.04-.43-.09-.85-.09s-1.01.04-1.36.09Z"/>
        </g>
        <g>
          <path class="cls-11" d="m437.24,421.32c.43.14.96.18,1.18.08s.06-.28-.37-.41-1.49-.35-1.71-.26.48.45.9.59Z"/>
          <path class="cls-13" d="m438.07,421.57c-.26,0-.58-.05-.86-.14h0s-1.02-.34-1.03-.64c0-.07.04-.13.12-.16.29-.12,1.45.14,1.79.25.25.08.54.22.55.41,0,.06-.02.16-.17.22-.1.04-.24.06-.4.06Zm-.79-.36c.44.14.92.16,1.1.09,0,0,.01,0,.01,0-.04-.04-.14-.11-.38-.19-.43-.14-1.23-.29-1.54-.27.15.11.49.28.8.38h0Z"/>
        </g>
        <g>
          <path class="cls-11" d="m421.59,420.12c.57,0,1.04-.09,1.04-.2s-.46-.2-1.04-.2-1.75.09-1.75.2,1.18.2,1.75.2Z"/>
          <path class="cls-13" d="m421.59,420.23c-.19,0-1.86,0-1.86-.31s1.67-.31,1.86-.31c.34,0,1.15.03,1.15.31s-.8.31-1.15.31Zm-1.34-.31c.36.05.92.09,1.34.09s.71-.05.85-.09c-.14-.04-.43-.09-.85-.09s-.98.04-1.34.09Z"/>
        </g>
        <g>
          <path class="cls-11" d="m456.98,421.62c-.43-.14-1.09-.12-1.48.04s-.36.4.07.54,1.63.29,2.02.13-.18-.57-.6-.71Z"/>
          <path class="cls-13" d="m457.05,422.55c-.55,0-1.26-.12-1.53-.21-.36-.12-.45-.29-.45-.41,0-.12.06-.28.37-.41.43-.17,1.12-.19,1.59-.04.27.09.83.37.84.7,0,.08-.02.22-.23.3-.14.06-.35.08-.59.08Zm-1.67-.63s.04.07.24.13c.45.14,1.59.27,1.91.14.03-.01.04-.02.04-.02-.02-.06-.29-.29-.63-.4-.39-.13-1.02-.11-1.38.04-.13.05-.17.1-.18.12h0Z"/>
        </g>
        <g>
          <path class="cls-11" d="m441.7,422.43c-.5.1-.64.35-.33.55s.97.27,1.47.17,1.26-.48.94-.68-1.59-.15-2.09-.04Z"/>
          <path class="cls-13" d="m442.36,423.36c-.41,0-.83-.09-1.07-.24-.24-.15-.25-.32-.24-.41.04-.2.25-.35.61-.43.47-.1,1.82-.18,2.21.06.16.1.15.24.14.29-.06.34-.81.61-1.14.68-.16.03-.34.05-.51.05Zm.46-.86c-.4,0-.83.03-1.09.09-.28.06-.36.15-.37.17,0,0,.02.04.09.09.28.18.9.24,1.35.15.38-.08.77-.28.87-.39-.15-.07-.49-.1-.86-.1Z"/>
        </g>
        <g>
          <path class="cls-11" d="m454.17,419.78c.57,0,1.04-.25,1.04-.56s-.46-.56-1.04-.56-1.75.25-1.75.56,1.18.56,1.75.56Z"/>
          <path class="cls-13" d="m454.17,419.97c-.24,0-1.94-.15-1.94-.75s1.69-.75,1.94-.75c.7,0,1.22.32,1.22.75s-.53.75-1.22.75Zm0-1.13c-.61,0-1.48.25-1.57.4.08.11.96.36,1.57.36.52,0,.85-.22.85-.38s-.33-.38-.85-.38Z"/>
        </g>
        <g>
          <path class="cls-11" d="m400.26,419.69c.43.14,1.09.12,1.48-.04s.36-.4-.07-.54-1.63-.29-2.02-.13.18.57.6.71Z"/>
          <path class="cls-13" d="m400.94,419.94c-.26,0-.52-.03-.73-.1-.27-.09-.83-.37-.84-.7,0-.08.02-.22.23-.3.46-.19,1.73,0,2.12.13.36.12.45.29.45.41,0,.12-.06.28-.37.41-.23.1-.55.14-.86.14Zm-.75-.87c-.2,0-.37.02-.47.06-.03.01-.04.02-.04.02.02.06.29.29.63.4.39.13,1.02.11,1.38-.04.13-.05.17-.11.18-.12h0s-.04-.07-.24-.13c-.32-.1-.97-.19-1.44-.19Z"/>
        </g>
        <g>
          <path class="cls-11" d="m415.54,418.88c.5-.1.64-.35.33-.55s-.97-.27-1.47-.17-1.26.48-.94.68,1.59.15,2.09.04Z"/>
          <path class="cls-13" d="m414.41,419.13c-.43,0-.85-.04-1.04-.16-.16-.1-.15-.24-.14-.29.06-.34.81-.61,1.14-.68.54-.11,1.24-.03,1.59.19.24.15.25.32.24.41-.04.2-.25.35-.61.43-.24.05-.71.1-1.17.1Zm-.85-.42c.31.15,1.46.12,1.95.01.28-.06.36-.15.37-.17,0,0-.02-.04-.09-.09-.28-.18-.9-.24-1.35-.15-.38.08-.77.28-.87.39Z"/>
        </g>
        <g>
          <path class="cls-11" d="m411.69,421.76c-.57,0-1.04.25-1.04.56s.46.56,1.04.56,1.75-.25,1.75-.56-1.18-.56-1.75-.56Z"/>
          <path class="cls-13" d="m411.69,423.08c-.7,0-1.22-.32-1.22-.75s.53-.75,1.22-.75c.24,0,1.94.15,1.94.75s-1.69.75-1.94.75Zm0-1.13c-.52,0-.85.22-.85.38s.33.38.85.38c.61,0,1.48-.25,1.57-.4-.08-.11-.96-.36-1.57-.36Z"/>
        </g>
      </g>
      <g>
        <g>
          <path class="cls-11" d="m431.95,424.36c20.23,0,36.72-2.49,37.31-5.62.5-.72.82-1.61.82-2.55v-3.14c0-.93-.33-1.8-.82-2.52,0,0,0,0,0,0,0-3.21-16.71-5.81-37.31-5.81s-37.31,2.6-37.31,5.81c0,0,0,0,0,0-.49.72-.77,1.59-.77,2.52v3.14c0,.95.3,1.83.8,2.55.66,3.12,17.1,5.62,37.29,5.62"/>
          <path class="cls-13" d="m431.96,426.19c-9.84,0-19.16-.59-26.25-1.66-9.87-1.49-12.15-3.34-12.73-5.02-.62-1-.95-2.14-.95-3.32v-3.14c0-1.1.29-2.17.83-3.12.35-1.81,2.55-3.77,12.42-5.31,7.14-1.11,16.61-1.72,26.67-1.72s19.53.61,26.67,1.72c9.87,1.54,12.07,3.5,12.42,5.3.57.99.87,2.06.87,3.13v3.14c0,1.15-.33,2.28-.96,3.3-.56,1.69-2.83,3.55-12.71,5.04-7.09,1.07-16.43,1.66-26.29,1.66Zm-35.54-7.99c1.7,1.79,15.11,4.33,35.54,4.33s33.83-2.52,35.55-4.31l.04-.2.22-.32c.32-.47.5-1.01.5-1.51v-3.14c0-.62-.27-1.15-.5-1.49l-.31-.46v-.27c-1.91-1.79-15.26-4.28-35.49-4.28s-33.57,2.49-35.48,4.28v.27l-.31.47c-.3.44-.46.96-.46,1.49v3.14c0,.54.16,1.06.47,1.51l.21.3.04.19Zm71.15-.05h0s0,0,0,0Z"/>
        </g>
        <g>
          <path class="cls-11" d="m470.4,410.11c0-.93-.33-1.8-.82-2.52,0,0,0,0,0,0,0-3.21-16.71-5.81-37.31-5.81s-37.31,2.6-37.31,5.81c0,0,0,0,0,0-.49.72-.77,1.59-.77,2.52v3.14c0,.95.3,1.83.8,2.55.66,3.12,16.28,5.57,36.48,5.57s37.54-2.45,38.13-5.58c.5-.72.82-1.61.82-2.55v-3.14Z"/>
          <path class="cls-13" d="m431.46,423.2c-9.81,0-18.98-.58-25.84-1.64-9.54-1.47-11.75-3.32-12.32-5-.62-1-.94-2.14-.94-3.32v-3.14c0-1.1.28-2.17.83-3.12.35-1.81,2.55-3.77,12.42-5.31,7.14-1.11,16.61-1.72,26.67-1.72s19.53.61,26.67,1.72c9.87,1.54,12.07,3.5,12.42,5.3.57.99.87,2.06.87,3.13v3.14c0,1.15-.33,2.29-.96,3.31-.57,1.68-2.92,3.54-13.12,5.02-7.28,1.05-16.76,1.64-26.69,1.64Zm-34.72-7.93c1.4,1.52,12.76,4.27,34.72,4.27s34.55-2.51,36.37-4.29l.03-.18.22-.32c.32-.47.5-1.01.5-1.51v-3.14c0-.62-.27-1.15-.5-1.49l-.31-.46v-.27c-1.91-1.79-15.26-4.28-35.48-4.28s-33.57,2.49-35.49,4.28v.27l-.31.47c-.3.44-.46.96-.46,1.49v3.14c0,.54.16,1.06.47,1.51l.21.3.04.21Z"/>
        </g>
        <g>
          <ellipse class="cls-11" cx="431.29" cy="411.2" rx="2.97" ry=".8"/>
          <path class="cls-13" d="m431.29,412.17c-1.51,0-3.15-.3-3.15-.97s1.63-.97,3.15-.97,3.15.3,3.15.97-1.63.97-3.15.97Zm0-1.59c-1.81,0-2.79.41-2.79.62s.98.62,2.79.62,2.79-.41,2.79-.62-.98-.62-2.79-.62Z"/>
        </g>
        <g>
          <ellipse class="cls-11" cx="431.51" cy="411.22" rx="4.91" ry="1.37"/>
          <path class="cls-13" d="m431.5,412.89c-2.51,0-5.21-.52-5.21-1.66s2.7-1.66,5.21-1.66,5.21.52,5.21,1.66-2.7,1.66-5.21,1.66Zm0-2.73c-2.99,0-4.62.7-4.62,1.07s1.63,1.07,4.62,1.07,4.62-.71,4.62-1.07-1.63-1.07-4.62-1.07Z"/>
        </g>
        <g>
          <ellipse class="cls-11" cx="431.73" cy="411.24" rx="8.79" ry="2.53"/>
          <path class="cls-13" d="m431.73,414.09c-4.42,0-9.11-1-9.11-2.85s4.69-2.85,9.11-2.85,9.11,1,9.11,2.85-4.69,2.85-9.11,2.85Zm0-5.06c-4.85,0-8.48,1.17-8.48,2.21s3.62,2.21,8.48,2.21,8.48-1.17,8.48-2.21-3.62-2.21-8.48-2.21Z"/>
        </g>
        <g>
          <ellipse class="cls-11" cx="431.46" cy="411.23" rx="14.56" ry="4.04"/>
          <path class="cls-13" d="m431.46,415.59c-7.31,0-14.88-1.63-14.88-4.36s7.57-4.36,14.88-4.36,14.88,1.63,14.88,4.36-7.57,4.36-14.88,4.36Zm0-8.09c-8.39,0-14.24,1.96-14.24,3.73s5.85,3.73,14.24,3.73,14.24-1.96,14.24-3.73-5.85-3.73-14.24-3.73Z"/>
        </g>
        <g>
          <ellipse class="cls-11" cx="431.31" cy="411.16" rx="18.1" ry="5.03"/>
          <path class="cls-13" d="m431.31,416.59c-9.09,0-18.49-2.03-18.49-5.42s9.4-5.42,18.49-5.42,18.49,2.03,18.49,5.42-9.4,5.42-18.49,5.42Zm0-10.05c-10.43,0-17.7,2.44-17.7,4.63s7.27,4.63,17.7,4.63,17.7-2.44,17.7-4.63-7.27-4.63-17.7-4.63Z"/>
        </g>
        <g>
          <ellipse class="cls-11" cx="431.26" cy="411.13" rx="25.69" ry="7.14"/>
          <path class="cls-13" d="m431.26,418.58c-14.58,0-26.01-3.27-26.01-7.45s11.42-7.45,26.01-7.45,26.01,3.27,26.01,7.45-11.42,7.45-26.01,7.45Zm0-14.27c-13.75,0-25.37,3.12-25.37,6.82s11.62,6.82,25.37,6.82,25.37-3.12,25.37-6.82-11.62-6.82-25.37-6.82Z"/>
        </g>
        <g>
          <path class="cls-11" d="m452.45,410.59c0,3.29-9.65,6.78-21.53,6.78s-21.49-3.49-21.49-6.78,9.61-5.42,21.49-5.42,21.53,2.12,21.53,5.42Z"/>
          <path class="cls-13" d="m430.91,417.69c-11.41,0-21.81-3.38-21.81-7.1,0-3.94,11.3-5.73,21.81-5.73s21.85,1.79,21.85,5.73c0,3.72-10.42,7.1-21.85,7.1Zm0-12.2c-12.07,0-21.17,2.19-21.17,5.1s9.25,6.46,21.17,6.46,21.22-3.47,21.22-6.46-9.12-5.1-21.22-5.1Z"/>
        </g>
        <g>
          <ellipse class="cls-11" cx="430.93" cy="411.34" rx="30" ry="8.56"/>
          <path class="cls-13" d="m430.93,420.21c-17,0-30.32-3.9-30.32-8.88s13.32-8.88,30.32-8.88,30.32,3.9,30.32,8.88-13.32,8.88-30.32,8.88Zm0-17.12c-16.09,0-29.69,3.78-29.69,8.25s13.6,8.25,29.69,8.25,29.69-3.78,29.69-8.25-13.6-8.25-29.69-8.25Z"/>
        </g>
        <g>
          <ellipse class="cls-11" cx="431.48" cy="411.63" rx="35.15" ry="9.76"/>
          <path class="cls-13" d="m431.48,421.76c-19.92,0-35.52-4.45-35.52-10.13s15.6-10.13,35.52-10.13,35.52,4.45,35.52,10.13-15.6,10.13-35.52,10.13Zm0-19.53c-18.86,0-34.79,4.31-34.79,9.4s15.93,9.4,34.79,9.4,34.79-4.31,34.79-9.4-15.93-9.4-34.79-9.4Z"/>
        </g>
      </g>
      <g>
        <g>
          <path class="cls-11" d="m465.52,405.32c0-.95-.34-1.84-.84-2.58,0,0,0,0,0,0,0-3.29-17.11-5.95-38.21-5.95s-38.21,2.66-38.21,5.95c0,0,0,0,0,0-.5.74-.79,1.62-.79,2.58v3.22c0,.97.3,1.87.82,2.61.67,3.19,17.51,5.75,38.19,5.75s37.6-2.55,38.21-5.76c.51-.74.84-1.65.84-2.61v-3.22Z"/>
          <path class="cls-13" d="m426.47,418.77c-10.08,0-19.62-.6-26.88-1.7-10.11-1.53-12.44-3.42-13.04-5.14-.64-1.02-.97-2.19-.97-3.4v-3.22c0-1.13.29-2.23.85-3.2.35-1.85,2.61-3.86,12.72-5.44,7.31-1.14,17.01-1.76,27.31-1.76s20,.63,27.31,1.76c10.11,1.57,12.36,3.58,12.72,5.43.59,1.01.9,2.11.9,3.21v3.22c0,1.18-.34,2.34-.98,3.38-.57,1.73-2.9,3.64-13.01,5.16-7.26,1.09-16.82,1.7-26.93,1.7Zm-36.39-8.18c1.74,1.84,15.47,4.43,36.39,4.43s34.64-2.58,36.4-4.41l.04-.2.22-.32c.33-.48.51-1.03.51-1.55v-3.22c0-.63-.28-1.18-.52-1.53l-.32-.48v-.27c-1.96-1.83-15.63-4.38-36.34-4.38s-34.38,2.54-36.34,4.38v.27l-.32.48c-.31.45-.47.98-.47,1.53v3.22c0,.55.17,1.09.49,1.55l.21.31.04.2Zm72.86-.05h0s0,0,0,0Z"/>
        </g>
        <g>
          <g>
            <path class="cls-11" d="m465.47,402.3c0-.95-.34-1.84-.84-2.58,0,0,0,0,0,0,0-3.29-17.11-5.95-38.21-5.95s-38.21,2.66-38.21,5.95c0,0,0,0,0,0-.5.74-.79,1.62-.79,2.58v3.22c0,.97.3,1.87.82,2.61.67,3.19,17.51,5.75,38.19,5.75s37.6-2.55,38.21-5.76c.51-.74.84-1.65.84-2.61v-3.22Z"/>
            <path class="cls-13" d="m426.43,415.75c-10.08,0-19.62-.6-26.88-1.7-10.11-1.53-12.44-3.42-13.04-5.14-.64-1.02-.97-2.19-.97-3.4v-3.22c0-1.13.29-2.23.85-3.2.35-1.85,2.61-3.86,12.72-5.44,7.31-1.14,17.01-1.76,27.31-1.76s20,.63,27.31,1.76c10.11,1.57,12.36,3.58,12.72,5.43.59,1.01.9,2.11.9,3.2v3.22c0,1.18-.34,2.34-.98,3.38-.57,1.73-2.9,3.64-13.01,5.16-7.26,1.09-16.82,1.7-26.93,1.7Zm-36.39-8.18c1.74,1.84,15.47,4.43,36.39,4.43s34.64-2.58,36.4-4.41l.04-.2.22-.32c.33-.48.51-1.03.51-1.55v-3.22c0-.63-.28-1.18-.52-1.53l-.32-.48v-.27c-1.96-1.83-15.63-4.38-36.34-4.38s-34.38,2.54-36.34,4.38v.27l-.32.48c-.31.45-.47.98-.47,1.53v3.22c0,.55.17,1.09.49,1.55l.22.31.04.2Z"/>
          </g>
          <g>
            <path class="cls-11" d="m426.13,400.05l12.41-2.87c.26-.06.49.19.4.45l-1.41,4.11c-.07.21.06.43.28.46l11.97,1.67c.4.06.4.63,0,.69l-11.97,1.67c-.22.03-.35.25-.28.46l1.41,4.11c.09.26-.14.51-.4.45l-12.41-2.87c-.05-.01-.1-.01-.16,0l-12.41,2.87c-.26.06-.49-.19-.4-.45l1.41-4.11c.07-.21-.06-.43-.28-.46l-11.97-1.67c-.4-.06-.4-.63,0-.69l11.97-1.67c.22-.03.35-.25.28-.46l-1.41-4.11c-.09-.26.14-.51.4-.45l12.41,2.87c.05.01.1.01.16,0Z"/>
            <path class="cls-13" d="m413.48,412.36c-.41,0-.81-.17-1.09-.48-.36-.4-.47-.95-.3-1.46l1.11-3.22-11.05-1.54c-.73-.1-1.26-.71-1.26-1.45s.53-1.35,1.26-1.45l11.05-1.54-1.11-3.22c-.17-.5-.06-1.06.3-1.46.36-.4.9-.57,1.42-.45l12.23,2.83,12.23-2.83c.52-.12,1.06.05,1.42.45.36.4.47.95.3,1.46l-1.11,3.22,11.05,1.54c.73.1,1.26.71,1.26,1.45s-.53,1.35-1.26,1.45l-11.04,1.54,1.11,3.22c.17.5.06,1.06-.3,1.46-.36.4-.9.57-1.42.45l-12.23-2.83-12.23,2.83c-.11.03-.22.04-.33.04Zm-5.52-8.15l6.48.9c.44.06.82.31,1.05.68.23.37.28.83.14,1.24l-.96,2.79,11.05-2.56c.22-.05.44-.05.66,0l11.05,2.56-.96-2.79c-.14-.41-.09-.87.14-1.24.23-.37.61-.62,1.05-.68l6.48-.9-6.48-.9c-.44-.06-.82-.31-1.05-.68s-.28-.83-.14-1.24l.96-2.79-11.05,2.56c-.22.05-.45.05-.66,0l-11.05-2.56.96,2.79c.14.42.09.87-.14,1.24s-.61.62-1.05.68l-6.48.9Zm17.91-5.25h0s0,0,0,0Z"/>
          </g>
          <g>
            <path class="cls-11" d="m417.93,405.9c.65-.58,1.45-.73,1.79-.35s.09,1.16-.56,1.73-2.26,1.45-2.6,1.07.72-1.87,1.37-2.45Z"/>
            <path class="cls-13" d="m416.84,408.73c-.2,0-.37-.06-.49-.19-.6-.67.95-2.47,1.4-2.86h0c.35-.31.76-.53,1.15-.6.44-.09.82.01,1.05.28.24.27.29.65.15,1.08-.12.38-.38.76-.74,1.07-.36.32-1.7,1.23-2.52,1.23Zm1.29-2.61h0c-.68.61-1.42,1.79-1.33,2.05.22.08,1.49-.5,2.17-1.11.27-.24.48-.54.57-.81.07-.22.06-.41-.03-.51-.09-.1-.27-.14-.5-.09-.28.06-.6.23-.87.47Z"/>
          </g>
          <g>
            <path class="cls-11" d="m434.11,405.92c-.67-.55-1.47-.68-1.8-.29s-.05,1.16.62,1.71,2.3,1.37,2.63.98-.78-1.85-1.45-2.4Z"/>
            <path class="cls-13" d="m435.26,408.72c-.26,0-.59-.09-1.01-.26-.54-.23-1.15-.58-1.52-.89-.8-.67-1.09-1.6-.66-2.13.23-.27.6-.38,1.04-.31.39.06.81.26,1.17.56h0c.46.38,2.06,2.12,1.49,2.82-.12.14-.29.21-.52.21Zm-2.39-3.02c-.15,0-.27.04-.34.12-.19.23.02.83.58,1.3.7.58,1.99,1.12,2.23,1,.05-.23-.72-1.39-1.43-1.98h0c-.28-.23-.6-.39-.89-.44-.06,0-.11-.01-.16-.01Z"/>
          </g>
          <g>
            <path class="cls-11" d="m419.09,400.77c.75.43,1.15,1.14.9,1.59s-1.07.45-1.82.02-2.09-1.68-1.83-2.13,2.01.09,2.76.52Z"/>
            <path class="cls-13" d="m419.25,402.99c-.39,0-.83-.13-1.23-.36-.52-.3-2.39-1.75-1.94-2.53.19-.33.69-.4,1.51-.2.57.13,1.23.38,1.64.62.41.24.74.55.94.9.22.39.25.78.07,1.09-.18.31-.52.48-.98.48,0,0,0,0-.01,0Zm-2.46-2.62c-.1,0-.18.01-.22.04,0,.23.95,1.25,1.74,1.71.31.18.65.28.94.28h0c.23,0,.41-.07.47-.19.07-.12.04-.3-.07-.51-.14-.25-.4-.5-.72-.68h0c-.65-.38-1.68-.66-2.15-.66Z"/>
          </g>
          <g>
            <path class="cls-11" d="m415.53,403.74c.87,0,1.57.21,1.57.47s-.7.47-1.57.47-2.65-.21-2.65-.47,1.78-.47,2.65-.47Z"/>
            <path class="cls-13" d="m415.53,404.9s-2.86-.04-2.86-.68,2.83-.68,2.86-.68c.66,0,1.78.14,1.78.68s-1.12.68-1.78.68Zm-2.25-.68c.47.13,1.52.26,2.25.26.85,0,1.32-.2,1.37-.29-.05-.04-.51-.24-1.37-.24-.73,0-1.78.13-2.25.26Z"/>
          </g>
          <g>
            <path class="cls-11" d="m434.07,402.41c-.67.55-1.47.68-1.8.29s-.05-1.16.62-1.71,2.3-1.37,2.63-.98-.78,1.85-1.45,2.4Z"/>
            <path class="cls-13" d="m432.83,403.22c-.32,0-.61-.11-.79-.33-.44-.53-.15-1.46.66-2.13.37-.3.98-.66,1.52-.89.78-.33,1.28-.35,1.53-.05.57.69-1.03,2.43-1.49,2.82-.46.38-.98.58-1.42.58Zm2.39-3.05c-.34,0-1.49.51-2.14,1.05-.56.47-.77,1.07-.58,1.3.19.23.82.14,1.39-.33h0c.7-.58,1.47-1.75,1.4-2.01-.02,0-.04,0-.06,0Z"/>
          </g>
          <g>
            <path class="cls-11" d="m435.93,403.74c-.87,0-1.57.21-1.57.47s.7.47,1.57.47,2.65-.21,2.65-.47-1.78-.47-2.65-.47Z"/>
            <path class="cls-13" d="m435.93,404.89c-.66,0-1.78-.14-1.78-.68s1.12-.68,1.78-.68c.03,0,2.86.04,2.86.68s-2.83.68-2.86.68Zm0-.94c-.85,0-1.32.2-1.37.29.05.04.51.24,1.37.24.73,0,1.78-.13,2.25-.26-.47-.13-1.52-.26-2.25-.26Z"/>
          </g>
          <g>
            <ellipse class="cls-11" cx="426.05" cy="403.79" rx="3.82" ry="1.07"/>
            <path class="cls-13" d="m426.05,405.07c-2,0-4.03-.44-4.03-1.28,0-1.68,8.06-1.68,8.06,0,0,.84-2.03,1.28-4.03,1.28Zm0-2.14c-2.37,0-3.61.56-3.61.86s1.24.86,3.61.86,3.61-.56,3.61-.86-1.24-.86-3.61-.86Z"/>
          </g>
        </g>
      </g>
      <g>
        <g>
          <g>
            <path class="cls-11" d="m427.31,383.75l12.81,7.71c.15.09-8.15-4.82-11.47-6.87-.35-.22-.01-.6.44-.5l18.91,3.99s.1.01.15.01l13.85-.2c.89-.03,1.14,14.57.59,18.33-.04.3-.65.37-.85.1l-6.18-8.25c-.23-.31-.96-.15-.84.19.03.1.1.19.21.27l9.62,7.39c.05.04,2.92,2.83,2.96,2.88,1.33,1.5-2.41.67-4.78,1.4-.12.04-7.45-.17-7.58-.17l-16.69,2.92c-.15.02-.31-.02-.41-.1l-2.64-1.98c-.12-.09-.32-.13-.5-.08l-8.75,2.19c-.21,0,3.32-2.14,3.15-2.05-1.55.81-2.85,2.66-4.4,1.85-.14-.08-9.56-.49-10.87-.54-.1,0-.19-.03-.26-.07l-3.38-1.88c-.12-.06-.27-.09-.42-.06-.78.16-2.9.81-3.59.89-.09.01-.19,0-.28-.02l-7.7-2.44c-.09-.02.48-.29.94-.53.28-.14.21-.43-.12-.51l-4.49-1.07s-.06-.02-.09-.03c-.35-.16-2.92-.13-3.52-.07-.06,0-.13,0-.19,0l-7.49-1.36c-.06-.01-.13-.01-.2,0-.58.08-1.17-.21-1.15-.61,0-.15.09-.29.27-.41.16-.1.28-.23.34-.36l3.17-6.77c.21-.46.92-.73,1.63-.63l5.29.75c1.02.14-5.2.05-6.67-.26-.12-.03-.22-.08-.27-.16l-3.23-4.67c-.84-.31,10.09-5.66,12.02-6.15.12-.03.25-.03.36.01l17.5,5.81c.21,0-12.35-4-16.4-5.39-.4-.14-.28-.53.16-.56l29.6-1.91c.08,0,.15-.02.21-.05.36-.17.86-.16,1.2.04Z"/>
            <path class="cls-13" d="m425.09,414.43l-.02-.08c-.18-.04-.36-.1-.54-.17-.94-.07-5.03-.27-10.53-.51-.32-.01-.63-.1-.9-.25l-3.09-1.72c-.31.07-.7.18-1.12.3-1.09.3-1.83.49-2.3.55-.3.04-.61,0-.89-.08l-7.65-2.42-.93-.22-.13-1c-.01-.09-.01-.18-.01-.27l-2.77-.67c-.51-.07-2.41-.06-2.92,0-.2.02-.4.01-.6-.02l-7.38-1.34c-.75.06-1.49-.16-2-.63-.43-.39-.66-.94-.63-1.49.03-.58.33-1.11.82-1.47l2.83-6.04-2.59-3.75-.57-.2v-1.12c.05-.84.07-1.31,6.15-4.33,1.99-.99,5.71-2.76,7-3.09.37-.09.77-.08,1.13.03.23-.11.48-.18.76-.2l29.46-1.91c.77-.3,1.69-.23,2.39.18h0l.32.19c.32-.09.67-.11,1.02-.03l18.83,3.98,13.76-.2c.44,0,.87.18,1.18.53,1.21,1.36,1.24,11.72,1.02,16.85l1.23.95c.18.14,3.14,3.04,3.16,3.06.79.89.71,1.65.5,2.13-.49,1.16-1.79,1.22-3.29,1.29-.89.04-1.9.08-2.64.31q-.31.1-6.46-.07c-.67-.02-1.2-.03-1.43-.04l-16.55,2.9c-.6.07-1.13-.07-1.52-.36l-2.3-1.73-8.71,2.14h-1.09Zm-10.79-3.62c10.85.47,10.9.5,11.28.7.03.02.07.03.12.03.47-.33,1.13-.75,2.05-1.32.28-.2.59-.4.91-.56l1.23-.64.69,1.2c.03.06.06.11.08.16l3.91-.98c.6-.15,1.23-.03,1.7.32l2.33,1.75,16.51-2.88s.72.02,1.66.04c1.65.04,4.96.13,5.74.14.83-.23,1.74-.31,2.56-.35-.53-.52-1.08-1.05-1.34-1.3-.24.35-.62.61-1.07.73-.79.2-1.62-.07-2.07-.68l-4.38-5.85-2.16-1.66c-.33-.25-.57-.58-.69-.95-.26-.79.08-1.62.84-2.02.74-.39,1.87-.34,2.51.51l1.56,2.09,3.16,2.43c.09-4.4-.11-10.24-.43-12.38l-12.83.19c-.16,0-.31-.01-.46-.04l-12.46-2.63,6.32,3.8-.03,1.66-.73.4c-.35.19-.56.31-1.41-.06l-.02.03-.28-.17c-1.44-.7-4.39-2.52-11.2-6.71-.08-.05-.16-.11-.23-.17l-1.01-.61c-.17.08-.41.15-.67.16l-23.66,1.53,6.81,2.26c.78.25,1.48.48,2.07.67.57.19,1.03.34,1.41.48l.38.12v.02c.87.38,1.11.75.96,1.58l-.21,1.23-1.46-.04-4.04-1.34c-.71-.23-1.46-.48-2.21-.72-3.66-1.19-8.22-2.67-10.36-3.4-.14-.05-.27-.11-.39-.18l-.46-.15c-1.78.57-7.89,3.55-10.25,4.95l1.89,2.73c.4-.09.83-.11,1.28-.05l5.29.75c.83.12,1.14.64,1.25.94l.3.79-.55.65c-.75.88-5.2.51-7.19.3l-2.56,5.47,6.84,1.24c.58-.03,3.05-.16,4,.14l4.46,1.06c.76.18,1.3.76,1.39,1.48.01.09.01.18.01.26l5.41,1.71c.39-.08,1.17-.29,1.75-.45.63-.17,1.23-.33,1.58-.4.48-.1.99-.02,1.4.21l3.19,1.77Zm-20.24-2.98s.07.03.1.04l-.1-.04Zm-10.61-1.32s0,0,0,0c0,0,0,0,0,0Zm-.29-1.24s0,0,0,0c0,0,0,0,0,0Zm7.88-.24s-.03,0-.05,0c0,0,.02,0,.05,0Zm71.01-15.7h-.04s.03,0,.04,0Zm-36.55-6.91s0,0,0,0c0,0,0,0,0,0Z"/>
          </g>
          <g>
            <path class="cls-11" d="m464.24,409.04l-30.55-7.61-16.21-3.77-4.36-1.03c-.65-.15-10.1-.53-9.87-.96h0c.23-.43,9.43-.08,10.08.07l49.55,11.86c.65.15,4.8.74,4.57,1.17l-.93,1.03c-.23.43-1.63-.6-2.28-.75Z"/>
            <path class="cls-13" d="m466.4,411.32c-.72,0-1.47-.39-1.89-.6-.2-.1-.5-.26-.61-.29l.28-1.14s0,0,0,0l-.28,1.14-30.55-7.61-20.55-4.79c-.19-.03-1.49-.11-2.64-.18-7.41-.47-7.67-.57-8.15-1.44l-.38-.68.37-.72c.45-.84.79-1.06,6.18-.94,1.22.03,4.83.14,5.49.29l49.56,11.86c.12.03.41.08.77.14,3.41.59,4.32.84,4.75,1.72l.32.66-.43.87-.97,1.06c-.34.49-.79.66-1.27.66Z"/>
          </g>
          <g>
            <path class="cls-11" d="m427.75,399.26l-7.44-6.35-4.04-3.28-1.08-.89c-.16-.13-3.15-1.41-2.92-1.53h0c.22-.12,3.14,1.12,3.3,1.25l12.23,10.14c.16.13,1.33.84,1.1.96l-.67.24c-.22.12-.33-.41-.49-.54Z"/>
            <path class="cls-13" d="m428.38,401.35l-.67-.17c-.62-.19-.91-.68-1.05-.96l-7.28-6.22-5-4.07c-.14-.07-.39-.18-.67-.32-2.25-1.05-2.86-1.34-2.89-2.35l-.02-.88.79-.44c1.27-.69,4.85,1.38,4.88,1.4l12.35,10.22c.81.55,1.58,1.07,1.53,2.02l-.04.81-.93.51-.57.21-.44.24Z"/>
          </g>
          <g>
            <path class="cls-11" d="m442.11,402.88l-6.96-6.58-3.79-3.4-1.02-.92c-.15-.14-3.04-1.51-2.81-1.63h0c.23-.11,3.05,1.22,3.2,1.35l11.47,10.51c.15.14,1.26.88,1.03.99l-.68.22c-.23.11-.3-.42-.45-.55Z"/>
            <path class="cls-13" d="m442.5,404.88c-.18,0-.36-.03-.54-.1-.61-.23-.87-.74-.99-1.01l-6.8-6.43-4.69-4.21c-.14-.07-.37-.19-.63-.33-2.18-1.13-2.77-1.43-2.75-2.45v-.89s.82-.41.82-.41c1.32-.64,4.76,1.55,4.79,1.58l11.59,10.6c.77.58,1.51,1.12,1.42,2.07l-.08.8-.94.47-.63.2c-.18.07-.37.1-.55.1Z"/>
          </g>
          <g>
            <path class="cls-11" d="m454.1,405.84l-5.2-7.26-2.84-3.78-.76-1.02c-.11-.15-2.36-1.91-2.16-1.98h0c.19-.06,2.39,1.65,2.5,1.8l8.59,11.65c.11.15.96,1.03.77,1.09l-.57.09c-.19.06-.21-.44-.33-.59Z"/>
            <path class="cls-13" d="m454.29,407.98l-.61-.29c-.59-.31-.76-.86-.85-1.16l-5.1-7.11-3.52-4.69c-.1-.09-.28-.24-.49-.41-1.69-1.41-2.19-1.84-2.01-2.78l.16-.83.81-.28c1.43-.47,4.07,2.27,4.09,2.3l8.68,11.75c.61.68,1.18,1.33.94,2.2l-.2.75-1,.33-.45.07-.47.15Z"/>
          </g>
          <g>
            <path class="cls-11" d="m420.85,397.86l-12.14.44-6.4.13-1.72.04c-.26,0-3.68-.64-3.67-.45h0c0,.19,3.34.83,3.59.83l19.62-.53c.26,0,1.83.11,1.82-.08l-.16-.49c0-.19-.68.1-.94.11Z"/>
            <path class="cls-13" d="m400.53,400.29c-.41,0-1.68-.26-2.21-.37-1.73-.37-2.78-.59-2.84-1.82l-.03-.68.52-.47c.62-.55,1.1-.47,3.79-.03.38.06.71.12.87.14l8.05-.17,12.06-.44s.09-.02.14-.04c.44-.12,1.11-.3,1.74.16l.56.41.04.52.17.7.03.63-.46.48c-.56.56-1.31.53-2.55.48h-.26s-19.6.52-19.6.52c0,0-.01,0-.02,0Zm20.28-3.86s-.02,0-.03,0h.03Z"/>
          </g>
          <g>
            <path class="cls-11" d="m439.48,402.73l-12.1.83-6.38.33-1.72.1c-.25.01-3.72-.53-3.7-.34h0c.02.19,3.39.73,3.65.71l19.55-1.15c.25-.01,1.84.05,1.81-.14l-.19-.48c-.02-.19-.67.12-.93.14Z"/>
            <path class="cls-13" d="m419.26,405.8c-.45,0-1.67-.21-2.19-.3-1.73-.31-2.77-.49-2.91-1.68l-.08-.7.5-.51c.6-.59,1.09-.53,3.82-.18.39.05.72.09.88.11l8.03-.42,12.01-.83s.09-.03.13-.04c.43-.13,1.08-.33,1.72.08l.56.37.07.5.23.7.08.64-.44.51c-.54.6-1.3.59-2.55.58h-.26s-19.53,1.15-19.53,1.15c-.02,0-.04,0-.06,0Zm20.13-4.5s-.02,0-.03,0h.03Z"/>
          </g>
          <g>
            <path class="cls-11" d="m449.89,405.61l-11.72,2.15-6.2,1.06-1.67.29c-.25.04-3.74.08-3.68.22h0c.05.14,3.45.11,3.7.07l18.97-3.34c.25-.04,1.81-.19,1.75-.33l-.27-.34c-.05-.14-.64.18-.89.22Z"/>
            <path class="cls-13" d="m428.79,410.87c-.18,0-.32,0-.4,0-1.92-.01-2.71-.02-3.1-1.01l-.27-.69.41-.63c.47-.71.78-.72,3.77-.81.45-.01.81-.02.95-.03l7.79-1.34,11.66-2.14s.1-.04.15-.06c1.33-.51,1.95,0,2.23.43l.34.42.34.86-.36.62c-.42.71-1.11.79-2.49.96l-.26.03-18.96,3.34c-.28.05-1.21.05-1.78.05Zm20.85-6.67s-.01,0-.02,0h.02Zm.01,0s0,0,0,0h0Z"/>
          </g>
        </g>
        <g>
          <g>
            <path class="cls-11" d="m427.3,382.89l12.81,7.71c.15.09-8.15-4.82-11.47-6.87-.35-.22-.01-.6.44-.5l18.91,3.99s.1.01.15.01l13.85-.2c.89-.03,1.14,14.57.59,18.33-.04.3-.65.37-.85.1l-6.18-8.25c-.23-.31-.96-.15-.84.19.03.1.1.19.21.27l9.62,7.39c.05.04,2.92,2.83,2.96,2.88,1.33,1.5-2.41.67-4.78,1.4-.12.04-7.45-.17-7.58-.17l-16.69,2.92c-.15.02-.31-.02-.41-.1l-2.64-1.98c-.12-.09-.32-.13-.5-.08l-8.75,2.19c-.21,0,3.32-2.14,3.15-2.05-1.55.81-2.85,2.66-4.4,1.85-.14-.08-9.56-.49-10.87-.54-.1,0-.19-.03-.26-.07l-3.38-1.88c-.12-.06-.27-.09-.42-.06-.78.16-2.9.81-3.59.89-.09.01-.19,0-.28-.02l-7.7-2.44c-.09-.02.48-.29.94-.53.28-.14.21-.43-.12-.51l-4.49-1.07s-.06-.02-.09-.03c-.35-.16-2.92-.13-3.52-.07-.06,0-.13,0-.19,0l-7.49-1.36c-.06-.01-.13-.01-.2,0-.58.08-1.17-.21-1.15-.61,0-.15.09-.29.27-.41.16-.1.28-.23.34-.36l3.17-6.77c.21-.46.92-.73,1.63-.63l5.29.75c1.02.14-5.2.05-6.67-.26-.12-.03-.22-.08-.27-.16l-3.23-4.67c-.84-.31,10.09-5.66,12.02-6.15.12-.03.25-.03.36.01l17.5,5.81c.21,0-12.35-4-16.4-5.39-.4-.14-.28-.53.16-.56l29.6-1.91c.08,0,.15-.02.21-.05.36-.17.86-.16,1.2.04Z"/>
            <path class="cls-13" d="m425.58,412.89h0c-.29-.02-.59-.09-.9-.24-.71-.06-4.82-.26-10.67-.52-.21,0-.42-.07-.59-.16l-3.38-1.88c-.22.09-.77.24-1.34.39-.9.25-1.75.48-2.21.53-.2.03-.41,0-.6-.05l-8.17-2.59-.07-.49c-.03-.29.05-.49.26-.66l-3.58-.88c-.32-.07-2.53-.06-3.12,0-.14.01-.28,0-.41-.01l-7.49-1.36c-.56.08-1.17-.09-1.55-.44-.28-.26-.43-.6-.41-.96.02-.4.24-.76.61-1l3.14-6.61-2.94-4.24-.3-.11-.02-.61c.02-.47.04-.91,5.77-3.75,2.55-1.27,5.79-2.76,6.87-3.04.26-.07.54-.06.79.03l.26.09c.19-.15.44-.24.71-.26l29.6-1.91c.53-.27,1.3-.23,1.85.1l.61.37c.27-.14.6-.19.94-.12l18.91,3.99,13.83-.21c.27,0,.49.1.66.3.99,1.11,1.09,11.7.85,16.73l1.5,1.15c.12.09,3.05,2.96,3.07,2.98.44.5.57.97.39,1.41-.33.77-1.27.81-2.7.87-.93.04-1.98.09-2.81.34-.18.05-.21.06-6.28-.1-.73-.02-1.28-.03-1.46-.04l-16.62,2.91c-.4.04-.74-.04-1-.24l-2.56-1.92-8.86,2.2h-.57Zm-15.47-4.28c.23,0,.46.06.66.16l3.38,1.88c10.81.45,10.91.5,11.11.6.22.11.42.14.66.09.41-.3,1.09-.72,2.2-1.41.27-.19.55-.37.85-.53l.64-.33.37.63c.16.28.15.5.04.69l4.72-1.18c.39-.1.83-.02,1.13.21l2.56,1.93,16.71-2.92s.68.02,1.58.04c1.75.05,5.28.13,5.9.14.99-.29,2.15-.34,3.09-.38.3-.01.66-.03.96-.05-.71-.69-2.47-2.41-2.61-2.54l-.67-.51c-.01.13-.03.25-.04.35-.06.42-.38.75-.84.87-.44.11-1.02.02-1.36-.42l-4.44-5.93-2.23-1.71c-.22-.17-.38-.39-.46-.63-.16-.47.06-.96.51-1.2.5-.26,1.25-.22,1.65.31l1.62,2.16,4.28,3.29c.17-4.84-.05-12.62-.49-14.41l-13.4.2c-.1,0-.21,0-.31-.03l-16.41-3.47,9.44,5.68-.02.88-.38.21c-.14.07-.24.13-.72-.07l-.03.05-.52-.32c-1.32-.68-4.22-2.41-10.95-6.56-.07-.04-.13-.09-.19-.14l-1.14-.69c-.12-.07-.35-.07-.49-.01-.15.07-.31.11-.49.13l-27.14,1.76,10.33,3.43c.68.22,1.25.41,1.73.57l1.91.63-.03.08c.62.3.59.46.53.77l-.11.64-.87-.06-3.83-1.27c-.71-.23-1.47-.48-2.22-.72-3.66-1.19-8.22-2.67-10.35-3.4-.12-.04-.22-.09-.31-.16l-.78-.26c-1.63.43-9.31,4.2-11.2,5.47l2.58,3.73c.43-.18.93-.25,1.45-.18l5.29.75c.14.02.55.08.71.51l.16.42-.29.34c-.51.59-5.57.15-7.08,0l-3.02,6.45c-.05.11-.12.21-.2.31.12-.01.25,0,.38.02l7.49,1.36c.17-.02,3.24-.18,3.9.13l4.44,1.04c.48.11.82.47.87.9.03.22-.03.44-.15.63l6.21,1.97c.31-.05,1.22-.3,1.96-.5.61-.17,1.19-.32,1.53-.39.09-.02.19-.03.28-.03Zm51.01-5.22l.8,1.07c.01-.14.02-.28.04-.43l-.83-.64Zm.89-15.61h-.02s.01,0,.02,0Z"/>
          </g>
          <g>
            <path class="cls-11" d="m464.23,408.18l-30.55-7.61-16.21-3.77-4.36-1.03c-.65-.15-10.1-.53-9.87-.96h0c.23-.43,9.43-.08,10.08.07l49.55,11.86c.65.15,4.8.74,4.57,1.17l-.93,1.03c-.23.43-1.63-.6-2.28-.75Z"/>
            <path class="cls-13" d="m466.34,409.35c-.34,0-.82-.25-1.32-.5-.32-.16-.65-.33-.85-.38h0s-30.55-7.61-30.55-7.61l-20.57-4.8c-.19-.04-1.47-.13-2.83-.21-6.39-.41-7.06-.56-7.23-.86l-.08-.14.07-.17c.4-.76,10.31-.1,10.4-.08l49.56,11.86c.14.03.45.09.84.15,2.87.5,3.75.74,3.92,1.1l.06.13-.07.2-.98,1.09c-.08.15-.21.22-.38.22Zm-.06-.59s-.02.02-.03.04l.03-.04Zm-1.99-.86c.27.06.62.24.98.43.31.16.83.42,1.01.42h0l.75-.84c-.62-.25-2.57-.59-3.36-.73-.41-.07-.73-.13-.88-.16l-49.56-11.86c-.5-.11-5.2-.29-7.94-.26,1.51.14,3.58.27,4.94.36,1.77.11,2.7.17,2.92.23l4.36,1.03,16.21,3.77,30.55,7.61Z"/>
          </g>
          <g>
            <path class="cls-11" d="m427.73,398.4l-7.44-6.35-4.04-3.28-1.08-.89c-.16-.13-3.15-1.41-2.92-1.53h0c.22-.12,3.14,1.12,3.3,1.25l12.23,10.14c.16.13,1.33.84,1.1.96l-.67.24c-.22.12-.33-.41-.49-.54Z"/>
            <path class="cls-13" d="m428.16,399.08s-.05,0-.07-.01c-.14-.04-.22-.2-.3-.36-.04-.09-.09-.18-.13-.21h0s-7.44-6.35-7.44-6.35l-5.12-4.16c-.05-.04-.46-.23-.85-.41-1.84-.86-2.12-1.04-2.13-1.19v-.07s.07-.05.07-.05c.33-.18,3.4,1.24,3.43,1.26l12.23,10.14s.12.08.22.15c.75.5.96.7.95.86,0,.06-.04.11-.09.14l-.68.25s-.06.02-.1.02Zm-.35-.76c.08.06.13.17.19.29.04.08.12.23.16.24l.61-.22c-.13-.16-.62-.49-.82-.62-.11-.08-.2-.14-.24-.17l-12.23-10.14c-.16-.12-1.95-.87-2.78-1.14.44.24,1.19.59,1.65.8.6.28.84.39.9.44l1.08.89,4.04,3.28,7.44,6.35Z"/>
          </g>
          <g>
            <path class="cls-11" d="m442.09,402.02l-6.96-6.58-3.79-3.4-1.02-.92c-.15-.14-3.04-1.51-2.81-1.63h0c.23-.11,3.05,1.22,3.2,1.35l11.47,10.51c.15.14,1.26.88,1.03.99l-.68.22c-.23.11-.3-.42-.45-.55Z"/>
            <path class="cls-13" d="m442.49,402.7s-.06,0-.08-.02c-.13-.05-.2-.21-.27-.37-.04-.09-.08-.18-.12-.22h0s-6.96-6.58-6.96-6.58l-4.81-4.32s-.44-.24-.81-.44c-1.78-.92-2.04-1.1-2.04-1.26v-.07s.08-.05.08-.05c.34-.16,3.31,1.35,3.33,1.37l11.47,10.52s.11.08.21.16c.62.46.91.71.89.89,0,.06-.04.11-.1.13l-.7.23s-.06.02-.09.02Zm-.31-.77c.07.07.12.18.17.3.03.07.1.23.14.24l.64-.21c-.12-.16-.59-.51-.78-.65-.11-.08-.19-.14-.22-.17l-11.47-10.52c-.16-.13-1.91-.95-2.71-1.23.42.25,1.15.63,1.61.86.58.3.81.42.86.47l1.02.92,3.79,3.4,6.96,6.58Z"/>
          </g>
          <g>
            <path class="cls-11" d="m454.08,404.98l-5.2-7.26-2.84-3.78-.76-1.02c-.11-.15-2.36-1.91-2.16-1.98h0c.19-.06,2.39,1.65,2.5,1.8l8.59,11.65c.11.15.96,1.03.77,1.09l-.57.09c-.19.06-.21-.44-.33-.59Z"/>
            <path class="cls-13" d="m454.38,405.68s-.06,0-.09-.02c-.11-.06-.15-.22-.2-.38-.02-.09-.05-.19-.08-.23h0s-5.2-7.26-5.2-7.26l-3.6-4.8s-.34-.3-.64-.55c-1.38-1.16-1.58-1.37-1.56-1.5v-.06s.08-.03.08-.03c.3-.11,2.6,1.81,2.61,1.83l8.59,11.65s.08.1.16.18c.54.61.69.83.65.97-.01.05-.05.08-.09.1l-.58.09s-.03,0-.05,0Zm-.22-.75c.05.07.08.18.12.29.02.08.07.24.1.26l.51-.08c-.08-.17-.45-.58-.59-.75-.08-.09-.14-.16-.17-.2l-8.59-11.65c-.11-.14-1.43-1.16-2.08-1.58.33.31.89.77,1.23,1.07.45.38.63.53.67.58l.76,1.02,2.84,3.78,5.2,7.26Z"/>
          </g>
          <g>
            <path class="cls-11" d="m420.84,397l-12.14.44-6.4.13-1.72.04c-.26,0-3.68-.64-3.67-.45h0c0,.19,3.34.83,3.59.83l19.62-.53c.26,0,1.83.11,1.82-.08l-.16-.49c0-.19-.68.1-.94.11Z"/>
            <path class="cls-13" d="m400.5,398.11s-3.69-.58-3.71-.94v-.05s.04-.05.04-.05c.11-.1.51-.07,2.7.28.47.08.95.16,1.04.16h0l1.72-.04,6.4-.13,12.14-.44c.08,0,.23-.04.37-.08.31-.08.51-.13.62-.05.04.03.06.07.07.11l.16.51s-.01.08-.05.11c-.11.11-.48.14-1.56.09-.15,0-.27-.01-.32-.01l-19.62.53h0Zm-2.99-.83c.92.25,2.75.6,2.98.6h0l19.62-.53c.06,0,.18,0,.34.01.32.01,1.13.05,1.35-.01l-.13-.4c-.07,0-.28.05-.41.09-.16.04-.31.08-.42.09l-12.14.44-8.12.17h0c-.1,0-.44-.05-1.07-.16-.55-.09-1.42-.23-1.98-.3Z"/>
          </g>
          <g>
            <path class="cls-11" d="m439.47,401.88l-12.1.83-6.38.33-1.72.1c-.25.01-3.72-.53-3.7-.34h0c.02.19,3.39.73,3.65.71l19.55-1.15c.25-.01,1.84.05,1.81-.14l-.19-.48c-.02-.19-.67.12-.93.14Z"/>
            <path class="cls-13" d="m419.23,403.63c-.05,0-3.73-.46-3.77-.81v-.06s.04-.05.04-.05c.1-.1.51-.09,2.72.2.48.06.97.12,1.05.12l1.72-.09,6.38-.33,12.1-.83c.08,0,.22-.05.36-.09.3-.09.49-.15.61-.07.04.03.06.06.07.11l.2.5s0,.09-.04.12c-.11.12-.47.15-1.56.14-.15,0-.27,0-.33,0l-19.55,1.15h0Zm-3.03-.73c.93.21,2.74.5,3,.5,0,0,0,0,.01,0l19.55-1.15c.06,0,.18,0,.34,0,.32,0,1.11,0,1.34-.05l-.16-.4c-.08,0-.28.06-.4.1-.16.05-.31.09-.41.1l-12.1.83-8.1.43c-.09,0-.44-.04-1.09-.12-.55-.07-1.42-.18-1.99-.23Z"/>
          </g>
          <g>
            <path class="cls-11" d="m449.88,404.76l-11.72,2.15-6.2,1.06-1.67.29c-.25.04-3.74.08-3.68.22h0c.05.14,3.45.11,3.7.07l18.97-3.34c.25-.04,1.81-.19,1.75-.33l-.27-.34c-.05-.14-.64.18-.89.22Z"/>
            <path class="cls-13" d="m428.51,408.67c-.95,0-1.93-.03-1.99-.17l-.02-.05.03-.05c.06-.09.31-.14,2.69-.21.5-.02.98-.03,1.05-.04l1.67-.29,6.2-1.06,11.72-2.15c.08-.01.21-.07.34-.12.31-.12.56-.22.64-.06l.28.35.02.05-.03.06c-.06.1-.28.17-1.5.32-.15.02-.27.03-.32.04l-18.97,3.34s-.91.03-1.82.03Zm-.99-.21c1.01.03,2.59.02,2.78-.02l18.97-3.34c.06,0,.18-.02.33-.04.3-.04,1.06-.13,1.3-.21l-.21-.26c-.08,0-.28.08-.41.13-.15.06-.28.11-.38.13l-11.71,2.15-7.87,1.35c-.08.01-.45.03-1.08.04-.47.01-1.17.03-1.72.06Z"/>
          </g>
        </g>
      </g>
      <g>
        <g>
          <path class="cls-11" d="m464.03,383.33c0-1.09-.34-2.1-.84-2.94,0,0,0,0,0,0,0-3.75-17.13-20.44-38.22-20.44s-38.15,16.69-38.15,20.44c0,0,0,0,0,0-.5.84-.79,1.86-.79,2.94v3.67c0,1.11.3,2.14.82,2.99.67,3.65,17.48,5.2,38.14,5.2s37.59-1.54,38.2-5.2c.51-.85.84-1.89.84-2.98v-3.67Z"/>
          <path class="cls-13" d="m425,397.19c-36.78,0-39.53-4.29-40.04-6.49-.6-1.12-.92-2.39-.92-3.7v-3.67c0-1.27.3-2.51.87-3.61,1.34-5.96,19.27-21.79,40.07-21.79s38.79,15.83,40.14,21.78c.6,1.14.92,2.38.92,3.61v3.67c0,1.27-.32,2.53-.93,3.67-.48,2.21-3.23,6.51-40.11,6.51Zm-36.2-7.71c1.2,1.32,10.17,3.7,36.2,3.7s35.02-2.37,36.25-3.69l.04-.21.2-.33c.36-.6.55-1.29.55-1.95v-3.67c0-.81-.3-1.49-.56-1.92l-.28-.47v-.55c-.56-3.11-16.51-18.44-36.21-18.44s-35.59,15.33-36.15,18.52v.55l-.27.4c-.33.57-.51,1.23-.51,1.92v3.67c0,.7.18,1.38.53,1.95l.19.31.04.21Z"/>
        </g>
        <g>
          <path class="cls-11" d="m394.4,382.08c.43-.38.95-.49,1.17-.23s.06.77-.37,1.16-1.48.97-1.7.71.47-1.25.9-1.64Z"/>
          <path class="cls-13" d="m393.68,383.97s-.03,0-.04,0c-.15,0-.24-.07-.29-.13-.39-.45.62-1.64.92-1.91h0c.31-.28.69-.44,1-.42.18.01.34.08.45.2.29.34.13.97-.39,1.43-.33.29-1.17.82-1.65.82Zm.85-1.75c-.45.41-.93,1.2-.88,1.37.14.06.97-.34,1.42-.74.36-.32.48-.74.35-.89-.04-.04-.1-.07-.18-.07-.22-.01-.49.11-.72.32h0Z"/>
        </g>
        <g>
          <path class="cls-11" d="m450.97,385.19c.57,0,1.03.26,1.03.58s-.46.58-1.03.58-1.74-.26-1.74-.58,1.17-.58,1.74-.58Z"/>
          <path class="cls-13" d="m450.97,386.53c-.39,0-1.93-.2-1.93-.76s1.53-.76,1.93-.76c.68,0,1.22.33,1.22.76s-.53.76-1.22.76Zm0-1.15c-.59,0-1.47.25-1.55.41.08.12.96.37,1.55.37.48,0,.84-.21.84-.39s-.36-.39-.84-.39Z"/>
        </g>
        <g>
          <path class="cls-11" d="m423.55,381.96c.57,0,1.03-.25,1.03-.55s-.46-.55-1.03-.55-1.74.25-1.74.55,1.17.55,1.74.55Z"/>
          <path class="cls-13" d="m423.55,382.15c-.24,0-1.92-.15-1.92-.73s1.68-.73,1.92-.73c.69,0,1.21.31,1.21.73s-.52.73-1.21.73Zm0-1.1c-.61,0-1.47.24-1.56.39.09.1.95.34,1.56.34.52,0,.85-.22.85-.37s-.33-.37-.85-.37Z"/>
        </g>
        <g>
          <path class="cls-11" d="m442.38,378c.2.54.11,1.08-.2,1.2s-.73-.22-.93-.76-.37-1.75-.05-1.87.98.89,1.19,1.43Z"/>
          <path class="cls-13" d="m442.04,379.42c-.09,0-.18-.02-.28-.06-.29-.13-.55-.45-.7-.85-.14-.37-.49-1.91.06-2.12.06-.03.17-.04.31.02.44.2.97,1.1,1.13,1.53h0c.24.65.11,1.29-.31,1.45-.06.03-.13.04-.2.04Zm-.8-2.67c-.1.12-.03,1.05.18,1.62.11.3.31.54.5.63.07.03.13.04.18.02.18-.07.26-.49.09-.95h0c-.21-.57-.77-1.3-.95-1.32Z"/>
        </g>
        <g>
          <path class="cls-11" d="m404.81,384.3c-.2.54-.6.89-.89.78s-.37-.64-.17-1.18.85-1.56,1.14-1.45.12,1.32-.08,1.86Z"/>
          <path class="cls-13" d="m404.03,385.29c-.06,0-.12-.01-.18-.03-.4-.15-.52-.77-.27-1.42.16-.43.69-1.36,1.1-1.54.13-.06.22-.04.28-.02.56.22.11,1.87.02,2.1-.15.41-.41.73-.69.86-.09.04-.17.06-.26.06Zm.78-2.68c-.13.04-.67.78-.88,1.35-.18.49-.09.89.06.94.04.02.09.01.15-.02.19-.09.38-.34.5-.65h0c.22-.58.29-1.5.17-1.63Z"/>
        </g>
        <g>
          <path class="cls-11" d="m407.85,376.66c-.2.54-.14,1.07.14,1.17s.67-.25.87-.79.39-1.74.11-1.85-.92.92-1.12,1.46Z"/>
          <path class="cls-13" d="m408.1,378.04c-.06,0-.12-.01-.17-.03-.38-.15-.49-.75-.25-1.41h0c.16-.43.69-1.37,1.09-1.55.12-.05.21-.04.27-.02.54.21.08,1.86,0,2.08-.16.42-.41.74-.69.87-.08.04-.16.06-.24.06Zm-.07-1.31h0c-.18.5-.1.89.04.94.03.01.08,0,.13-.02.14-.06.36-.28.5-.66.2-.55.29-1.39.21-1.6-.2.1-.67.8-.88,1.34Z"/>
        </g>
        <g>
          <path class="cls-11" d="m416.79,371.73c-.2.54-.14,1.07.14,1.17s.67-.25.87-.79.39-1.74.11-1.85-.92.92-1.12,1.46Z"/>
          <path class="cls-13" d="m417.03,373.11c-.06,0-.12-.01-.17-.03-.38-.15-.49-.75-.25-1.41h0c.16-.43.69-1.37,1.09-1.55.12-.05.21-.04.27-.02.54.21.08,1.86,0,2.08-.15.42-.41.74-.69.87-.08.04-.16.06-.24.06Zm.8-2.65c-.2.1-.67.8-.87,1.34h0c-.18.5-.1.89.03.94.03.01.08,0,.13-.02.14-.06.36-.28.5-.66.2-.55.29-1.39.21-1.6Z"/>
        </g>
        <g>
          <path class="cls-11" d="m397.27,372.75c.43.38.95.49,1.17.23s.06-.77-.37-1.16-1.48-.97-1.7-.71.47,1.25.9,1.64Z"/>
          <path class="cls-13" d="m398.1,373.32c-.3,0-.66-.16-.95-.42h0c-.29-.27-1.3-1.46-.92-1.91.05-.05.13-.12.29-.13.47-.03,1.36.52,1.69.82.51.46.68,1.09.38,1.43-.11.12-.26.19-.44.2-.02,0-.03,0-.05,0Zm-.69-.71c.23.21.51.33.72.32.08,0,.14-.03.18-.07.13-.15,0-.56-.35-.89-.45-.4-1.28-.79-1.44-.72-.04.15.44.95.89,1.35h0Z"/>
        </g>
        <g>
          <path class="cls-11" d="m428.05,389.84c.57,0,1.03-.26,1.03-.58s-.46-.58-1.03-.58-1.74.26-1.74.58,1.17.58,1.74.58Z"/>
          <path class="cls-13" d="m428.05,390.03c-.39,0-1.93-.2-1.93-.76s1.53-.76,1.93-.76c.68,0,1.22.34,1.22.76s-.53.76-1.22.76Zm0-1.15c-.59,0-1.47.25-1.55.41.08.12.96.37,1.55.37.48,0,.84-.21.84-.39s-.36-.39-.84-.39Z"/>
        </g>
        <g>
          <path class="cls-11" d="m425.31,366.61c.57,0,1.03.25,1.03.55s-.46.55-1.03.55-1.74-.25-1.74-.55,1.17-.55,1.74-.55Z"/>
          <path class="cls-13" d="m425.31,367.89c-.24,0-1.92-.15-1.92-.73s1.68-.73,1.92-.73c.69,0,1.21.31,1.21.73s-.52.73-1.21.73Zm0-1.1c-.61,0-1.47.24-1.56.39.09.1.95.34,1.56.34.52,0,.85-.22.85-.37s-.33-.37-.85-.37Z"/>
        </g>
        <g>
          <path class="cls-11" d="m444.13,370.57c.2-.54.11-1.08-.2-1.2s-.73.22-.93.76-.37,1.75-.05,1.87.98-.89,1.19-1.43Z"/>
          <path class="cls-13" d="m443,372.21c-.05,0-.09-.01-.13-.02-.55-.21-.2-1.75-.06-2.12.15-.4.41-.72.7-.85.17-.07.33-.08.48-.02.42.16.55.8.31,1.45h0c-.16.43-.69,1.33-1.13,1.53-.07.03-.13.04-.18.04Zm.8-2.67s-.08,0-.12.03c-.19.09-.39.33-.5.63-.21.57-.28,1.5-.15,1.63.15-.02.71-.76.92-1.33h0c.17-.46.1-.88-.09-.95-.02,0-.04-.01-.06-.01Z"/>
        </g>
        <g>
          <path class="cls-11" d="m408.89,366.65c-.2-.54-.6-.89-.89-.78s-.37.64-.17,1.18.85,1.56,1.14,1.45.12-1.32-.08-1.86Z"/>
          <path class="cls-13" d="m408.93,368.7s-.1-.01-.17-.04c-.41-.19-.94-1.12-1.1-1.54-.24-.66-.12-1.27.27-1.42.14-.05.29-.04.44.03.28.13.54.45.7.86h0c.08.23.54,1.88-.03,2.1-.03.01-.07.02-.11.02Zm-.81-2.67s-.03,0-.05,0c-.15.06-.24.45-.06.94.21.58.75,1.31.92,1.34.07-.12,0-1.05-.21-1.61h0c-.11-.31-.31-.57-.5-.65-.04-.02-.07-.03-.1-.03Z"/>
        </g>
        <g>
          <path class="cls-11" d="m413.98,386.99c-.2-.54-.14-1.07.14-1.17s.67.25.87.79.39,1.74.11,1.85-.92-.92-1.12-1.46Z"/>
          <path class="cls-13" d="m415.06,388.64s-.1,0-.16-.04c-.4-.18-.93-1.12-1.09-1.55-.24-.66-.14-1.26.25-1.41.13-.05.27-.04.41.02.28.13.54.45.69.87.08.23.54,1.88,0,2.08-.03.01-.06.02-.11.02Zm-.83-2.66s-.03,0-.04,0c-.14.05-.22.45-.03.94h0c.2.54.68,1.23.87,1.34.08-.21,0-1.05-.21-1.6-.14-.39-.36-.6-.5-.66-.03-.02-.06-.02-.09-.02Z"/>
        </g>
        <g>
          <path class="cls-11" d="m418.97,363.34c.43-.38.95-.49,1.17-.23s.06.77-.37,1.16-1.48.97-1.7.71.47-1.25.9-1.64Z"/>
          <path class="cls-13" d="m418.25,365.23s-.03,0-.04,0c-.15,0-.24-.07-.29-.13-.39-.45.62-1.64.92-1.91h0c.31-.28.69-.44,1-.42.18.01.34.08.45.2.3.34.13.97-.39,1.43-.33.29-1.17.82-1.65.82Zm.85-1.75c-.45.41-.93,1.2-.88,1.37.15.06.97-.34,1.42-.74.36-.32.48-.74.35-.89-.04-.04-.1-.07-.18-.07-.21-.02-.49.11-.72.32h0Z"/>
        </g>
        <g>
          <path class="cls-11" d="m455.53,380.29c.57,0,1.03.26,1.03.58s-.46.58-1.03.58-1.74-.26-1.74-.58,1.17-.58,1.74-.58Z"/>
          <path class="cls-13" d="m455.53,381.63c-.39,0-1.93-.2-1.93-.76s1.53-.76,1.93-.76c.68,0,1.22.33,1.22.76s-.53.76-1.22.76Zm0-1.15c-.59,0-1.47.25-1.55.41.08.12.96.37,1.55.37.48,0,.84-.21.84-.39s-.36-.39-.84-.39Z"/>
        </g>
        <g>
          <path class="cls-11" d="m430.43,373.46c.57,0,1.03-.25,1.03-.55s-.46-.55-1.03-.55-1.74.25-1.74.55,1.17.55,1.74.55Z"/>
          <path class="cls-13" d="m430.43,373.65c-.24,0-1.92-.15-1.92-.73s1.68-.73,1.92-.73c.69,0,1.21.31,1.21.73s-.52.73-1.21.73Zm0-1.1c-.61,0-1.47.24-1.56.39.09.1.95.34,1.56.34.52,0,.85-.22.85-.37s-.33-.37-.85-.37Z"/>
        </g>
        <g>
          <path class="cls-11" d="m454.38,372.82c.2.54.11,1.08-.2,1.2s-.73-.22-.93-.76-.37-1.75-.05-1.87.98.89,1.19,1.43Z"/>
          <path class="cls-13" d="m454.05,374.24c-.09,0-.19-.02-.28-.06-.29-.13-.55-.45-.7-.85-.14-.37-.49-1.91.06-2.12.07-.03.17-.04.31.02.44.2.97,1.1,1.13,1.53.24.65.11,1.29-.31,1.45-.06.03-.13.04-.2.04Zm-.8-2.67c-.1.12-.03,1.05.18,1.62.11.3.31.54.5.63.07.03.13.04.18.02.18-.07.26-.49.09-.95h0c-.21-.57-.77-1.3-.95-1.32Z"/>
        </g>
        <g>
          <path class="cls-11" d="m435.71,384.33c-.2.54-.6.89-.89.78s-.37-.64-.17-1.18.85-1.56,1.14-1.45.12,1.32-.08,1.86Z"/>
          <path class="cls-13" d="m434.94,385.32c-.06,0-.12-.01-.18-.03-.4-.15-.52-.77-.27-1.42.16-.43.69-1.36,1.1-1.54.13-.06.22-.04.28-.02.56.22.11,1.87.03,2.1h0c-.15.41-.41.73-.7.86-.09.04-.17.06-.26.06Zm.78-2.68c-.13.04-.67.78-.88,1.35-.18.49-.09.89.06.94.04.02.09,0,.15-.02.19-.08.38-.34.5-.65.22-.58.29-1.5.17-1.63Z"/>
        </g>
        <g>
          <path class="cls-11" d="m432.33,367.31c-.2.54-.14,1.07.14,1.17s.67-.25.87-.79.39-1.74.11-1.85-.92.92-1.12,1.46Z"/>
          <path class="cls-13" d="m432.58,368.69c-.06,0-.12-.01-.17-.03-.38-.15-.49-.75-.25-1.41h0c.16-.43.69-1.37,1.09-1.55.12-.05.21-.04.27-.02.54.21.08,1.86,0,2.08-.15.42-.41.74-.69.87-.08.04-.16.06-.24.06Zm.8-2.65c-.2.1-.67.8-.87,1.34h0c-.18.5-.1.89.03.94.03.01.08,0,.13-.02.14-.06.36-.28.5-.66.2-.55.29-1.39.21-1.6Z"/>
        </g>
      </g>
    </g>
    <path d="m536.45,417.05c-6.32-18.8-11.52-37.8-16.55-56.18-12.91-47.17-25.11-91.73-47.43-91.73v-21.84c27.42,0,40.47,26.95,44.76,35.8,9.25,19.1,16.28,44.8,23.73,72,4.95,18.08,10.07,36.78,16.18,54.99l-20.7,6.96Z"/>
    <path d="m309.72,408.03l-21.12-5.58c1.94-7.33,3.88-14.95,5.76-22.31,7.9-30.95,16.06-62.95,26.98-87.21,5.07-11.26,20.48-45.51,51.85-45.51v21.84c-28,0-43.77,61.78-57.67,116.29-1.89,7.41-3.84,15.06-5.8,22.48Z"/>
    <g>
      <g>
        <path class="cls-12" d="m589.43,906.87c-10.27,25.23-33,5.99-50.42-.92-1.75-.43-3.42-.69-5.28-1.25h-14.51c-1.3.03-2.61.04-3.93.17-10.75,2.17-18.32,11.49-29.4,9.74-9.91-1.17-16.91-8.74-26.71-9.86-1.52-.02-3.05-.03-4.58-.05h-69.92c-15.38-1.17-29.37,5.25-44.52,7.58-20.4,2.91-40.81-1.75-60.18-7.3-1.71-.23-3.22-.26-4.59-.27h-10.63c-4.06,0-7.38-3.46-7.38-7.69v-62.04c0-1.49,0-3,.09-4.48,10.4-31.31,1.66-63.37-.09-95.61v-48.53c-.58-10.17-5.25-18.91-8.16-28.24-1.94-7.38.26-13.99,3.5-20.34,1.62-3.17,3.5-6.28,5.25-9.39,1.17-2.33,2.33-4.66,2.33-7-.58-9.91-1.31-19.82-1.89-29.76-.45-1.98-.84-3.97-1.46-5.97-6.56-16.15-14.72-33.06-1.31-49.38,2.33-2.33,1.75-6.41,1.72-9.71.02-1.51.02-3.02,0-4.55-.57-13.15-1.15-26.55-.07-39.88.04-1.59.06-3.19.08-4.75v-78c0-4.23,3.32-7.69,7.38-7.69l16.43,7.01c4.7,2,9.98,4.26,15.26,6.51,4.89,2.07,9.58,4.77,14.25,7.4,1.56.88,3.12,1.75,4.68,2.58,14.22,11.05,31.61,11.76,48.75,11.18,2.14-.07,4.28-.17,6.41-.19,8.09.49,15.67.49,23.83.49,9.33,0,18.65,2.33,28.67,1.82,1.81-.05,3.62-.11,5.42-.21,8.46-.44,17.79-2.19,26.54-1.61,7.58,0,15.74.58,23.58.88,3.86-.29,7.61-.6,11.34-1.12,3.73-.52,7.45-1.29,11.18-2.24,1.24-.32,2.49-.66,3.74-.99,4.95-1.78,9.03-.61,13.69.55,4.66,1.17,9.91.58,14.57-1.17,10.49-5.25,17.49-15.74,29.37-20.06,1.38-.59,2.74-1.16,4.07-1.73l21.56-9.11c4.06,0,7.38,3.46,7.38,7.69v83.27c0,8.15-.58,16.31,1.17,24.47,4.08,16.32,19.82,33.23,9.91,48.97-2.91,4.08-9.91,5.25-10.49,11.08-.58,16.32-2.33,32.06-7.58,47.8-3.5,8.16-2.33,18.07,0,27.98,5.83,29.15,6.41,56.55,7,85.11,0,5.83,2.33,12.82.58,19.24-2.33,9.91-3.5,19.24-2.91,28.56,1.75,15.74-4.08,31.48,2.28,47.36.05,1.36.05,2.74.05,4.1v69.68c0,2.11-.83,4.03-2.04,5.64s-2.61,3.2-4.01,4.22Z"/>
        <path class="cls-10" d="m573.76,925.31c-8.75,0-17.99-4.7-26.36-8.95-3.6-1.83-7.01-3.56-10.16-4.84-.47-.11-.93-.21-1.39-.31-.89-.19-1.86-.4-2.92-.68h-14.03c-.97.03-1.89.04-2.75.11-3.41.75-6.65,2.49-10.07,4.32-5.87,3.15-12.52,6.71-20.98,5.42-5.96-.73-10.91-3.29-15.28-5.55-3.75-1.94-7.29-3.77-11.03-4.26-.8-.01-1.6-.02-2.4-.03l-1.86-.02h-70.07s-.22-.02-.22-.02c-8.95-.68-17.62,1.55-26.79,3.9-5.28,1.35-10.73,2.75-16.41,3.63-21.35,3.05-42.51-1.7-62.23-7.34-1.26-.14-2.41-.17-3.48-.17h-10.58c-7.28,0-13.21-6.06-13.21-13.51v-62.04c0-1.47,0-3.13.1-4.83l.05-.76.24-.73c7.2-21.67,4.71-43.76,2.07-67.15-.97-8.59-1.97-17.47-2.45-26.31v-.32s0-48.35,0-48.35c-.39-6.18-2.56-11.97-4.86-18.1-1.04-2.77-2.11-5.63-3.03-8.57l-.07-.26c-2.58-9.79.75-18.22,3.94-24.47,1.19-2.34,2.5-4.61,3.77-6.81.51-.89,1.02-1.78,1.52-2.67.76-1.52,1.59-3.2,1.65-4.15-.29-4.82-.6-9.65-.92-14.48-.32-4.85-.64-9.71-.93-14.58l-.2-.9c-.31-1.38-.6-2.68-.97-3.94-.34-.83-.68-1.67-1.03-2.51-6.3-15.34-14.13-34.43.72-52.51l.28-.32c.26-.68.2-2.68.16-3.89-.02-.6-.04-1.19-.04-1.75v-.07s0-.07,0-.07c.02-1.43.02-2.85,0-4.3-.57-13.2-1.15-26.77-.06-40.34.04-1.4.05-2.8.07-4.18v-.34s0-77.93,0-77.93c0-7.45,5.92-13.51,13.21-13.51h1.19l32.79,13.99c4.77,2.01,9.29,4.56,13.66,7.02l1.17.66c1.52.86,3.04,1.7,4.57,2.52l.44.23.39.31c13.08,10.16,29.39,10.48,44.97,9.95l1.46-.05c1.7-.06,3.39-.12,5.08-.14h.21s.21.01.21.01c7.91.48,15.47.48,23.47.48,4.46,0,8.87.49,13.13.96,5.22.58,10.15,1.13,15.24.87h.12c1.76-.06,3.53-.11,5.28-.21,2.81-.15,5.73-.45,8.82-.76,5.95-.61,12.09-1.24,18.22-.85,5.21,0,10.69.28,15.99.54,2.45.12,4.89.24,7.3.34,4-.3,7.35-.6,10.63-1.05,3.38-.47,6.83-1.17,10.54-2.12.88-.23,1.76-.46,2.64-.7l.83-.22c6.29-2.18,11.56-.85,16.22.32l.61.15c3.17.79,7.1.48,10.83-.86,3.92-2.01,7.45-5.01,11.19-8.17,5.34-4.52,10.86-9.19,18.37-11.96l26.59-11.24h1.18c7.28,0,13.21,6.06,13.21,13.51v83.27c0,1.66-.02,3.31-.05,4.97-.09,6.34-.18,12.33,1.06,18.18,1.14,4.52,3.35,9.24,5.69,14.25,5.62,12.01,11.98,25.62,3.47,39.15l-.19.28c-1.76,2.46-4.09,4-6.15,5.35-2.16,1.42-3.13,2.15-3.27,2.82-.49,13.43-1.84,31.1-7.86,49.16l-.17.45c-3.1,7.23-1.46,16.81.32,24.35l.04.19c5.96,29.79,6.52,57.16,7.11,86.13v.12c0,1.67.26,3.66.54,5.76.6,4.53,1.27,9.66-.13,14.91-2.37,10.1-3.25,18.57-2.76,26.64.71,6.51.24,12.87-.21,19.02-.68,9.32-1.33,18.12,2.09,26.67l.38.94.04,1.01c.05,1.47.05,2.92.05,4.31v69.68c0,3.2-1.11,6.36-3.22,9.15-1.34,1.77-2.61,3.19-3.87,4.31-3.11,6.92-7.51,11.47-13.09,13.55-2.4.89-4.87,1.28-7.38,1.28Zm-54.6-26.44h15.42l.81.24c.94.28,1.88.48,2.88.69.71.15,1.41.3,2.13.48l.39.1.37.15c3.76,1.49,7.7,3.5,11.52,5.44,8.63,4.39,18.42,9.36,24.38,7.14,2.8-1.05,5.08-3.81,6.97-8.44l.63-1.55,1.35-.98c.42-.3,1.34-1.1,2.78-3.01.39-.52.86-1.31.86-2.12v-69.68c0-1.01,0-1.98-.02-2.93-3.99-10.69-3.24-20.94-2.51-30.86.44-5.93.85-11.53.23-17.03l-.02-.28c-.58-9.31.39-18.92,3.06-30.26l.05-.2c.82-3.02.35-6.62-.15-10.42-.31-2.36-.63-4.8-.64-7.22-.58-28.39-1.13-55.21-6.86-83.93-2.16-9.19-4.05-21.02.24-31.28,4.32-13.03,6.54-27.22,7.21-45.95l.03-.37c.63-6.34,5.36-9.45,8.49-11.5,1.2-.79,2.44-1.61,2.99-2.28,4.61-7.54,1.45-15.55-4.28-27.81-2.49-5.32-5.06-10.81-6.47-16.45l-.04-.19c-1.54-7.17-1.44-14.15-1.34-20.89.02-1.6.05-3.2.05-4.8v-83.27c0-.7-.36-1.33-.86-1.65l-24.32,10.28c-5.64,2.05-10.17,5.89-14.98,9.96-4.18,3.54-8.5,7.2-13.78,9.84l-.56.24c-6.06,2.27-12.46,2.76-18.03,1.36l-.62-.16c-4.35-1.09-6.76-1.62-9.69-.57l-.48.15-1.04.28c-.92.25-1.83.49-2.75.72-4.13,1.06-8,1.84-11.82,2.37-4.09.57-8.19.9-11.71,1.16l-.33.02h-.33c-2.56-.11-5.16-.24-7.76-.37-5.22-.26-10.62-.53-15.6-.53h-.39c-5.2-.36-10.92.23-16.45.79-3.1.32-6.3.65-9.4.81-1.87.1-3.74.16-5.49.21-6.01.3-11.63-.32-17.06-.92-4.13-.46-8.02-.89-11.84-.89-8.11,0-15.78,0-23.96-.49-1.53.02-3.06.08-4.6.13l-1.48.05c-16.8.57-36.05.15-52.12-12.09-1.46-.78-2.91-1.6-4.37-2.41l-1.18-.66c-4.27-2.41-8.31-4.68-12.48-6.45l-30.12-12.85c-.5.32-.85.95-.85,1.64v78.41c-.02,1.48-.04,2.99-.08,4.5l-.02.32c-1.05,12.94-.48,26.22.08,39.07v.28c.02,1.55.02,3.09,0,4.62,0,.45.02.92.04,1.39.11,3.37.28,8.43-3.23,12.16-10.24,12.64-4.94,25.56,1.2,40.51.38.94.77,1.87,1.15,2.8l.17.48c.54,1.77.92,3.45,1.28,5.07l.4,1.78.03.49c.29,4.99.62,9.98.95,14.96.33,4.93.65,9.86.94,14.79v.34c.01,3.71-1.56,6.84-2.94,9.6l-.13.25c-.54.96-1.09,1.92-1.65,2.88-1.25,2.17-2.43,4.22-3.49,6.3-3.4,6.66-4.3,11.34-3.08,16.08.81,2.58,1.77,5.13,2.78,7.82,2.53,6.73,5.14,13.68,5.6,21.69v.33s0,48.37,0,48.37c.46,8.46,1.44,17.11,2.38,25.48,2.63,23.36,5.36,47.51-2.34,71.36-.04,1.14-.04,2.33-.04,3.41v62.04c0,.99.72,1.86,1.55,1.86h10.63c1.64.01,3.38.06,5.35.32l.43.06.42.12c18.6,5.33,38.47,9.89,57.75,7.14,5.04-.78,10.22-2.1,15.22-3.39,9.62-2.47,19.56-5.02,30.34-4.25l71.61.02c.92,0,1.84.02,2.76.03l.57.04c5.97.68,10.95,3.25,15.34,5.52,3.86,1.99,7.5,3.88,11.4,4.34l.23.03c4.64.73,8.67-1.43,13.76-4.16,3.92-2.1,8.37-4.49,13.58-5.54l.6-.09c1.4-.13,2.69-.16,3.94-.18h.49Z"/>
      </g>
      <g>
        <path class="cls-6" d="m588.69,913.73c-2.54,4.97,1.54,18.37-7.79,16.04-15.16-4.08-27.4-15.74-42.86-19.79-1.46-.02-2.95-.03-4.46-.03h-14.13c-1.35,0-2.72,0-4.09.05-17.82,8.69-35.89,11.02-54.07.07-1.59-.1-3.19-.12-4.8-.13h-68.44c-3.6,0-7.68-.58-11.18.58-32.64,9.33-65.87,4.66-98.81-.58h-15.07c-4.06,0-7.38-3.46-7.38-7.69v-66.57c0-1.53,0-3.07.06-4.59,9.26-29.58,4.6-60.47-.05-90.6-.02-1.85-.02-3.62-.02-5.46v-47.75c-.58-9.36-4.08-17.52-7.58-26.26-4.59-12.75,3.32-23.27,8.49-34.29.74-1.66,1.42-3.3,2.01-5.01,1.75-7.91-1.75-16.65-2.33-24.82-.1-1.94-.16-3.87-.21-5.79-.43-1.91-.75-3.81-1.29-5.75-3.17-11.79-11.33-22.28-8.42-35.1,1.46-7.77,8.58-13.52,9.57-21.55.2-1.61.15-3.31-.24-5.14-.58-14.12-2.33-28.11-.12-42.24.07-1.48.09-2.97.12-4.43v-72.26c0-4.23,3.32-7.69,7.38-7.69l16.43,7.01c4.7,2,9.98,4.26,15.26,6.51,5.53,1.98,10.63,5.31,15.8,8.43,1.72,1.04,3.46,2.06,5.22,2.99,14.42,8.49,30.74,10.19,47.22,9.62,2.06-.07,4.12-.18,6.18-.31,15.54-.35,30.59,1.44,45.87,1.85,3.82.1,7.66.12,11.52,0,16.84-1.13,33.16-1.71,50.08-1.11,3.88-.16,7.66-.27,11.43-.58,3.76-.3,7.52-.87,11.29-1.73,1.25-.29,2.51-.61,3.77-.97,6.73-3.15,13.73.35,20.72-.23,15.16-.58,23.9-14.57,36.95-20.61,1.38-.6,2.74-1.19,4.07-1.76,11.98-5.06,21.56-9.11,21.56-9.11,4.06,0,7.38,3.46,7.38,7.69v78.56c0,8.19-.58,16.94,1.75,25.1,5.83,16.32,20.4,38.47,2.91,54.21-11.66,10.49-7,32.64-11.08,50.72-5.25,20.4,1.17,41.39,5.83,62.96,3.5,16.32-.58,32.06.58,48.38,1.75,12.82,0,25.07-3.5,37.89-1.17,4.66,2.33,9.33,1.75,13.99-2.33,17.49-4.08,32.64,1.75,48.95v70.11c0,2.17,0,3.86,0,5.01,0,3.01,0,5.93-1.67,7.99-1.01,1.93-2.24,3.8-3.38,5.21Z"/>
        <path class="cls-10" d="m582.87,931.5c-.71,0-1.49-.1-2.31-.31-7.7-2.07-14.69-6.06-21.45-9.92-6.73-3.84-13.69-7.81-21.25-9.82-1.4-.02-2.83-.02-4.27-.03h-14.12c-1.23,0-2.48,0-3.74.04-20.39,9.86-38.34,9.88-54.87.06-1.46-.08-2.95-.1-4.36-.1h-68.44c-.91,0-1.84-.04-2.79-.07-2.73-.11-5.55-.21-7.93.58-31.81,9.09-63.83,5.15-99.38-.51h-14.95c-4.87,0-8.83-4.1-8.83-9.14v-66.57c0-1.52,0-3.1.07-4.66l.07-.37c9.23-29.47,4.49-60.21-.1-89.94l-.02-.21c-.02-1.85-.02-3.63-.02-5.47v-47.75c-.53-8.43-3.57-16.01-6.8-24.04l-.68-1.69c-4-11.11.87-20.5,5.58-29.59,1-1.92,2.02-3.91,2.94-5.86.83-1.86,1.43-3.35,1.92-4.79,1.03-4.79,0-10.13-1-15.29-.57-2.97-1.17-6.04-1.38-9.03-.09-1.83-.16-3.69-.2-5.71-.14-.63-.27-1.25-.4-1.88-.25-1.2-.5-2.44-.84-3.66-.98-3.63-2.47-7.21-3.91-10.68-3.25-7.81-6.62-15.89-4.52-25.13.73-3.93,2.83-7.35,4.86-10.67,2.16-3.53,4.2-6.86,4.68-10.74.19-1.55.12-3.07-.22-4.65l-.03-.24c-.13-3.22-.33-6.49-.52-9.65-.64-10.7-1.31-21.77.41-32.8.05-1.25.08-2.51.1-3.75v-.57s.01-72.23.01-72.23c0-5.04,3.96-9.14,8.83-9.14h.3l31.97,13.64c4.85,1.74,9.45,4.54,13.9,7.25.69.42,1.39.85,2.08,1.27,1.41.85,3.27,1.95,5.15,2.96,12.29,7.24,26.6,10.14,46.48,9.45,1.95-.07,3.96-.17,6.14-.31,9.6-.22,19.06.37,28.22.95,5.82.36,11.84.74,17.78.9,4.14.11,7.88.11,11.43,0,19.46-1.3,34.94-1.65,50.13-1.12l1.83-.07c3.27-.13,6.36-.25,9.48-.5,3.78-.31,7.5-.88,11.08-1.7,1.2-.28,2.4-.58,3.58-.92,4.52-2.07,9.05-1.44,13.43-.82,2.66.37,5.16.72,7.67.51,8.97-.35,15.56-5.58,22.54-11.12,4.32-3.43,8.79-6.99,13.92-9.36,1.18-.51,2.31-1,3.43-1.49l.67-.29,21.84-9.23h.3c4.87,0,8.83,4.1,8.83,9.14v78.56c0,1.36-.02,2.74-.03,4.12-.08,6.87-.16,13.97,1.72,20.57.98,2.74,2.26,5.75,3.61,8.93,6.27,14.75,14.06,33.11-1.12,46.77-7.18,6.46-7.8,17.97-8.46,30.15-.36,6.61-.73,13.44-2.17,19.81-4.43,17.24-.43,34.74,3.8,53.26.69,3.01,1.38,6.03,2.03,9.06,2.11,9.83,1.51,19.55.94,28.94-.39,6.42-.8,13.06-.33,19.65,1.59,11.67.5,23.53-3.55,38.38-.52,2.08.11,4.31.78,6.68.65,2.28,1.31,4.64,1.01,7.11-2.56,19.19-3.82,32.9,1.67,48.28l.09.24v70.36c0,2.17,0,3.86,0,5.01,0,3.14-.01,6.35-1.9,8.8-.98,1.85-2.2,3.72-3.37,5.19-.65,1.39-.75,3.79-.86,6.12-.17,3.9-.35,7.94-2.93,9.86-.9.67-1.99,1-3.28,1Zm-49.28-23c1.52,0,3.01.02,4.47.03l.35.05c8,2.09,15.18,6.19,22.13,10.16,6.91,3.94,13.43,7.66,20.74,9.63,1.4.35,2.46.28,3.12-.21,1.47-1.1,1.63-4.58,1.76-7.65.13-2.83.25-5.51,1.23-7.44l.16-.25c1.11-1.38,2.29-3.19,3.22-4.97l.15-.23c1.34-1.66,1.34-4.28,1.35-7.06,0-1.17,0-2.86,0-5.04v-69.86c-6.04-17.1-3.85-33.52-1.74-49.39.23-1.87-.33-3.85-.92-5.94-.75-2.63-1.52-5.35-.8-8.21,3.95-14.48,5.02-25.99,3.47-37.34-.49-6.88-.08-13.61.32-20.13.59-9.62,1.14-18.7-.88-28.15-.65-3.02-1.34-6.03-2.03-9.03-4.31-18.88-8.39-36.72-3.79-54.6,1.37-6.09,1.74-12.8,2.09-19.28.69-12.8,1.35-24.89,9.42-32.16,13.64-12.27,6.6-28.84.39-43.47-1.37-3.22-2.66-6.26-3.7-9.18-2.03-7.11-1.95-14.42-1.87-21.5.02-1.38.03-2.74.03-4.09v-78.56c0-3.34-2.51-6.07-5.64-6.22l-21.93,9.27c-1.11.48-2.24.97-3.39,1.47-4.78,2.21-9.11,5.65-13.3,8.98-7.04,5.59-14.31,11.37-24.18,11.75-2.77.23-5.56-.16-8.25-.53-4.18-.58-8.14-1.13-11.91.63l-.22.08c-1.27.36-2.56.69-3.84.99-3.71.85-7.58,1.45-11.5,1.76-3.18.26-6.3.38-9.61.51l-1.93.08h-.06c-15.1-.53-30.5-.19-49.93,1.11-3.66.12-7.46.12-11.65,0-5.99-.16-12.04-.54-17.88-.91-9.1-.57-18.5-1.16-27.91-.95-2.15.14-4.18.24-6.17.31-12.7.44-31.5-.1-48.01-9.82-1.89-1-3.79-2.13-5.23-3-.7-.42-1.4-.85-2.1-1.27-4.33-2.64-8.8-5.36-13.44-7.03l-31.48-13.43c-3.13.16-5.64,2.89-5.64,6.22v72.86c-.04,1.29-.06,2.6-.12,3.9l-.02.16c-1.68,10.75-1.02,21.68-.39,32.26.19,3.14.38,6.38.52,9.58.38,1.86.46,3.66.24,5.49-.55,4.51-2.86,8.27-5.08,11.91-1.98,3.23-3.85,6.29-4.5,9.74-1.91,8.39,1.13,15.69,4.35,23.42,1.48,3.56,3.01,7.23,4.04,11.04.36,1.3.63,2.59.88,3.84.14.66.27,1.31.42,1.97l.04.29c.05,2.05.11,3.93.2,5.75.2,2.78.78,5.77,1.33,8.65,1.06,5.48,2.16,11.16.97,16.55l-.04.16c-.53,1.55-1.16,3.13-2.05,5.14-.95,2.03-2,4.05-3,5.99-4.62,8.93-8.99,17.36-5.44,27.22l.66,1.63c3.31,8.25,6.45,16.04,7.01,25.03v47.84c0,1.8,0,3.53.02,5.34,4.62,29.96,9.38,60.94.04,90.97-.06,1.44-.06,2.91-.06,4.34v66.57c0,3.43,2.66,6.23,5.92,6.23l15.3.02c35.25,5.62,66.97,9.54,98.18.62,2.83-.94,5.92-.82,8.9-.71.91.04,1.81.07,2.68.07h68.44c1.57,0,3.24.02,4.89.13l.35.02.3.18c15.99,9.63,32.73,9.59,52.68-.13l.28-.14h.31c1.39-.05,2.77-.06,4.14-.06h14.13Z"/>
      </g>
      <g class="cls-14">
        <path class="cls-11" d="m581.15,798.55c.17,7.58-1.06,15.31-1.27,22.94-.28,10.28,1.26,20.55-1.05,30.75-3.34,14.81-14.99,27.15-27.51,30.54-12.52,3.39-25.31-1.66-33.46-11.84-5.56-6.94-8.91-18.54-3.52-27.2,4.8-7.7,14.12-9.24,19.6-16.3,9.87-12.73,4.68-34.86,16.95-46.33,14.86-13.9,29.85-.94,30.25,17.44Z"/>
        <path class="cls-7" d="m543.42,883.95c-9.61,0-18.96-4.6-25.64-12.93-5.74-7.17-8.8-18.86-3.52-27.33,2.56-4.11,6.47-6.52,10.26-8.84,3.34-2.05,6.79-4.17,9.35-7.47,4.56-5.88,5.92-13.93,7.24-21.72,1.53-9.07,3.12-18.45,9.73-24.62,5.9-5.52,12.34-7.22,18.12-4.79,7.14,3.01,12.09,11.97,12.31,22.3.1,4.39-.28,8.89-.64,13.25-.27,3.18-.54,6.47-.63,9.69-.09,3.31,0,6.67.1,9.92.2,6.84.41,13.92-1.15,20.85-3.28,14.52-14.62,27.11-27.58,30.62-2.63.71-5.29,1.06-7.93,1.06Zm20.22-108.56c-4.21,0-8.56,1.97-12.67,5.81-6.55,6.13-8.13,15.47-9.66,24.5-1.32,7.81-2.69,15.89-7.28,21.82-2.58,3.33-6.05,5.46-9.4,7.52-3.76,2.31-7.65,4.7-10.19,8.77-5.22,8.38-2.19,19.96,3.51,27.08,8.46,10.56,21.23,15.08,33.34,11.8,12.89-3.49,24.17-16.02,27.43-30.46,1.56-6.91,1.35-13.97,1.15-20.8-.1-3.25-.2-6.62-.1-9.93.09-3.23.36-6.52.63-9.71.36-4.35.74-8.86.64-13.23-.22-10.25-5.12-19.13-12.18-22.1-1.69-.71-3.44-1.07-5.22-1.07Z"/>
      </g>
    </g>
    <g class="cls-14">
      <path class="cls-11" d="m261.75,675.97c.1-7.5,1.45-15.19,1.89-22.75.59-10.19-.46-20.3,1.94-30.48,3.47-14.77,14.3-27.36,25.61-31.13s22.59.82,29.55,10.63c4.75,6.69,7.37,18.07,2.26,26.81-4.55,7.78-12.94,9.6-18.07,16.78-9.25,12.93-5.33,34.66-16.68,46.41-13.75,14.24-26.74,1.91-26.5-16.27Z"/>
      <path class="cls-7" d="m276.26,698.55c-1.4,0-2.78-.27-4.1-.82-6.42-2.65-10.65-11.39-10.51-21.76.06-4.34.54-8.81,1.01-13.14.34-3.16.69-6.43.88-9.62.19-3.28.21-6.6.23-9.82.04-6.77.08-13.76,1.71-20.67,3.4-14.47,13.96-27.3,25.68-31.2,5.48-1.82,11.18-1.75,16.48.23,5.14,1.92,9.71,5.53,13.19,10.44,4.91,6.91,7.26,18.38,2.27,26.92-2.43,4.15-6,6.66-9.46,9.08-3.06,2.14-6.21,4.35-8.61,7.7-4.27,5.97-5.75,13.99-7.19,21.74-1.67,9.02-3.39,18.35-9.5,24.68-3.97,4.11-8.13,6.23-12.07,6.23Zm-14.51-22.58h.1c-.14,10.29,4.04,18.96,10.38,21.57,4.96,2.04,10.63.14,15.94-5.37,6.07-6.28,7.79-15.58,9.45-24.58,1.44-7.78,2.92-15.81,7.22-21.83,2.42-3.38,5.59-5.6,8.66-7.75,3.44-2.41,7-4.9,9.4-9.02,4.95-8.47,2.61-19.84-2.26-26.7-7.22-10.17-18.5-14.23-29.44-10.59-11.65,3.88-22.15,16.65-25.54,31.05-1.62,6.89-1.66,13.87-1.71,20.63-.02,3.22-.04,6.55-.23,9.83-.18,3.2-.54,6.47-.88,9.63-.47,4.32-.95,8.79-1.01,13.12h-.1Z"/>
    </g>
    <g>
      <path d="m252.01,643.67c.64,4.73,1.13,9.6,2.94,14.06,2.17,5.35,5.61,9.97,8.99,14.61,2.5,3.42,4.85,7.18,8.06,9.98,3.43,2.99,7.35,4.91,11.75,6.04,9.34,2.41,18.98,3.74,28.6,4.27s18.97.23,28.41-.61,17.57-2.3,26.07-3.17c15.07-1.54,30.22-1.63,45.33-2.25,13.76-.57,27.79-1.53,41.08-5.39s24.88-10.59,33.87-20.73c5.57-6.28,10.22-13.54,13.66-21.2,3.62-8.06,6.37-17.28,5.27-26.21-.42-3.46-1.71-6.7-4.35-9.07-2.44-2.18-5.54-3.43-8.7-4.16-1.43-.33-2.89-.57-4.34-.78-.99-.14-1.99-.28-2.99-.41-.43-.06-.86-.11-1.29-.17-.29-.04-.58-.08-.87-.12.5.07.57.08.21.03-3.76-.53-7.42-1.62-11.18-2.07-4.72-.56-9.54.88-12.61,4.64-2.72,3.33-3.88,7.45-5.01,11.52-2.57,9.29-4.59,18.75-6.03,28.28s-2.48,19.99-2.78,30.06c-.27,8.89-1.14,19.91,6.85,25.88,3.24,2.42,7.58,3.51,11.54,2.5,4.45-1.14,7.59-5.08,8.32-9.51.68-4.12-.09-8.23-.98-12.26-.79-3.61-1.82-7.16-3.07-10.64-5.21-14.54-13.85-27.79-25.01-38.47-5.75-5.5-12.18-10.39-19.06-14.39-7.43-4.32-16.89-9.35-25.5-5.43-4.28,1.95-6.87,5.93-8.6,10.14-1.35,3.28-2.26,6.92-1.97,10.49.55,6.71,4.39,11.91,8.95,16.6,2.35,2.42,4.82,4.73,7.13,7.19,2.71,2.87,4.32,4.87,6.31,7.96,4.58,7.07,9.25,14.13,14.89,20.42,2.86,3.19,5.99,6.06,9.39,8.65,2.57,1.96,5.44,4.2,8.65,4.94,4.86,1.12,9.57-1.06,13.37-3.93,4.4-3.32,8.16-7.32,11.93-11.32,1.89-2.01,3.78-4.01,5.74-5.95.88-.87,1.77-1.72,2.68-2.55.5-.45,1.01-.9,1.53-1.34.27-.23,1.99-1.52.79-.65.91-.65,1.81-1.3,2.78-1.87.41-.24.83-.47,1.25-.68.18-.09.55-.35.75-.35-.76.31-.9.38-.43.19.16-.06.33-.12.49-.18.41-.13.82-.23,1.23-.34.83-.23.32.29-.33,0,.14.06.57-.05.73-.06,1.86-.08,3.76.21,5.62.33,10.08.69,20.17,1.39,30.25,2.08,4.65.32,9.4.96,14.06.76,4.12-.18,8.23-1,12.09-2.47,7.47-2.84,13.94-7.39,20.44-11.95,5.83-4.09,11.7-7.85,18.22-10.74,1.03-.45-1.04.43-.05.02.18-.07.35-.15.53-.22.8-.33,1.6-.66,2.39-1s1.6-.68,2.35-1.1c1.66-.94,3.11-2.24,4-3.94,2.39-4.57.43-10.53-.69-15.19-.62-2.58-3.54-4.11-6.04-3.43-2.63.72-4.05,3.45-3.43,6.04.34,1.43.68,2.86.97,4.3.11.55.22,1.1.31,1.65.01.08.1.74.12.74-.16,0-.1-1.3-.03-.1.02.39.06.77.06,1.16,0,.17-.02.34-.01.51.03.72-.43.28.09-.56-.05.08-.23.75-.2.8,0,.02.57-1.26.32-.75-.04.09-.32.44-.31.51-.07-.4,1.04-1.07.16-.32-.39.33,1.27-.78.2-.18-.64.36-1.28.7-1.95,1-.14.06-.28.12-.43.19-.86.39,1.16-.48.25-.11-.43.17-.85.35-1.28.53-1.39.58-2.79,1.17-4.16,1.79-6.32,2.89-11.99,6.85-17.66,10.84-2.97,2.09-5.95,4.17-9.05,6.06-1.43.87-2.89,1.7-4.39,2.46-.74.38-1.49.73-2.24,1.07-1.45.67.84-.29-.65.27-.46.17-.92.35-1.39.52-1.64.58-3.32,1.04-5.03,1.38-.41.08-.83.15-1.24.22.81-.13-.27.03-.47.05-1.04.1-2.09.16-3.13.16-4.46.02-8.96-.53-13.41-.84-9.42-.65-18.84-1.3-28.26-1.95-3.33-.23-6.66-.74-9.96-.02-2.16.47-4.27,1.48-6.14,2.64-4.28,2.64-7.95,6.24-11.43,9.83s-6.98,7.54-10.73,11.05c-.84.78-1.69,1.55-2.57,2.28-.16.13-.33.26-.48.4-.83.72.91-.64.03-.02-.48.34-.94.69-1.43,1.01-.76.5-1.56.89-2.34,1.33-.67.38.41-.23.48-.19-.06-.03-.6.23-.69.25-.45.15-.9.23-1.35.36-.74.21.64-.16.64-.08,0,.02-.62.04-.66.04-.13,0-.3-.01-.44,0-1.06.07.5-.29.44.08,0,.04-1.03-.27-1.06-.28-.72-.13.57.5.44.19-.04-.1-.97-.54-.99-.55-3.35-1.99-5.56-3.74-8.39-6.42-5.59-5.3-9.51-10.72-13.74-17.06-2.05-3.08-3.96-6.27-6.2-9.22s-4.68-5.67-7.27-8.29c-2.15-2.17-4.37-4.26-6.44-6.5-.44-.48-.87-.96-1.29-1.46-.16-.19-.32-.39-.49-.59-.82-.97.57.84-.15-.19-.76-1.09-1.42-2.19-2.04-3.36-.13-.26-.27-.83.08.21-.11-.33-.25-.65-.35-.98-.18-.56-.29-1.13-.43-1.7-.2-.86,0,.08.02.24-.03-.37-.06-.73-.08-1.1-.02-.77.02-1.55.11-2.32-.11,1.05-.04.3.01.08.1-.42.18-.85.28-1.27.19-.75.43-1.5.7-2.23-.05.14.55-1.37.31-.82s.48-.97.4-.82c.2-.38.4-.76.63-1.13.1-.16.96-1.37.58-.9.61-.74.95-1.05,1.31-1.27.94-.57.71-.43,1.76-.73.45-.13.89-.13,1.87-.09,1.09.04,1.19.1,2.51.45,3.39.9,6.28,2.49,9.55,4.31,3.09,1.73,6.08,3.64,8.95,5.7,2.71,1.95,4.99,3.8,7.79,6.37,5.22,4.77,9.87,10.08,13.52,15.35,1.98,2.86,3.81,5.82,5.46,8.88.78,1.45,1.53,2.92,2.24,4.42.86,1.82,1.31,2.85,1.87,4.26,1.27,3.21,2.36,6.49,3.24,9.82.42,1.59.8,3.18,1.13,4.79.17.8.32,1.61.46,2.42.02.11.19,1.6.09.53.04.47.09.94.11,1.41.04.77.03,1.56-.06,2.33.14-1.29-.62,1.68-.11.54-.05.12-.8,1.29-.16.48-.18.23-.4.45-.62.65.69-.63-.27.12-.44.2.95-.45-.16-.03-.42.02,1.14-.24-.15-.07-.38-.06-.9.03-.22-.03.02.02-.43-.1-.85-.22-1.27-.34-.9-.27-.24-.12-.06-.02-.4-.21-.77-.44-1.16-.67-1.15-.7.33.36-.23-.19-.26-.26-.52-.51-.76-.78.69.8-.23-.41-.35-.62.04.08-.69-1.49-.42-.8-.17-.42-.29-.86-.41-1.29s-.21-.88-.31-1.33c-.39-1.64.01.37-.11-.6-.26-2.05-.23-4.15-.22-6.21.02-4.6.18-9.2.47-13.79,1.09-17.43,3.88-35.15,9.22-51.87.15-.46.31-.9.46-1.36.04-.12.35-.87.04-.16.31-.73.71-1.4,1.11-2.08.65-1.11-.56.42.36-.47.22-.21.43-.44.66-.64-.73.61.46-.24.55-.29-.51.24.81-.22.84-.23,1.2-.29-.41-.13.84-.06.36.02.73.01,1.09.03,1.47.07-.55-.21.87.13.35.09.71.16,1.06.25,1.61.4,3.22.75,4.86,1.02,1.82.3,3.66.54,5.49.78.36.05.72.1,1.08.14,1.38.18-.65-.1.19.02s1.65.23,2.48.37c1.35.22,2.69.47,4.01.83.58.16,1.14.36,1.72.54.27.08.81.39-.21-.11.4.2.8.38,1.19.6.18.1.37.25.55.34.92.42-.65-.74.02,0,.29.31,1.26,1.55.52.4.3.46.54.95.83,1.41-.53-.85-.2-.55-.11-.2.12.48.25.96.36,1.45-.04-.18-.08-1.06-.02-.1.03.53.07,1.06.08,1.59.03.96.02,1.93-.03,2.89-.1,2.18-.26,3.39-.71,5.54-1.68,7.97-5.18,14.92-9.61,21.8-2.04,3.17-3.29,4.87-5.58,7.49-2.06,2.36-4.29,4.57-6.68,6.6-.55.47-1.11.92-1.68,1.37-1.11.89.78-.55-.37.28-.29.21-.57.42-.86.63-1.26.91-2.56,1.77-3.89,2.58-2.51,1.54-5.13,2.86-7.82,4.07-.23.1-1.1.47-.18.08-.39.16-.78.32-1.17.47-.65.26-1.31.51-1.97.75-1.46.53-2.93,1.02-4.42,1.47-2.88.87-5.81,1.59-8.77,2.19-1.43.29-2.87.56-4.32.8-.73.12-1.46.24-2.19.35-.37.05-.73.11-1.1.16-.22.03-.44.06-.66.09.57-.08.56-.07-.03,0-3.17.39-6.34.72-9.53.97-13.64,1.07-27.34,1.08-41.01,1.74-7.23.35-14.45.87-21.63,1.75-8.49,1.04-16.66,2.33-25.24,2.95-17.42,1.27-35.29.8-52.08-4-.41-.12-.82-.24-1.23-.39.14.05-1.4-.56-.83-.31s-.91-.46-.78-.4c-.44-.23-.88-.48-1.3-.74-.28-.17-.55-.36-.83-.54-1.27-.81.56.54-.59-.43-.76-.64-1.49-1.33-2.16-2.06-1.12-1.22-1.81-2.27-3.07-3.99-1.15-1.56-2.3-3.13-3.43-4.71-1.58-2.19-3.14-4.4-4.53-6.72-.5-.84-.98-1.69-1.42-2.57-.1-.2-.61-1-.57-1.22-.07.35.42,1.1.14.33-.1-.28-.22-.56-.32-.85-1.46-4.11-1.89-8.56-2.48-12.86-.36-2.63-3.73-4.06-6.04-3.43-2.84.78-3.79,3.4-3.43,6.04h0Z"/>
      <path d="m450.16,638c-3.53,7.22-6.22,14.84-8.69,22.48-2.85,8.84-5.36,17.78-7.81,26.74-4.98,18.17-9.49,36.53-15.67,54.34-.74,2.12-1.5,4.23-2.31,6.33-.38.98-.77,1.97-1.17,2.94-.08.21-.17.41-.26.62-.38.92.46-1.08.07-.17-.21.47-.41.95-.62,1.42-.37.83-.75,1.66-1.14,2.48-.24.49-.47.98-.76,1.44-.11.17-.71.73-.18.28.59-.49-.37.37-.49.49-.15.15-.32.29-.48.45-.71.72.74-.44-.03.04-.26.16-.53.32-.78.49-.77.53.96-.24.11-.02-.2.05-1,.17-.11.09.47-.05.53-.06.16-.04-.51-.03-.31,0,.61.09.53.14.97.45,1.36.82-.45-.43.55,1.07.06-.08-.98-2.33-4.59-3-6.57-1.72-2.42,1.56-2.77,4.09-1.72,6.57,1.4,3.3,5.39,4.56,8.65,3.57,3.05-.93,5.54-3.12,7.36-5.67,1.06-1.48,1.74-3.25,2.47-4.91.88-2.02,1.73-4.06,2.53-6.11,3.23-8.3,5.85-16.83,8.33-25.38,5.59-19.24,10.3-38.74,16.2-57.89,1.44-4.68,2.96-9.35,4.64-13.95.77-2.11,1.58-4.2,2.43-6.27.07-.16.14-.33.21-.49-.58,1.47-.11.25.03-.06.2-.47.41-.94.62-1.41.4-.9.82-1.78,1.25-2.67,1.1-2.26.69-5.3-1.72-6.57-2.16-1.14-5.4-.69-6.57,1.72h0Z"/>
      <path d="m447.5,641.13c-1.92,8.29-2.31,16.94-2.01,25.42.35,10.06,1.69,20.11,3.65,29.97,2,10.05,4.71,19.98,8.21,29.62,3.37,9.29,7.41,18.44,12.6,26.87s11.16,15.83,19.19,21.13c2.1,1.39,5.41.48,6.57-1.72,1.27-2.41.52-5.09-1.72-6.57-.72-.48-1.41-.99-2.11-1.49-.49-.36,1.01.81.34.26-.18-.15-.36-.29-.54-.43-.39-.32-.78-.65-1.16-.98-1.4-1.23-2.73-2.53-4-3.9-.66-.71-1.3-1.44-1.93-2.19-.28-.33-.55-.66-.83-1-.16-.2-.33-.41-.49-.61-.81-1.02.45.6-.06-.07-1.26-1.67-2.47-3.37-3.61-5.13-2.45-3.75-4.63-7.67-6.62-11.68-1.05-2.12-2.04-4.26-2.98-6.43-.19-.45-.51-.96-.62-1.44.26,1.19.14.34,0-.01-.12-.29-.24-.58-.36-.88-.48-1.18-.95-2.37-1.4-3.56-3.57-9.36-6.37-19.02-8.49-28.81-1.05-4.84-1.92-9.71-2.61-14.61-.04-.31-.06-.64-.13-.94.31,1.36.05.36,0,.03-.07-.52-.13-1.04-.19-1.56-.15-1.23-.28-2.46-.41-3.7-.23-2.31-.41-4.62-.54-6.93-.28-4.86-.33-9.74-.05-14.61.07-1.12.15-2.24.25-3.36.05-.5.1-1,.15-1.5.03-.25.06-.49.09-.74.05-.44.38-1.49-.01.06.5-1.93.63-3.99,1.08-5.94.57-2.44-.76-5.32-3.36-5.91-2.45-.56-5.3.74-5.91,3.36h0Z"/>
    </g>
    <path d="m396.95,53.5c-7.44,0-13.41-3.08-13.5-3.13l.27-.52c.13.07,13.3,6.85,24.74,0l.3.5c-3.93,2.35-8.06,3.14-11.81,3.14Z"/>
    <path d="m408.1,50.75l-.27-.52c.14-.07,13.58-7.01,25.31,0l-.3.5c-11.45-6.85-24.61-.06-24.74,0Z"/>
    <path d="m445.77,53.67c-7.44,0-13.41-3.08-13.5-3.13l.27-.52c.13.07,13.3,6.85,24.74,0l.3.5c-3.93,2.35-8.06,3.14-11.81,3.14Z"/>
    <path d="m456.92,50.91l-.27-.52c.13-.07,13.58-7.01,25.31,0l-.3.5c-11.45-6.85-24.61-.06-24.74,0Z"/>
    <path d="m397.04,59.59c-7.44,0-13.41-3.08-13.5-3.13l.27-.52c.13.07,13.29,6.85,24.74,0l.3.5c-3.93,2.35-8.06,3.14-11.81,3.14Z"/>
    <path d="m408.19,56.84l-.27-.52c.13-.07,13.58-7.01,25.31,0l-.3.5c-11.46-6.85-24.61-.06-24.74,0Z"/>
    <path d="m445.86,59.75c-7.44,0-13.41-3.08-13.5-3.13l.27-.52c.13.07,13.29,6.85,24.74,0l.3.5c-3.93,2.35-8.06,3.14-11.81,3.14Z"/>
    <path d="m457.01,57l-.27-.52c.13-.07,13.58-7.01,25.31,0l-.3.5c-11.46-6.85-24.61-.06-24.74,0Z"/>
    <path d="m396.46,65.42c-7.44,0-13.41-3.08-13.5-3.13l.27-.52c.13.07,13.3,6.85,24.74,0l.3.5c-3.93,2.35-8.06,3.14-11.81,3.14Z"/>
    <path d="m407.61,62.66l-.27-.52c.13-.07,13.58-7.01,25.31,0l-.3.5c-11.45-6.85-24.61-.06-24.74,0Z"/>
    <path d="m445.28,65.58c-7.44,0-13.41-3.08-13.5-3.13l.27-.52c.13.07,13.3,6.85,24.74,0l.3.5c-3.93,2.35-8.06,3.14-11.81,3.14Z"/>
    <path d="m456.43,62.83l-.27-.52c.13-.07,13.58-7.01,25.31,0l-.3.5c-11.46-6.85-24.61-.06-24.74,0Z"/>
    <text class="cls-2" transform="translate(301.26 520.35)"><tspan x="0" y="0">DINER</tspan></text>
    <g class="cls-14">
      <path class="cls-11" d="m578.88,509.11c3.4,5.24,4.25,10.01,6.96,15.13,3.66,6.9,10.72,14.53,10.57,20.55-.22,8.74-16.97,12.41-38.98,9.63-22.02-2.78-47.99-11.44-67.36-21.7-13.22-7-24.21-16.28-17.65-19.99,5.83-3.3,22.63-.55,29.99-3.14,13.26-4.67-5.44-21.87,12.82-24.7,22.13-3.43,55.42,11.51,63.65,24.21Z"/>
      <path class="cls-7" d="m571.02,555.44c-4.22,0-8.8-.3-13.61-.91-21.39-2.71-47.22-11.02-67.4-21.71-9.03-4.78-19.6-12.13-19.67-17.12-.02-1.27.66-2.3,2.01-3.07,3.12-1.77,9.45-1.81,15.58-1.86,5.41-.04,11-.08,14.43-1.29,6.06-2.13,5.36-6.81,4.63-11.77-.83-5.6-1.69-11.4,8.21-12.94,10.14-1.57,23.66.64,37.1,6.07,12.43,5.02,22.65,11.99,26.67,18.2h0c1.97,3.04,3.1,5.96,4.2,8.79.8,2.06,1.63,4.19,2.77,6.35,1.17,2.22,2.73,4.55,4.23,6.8,3.17,4.76,6.45,9.68,6.35,13.8-.05,2.03-.98,3.83-2.75,5.36-4.01,3.44-12.25,5.28-22.74,5.28Zm-48.98-70.92c-2.4,0-4.68.16-6.81.49-9.68,1.5-8.88,6.93-8.02,12.67.72,4.83,1.46,9.82-4.78,12.02-3.47,1.22-9.08,1.26-14.51,1.3-6.09.05-12.39.09-15.46,1.83-1.27.72-1.91,1.68-1.9,2.86.06,4.02,7.73,10.66,19.54,16.92,20.16,10.67,45.96,18.98,67.32,21.68,16.75,2.12,30.61.46,36.18-4.32,1.73-1.48,2.63-3.23,2.67-5.19.1-4.05-3.16-8.94-6.31-13.67-1.51-2.26-3.06-4.6-4.24-6.82-1.15-2.17-1.98-4.31-2.78-6.37-1.09-2.82-2.22-5.73-4.18-8.75h0c-4-6.17-14.18-13.11-26.56-18.11-10.57-4.27-21.2-6.54-30.17-6.54Z"/>
    </g>
  </g>
</svg>