<?xml version="1.0" encoding="UTF-8"?>
<svg id="Layer_2" data-name="Layer 2" xmlns="http://www.w3.org/2000/svg" viewBox="0 0 880.1 414.37">
  <defs>
    <style>
      .cls-1 {
        fill: #ffd69e;
      }

      .cls-2 {
        fill: #c59b6d;
      }
    </style>
  </defs>
  <g id="Layer_1-2" data-name="Layer 1">
    <g>
      <g>
        <path class="cls-1" d="m858.8,268c0-11.48-3.64-22.18-9-31.06,0,0,0-.02,0-.03,0-39.6-183.92-215.61-410.36-215.61S29.8,197.31,29.8,236.91c0,0,0,.02,0,.03-5.36,8.88-8.5,19.58-8.5,31.06v38.75c0,11.68,3.26,22.54,8.79,31.51,7.21,38.49,187.66,54.81,409.53,54.81s403.7-16.26,410.19-54.86c5.44-8.92,9-19.88,9-31.45v-38.75Z"/>
        <path class="cls-2" d="m439.62,414.37c-117.07,0-216.6-4.54-287.81-13.12-91.02-10.97-132.85-27-141.58-54.75-6.7-12-10.23-25.67-10.23-39.74v-38.75c0-13.31,3.15-26.27,9.16-37.78,2.9-15.42,15.41-34.98,37.28-58.28,23.87-25.44,56.38-52.23,91.53-75.46,42.74-28.23,88.13-50.83,134.92-67.17C328.57,9.86,384.61,0,439.44,0s110.9,9.86,166.66,29.31c46.85,16.34,92.32,38.94,135.15,67.16,35.24,23.22,67.83,50.02,91.78,75.44,21.92,23.28,34.47,42.83,37.4,58.24,6.34,11.95,9.67,24.94,9.67,37.84v38.75c0,13.68-3.57,27.27-10.35,39.5-8.39,27.92-50.25,44.03-141.57,55.01-71.32,8.58-171.11,13.11-288.58,13.11ZM50.7,332.58c3.38,3.14,23.7,17.54,119.59,27.9,68.35,7.38,161.48,11.29,269.33,11.29s201.16-3.88,269.58-11.22c95.67-10.27,116.37-24.55,119.92-27.78l.36-2.14,2.14-3.51c3.8-6.23,5.89-13.46,5.89-20.37v-38.75c0-8.44-3.23-15.57-5.94-20.05l-3.06-5.08v-5.33c-.91-3.6-8.07-17.69-30.77-40.88-22.53-23.01-52.74-47.15-85.06-67.96-39.5-25.43-81.2-45.73-123.96-60.32-50.12-17.1-100.34-25.77-149.27-25.77s-99.12,8.67-149.17,25.78c-42.69,14.59-84.32,34.89-123.72,60.32-32.23,20.81-62.35,44.94-84.8,67.96-22.62,23.19-29.74,37.28-30.64,40.87v5.34l-3.06,5.08c-3.56,5.89-5.44,12.83-5.44,20.05v38.75c0,7.34,1.94,14.37,5.62,20.33l2.08,3.37.4,2.13Z"/>
      </g>
      <g>
        <path class="cls-2" d="m111.04,254.87c4.57-4.05,10.21-5.15,12.59-2.46s.61,8.15-3.96,12.2c-4.57,4.05-15.9,10.2-18.28,7.51-2.38-2.69,5.08-13.2,9.65-17.25Z"/>
        <path class="cls-2" d="m103.31,274.81c-1.43,0-2.63-.39-3.46-1.33-4.2-4.74,6.67-17.36,9.82-20.16h0c5.51-4.88,12.32-5.88,15.51-2.29,3.19,3.6,1.37,10.24-4.13,15.12-2.53,2.24-11.94,8.66-17.73,8.66Zm-.33-4.1c2.06.5,10.64-3.5,15.32-7.64,3.85-3.41,5.17-7.72,3.78-9.29-1.39-1.57-5.83-.78-9.68,2.64-4.68,4.15-9.68,12.18-9.43,14.29Z"/>
      </g>
      <g>
        <path class="cls-2" d="m718.56,287.63c6.11,0,11.06,2.72,11.06,6.07s-4.95,6.07-11.06,6.07c-6.11,0-18.66-2.72-18.66-6.07s12.55-6.07,18.66-6.07Z"/>
        <path class="cls-2" d="m718.56,301.77c-3.34,0-8.23-.75-12.16-1.85-5.71-1.61-8.49-3.64-8.49-6.21s2.78-4.6,8.49-6.21c3.94-1.11,8.82-1.85,12.16-1.85,7.32,0,13.05,3.54,13.05,8.07s-5.73,8.07-13.05,8.07Zm-16.55-8.07c1.52,1.64,10.46,4.08,16.55,4.08,5.1,0,9.06-2.19,9.06-4.08s-3.96-4.08-9.06-4.08c-6.09,0-15.03,2.44-16.55,4.08Z"/>
      </g>
      <g>
        <path class="cls-2" d="m424.1,253.62c6.11,0,11.06-2.59,11.06-5.78s-4.95-5.78-11.06-5.78c-6.11,0-18.66,2.59-18.66,5.78,0,3.19,12.55,5.78,18.66,5.78Z"/>
        <path class="cls-2" d="m424.1,255.57c-2.57,0-20.61-1.54-20.61-7.73s18.04-7.73,20.61-7.73c7.41,0,13,3.32,13,7.73s-5.59,7.73-13,7.73Zm-16.55-7.73c1.7,1.58,10.38,3.84,16.55,3.84,5.56,0,9.11-2.27,9.11-3.84s-3.55-3.84-9.11-3.84c-6.16,0-14.84,2.26-16.55,3.84Z"/>
      </g>
      <g>
        <path class="cls-2" d="m626.23,211.85c2.18,5.71,1.22,11.37-2.13,12.65s-7.85-2.3-10.02-8.01c-2.18-5.71-3.93-18.47-.58-19.75s10.56,9.41,12.74,15.11Z"/>
        <path class="cls-2" d="m622.65,226.83c-1.74,0-3.56-.71-5.29-2.1-2.18-1.74-4.03-4.4-5.21-7.5-1.5-3.94-5.3-20.16.61-22.42,2.52-.96,5.52.87,9.18,5.6,2.52,3.27,5.02,7.57,6.22,10.7,2.62,6.87,1.16,13.6-3.33,15.32-.7.27-1.44.4-2.19.4Zm-8.39-28.11c-1.2,1.76-.48,11.19,1.75,17.03.91,2.39,2.34,4.48,3.93,5.75,1.28,1.02,2.53,1.41,3.43,1.07,1.96-.75,2.78-5.18.94-9.99h0c-2.23-5.84-7.98-13.36-10.05-13.86Z"/>
      </g>
      <g>
        <path class="cls-2" d="m222.8,278.28c-2.15,5.71-6.44,9.39-9.58,8.21-3.14-1.18-3.94-6.77-1.78-12.49s9.12-16.5,12.26-15.32,1.26,13.89-.9,19.6Z"/>
        <path class="cls-2" d="m214.42,288.69c-.65,0-1.29-.11-1.9-.34-2.23-.84-3.7-3.02-4.15-6.13-.38-2.69.04-5.86,1.2-8.93,1.18-3.12,3.6-7.43,6.02-10.73,3.52-4.78,6.4-6.66,8.81-5.76,2.41.91,3.33,4.22,2.82,10.14-.35,4.07-1.38,8.91-2.55,12.03-2.21,5.85-6.43,9.71-10.25,9.71Zm8.54-28.04c-2.07.84-7.5,8.35-9.65,14.05-.91,2.42-1.27,4.96-.98,6.96.22,1.56.82,2.67,1.61,2.96,1.76.67,5.21-2.27,7.01-7.04h0c2.15-5.7,3.02-14.93,2.02-16.92Z"/>
      </g>
      <g>
        <path class="cls-2" d="m255.47,197.73c-2.15,5.71-1.48,11.26,1.51,12.39s7.16-2.59,9.31-8.31c2.15-5.71,4.16-18.37,1.17-19.5-2.99-1.13-9.84,9.71-11.99,15.42Z"/>
        <path class="cls-2" d="m258.12,212.27c-.62,0-1.23-.11-1.82-.33-4.12-1.55-5.26-7.96-2.65-14.9h0c.91-2.4,8.7-18.73,14.5-16.56,5.8,2.19.87,19.61-.03,22.01-2.24,5.94-6.29,9.77-10,9.77Zm-.83-13.85c-1.96,5.2-1.09,9.33.38,9.88,1.47.55,4.84-1.97,6.8-7.17,2.17-5.77,3.12-14.68,2.24-16.84-2.08,1.04-7.25,8.36-9.43,14.13h0Z"/>
      </g>
      <g>
        <path class="cls-2" d="m351.47,145.73c-2.15,5.71-1.48,11.26,1.51,12.39s7.16-2.59,9.31-8.31c2.15-5.71,4.16-18.37,1.17-19.5-2.99-1.13-9.84,9.71-11.99,15.42Z"/>
        <path class="cls-2" d="m354.12,160.27c-.62,0-1.24-.11-1.82-.33-4.12-1.55-5.26-7.96-2.65-14.89h0c1.17-3.11,3.55-7.42,5.92-10.72,3.49-4.87,6.22-6.72,8.58-5.83,2.36.89,3.18,4.08,2.6,10.04-.4,4.04-1.46,8.85-2.63,11.97-1.15,3.05-2.88,5.71-4.87,7.48-1.69,1.51-3.46,2.29-5.13,2.29Zm-.83-13.85c-1.96,5.2-1.09,9.33.38,9.88.72.27,1.83-.19,2.99-1.22,1.51-1.34,2.9-3.51,3.82-5.95,2.17-5.77,3.12-14.69,2.24-16.84-2.08,1.04-7.25,8.36-9.43,14.13h0Z"/>
      </g>
      <g>
        <path class="cls-2" d="m141.91,156.46c4.57,4.05,10.21,5.15,12.59,2.46s.61-8.15-3.96-12.2c-4.57-4.05-15.9-10.2-18.28-7.51s5.08,13.2,9.65,17.25Z"/>
        <path class="cls-2" d="m150.74,162.45c-3.17,0-6.91-1.53-10.2-4.44-3.16-2.8-14.03-15.42-9.82-20.16,4.2-4.74,18.04,4.53,21.19,7.33,5.51,4.88,7.32,11.52,4.13,15.12-1.29,1.45-3.16,2.15-5.31,2.15Zm-16.89-21.82c-.26,2.11,4.75,10.15,9.43,14.29,3.85,3.41,8.29,4.21,9.68,2.64,1.39-1.57.07-5.88-3.78-9.29-4.68-4.15-13.25-8.15-15.32-7.64Z"/>
      </g>
      <g>
        <path class="cls-2" d="m472.43,336.7c6.11,0,11.06-2.72,11.06-6.07s-4.95-6.07-11.06-6.07c-6.11,0-18.66,2.72-18.66,6.07s12.55,6.07,18.66,6.07Z"/>
        <path class="cls-2" d="m472.43,338.7c-3.34,0-8.23-.75-12.16-1.85-5.71-1.61-8.49-3.64-8.49-6.21s2.78-4.6,8.49-6.21c3.94-1.11,8.82-1.85,12.16-1.85,7.32,0,13.05,3.54,13.05,8.07s-5.73,8.07-13.05,8.07Zm-16.55-8.07c1.52,1.64,10.46,4.08,16.55,4.08,5.1,0,9.06-2.19,9.06-4.08s-3.96-4.08-9.06-4.08c-6.09,0-15.03,2.44-16.55,4.08Z"/>
      </g>
      <g>
        <path class="cls-2" d="m442.97,91.71c6.11,0,11.06,2.59,11.06,5.78s-4.95,5.78-11.06,5.78c-6.11,0-18.66-2.59-18.66-5.78s12.55-5.78,18.66-5.78Z"/>
        <path class="cls-2" d="m442.97,105.23c-2.57,0-20.61-1.54-20.61-7.73s18.04-7.73,20.61-7.73c7.41,0,13,3.32,13,7.73s-5.59,7.73-13,7.73Zm-16.55-7.73c1.7,1.58,10.38,3.84,16.55,3.84,5.56,0,9.11-2.27,9.11-3.84s-3.55-3.84-9.11-3.84c-6.16,0-14.84,2.26-16.55,3.84Z"/>
      </g>
      <g>
        <path class="cls-2" d="m645.1,133.49c2.18-5.71,1.22-11.37-2.13-12.65s-7.85,2.3-10.02,8.01c-2.18,5.71-3.93,18.47-.58,19.75s10.56-9.41,12.74-15.11Z"/>
        <path class="cls-2" d="m632.92,150.76c-.44,0-.87-.08-1.29-.24-2.52-.96-3.54-4.33-3.11-10.29.3-4.12,1.3-8.99,2.5-12.12,1.18-3.1,3.03-5.76,5.21-7.5,2.49-1.99,5.14-2.59,7.48-1.7,4.49,1.71,5.95,8.44,3.33,15.32h0c-1.4,3.66-8.38,16.54-14.11,16.54Zm8.61-28.12c-.8,0-1.76.41-2.73,1.19-1.59,1.27-3.02,3.36-3.93,5.75-2.23,5.84-2.95,15.28-1.75,17.03,2.07-.51,7.82-8.02,10.05-13.86h0c1.84-4.81,1.02-9.24-.94-9.99-.21-.08-.45-.12-.7-.12Z"/>
      </g>
      <g>
        <path class="cls-2" d="m266.67,92.06c-2.15-5.71-6.44-9.39-9.58-8.21-3.14,1.18-3.94,6.77-1.78,12.49,2.15,5.71,9.12,16.5,12.26,15.32s1.26-13.89-.9-19.6Z"/>
        <path class="cls-2" d="m267.07,113.75c-2.15,0-4.65-1.97-7.6-5.98-2.42-3.29-4.85-7.6-6.02-10.73-2.58-6.85-1.29-13.46,2.95-15.06,4.23-1.59,9.57,2.52,12.15,9.37,1.18,3.12,2.2,7.96,2.55,12.03.51,5.92-.41,9.23-2.82,10.14-.39.15-.79.22-1.21.22Zm-8.73-28.12c-.19,0-.38.03-.54.09-1.76.67-2.42,5.14-.62,9.92,2.15,5.7,7.58,13.21,9.65,14.05,1-2,.13-11.23-2.02-16.92h0c-1.63-4.32-4.61-7.14-6.47-7.14Z"/>
      </g>
      <g>
        <path class="cls-2" d="m321.35,306.61c-2.15-5.71-1.48-11.26,1.51-12.39,2.99-1.13,7.16,2.59,9.31,8.31s4.16,18.37,1.17,19.5c-2.99,1.13-9.84-9.71-11.99-15.42Z"/>
        <path class="cls-2" d="m332.86,324.07c-2.09,0-4.48-1.96-7.41-6.05-2.37-3.3-4.75-7.61-5.92-10.72h0c-1.15-3.05-1.61-6.19-1.28-8.84.38-3.09,1.77-5.25,3.93-6.06,2.16-.81,4.62-.12,6.95,1.96,1.99,1.77,3.72,4.43,4.87,7.48.91,2.4,5.83,19.82.03,22.01-.38.14-.77.21-1.17.21Zm-8.87-28.1c-.16,0-.31.03-.45.08-.71.27-1.25,1.35-1.44,2.89-.25,2,.14,4.55,1.06,6.99h0c2.17,5.77,7.34,13.09,9.43,14.13.88-2.15-.07-11.07-2.24-16.84-.92-2.44-2.31-4.61-3.82-5.95-.94-.84-1.85-1.29-2.54-1.29Z"/>
      </g>
      <g>
        <path class="cls-2" d="m374.91,57.2c4.57-4.05,10.21-5.15,12.59-2.46s.61,8.15-3.96,12.2c-4.57,4.05-15.9,10.2-18.28,7.51s5.08-13.2,9.65-17.25Z"/>
        <path class="cls-2" d="m367.17,77.17c-1.51,0-2.65-.45-3.45-1.35-1.79-2.02-1.13-5.48,2-10.56,2.17-3.51,5.31-7.37,7.82-9.6h0c2.48-2.2,5.35-3.71,8.09-4.24,3.12-.61,5.76.08,7.42,1.95,3.19,3.6,1.37,10.24-4.13,15.12-2.51,2.23-6.72,4.88-10.47,6.61-3,1.38-5.42,2.07-7.28,2.07Zm-.32-4.13c2.07.5,10.64-3.5,15.32-7.64,3.85-3.41,5.17-7.72,3.78-9.29-.64-.72-1.93-.95-3.53-.64-1.99.39-4.23,1.58-6.14,3.28h0c-4.68,4.15-9.68,12.18-9.43,14.29Z"/>
      </g>
      <g>
        <path class="cls-2" d="m767.43,235.97c6.11,0,11.06,2.72,11.06,6.07s-4.95,6.07-11.06,6.07c-6.11,0-18.66-2.72-18.66-6.07s12.55-6.07,18.66-6.07Z"/>
        <path class="cls-2" d="m767.43,250.1c-3.34,0-8.23-.75-12.16-1.85-5.71-1.61-8.49-3.64-8.49-6.21s2.78-4.6,8.49-6.21c3.94-1.11,8.82-1.85,12.16-1.85,7.32,0,13.05,3.54,13.05,8.07s-5.73,8.07-13.05,8.07Zm-16.55-8.07c1.52,1.64,10.46,4.08,16.55,4.08,5.1,0,9.06-2.19,9.06-4.08s-3.96-4.08-9.06-4.08c-6.09,0-15.03,2.44-16.55,4.08Z"/>
      </g>
      <g>
        <path class="cls-2" d="m497.97,163.95c6.11,0,11.06-2.59,11.06-5.78s-4.95-5.78-11.06-5.78c-6.11,0-18.66,2.59-18.66,5.78s12.55,5.78,18.66,5.78Z"/>
        <path class="cls-2" d="m497.97,165.9c-2.57,0-20.61-1.54-20.61-7.73s18.04-7.73,20.61-7.73c7.41,0,13,3.32,13,7.73s-5.59,7.73-13,7.73Zm-16.55-7.73c1.7,1.58,10.38,3.84,16.55,3.84,5.56,0,9.11-2.27,9.11-3.84s-3.55-3.84-9.11-3.84c-6.16,0-14.84,2.26-16.55,3.84Z"/>
      </g>
      <g>
        <path class="cls-2" d="m755.1,157.18c2.18,5.71,1.22,11.37-2.13,12.65s-7.85-2.3-10.02-8.01c-2.18-5.71-3.93-18.47-.58-19.75s10.56,9.41,12.74,15.11Z"/>
        <path class="cls-2" d="m751.52,172.16c-1.74,0-3.55-.71-5.29-2.1-2.18-1.74-4.03-4.4-5.21-7.5-1.5-3.94-5.3-20.16.61-22.42,5.92-2.26,13.9,12.36,15.4,16.3h0c2.62,6.87,1.16,13.6-3.33,15.32-.7.27-1.44.4-2.19.4Zm-8.39-28.11c-1.2,1.76-.48,11.19,1.75,17.03.91,2.39,2.34,4.48,3.93,5.75,1.28,1.02,2.53,1.41,3.43,1.07,1.96-.75,2.78-5.18.94-9.99-2.23-5.84-7.98-13.36-10.05-13.86Z"/>
      </g>
      <g>
        <path class="cls-2" d="m554.67,278.61c-2.15,5.71-6.44,9.39-9.58,8.21-3.14-1.18-3.94-6.77-1.78-12.49,2.15-5.71,9.12-16.5,12.26-15.32s1.26,13.89-.9,19.6Z"/>
        <path class="cls-2" d="m546.29,289.02c-.65,0-1.29-.11-1.9-.34-4.23-1.6-5.53-8.21-2.95-15.06,1.18-3.12,3.6-7.43,6.02-10.73,3.52-4.78,6.41-6.66,8.81-5.76,2.41.91,3.33,4.22,2.82,10.14-.35,4.07-1.38,8.91-2.55,12.03-2.21,5.85-6.43,9.71-10.25,9.71Zm8.54-28.04c-2.07.84-7.5,8.35-9.65,14.05-1.8,4.78-1.14,9.25.62,9.92,1.76.67,5.21-2.27,7.01-7.04h0c2.15-5.7,3.02-14.93,2.02-16.92Z"/>
      </g>
      <g>
        <path class="cls-2" d="m518.35,99.06c-2.15,5.71-1.48,11.26,1.51,12.39,2.99,1.13,7.16-2.59,9.31-8.31s4.16-18.37,1.17-19.5c-2.99-1.13-9.84,9.71-11.99,15.42Z"/>
        <path class="cls-2" d="m521,113.6c-.62,0-1.24-.11-1.82-.33-2.16-.81-3.55-2.96-3.93-6.06-.32-2.65.13-5.78,1.28-8.84,1.17-3.11,3.55-7.42,5.92-10.72,3.49-4.87,6.22-6.72,8.58-5.83,2.36.89,3.18,4.08,2.6,10.04-.4,4.04-1.46,8.85-2.63,11.97-1.15,3.05-2.88,5.71-4.87,7.48-1.69,1.51-3.46,2.29-5.13,2.29Zm8.6-27.98c-2.08,1.04-7.25,8.36-9.43,14.13h0c-.92,2.44-1.31,4.99-1.06,6.99.19,1.54.73,2.62,1.44,2.89.72.27,1.83-.19,2.99-1.22,1.51-1.34,2.9-3.51,3.82-5.95,2.17-5.77,3.12-14.69,2.24-16.84Z"/>
      </g>
    </g>
  </g>
</svg>