<?xml version="1.0" encoding="UTF-8"?>
<svg id="Layer_2" data-name="Layer 2" xmlns="http://www.w3.org/2000/svg" viewBox="0 0 613.48 907.15">
  <defs>
    <style>
      .cls-1 {
        fill: #faaf3b;
      }

      .cls-2 {
        fill: #ffefc8;
      }
    </style>
  </defs>
  <g id="Layer_1-2" data-name="Layer 1">
    <g>
      <g>
        <polygon class="cls-2" points="79.26 749.46 225.35 810.96 152.16 901.94 6.85 839.4 79.26 749.46"/>
        <path class="cls-1" d="m153.45,907.15L0,841.1l77.95-96.84,154.29,64.95-78.78,97.93ZM13.71,837.7l137.16,59.03,67.61-84.04-137.9-58.05-66.86,83.06Z"/>
      </g>
      <g>
        <polygon class="cls-2" points="461.13 9.55 606.85 71.27 225.08 811.11 79.35 749.39 461.13 9.55"/>
        <path class="cls-1" d="m227.3,817.25l-154.57-65.46,2.37-4.59L458.91,3.42l154.57,65.47-2.37,4.59L227.3,817.25Zm-141.33-70.25l136.89,57.98L600.23,73.67,463.34,15.69,85.98,747Z"/>
      </g>
      <g>
        <polygon class="cls-2" points="441.56 30.98 395.54 83.08 23.44 812.41 79.46 749.19 441.56 30.98"/>
        <path class="cls-1" d="m2.09,843.72L391.55,80.36,462.54,0,83.45,751.9,2.09,843.72ZM399.53,85.79L44.79,781.1l30.67-34.62L420.59,61.96l-21.06,23.84Z"/>
      </g>
      <g>
        <ellipse class="cls-2" cx="441.83" cy="268.05" rx="36.97" ry="11.24" transform="translate(-6.73 524.67) rotate(-61.02)"/>
        <path class="cls-1" d="m425.74,304.1c-.49,0-.96-.05-1.43-.14-2.19-.44-3.97-1.87-5.01-4.03-3.67-7.62,1.79-23.43,8.11-35.69h0c8.95-17.34,22.78-33.95,31.94-32.12,2.19.44,3.97,1.87,5.01,4.03,3.67,7.62-1.79,23.43-8.11,35.69-8.5,16.46-21.4,32.26-30.51,32.26Zm7.48-36.86c-7.53,14.59-9.76,26.28-8.03,29.86.2.42.33.44.41.46,3.08.64,14.66-8.96,24.86-28.71,7.53-14.59,9.76-26.28,8.03-29.86-.2-.42-.33-.44-.41-.46-3.08-.64-14.66,8.96-24.86,28.71h0Z"/>
      </g>
      <g>
        <path class="cls-2" d="m83.41,823.95l13.05,2.61,13.05,2.61-13.05-2.61-13.05-2.61Z"/>
        <rect class="cls-1" x="84.89" y="813.25" width="23.14" height="26.61" transform="translate(-732.97 759.08) rotate(-78.69)"/>
      </g>
      <g>
        <ellipse class="cls-2" cx="289.92" cy="428.76" rx="56.46" ry="10.57" transform="translate(-224.66 484.42) rotate(-62.11)"/>
        <path class="cls-1" d="m264.45,482.16c-.35,0-.69-.03-1.02-.1-1.71-.34-3.1-1.45-3.9-3.13-3.95-8.2,6.53-34.12,16.7-53.82h0c1.1-2.14,27.14-52.26,40.19-49.64,1.71.34,3.1,1.45,3.9,3.13,3.95,8.2-6.53,34.12-16.7,53.82-1.07,2.08-25.83,49.74-39.17,49.74Zm17.58-54.06c-13.65,26.46-17.57,43.26-16.82,47.36,4.39-1.83,17.84-17.42,32.61-46.04,13.65-26.46,17.57-43.26,16.82-47.36-4.39,1.83-17.84,17.42-32.61,46.04h0Z"/>
      </g>
      <g>
        <ellipse class="cls-2" cx="456.25" cy="106.82" rx="50.05" ry="2.47" transform="translate(151.85 463.07) rotate(-62.67)"/>
        <path class="cls-1" d="m433.63,154.62c-.31,0-.63-.05-.97-.12-1.06-.21-1.93-.89-2.4-1.87-.72-1.5-1.2-2.49,5.37-16.85,3.86-8.44,9.26-19.43,15.2-30.95,6.15-11.92,12.2-23.09,17.04-31.44,8.24-14.22,9.43-14.74,11.97-14.24,1.06.21,1.93.89,2.4,1.87.72,1.5,1.2,2.49-5.37,16.85-3.86,8.44-9.26,19.43-15.2,30.95-6.15,11.93-12.21,23.09-17.04,31.44-7.13,12.31-8.98,14.35-11,14.35Z"/>
      </g>
      <g>
        <ellipse class="cls-2" cx="464.7" cy="195.85" rx="14.5" ry="10.73" transform="translate(-35.77 133.98) rotate(-15.81)"/>
        <path class="cls-1" d="m462.49,210.17c-1.33,0-2.66-.12-3.96-.39-4.73-.95-8.46-3.6-10.23-7.29-1.61-3.36-1.48-7.18.37-10.78,3.74-7.25,13.5-11.55,22.22-9.81,4.73.95,8.46,3.6,10.23,7.29,1.61,3.36,1.48,7.18-.37,10.78-3.18,6.16-10.71,10.2-18.25,10.2Zm4.47-22.11c-5.13,0-10.45,2.71-12.49,6.66-.9,1.75-1,3.46-.29,4.95.88,1.82,2.93,3.17,5.63,3.71,5.81,1.16,12.74-1.77,15.13-6.4.9-1.75,1-3.46.29-4.95-.88-1.82-2.93-3.17-5.63-3.71-.86-.17-1.75-.25-2.64-.25Z"/>
      </g>
      <g>
        <path class="cls-2" d="m235.03,641.41c-11.65,22.59-21.1,40.89-21.1,40.89,0,0,9.45-18.31,21.1-40.89,11.65-22.59,21.1-40.89,21.1-40.89,0,0-9.45,18.31-21.1,40.89Z"/>
        <rect class="cls-1" x="189.01" y="636.01" width="92.04" height="10.81" transform="translate(-442.75 556.12) rotate(-62.7)"/>
      </g>
      <g>
        <ellipse class="cls-2" cx="333.9" cy="526.66" rx="8.09" ry="2.46" transform="translate(-288.6 563.56) rotate(-61.02)"/>
        <path class="cls-1" d="m330.38,537.1c-.27,0-.54-.03-.82-.08-1.26-.25-2.32-1.08-2.89-2.28-1.43-2.96.52-7.59,1.81-10.08,1.13-2.19,5.16-9.27,9.75-8.36,1.27.25,2.32,1.08,2.9,2.28,1.43,2.96-.52,7.59-1.81,10.08-1.06,2.06-4.7,8.44-8.94,8.44Z"/>
      </g>
      <g>
        <path class="cls-2" d="m158.39,819.5c-2.64,8.52,7.66,13.29,16.52,10.54,7.9-2.94,9.78-10.71,5.27-14.33-3.97-2.6-9.76-3.76-15.35-1.42-2.9,1.06-5.27,2.89-6.44,5.22Z"/>
        <path class="cls-1" d="m169.71,835.09c-4.87,0-9.47-1.65-12.52-4.69-3.22-3.22-4.27-7.66-2.87-12.17l.1-.34.16-.31c1.61-3.21,4.69-5.79,8.69-7.28,6.33-2.61,13.52-1.93,19.25,1.83l.33.24c3.05,2.45,4.49,6.27,3.86,10.22-.81,5.06-4.66,9.33-10.3,11.43l-.22.08c-2.13.66-4.33.98-6.47.98Zm-7.34-13.97c-.32,1.33-.05,2.34.85,3.24,1.77,1.77,5.97,2.93,10.31,1.63,3.13-1.2,4.5-3.23,4.75-4.75.14-.87-.07-1.58-.64-2.1-2.63-1.64-6.88-2.72-11.17-.93l-.17.07c-1.82.67-3.23,1.69-3.93,2.83Z"/>
      </g>
    </g>
  </g>
</svg>