<?xml version="1.0" encoding="UTF-8"?>
<svg id="Layer_2" data-name="Layer 2" xmlns="http://www.w3.org/2000/svg" viewBox="0 0 507.13 491.17">
  <defs>
    <style>
      .cls-1 {
        fill: #faaf3b;
      }

      .cls-2 {
        fill: #ffefc8;
      }
    </style>
  </defs>
  <g id="Layer_1-2" data-name="Layer 1">
    <g>
      <g>
        <polygon class="cls-2" points="268.81 61.11 499.96 61.33 500.68 3.7 269.47 4.13 268.81 61.11"/>
        <path class="cls-1" d="m503.61,65.03l-238.54-.23.74-64.36,238.61-.44-.82,65.03Zm-231.06-7.61l223.76.21.63-50.22-223.81.42-.57,49.59Z"/>
      </g>
      <g>
        <polygon class="cls-2" points="11.31 486.98 242.24 487.02 499.79 61.2 268.86 61.16 11.31 486.98"/>
        <path class="cls-1" d="m244.57,491.17l-240.6-.04L266.53,57.02l240.6.04L244.57,491.17Zm-225.92-8.32l221.25.04L492.44,65.34l-221.25-.04L18.65,482.84Z"/>
      </g>
      <g>
        <polygon class="cls-2" points="8.73 472.95 4.3 439.13 263.21 20.2 268.79 61.28 8.73 472.95"/>
        <path class="cls-1" d="m6.12,484.84l-6.12-46.64.78-1.25L265.76,8.2l7.34,54.01-.81,1.28L6.12,484.84Zm2.48-44.79l2.76,21L264.48,60.34l-3.82-28.14L8.6,440.05Z"/>
      </g>
      <g>
        <ellipse class="cls-2" cx="235.86" cy="361.05" rx="23.73" ry="13.11" transform="translate(-183.45 260.23) rotate(-43.32)"/>
        <path class="cls-1" d="m225.52,382.75c-.43,0-.85-.02-1.27-.05-4.3-.33-7.62-2.38-9.37-5.77-2.47-4.8-1.46-11.57,2.77-18.56,6.89-11.39,19.99-19.71,29.81-18.97,4.3.33,7.62,2.38,9.37,5.77,2.47,4.8,1.46,11.56-2.77,18.56-6.6,10.91-18.89,19.01-28.54,19.01Zm20.65-37.74c-7.58,0-18.2,7.24-23.68,16.29-3.1,5.12-4.09,10.12-2.58,13.05.84,1.62,2.44,2.54,4.78,2.72,7.62.59,18.86-6.86,24.54-16.26,3.1-5.12,4.09-10.12,2.58-13.05-.84-1.62-2.44-2.54-4.78-2.72-.28-.02-.57-.03-.86-.03Z"/>
      </g>
      <g>
        <path class="cls-2" d="m344.98,26.77s8.01.62,17.88,1.38c9.88.76,17.88,1.38,17.88,1.38,0,0-8.01-.62-17.88-1.38-9.88-.76-17.88-1.38-17.88-1.38Z"/>
        <rect class="cls-1" x="352.85" y="10.21" width="20.02" height="35.87" transform="translate(306.87 387.77) rotate(-85.58)"/>
      </g>
      <g>
        <ellipse class="cls-2" cx="210.46" cy="254.74" rx="34.47" ry="12.96" transform="translate(-119.39 274.31) rotate(-53.83)"/>
        <path class="cls-1" d="m193.52,286.41c-.25,0-.49,0-.72-.03-3.03-.23-5.44-1.8-6.78-4.42-3.11-6.06-.41-17.21,7.22-29.84h0c11.91-19.7,26.85-29.67,34.87-29.04,3.03.23,5.44,1.8,6.78,4.42,3.11,6.06.41,17.21-7.22,29.84-11.56,19.12-25.99,29.07-34.15,29.07Zm4.55-31.36c-7.26,12-8.73,21.02-7.03,24.33.45.88,1.11,1.29,2.19,1.37,6.18.46,19.86-10.22,29.6-26.34,7.26-12,8.73-21.02,7.03-24.33-.45-.88-1.11-1.29-2.19-1.37-6.18-.45-19.86,10.22-29.6,26.34h0Z"/>
      </g>
      <g>
        <ellipse class="cls-2" cx="98.61" cy="440.07" rx="29.96" ry="3.09" transform="translate(-328.19 294.38) rotate(-58.52)"/>
        <path class="cls-1" d="m83.28,468.5c-.12,0-.24,0-.36-.01-1.11-.09-2.08-.73-2.59-1.73-.54-1.05-2.19-4.26,12.42-28.42,4.18-6.91,8.48-13.4,12.11-18.25,6-8.03,7.77-8.57,9.46-8.43,1.11.08,2.08.73,2.59,1.73.54,1.05,2.19,4.26-12.42,28.42-4.18,6.91-8.48,13.4-12.11,18.25-5.57,7.46-7.49,8.45-9.09,8.45Zm21.64-38.74c-2.23,3.29-4.71,7.15-7.34,11.5-2.02,3.34-3.77,6.39-5.27,9.11,2.23-3.29,4.71-7.15,7.34-11.5,2.02-3.34,3.77-6.39,5.27-9.11Z"/>
      </g>
      <g>
        <ellipse class="cls-2" cx="193.76" cy="399.73" rx="6.33" ry="18.39" transform="translate(-207.23 590.87) rotate(-89.63)"/>
        <path class="cls-1" d="m194.06,408.89c-1.44,0-2.86-.05-4.26-.16-3.23-.25-13.98-1.47-16.67-6.7-.86-1.68-.79-3.51.2-5.15,3.04-5.03,14.57-6.91,24.38-6.14,3.23.25,13.98,1.47,16.67,6.7.86,1.68.79,3.5-.2,5.14h0c-2.61,4.32-11.46,6.31-20.12,6.31Zm-15.77-9.25c.78.89,4.36,2.87,11.95,3.46,10.16.78,17.62-1.66,18.98-3.27-.78-.89-4.36-2.87-11.95-3.46-10.16-.78-17.62,1.66-18.98,3.27Z"/>
      </g>
      <g>
        <path class="cls-2" d="m349.16,143.33c7.86-13,14.24-23.54,14.24-23.54,0,0-6.37,10.54-14.24,23.54-7.86,13-14.24,23.54-14.24,23.54,0,0,6.37-10.54,14.24-23.54Z"/>
        <rect class="cls-1" x="321.65" y="138.65" width="55.02" height="9.35" transform="translate(45.83 367.92) rotate(-58.83)"/>
      </g>
      <g>
        <ellipse class="cls-2" cx="355.98" cy="217.32" rx="5.19" ry="2.87" transform="translate(-52.09 303.47) rotate(-43.32)"/>
        <path class="cls-1" d="m353.74,224.27c-.15,0-.31,0-.46-.02-1.71-.13-3.11-1.03-3.84-2.46-.9-1.75-.65-4.01.68-6.21h0c1.69-2.79,5.17-5.49,8.58-5.21,1.71.13,3.11,1.03,3.84,2.45.9,1.75.65,4.01-.68,6.21-1.61,2.66-4.86,5.23-8.11,5.23Zm2.81-7.49c-.39.28-.78.64-1.13,1.06.39-.28.78-.64,1.13-1.06Z"/>
      </g>
      <g>
        <path class="cls-2" d="m429.15,43.89c5.03-4.55,21.75-4.74,29.57-1.67,6.5,2.97,1.29,7.02-7.5,7.82-7.18.43-15.1-.18-19.47-2.4-2.4-1.08-3.45-2.42-2.6-3.75Z"/>
        <path class="cls-1" d="m446.88,53.86c-5.04,0-11.98-.51-16.73-2.89-2.6-1.19-4.2-2.76-4.77-4.66-.44-1.49-.21-3.05.65-4.4l.27-.42.37-.33c4.03-3.64,11.79-4.47,16.07-4.64,6.55-.26,13.03.59,17.33,2.28l.18.08c5.21,2.38,5.22,5.85,4.99,7.22-1.02,6.01-10.73,7.36-13.69,7.63h-.11c-1.14.08-2.72.14-4.56.14Zm-11.87-8.86c3.62,1.21,9.59,1.74,15.93,1.36,2.31-.22,4.07-.66,5.3-1.1-5.95-1.88-15.7-1.87-21.23-.26Z"/>
      </g>
    </g>
  </g>
</svg>