<?xml version="1.0" encoding="UTF-8"?>
<svg id="Layer_2" data-name="Layer 2" xmlns="http://www.w3.org/2000/svg" viewBox="0 0 187.38 836.91">
  <defs>
    <style>
      .cls-1 {
        fill: #faaf3b;
      }

      .cls-2 {
        fill: #ffefc8;
      }
    </style>
  </defs>
  <g id="Layer_1-2" data-name="Layer 1">
    <g>
      <g>
        <polygon class="cls-2" points="83.5 116.37 183.52 97.89 178.58 3.76 78.6 23.3 83.5 116.37"/>
        <path class="cls-1" d="m80.57,120.08l-5.24-99.33L181.51,0l5.27,100.46-106.21,19.62Zm1.29-94.24l4.58,86.81,93.82-17.33-4.6-87.81-93.79,18.33Z"/>
      </g>
      <g>
        <polygon class="cls-2" points="10.91 832.61 110.81 813.86 183.43 97.7 83.53 116.44 10.91 832.61"/>
        <path class="cls-1" d="m6.96,836.91L80.31,113.49l107.07-20.09-73.36,723.42-107.07,20.09ZM86.75,119.4L14.86,828.31l92.73-17.4L179.48,102l-92.73,17.4Z"/>
      </g>
      <g>
        <polygon class="cls-2" points="8.52 809.9 3.52 755.05 77.35 50.04 83.51 116.64 8.52 809.9"/>
        <path class="cls-1" d="m11.99,810.28l-6.96-.06-5.03-55.19.04-.34L73.87,49.68l6.96.04,6.19,66.95-.04.35L11.99,810.28Zm-4.96-55.21l1.78,19.55L79.99,116.61l-2.86-30.91L7.03,755.07Z"/>
      </g>
      <g>
        <ellipse class="cls-2" cx="96.58" cy="608.73" rx="31.83" ry="6.98" transform="translate(-518.79 643.4) rotate(-84.21)"/>
        <path class="cls-1" d="m93.56,642.79c-.15,0-.29,0-.44-.02-3.26-.33-5.2-4.1-6.1-11.88-.72-6.28-.64-14.49.23-23.11h0c.87-8.62,2.44-16.68,4.41-22.69,2.44-7.43,5.1-10.73,8.36-10.41,3.26.33,5.2,4.1,6.1,11.88.72,6.28.64,14.49-.23,23.11-.87,8.62-2.44,16.68-4.41,22.69-2.33,7.09-4.85,10.43-7.92,10.43Zm5.96-63.16c-1.99,1.84-5.83,12.04-7.52,28.63h0c-1.68,16.58.04,27.35,1.62,29.55,1.99-1.84,5.83-12.04,7.52-28.63,1.68-16.58-.04-27.35-1.62-29.55Z"/>
      </g>
      <g>
        <path class="cls-2" d="m113.32,54.09l7.86.8,7.86.8-7.86-.8-7.86-.8Z"/>
        <rect class="cls-1" x="112.73" y="46.98" width="16.91" height="15.81" transform="translate(54.35 169.92) rotate(-84.21)"/>
      </g>
      <g>
        <ellipse class="cls-2" cx="75.9" cy="437.23" rx="48.74" ry="6.54" transform="translate(-366.76 468.63) rotate(-84.21)"/>
        <path class="cls-1" d="m71.15,488.12c-.14,0-.27,0-.41-.02-2.86-.29-4.86-3.29-5.31-16.97-.3-9.39.26-21.75,1.58-34.8,1.32-13.05,3.25-25.28,5.44-34.41,3.18-13.31,5.73-15.87,8.6-15.56,2.86.29,4.86,3.29,5.31,16.97.3,9.39-.26,21.75-1.58,34.8-1.32,13.05-3.25,25.27-5.44,34.41-3.03,12.67-5.49,15.58-8.19,15.58Zm9.3-95.8c-2.45,4.85-6.28,20.8-8.69,44.49h0c-2.4,23.69-1.85,40.09-.42,45.33,2.45-4.85,6.28-20.8,8.69-44.49,2.4-23.69,1.85-40.09.42-45.33Z"/>
      </g>
      <g>
        <ellipse class="cls-2" cx="44.4" cy="748.91" rx="43.27" ry="1.53" transform="translate(-705.17 717.54) rotate(-84.21)"/>
        <path class="cls-1" d="m40.14,794.36c-.11,0-.23,0-.34-.02-2.49-.25-2.45-2.73-2.39-5.86.04-2.22.19-5.38.46-9.39.54-8.19,1.48-19.04,2.65-30.57,1.14-11.26,2.37-21.9,3.47-29.97,1.82-13.37,2.38-13.83,3.22-14.52l.77-.62,1.04.08c2.49.25,2.45,2.73,2.39,5.86-.04,2.22-.19,5.38-.46,9.39-.54,8.19-1.48,19.04-2.65,30.57h0c-1.17,11.53-2.43,22.35-3.54,30.48-.55,3.98-1.03,7.1-1.44,9.29-.55,2.93-.98,5.28-3.18,5.28Z"/>
      </g>
      <g>
        <ellipse class="cls-2" cx="81.89" cy="675.3" rx="10.44" ry="7.96" transform="translate(-598.23 688.64) rotate(-84.21)"/>
        <path class="cls-1" d="m81.44,688.1c-.28,0-.56-.01-.85-.04-2.87-.29-5.39-1.97-7.08-4.74-1.57-2.56-2.25-5.78-1.91-9.07.71-7.04,5.91-12.29,11.58-11.72,2.87.29,5.39,1.97,7.08,4.74,1.57,2.56,2.25,5.78,1.91,9.07h0c-.68,6.68-5.4,11.76-10.73,11.76Zm.88-20.84c-2.87,0-5.56,3.31-5.98,7.47-.23,2.26.21,4.42,1.23,6.09.9,1.46,2.14,2.35,3.5,2.48,3,.27,5.91-3.11,6.35-7.46.23-2.26-.21-4.42-1.23-6.09-.9-1.46-2.14-2.35-3.49-2.48-.12-.01-.25-.02-.37-.02Z"/>
      </g>
      <g>
        <path class="cls-2" d="m125.75,244.04c2.22-21.86,4.01-39.59,4.01-39.59,0,0-1.8,17.72-4.01,39.59-2.22,21.86-4.01,39.59-4.01,39.59,0,0,1.8-17.72,4.01-39.59Z"/>
        <rect class="cls-1" x="85.96" y="240.09" width="79.58" height="7.9" transform="translate(-129.73 344.54) rotate(-84.21)"/>
      </g>
      <g>
        <ellipse class="cls-2" cx="135.44" cy="364.28" rx="6.96" ry="1.53" transform="translate(-240.64 462.28) rotate(-84.21)"/>
        <path class="cls-1" d="m134.81,373.6c-.1,0-.21,0-.31-.02-3.89-.39-3.18-7.4-2.95-9.7h0c.23-2.3.94-9.29,4.84-8.91,3.89.39,3.18,7.4,2.95,9.7-.23,2.24-.91,8.92-4.52,8.92Z"/>
      </g>
      <g>
        <path class="cls-2" d="m151.29,75.18c1.76-7.84,8.98-9.51,12.64-5.13,3.08,4.32,1.2,11.35-2.53,13.38-3.07,1.29-6.55.94-8.64-2.34-1.14-1.57-1.71-3.67-1.47-5.91Z"/>
        <path class="cls-1" d="m158.16,87.25c-3.22,0-6.11-1.53-7.98-4.4-1.6-2.25-2.31-5.09-1.99-8.01l.06-.34c1.13-5.04,4.32-8.65,8.51-9.67,3.52-.85,7.19.38,9.56,3.22l.15.19c1.97,2.77,2.61,6.49,1.75,10.21-.79,3.45-2.79,6.33-5.33,7.72l-.28.13c-1.51.63-3.01.94-4.46.94Zm-3.78-11.56c-.11,1.34.21,2.61.91,3.58l.1.15c1.27,1.99,3.19,1.78,4.64,1.21.91-.57,1.75-1.98,2.12-3.57.44-1.9.18-3.8-.69-5.09-.86-.97-2.03-1.36-3.23-1.07-1.8.43-3.23,2.22-3.85,4.8Z"/>
      </g>
    </g>
  </g>
</svg>