<?xml version="1.0" encoding="UTF-8"?>
<svg id="Layer_2" data-name="Layer 2" xmlns="http://www.w3.org/2000/svg" viewBox="0 0 208.2 929.9">
  <defs>
    <style>
      .cls-1 {
        fill: #faaf3b;
      }

      .cls-2 {
        fill: #ffefc8;
      }
    </style>
  </defs>
  <g id="Layer_1-2" data-name="Layer 1">
    <g>
      <g>
        <polygon class="cls-2" points="115.42 129.3 4.3 108.77 9.78 4.17 120.87 25.88 115.42 129.3"/>
        <path class="cls-1" d="m118.68,133.42L.67,111.63,6.53,0l117.97,23.06-5.82,110.37ZM7.92,105.91l104.24,19.26,5.08-96.45L13.04,8.34l-5.12,97.56Z"/>
      </g>
      <g>
        <polygon class="cls-2" points="196.08 925.12 85.08 904.29 4.39 108.55 115.39 129.38 196.08 925.12"/>
        <path class="cls-1" d="m200.47,929.9l-118.97-22.33-.29-2.89L0,103.77l118.97,22.33.29,2.89,81.21,800.91Zm-111.82-28.89l103.04,19.33L111.82,132.67,8.78,113.33l79.87,787.67Z"/>
      </g>
      <g>
        <polygon class="cls-2" points="198.74 899.89 204.3 838.95 122.26 55.6 115.42 129.6 198.74 899.89"/>
        <path class="cls-1" d="m194.88,900.31L111.51,129.63l.04-.39,6.84-74,7.74-.05,82.08,783.72-5.59,61.33-7.74.07ZM119.32,129.57l79.09,731.13,1.98-21.73L122.5,95.22l-3.18,34.35Z"/>
      </g>
      <g>
        <ellipse class="cls-2" cx="100.9" cy="676.36" rx="7.75" ry="35.37" transform="translate(-67.72 13.63) rotate(-5.79)"/>
        <path class="cls-1" d="m104.29,714.21c-9.73,0-13.36-32.99-13.74-36.8-.97-9.58-1.06-18.7-.26-25.68.99-8.63,3.15-12.83,6.77-13.19,10.07-1,13.79,32.91,14.19,36.78.97,9.58,1.06,18.7.26,25.68-.99,8.63-3.15,12.83-6.77,13.19-.15.01-.3.02-.44.02Zm-6.67-70.17c-1.75,2.45-3.66,14.41-1.8,32.84,1.87,18.43,6.14,29.76,8.35,31.81,1.75-2.45,3.66-14.41,1.8-32.84h0c-1.87-18.43-6.14-29.76-8.35-31.81Z"/>
      </g>
      <g>
        <path class="cls-2" d="m82.29,60.1l-8.74.89-8.74.89,8.74-.89,8.74-.89Z"/>
        <rect class="cls-1" x="64.77" y="51.59" width="17.56" height="18.8" transform="translate(-5.78 7.73) rotate(-5.79)"/>
      </g>
      <g>
        <ellipse class="cls-2" cx="123.87" cy="485.81" rx="7.27" ry="54.16" transform="translate(-48.38 14.97) rotate(-5.79)"/>
        <path class="cls-1" d="m129.14,542.35c-3,0-5.74-3.23-9.1-17.31-2.42-10.15-4.57-23.73-6.04-38.23-1.47-14.51-2.1-28.24-1.76-38.67.49-15.2,2.71-18.53,5.9-18.85,3.19-.33,6.03,2.5,9.56,17.29,2.42,10.15,4.57,23.73,6.04,38.23,1.47,14.51,2.1,28.24,1.76,38.67-.49,15.2-2.71,18.53-5.9,18.85-.15.02-.31.02-.46.02Zm-10.33-106.45c-1.58,5.83-2.2,24.05.47,50.37,2.67,26.32,6.93,44.05,9.65,49.44,1.58-5.83,2.2-24.05-.47-50.37-2.67-26.32-6.93-44.05-9.65-49.44Z"/>
      </g>
      <g>
        <ellipse class="cls-2" cx="158.87" cy="832.13" rx="1.7" ry="48.08" transform="translate(-83.14 20.27) rotate(-5.79)"/>
        <path class="cls-1" d="m163.6,882.62c-2.44,0-2.92-2.61-3.53-5.86-.45-2.43-.99-5.9-1.6-10.32-1.24-9.03-2.64-21.06-3.93-33.87h0c-1.3-12.81-2.34-24.87-2.94-33.97-.29-4.45-.46-7.96-.51-10.43-.06-3.48-.11-6.23,2.66-6.51,2.78-.26,3.27,2.42,3.91,5.84.45,2.43.99,5.9,1.6,10.32,1.24,9.03,2.64,21.06,3.93,33.87,1.3,12.81,2.34,24.87,2.94,33.97.29,4.45.46,7.96.51,10.43.06,3.48.11,6.23-2.66,6.51-.13.01-.26.02-.38.02Z"/>
      </g>
      <g>
        <ellipse class="cls-2" cx="117.22" cy="750.33" rx="8.84" ry="11.61" transform="translate(-75.1 15.65) rotate(-5.79)"/>
        <path class="cls-1" d="m117.68,764.56c-2.85,0-5.58-1.27-7.79-3.63-2.28-2.43-3.73-5.79-4.11-9.45h0c-.37-3.66.38-7.24,2.13-10.08,1.88-3.07,4.68-4.94,7.87-5.26,6.31-.62,12.08,5.21,12.87,13.03.37,3.66-.38,7.24-2.13,10.08-1.88,3.07-4.68,4.94-7.87,5.26-.33.03-.65.05-.98.05Zm-.95-23.16c-.14,0-.28,0-.42.02-1.51.15-2.89,1.13-3.88,2.76-1.14,1.86-1.63,4.26-1.37,6.77h0c.25,2.51,1.21,4.77,2.7,6.36,1.3,1.39,2.85,2.08,4.36,1.92,1.51-.15,2.89-1.13,3.88-2.76,1.14-1.86,1.63-4.26,1.37-6.77-.47-4.63-3.46-8.3-6.65-8.3Z"/>
      </g>
      <g>
        <path class="cls-2" d="m68.48,271.16l-4.46-43.98,4.46,43.98c2.46,24.29,4.46,43.98,4.46,43.98,0,0-2-19.69-4.46-43.98Z"/>
        <rect class="cls-1" x="64.09" y="226.95" width="8.78" height="88.42" transform="translate(-27.01 8.29) rotate(-5.79)"/>
      </g>
      <g>
        <ellipse class="cls-2" cx="57.71" cy="404.75" rx="1.7" ry="7.74" transform="translate(-40.54 7.89) rotate(-5.79)"/>
        <path class="cls-1" d="m58.41,415.11c-4.02,0-4.78-7.43-5.03-9.92-.23-2.24-.25-4.39-.05-6.06.34-2.94,1.46-4.52,3.33-4.71,1.87-.18,3.29,1.14,4.21,3.95.52,1.6.94,3.71,1.16,5.95h0c.26,2.56,1.05,10.33-3.28,10.78-.12.01-.23.02-.34.02Z"/>
      </g>
      <g>
        <path class="cls-2" d="m40.1,83.54c-1.96-8.71-9.97-10.57-14.04-5.7-3.43,4.8-1.33,12.61,2.81,14.87,3.41,1.44,7.28,1.04,9.6-2.6,1.26-1.75,1.9-4.08,1.63-6.57Z"/>
        <path class="cls-1" d="m32.47,96.94c-1.6,0-3.28-.34-4.95-1.05l-.31-.15c-2.83-1.54-5.04-4.75-5.93-8.58-.95-4.14-.24-8.27,1.95-11.34l.16-.21c2.64-3.16,6.71-4.53,10.63-3.58,4.66,1.13,8.2,5.14,9.46,10.74l.06.38c.36,3.24-.43,6.39-2.21,8.9-2.07,3.18-5.29,4.89-8.86,4.89Zm-2.08-7.36c1.61.63,3.74.87,5.15-1.34l.11-.17c.78-1.08,1.14-2.48,1.01-3.97-.69-2.86-2.28-4.85-4.28-5.33-1.33-.33-2.64.11-3.59,1.19-.96,1.44-1.25,3.54-.76,5.65.41,1.77,1.34,3.34,2.36,3.97Z"/>
      </g>
    </g>
  </g>
</svg>