<?xml version="1.0" encoding="UTF-8"?>
<svg id="Layer_2" data-name="Layer 2" xmlns="http://www.w3.org/2000/svg" viewBox="0 0 308.86 828.59">
  <defs>
    <style>
      .cls-1 {
        fill: #faaf3b;
      }

      .cls-2 {
        fill: #ffefc8;
      }
    </style>
  </defs>
  <g id="Layer_1-2" data-name="Layer 1">
    <g>
      <g>
        <polygon class="cls-2" points="144.78 100.86 5.09 101.23 4.65 3.76 144.39 4.48 144.78 100.86"/>
        <path class="cls-1" d="m1.36,104.98L.89,0l147.21.76.43,103.82-147.17.39ZM8.4,7.51l.4,89.97,132.22-.35-.37-88.93L8.4,7.51Z"/>
      </g>
      <g>
        <polygon class="cls-2" points="300.41 821.2 160.85 821.27 5.19 101.01 144.75 100.94 300.41 821.2"/>
        <path class="cls-1" d="m157.47,825.46L0,96.83l148.13-.08,157.47,728.63-148.13.08ZM10.38,105.2l153.85,711.89,131-.07L141.37,105.13l-131,.07Z"/>
      </g>
      <g>
        <polygon class="cls-2" points="301.97 797.46 304.65 740.25 148.17 31.66 144.8 101.14 301.97 797.46"/>
        <path class="cls-1" d="m304.7,828.59L140.59,101.5,145.51.19l163.35,739.71-4.16,88.69ZM149.01,100.77l150.23,665.57,1.21-25.72L150.83,63.14l-1.83,37.63Z"/>
      </g>
      <g>
        <ellipse class="cls-2" cx="164.7" cy="608.2" rx="9.76" ry="32.59" transform="translate(-124.76 48.51) rotate(-12.19)"/>
        <path class="cls-1" d="m170.93,642.98c-7.98,0-15.14-16.25-18.57-32.11-1.9-8.77-2.65-17.28-2.13-23.95.63-8,2.97-12.49,6.97-13.36,8.47-1.82,16.21,15.29,19.82,31.98,1.9,8.77,2.65,17.28,2.13,23.95-.63,8-2.97,12.49-6.97,13.36-.42.09-.84.13-1.25.13Zm-12.41-63.85s-.07,0-.1.01c-.37.08-1.98,1.79-2.49,8.22-.48,6.14.24,14.06,2.02,22.3,4.32,20,11.46,27.92,13.03,27.6.37-.08,1.98-1.79,2.49-8.22.48-6.14-.24-14.06-2.02-22.3h0c-4.23-19.59-11.17-27.61-12.93-27.61Z"/>
      </g>
      <g>
        <path class="cls-2" d="m98.75,42.76s-4.84,1.05-10.81,2.34l-10.81,2.34,10.81-2.34c5.97-1.29,10.81-2.34,10.81-2.34Z"/>
        <rect class="cls-1" x="76.88" y="34.98" width="22.12" height="20.24" transform="translate(-7.54 19.6) rotate(-12.2)"/>
      </g>
      <g>
        <ellipse class="cls-2" cx="180.05" cy="428.37" rx="9.15" ry="49.9" transform="translate(-86.42 47.7) rotate(-12.19)"/>
        <path class="cls-1" d="m190.17,480.04c-3.79,0-7.42-4.63-11.62-14.72-3.74-9-7.38-21.22-10.23-34.41-2.85-13.19-4.59-25.82-4.9-35.57-.38-11.92,1.32-17.63,5.49-18.53,4.17-.9,8.07,3.61,12.65,14.61,3.74,9,7.38,21.22,10.23,34.41h0c2.85,13.19,4.59,25.82,4.9,35.57.38,11.92-1.32,17.63-5.49,18.53-.34.07-.69.11-1.03.11Zm-19.98-97.3c-1.66,3.57-2.18,19.73,3.71,46.96s13.03,41.73,16.01,44.3c1.66-3.57,2.18-19.73-3.71-46.96h0c-5.89-27.23-13.03-41.73-16.01-44.3Z"/>
      </g>
      <g>
        <ellipse class="cls-2" cx="247.65" cy="741.86" rx="2.14" ry="44.3" transform="translate(-151.12 69.05) rotate(-12.19)"/>
        <path class="cls-1" d="m256.79,788.04c-2.76,0-3.89-3.73-6.76-14.51-2.17-8.13-4.75-19.01-7.26-30.62h0c-2.51-11.61-4.65-22.58-6.03-30.88-2-12.03-2.43-15.53.95-16.26,3.38-.74,4.43,2.63,7.58,14.42,2.17,8.14,4.75,19.01,7.26,30.62s4.65,22.58,6.03,30.88c2,12.03,2.43,15.53-.95,16.26-.29.06-.56.09-.81.09Z"/>
      </g>
      <g>
        <ellipse class="cls-2" cx="190.14" cy="673.62" rx="11.13" ry="10.69" transform="translate(-138 55.36) rotate(-12.19)"/>
        <path class="cls-1" d="m189.96,687.19c-6.4,0-12.12-4.3-13.49-10.61h0c-1.58-7.3,3.27-14.57,10.81-16.2,7.54-1.62,14.96,2.98,16.54,10.29,1.58,7.3-3.27,14.57-10.81,16.2-1.02.22-2.04.33-3.05.33Zm-7.9-11.82c.91,4.22,5.28,6.88,9.75,5.91,4.46-.96,7.35-5.18,6.44-9.41s-5.28-6.87-9.75-5.91c-4.46.96-7.35,5.18-6.44,9.41h0Z"/>
      </g>
      <g>
        <path class="cls-2" d="m96.22,239.92c-4.75-21.99-8.6-39.81-8.6-39.81,0,0,3.85,17.82,8.6,39.81,4.75,21.99,8.6,39.81,8.6,39.81,0,0-3.85-17.82-8.6-39.81Z"/>
        <rect class="cls-1" x="91.49" y="199.19" width="9.46" height="81.46" transform="translate(-48.51 25.74) rotate(-12.19)"/>
      </g>
      <g>
        <ellipse class="cls-2" cx="92.1" cy="365.07" rx="2.14" ry="7.13" transform="translate(-75.04 27.69) rotate(-12.19)"/>
        <path class="cls-1" d="m93.4,374.92c-3.96,0-5.72-6.65-6.18-8.79-.46-2.12-.64-4.21-.51-5.88.29-3.74,2.18-4.69,3.28-4.93,4.53-.98,6.49,6.42,6.99,8.7h0c.46,2.12.64,4.22.51,5.89-.29,3.74-2.18,4.69-3.28,4.93-.28.06-.55.09-.81.09Z"/>
      </g>
      <g>
        <path class="cls-2" d="m47.88,71.72c-3.04-7.7-13.14-8.02-17.87-2.82-3.93,5.03-.78,11.87,4.53,13.23,4.34.73,9.13-.3,11.77-4.06,1.45-1.83,2.09-4.09,1.57-6.35Z"/>
        <path class="cls-1" d="m37.12,86.08c-1.05,0-2.12-.09-3.2-.27l-.3-.06c-3.88-.99-7.11-4.04-8.45-7.96-1.32-3.88-.63-7.95,1.9-11.19l.18-.21c3.31-3.64,8.71-5.4,13.77-4.47,4.8.88,8.56,3.95,10.34,8.43l.17.54c.74,3.23-.07,6.65-2.22,9.41-2.64,3.7-7.13,5.78-12.18,5.78Zm-1.79-7.61c2.71.42,6.16-.04,7.92-2.55l.13-.18c.53-.66,1.09-1.7.91-2.94-1.08-2.43-3.09-3.27-4.62-3.55-2.49-.45-5.2.37-6.8,2.05-1.2,1.62-.92,3.24-.63,4.08.51,1.48,1.71,2.68,3.1,3.09Z"/>
      </g>
    </g>
  </g>
</svg>