<?xml version="1.0" encoding="UTF-8"?>
<svg id="Layer_2" data-name="Layer 2" xmlns="http://www.w3.org/2000/svg" viewBox="0 0 407.35 764.73">
  <defs>
    <style>
      .cls-1 {
        fill: #faaf3b;
      }

      .cls-2 {
        fill: #ffefc8;
      }
    </style>
  </defs>
  <g id="Layer_1-2" data-name="Layer 1">
    <g>
      <g>
        <polygon class="cls-2" points="354.76 632.16 257.78 683.92 306.36 760.5 402.82 707.86 354.76 632.16"/>
        <path class="cls-1" d="m305.27,764.73l-52.04-82.01,102.63-54.78,51.48,81.08-102.08,55.7Zm-42.95-79.62l45.14,71.15,90.84-49.57-44.65-70.32-91.33,48.75Z"/>
      </g>
      <g>
        <polygon class="cls-2" points="101.26 9.42 4.53 61.37 257.96 684.05 354.69 632.1 101.26 9.42"/>
        <path class="cls-1" d="m256.14,689.08L0,59.74,103.08,4.39l256.14,629.35-103.08,55.35ZM9.05,63l250.72,616.01,90.4-48.54L99.45,14.46,9.05,63Z"/>
      </g>
      <g>
        <polygon class="cls-2" points="114.25 27.45 144.8 71.3 391.81 685.14 354.63 631.93 114.25 27.45"/>
        <path class="cls-1" d="m406.83,712.87l-55.37-79.23L99.48,0l48.49,69.59.15.38,258.7,642.91Zm-49.03-82.65l19,27.19L141.64,73.02l-12.62-18.11,228.78,575.32Z"/>
      </g>
      <g>
        <ellipse class="cls-2" cx="114.07" cy="226.98" rx="7.81" ry="29.75" transform="translate(-78.86 61.73) rotate(-22.74)"/>
        <path class="cls-1" d="m124.68,257.03c-2.92,0-6.22-2.56-10.05-7.76-3.68-4.99-7.39-11.89-10.46-19.43-4.17-10.25-8-24.28-5.07-30.08.9-1.78,2.22-2.44,3.17-2.68,3.2-.81,6.88,1.68,11.25,7.61,3.68,4.99,7.39,11.89,10.46,19.43,4.17,10.25,8,24.28,5.07,30.08-.9,1.78-2.22,2.44-3.17,2.68-.39.1-.79.15-1.2.15Zm-21.15-55.21c-1.14,1.37-1.24,10.45,5.16,26.18,6.36,15.62,13.75,24.02,15.93,24.14,1.14-1.37,1.24-10.45-5.16-26.18-6.36-15.62-13.75-24.02-15.93-24.14Z"/>
      </g>
      <g>
        <path class="cls-2" d="m352,694.86l-8.66,2.2-8.66,2.2,8.66-2.2,8.66-2.2Z"/>
        <rect class="cls-1" x="334.4" y="688.4" width="17.87" height="17.3" transform="translate(-160.84 105.81) rotate(-14.23)"/>
      </g>
      <g>
        <ellipse class="cls-2" cx="214.92" cy="362.25" rx="7.32" ry="45.53" transform="translate(-121.64 108.98) rotate(-22.36)"/>
        <path class="cls-1" d="m231.67,406.91c-2.3,0-5.63-2.11-11.78-12.3-4.66-7.73-9.77-18.25-14.4-29.62-5.58-13.71-14.14-38.64-10.85-45.16.7-1.39,1.75-1.91,2.51-2.11,2.34-.59,5.68.39,12.78,12.17,4.66,7.73,9.77,18.25,14.4,29.62h0c5.58,13.71,14.14,38.64,10.85,45.16-.7,1.39-1.76,1.91-2.51,2.11-.31.08-.65.13-1.01.13Zm-32.91-83.88c-.4,4.07,2.17,17.81,11.25,40.12,4.22,10.37,8.91,20.14,13.21,27.5,4.17,7.15,6.67,9.83,7.86,10.82.4-4.07-2.17-17.81-11.25-40.12-4.22-10.37-8.91-20.14-13.21-27.5-4.17-7.15-6.67-9.83-7.86-10.82Z"/>
      </g>
      <g>
        <ellipse class="cls-2" cx="104.5" cy="91.29" rx="1.71" ry="40.41" transform="translate(-26.71 46.16) rotate(-22.16)"/>
        <path class="cls-1" d="m119.46,131.22c-1.71,0-2.96-2.02-7.59-12.15-3.21-7.02-7.22-16.41-11.3-26.44h0c-3.97-9.74-7.56-19.03-10.12-26.14-4.3-11.94-3.95-12.63-3.42-13.68l.5-.99,1.14-.33c2.27-.57,3.1.26,8.46,12.02,3.21,7.02,7.22,16.41,11.3,26.44,3.97,9.75,7.56,19.03,10.12,26.14,4.3,11.94,3.95,12.63,3.42,13.68l-.5.99-1.14.33c-.31.08-.6.13-.87.13Z"/>
      </g>
      <g>
        <ellipse class="cls-2" cx="98.89" cy="166.21" rx="8.6" ry="10.1" transform="translate(-90.87 128.85) rotate(-48.11)"/>
        <path class="cls-1" d="m100.34,177.97c-5.18,0-10.3-3.4-12.43-8.62h0c-1.29-3.17-1.22-6.59.19-9.38,1.31-2.59,3.62-4.42,6.52-5.15,6.04-1.53,12.75,2.1,15.26,8.27,1.29,3.17,1.22,6.59-.19,9.38-1.31,2.59-3.62,4.42-6.51,5.15-.93.24-1.88.35-2.83.35Zm-7.91-10.46c1.56,3.83,5.92,6.3,9.54,5.38,1.52-.39,2.69-1.29,3.36-2.62.77-1.53.78-3.47.02-5.34-1.56-3.83-5.93-6.3-9.54-5.38-1.52.39-2.69,1.29-3.36,2.62-.77,1.53-.78,3.47-.02,5.34h0Z"/>
      </g>
      <g>
        <path class="cls-2" d="m251.36,541.23l14.01,34.42-14.01-34.42c-7.74-19.01-14.01-34.42-14.01-34.42,0,0,6.27,15.41,14.01,34.42Z"/>
        <rect class="cls-1" x="247.32" y="504.07" width="8.08" height="74.32" transform="translate(-185.49 134.69) rotate(-22.15)"/>
      </g>
      <g>
        <ellipse class="cls-2" cx="185.72" cy="444.64" rx="1.71" ry="6.51" transform="translate(-157.42 106.33) rotate(-22.74)"/>
        <path class="cls-1" d="m188.05,453.12c-2.9,0-5.14-4.38-6.26-7.14-.86-2.12-2.14-5.99-1.05-8.16.41-.8,1.09-1.36,1.93-1.58,3.25-.82,5.77,4.06,6.99,7.05.86,2.12,2.14,5.99,1.05,8.16-.41.8-1.09,1.36-1.93,1.58-.25.06-.49.09-.73.09Z"/>
      </g>
      <g>
        <path class="cls-2" d="m302.23,691.11c1.75,7.17-5.08,11.19-10.97,8.87-5.24-2.48-6.49-9.02-3.5-12.06,2.64-2.19,6.48-3.17,10.19-1.2,1.92.9,3.5,2.43,4.27,4.39Z"/>
        <path class="cls-1" d="m294.68,703.81c-1.54,0-3.1-.29-4.59-.87l-.19-.08c-3.55-1.68-6.07-4.95-6.75-8.75-.57-3.21.3-6.36,2.34-8.43l.23-.22c3.98-3.31,9.2-3.92,13.65-1.6,2.71,1.28,4.78,3.44,5.82,6.07l.13.42c1.03,4.21-.1,8.12-3.1,10.74-2.05,1.79-4.76,2.73-7.55,2.73Zm-2.15-6.77c1.94.73,4.14.42,5.5-.77,1.13-.98,1.52-2.43,1.15-4.19-.48-1.05-1.38-1.93-2.57-2.48l-.15-.07c-3.03-1.6-5.61,0-6.52.72-.51.61-.71,1.64-.51,2.74.31,1.74,1.46,3.24,3.1,4.05Z"/>
      </g>
    </g>
  </g>
</svg>