<?xml version="1.0" encoding="UTF-8"?>
<svg id="Layer_2" data-name="Layer 2" xmlns="http://www.w3.org/2000/svg" viewBox="0 0 1802.75 778.59">
  <defs>
    <style>
      .cls-1 {
        fill: #faaf3b;
      }

      .cls-2 {
        fill: #ffefc8;
      }
    </style>
  </defs>
  <g id="Layer_1-2" data-name="Layer 1">
    <g>
      <g>
        <polygon class="cls-2" points="1533.42 165.83 1426.15 134.99 1448.01 61.72 1555.05 93.4 1533.42 165.83"/>
        <path class="cls-1" d="m1422.45,136.97l23.54-78.9,112.77,33.37-23.31,78.03-113-32.49Zm27.59-71.59l-20.18,67.62,101.52,29.19,19.97-66.83-101.31-29.98Z"/>
      </g>
      <g>
        <polygon class="cls-2" points="1488.8 741.21 1381.7 710.18 1426.28 134.85 1533.37 165.89 1488.8 741.21"/>
        <path class="cls-1" d="m1378.16,712.57l45.1-582.02,113.67,32.94-45.1,582.02-113.67-32.94Zm51.15-573.42l-44.06,568.64,100.52,29.13,44.06-568.64-100.52-29.13Z"/>
      </g>
      <g>
        <polygon class="cls-2" points="1495.4 723.74 1510.48 681.4 1551.77 114.65 1533.36 166.04 1495.4 723.74"/>
        <path class="cls-1" d="m1490.41,747.71l39.64-582.33,26.84-74.96-43.1,591.64-23.38,65.65Zm46.27-581.01l-36.29,533.06,6.78-19.04,39.48-541.86-9.97,27.84Z"/>
      </g>
      <g>
        <ellipse class="cls-2" cx="1433.17" cy="551.09" rx="25.52" ry="7.81" transform="translate(772.54 1937.19) rotate(-85.55)"/>
        <path class="cls-1" d="m1430.04,578.59c-6.12-1.78-7.91-15.57-6.93-28.24.54-7.01,1.9-13.56,3.82-18.45,2.3-5.86,5.13-8.71,8.39-8.47,6.92.52,8.96,15.09,7.92,28.42-.54,7.01-1.9,13.56-3.82,18.45-2.3,5.86-5.13,8.71-8.39,8.47-.34-.03-.67-.09-.99-.18Zm5.02-50.69s-.06-.01-.08-.01c-.3-.02-1.93.91-3.78,5.61-1.77,4.5-3.02,10.6-3.53,17.19-1.24,15.98,2.44,23.51,3.71,23.62.3.02,1.93-.91,3.78-5.61,1.77-4.5,3.02-10.6,3.53-17.19h0c1.21-15.65-2.28-23.21-3.63-23.61Z"/>
      </g>
      <g>
        <path class="cls-2" d="m1511.33,111.97s-3.95-.29-8.82-.65l-8.82-.65,8.82.65c4.87.36,8.82.65,8.82.65Z"/>
        <polygon class="cls-1" points="1493.06 118.56 1494.29 102.76 1511.94 104.06 1510.71 119.87 1493.06 118.56"/>
      </g>
      <g>
        <ellipse class="cls-2" cx="1485.9" cy="419.53" rx="39.07" ry="7.32" transform="translate(952.67 1868.52) rotate(-85.56)"/>
        <path class="cls-1" d="m1481.9,460.57c-2.91-.84-4.64-5.13-5.56-13.64-.82-7.59-.83-17.57-.01-28.11.82-10.54,2.36-20.41,4.34-27.79,2.43-9.03,5.03-12.94,8.43-12.69,3.41.26,5.37,4.51,6.38,13.79.82,7.59.83,17.57.01,28.11h0c-.82,10.54-2.36,20.41-4.34,27.79-2.43,9.03-5.03,12.94-8.43,12.69-.28-.02-.55-.07-.82-.14Zm6.83-77.49c-2.08,2.31-6.16,14.32-7.85,36.07-1.69,21.75.49,34.23,2.2,36.82,2.08-2.31,6.16-14.32,7.85-36.07h0c1.69-21.75-.49-34.23-2.2-36.82Z"/>
      </g>
      <g>
        <ellipse class="cls-2" cx="1466.38" cy="669.9" rx="34.69" ry="1.71" transform="translate(685.19 2080.14) rotate(-85.57)"/>
        <path class="cls-1" d="m1462.88,706.6c-2.11-.61-2.13-3.67-1.89-12.4.19-6.59.68-15.33,1.4-24.6h0c.72-9.27,1.57-17.98,2.4-24.53,1.21-9.48,1.68-12.2,4.43-11.99,2.76.2,2.8,2.97,2.53,12.51-.19,6.59-.68,15.33-1.4,24.6s-1.57,17.98-2.4,24.53c-1.21,9.48-1.68,12.2-4.43,11.99-.23-.02-.45-.05-.65-.11Z"/>
      </g>
      <g>
        <ellipse class="cls-2" cx="1437.8" cy="605.87" rx="8.37" ry="8.91" transform="translate(762.05 2012.18) rotate(-87.18)"/>
        <path class="cls-1" d="m1434.57,616.01c-4.91-1.43-8.32-5.93-7.93-10.97h0c.45-5.83,5.83-10.21,11.98-9.75,6.15.46,10.8,5.57,10.34,11.41-.45,5.83-5.83,10.21-11.98,9.75-.84-.06-1.64-.21-2.41-.43Zm-3.37-10.63c-.26,3.37,2.49,6.34,6.13,6.61,3.64.27,6.82-2.25,7.08-5.63s-2.49-6.34-6.13-6.61c-3.64-.27-6.82,2.25-7.08,5.63h0Z"/>
      </g>
      <g>
        <path class="cls-2" d="m1464.5,259.4l2.46-31.8-2.46,31.8c-1.36,17.56-2.46,31.8-2.46,31.8,0,0,1.1-14.24,2.46-31.8Z"/>
        <polygon class="cls-1" points="1458.26 290.92 1463.19 227.32 1470.73 227.88 1465.8 291.48 1458.26 290.92"/>
      </g>
      <g>
        <ellipse class="cls-2" cx="1432.84" cy="352.42" rx="5.58" ry="1.71" transform="translate(970.3 1753.59) rotate(-85.55)"/>
        <path class="cls-1" d="m1431.59,360.11c-3.04-.88-2.87-6.26-2.74-7.98.13-1.7.47-3.31.95-4.53,1.08-2.74,2.74-3.04,3.64-2.97,3.7.27,3.52,6.26,3.38,8.09h0c-.13,1.7-.47,3.31-.95,4.53-1.08,2.74-2.74,3.04-3.64,2.97-.23-.02-.44-.06-.64-.11Z"/>
      </g>
      <g>
        <path class="cls-2" d="m1465.7,122.37c-.58-6.45-8.26-8.95-13.07-6.1-4.16,2.9-3.3,8.74.46,10.94,3.16,1.52,7.07,1.81,9.95-.43,1.53-1.05,2.53-2.61,2.65-4.41Z"/>
        <path class="cls-1" d="m1454.18,130.76c-.8-.23-1.61-.54-2.4-.92l-.22-.12c-2.75-1.61-4.54-4.62-4.67-7.85-.13-3.2,1.33-6.11,4.01-7.98l.19-.12c3.37-2,7.91-2.11,11.58-.29,3.48,1.73,5.67,4.87,6.01,8.63v.45c-.17,2.59-1.56,4.98-3.84,6.57-2.87,2.19-6.79,2.75-10.66,1.63Zm.36-6.11c1.98.92,4.73,1.34,6.66-.15l.14-.1c.55-.38,1.22-1.03,1.36-2-.28-2.06-1.63-3.14-2.73-3.69-1.8-.89-4.07-.88-5.69.02-1.29.95-1.44,2.23-1.41,2.92.05,1.23.7,2.4,1.67,3.01Z"/>
      </g>
    </g>
    <g>
      <g>
        <polygon class="cls-2" points="449.35 110.72 527.49 88.42 515.96 15.48 437.93 38.6 449.35 110.72"/>
        <path class="cls-1" d="m447.32,113.84l-12.19-76.97,82.86-24.55,12.31,77.84-82.98,23.67Zm-6.58-73.52l10.65,67.26,73.3-20.91-10.76-68.04-73.2,21.69Z"/>
      </g>
      <g>
        <polygon class="cls-2" points="449.38 674.4 527.41 651.9 527.41 88.28 449.38 110.77 449.38 674.4"/>
        <path class="cls-1" d="m446.58,678.06V108.73s83.63-24.11,83.63-24.11v569.34s-83.63,24.11-83.63,24.11Zm5.6-565.24v557.91s72.43-20.88,72.43-20.88V91.94s-72.43,20.88-72.43,20.88Z"/>
      </g>
      <g>
        <polygon class="cls-2" points="445.64 656.9 437.23 614.57 439.1 59.54 449.38 110.93 445.64 656.9"/>
        <path class="cls-1" d="m448.44,656.92l-5.55.5-8.46-42.6v-.27s1.87-555.03,1.87-555.03l5.55-.52,10.33,51.66v.27s-3.74,545.97-3.74,545.97Zm-8.41-42.61l3,15.09,3.55-518.22-4.77-23.86-1.77,526.98Z"/>
      </g>
      <g>
        <path class="cls-2" d="m493.93,493.23c0,13.77,2.5,24.92,5.58,24.92s5.58-11.16,5.58-24.92c0-13.77-2.5-24.92-5.58-24.92-3.08,0-5.58,11.16-5.58,24.92Z"/>
        <path class="cls-1" d="m499.87,520.01c-.12.01-.23.02-.35.02-2.63,0-4.47-2.79-5.81-8.77-1.08-4.84-1.68-11.24-1.68-18.02h0c0-6.79.6-13.19,1.68-18.02,1.34-5.98,3.19-8.76,5.81-8.77,2.63,0,4.47,2.79,5.81,8.77,1.08,4.84,1.68,11.24,1.68,18.02,0,6.79-.6,13.19-1.68,18.02-1.28,5.71-3.02,8.51-5.46,8.75Zm-.35-49.67c-1.43,1.59-3.67,9.84-3.67,22.89h0c0,13.05,2.24,21.3,3.67,22.89,1.43-1.59,3.67-9.84,3.67-22.89,0-13.05-2.24-21.3-3.67-22.89Z"/>
      </g>
      <rect class="cls-1" x="468.07" y="53.23" width="12.65" height="13.24"/>
      <g>
        <ellipse class="cls-2" cx="469.2" cy="361.27" rx="5.23" ry="38.16"/>
        <path class="cls-1" d="m469.53,401.28c-.11.01-.22.02-.33.02-2.3,0-4.14-2.18-5.59-12.8-1-7.29-1.55-16.96-1.55-27.24,0-10.27.55-19.95,1.55-27.23,1.46-10.62,3.28-12.82,5.59-12.8,2.3,0,4.14,2.18,5.59,12.8,1,7.29,1.55,16.96,1.55,27.24,0,10.27-.55,19.95-1.55,27.23-1.39,10.11-3.11,12.57-5.26,12.78Zm-.33-75.36c-1.56,3.97-3.32,16.7-3.32,35.35h0c0,18.64,1.77,31.37,3.32,35.35,1.56-3.97,3.32-16.7,3.32-35.35,0-18.64-1.77-31.37-3.32-35.35Z"/>
      </g>
      <g>
        <ellipse class="cls-2" cx="469.29" cy="606.56" rx="1.22" ry="33.88"/>
        <path class="cls-1" d="m469.57,642.29c-.09,0-.18.01-.28.01-2.01,0-2.17-1.93-2.38-4.38-.15-1.74-.28-4.21-.39-7.35-.23-6.42-.36-14.95-.36-24.02,0-8.86.12-17.25.34-23.62.37-10.56.78-10.96,1.39-11.56l.56-.55.84-.02c2,0,2.17,1.93,2.38,4.38.15,1.74.28,4.21.39,7.35.23,6.42.36,14.95.36,24.02h0c0,9.07-.13,17.6-.36,24.02-.11,3.14-.25,5.61-.39,7.35-.2,2.33-.36,4.19-2.1,4.36Z"/>
      </g>
      <g>
        <ellipse class="cls-2" cx="493.19" cy="546.25" rx="6.37" ry="8.18"/>
        <path class="cls-1" d="m493.87,556.26c-.22.02-.45.03-.68.03-2.31,0-4.45-1.11-6.02-3.13-1.45-1.87-2.26-4.32-2.26-6.92,0-5.54,3.71-10.04,8.28-10.05,2.31,0,4.45,1.11,6.02,3.13,1.45,1.87,2.26,4.32,2.26,6.92h0c0,5.26-3.35,9.59-7.6,10.01Zm-.98-16.31c-2.28.23-4.16,3.02-4.16,6.3,0,1.78.52,3.43,1.47,4.65.83,1.07,1.89,1.66,2.98,1.66,2.41-.02,4.46-2.89,4.46-6.31,0-1.78-.52-3.43-1.47-4.65-.83-1.07-1.89-1.66-2.98-1.66-.1,0-.2,0-.3.02Z"/>
      </g>
      <g>
        <path class="cls-2" d="m493.3,206.84c0-17.21,0-31.15,0-31.15,0,0,0,13.95,0,31.15,0,17.21,0,31.15,0,31.15,0,0,0-13.95,0-31.15Z"/>
        <rect class="cls-1" x="490.14" y="175.68" width="6.32" height="62.31"/>
      </g>
      <g>
        <ellipse class="cls-2" cx="510.72" cy="299.74" rx="1.22" ry="5.45"/>
        <path class="cls-1" d="m510.97,307.04c-.08,0-.16.01-.25.01-3.13,0-3.13-5.51-3.13-7.32h0c0-1.81,0-7.31,3.13-7.32,3.13,0,3.13,5.51,3.13,7.32,0,1.76,0,7.02-2.88,7.31Z"/>
      </g>
      <g>
        <path class="cls-2" d="m500,73.28c.77-6.25,6.38-8.12,9.65-5,2.8,3.12,1.87,8.75-.93,10.62-2.34,1.25-5.14,1.25-7.07-1.14-1.03-1.13-1.66-2.72-1.65-4.49Z"/>
        <path class="cls-1" d="m506.44,82.14c-2.56.25-4.99-.71-6.71-2.8-1.46-1.63-2.25-3.79-2.23-6.08l.02-.27c.5-4.01,2.74-7.08,6-8.2,2.74-.94,5.75-.27,7.87,1.75l.13.14c1.79,2,2.6,4.85,2.22,7.82-.35,2.75-1.71,5.15-3.62,6.43l-.21.13c-1.15.61-2.32.97-3.47,1.09Zm-3.94-8.71c.02,1.06.38,2.02,1.01,2.71l.09.11c1.17,1.45,2.68,1.13,3.79.57.68-.52,1.24-1.68,1.4-2.95.2-1.52-.16-2.97-.96-3.91-.76-.69-1.73-.9-2.66-.58-1.39.48-2.39,1.99-2.68,4.04Z"/>
      </g>
    </g>
    <g>
      <g>
        <polygon class="cls-2" points="1767.44 656.95 1679.64 662.48 1689.73 732.81 1777.43 726.48 1767.44 656.95"/>
        <path class="cls-1" d="m1687.53,735.47l-10.8-75.31,92.91-5.85,10.71,74.47-92.81,6.7Zm-4.98-70.67l9.37,65.34,82.59-5.96-9.29-64.59-82.68,5.21Z"/>
      </g>
      <g>
        <polygon class="cls-2" points="1788.61 130.91 1700.93 136.66 1679.73 662.63 1767.41 656.89 1788.61 130.91"/>
        <path class="cls-1" d="m1676.74,665.64l21.43-531.61,93.42-6.12-21.43,531.61-93.42,6.12Zm26.95-526.36l-20.97,520.35,81.93-5.37,20.97-520.35-81.93,5.37Z"/>
      </g>
      <g>
        <polygon class="cls-2" points="1792.11 147.97 1799.88 189.12 1776.92 706.72 1767.41 656.75 1792.11 147.97"/>
        <path class="cls-1" d="m1778.69,731.35l-14.16-74.41,25.89-533.32,12.33,65.31v.32s-24.06,542.11-24.06,542.11Zm-8.4-74.79l4.86,25.53,21.86-492.77-3.21-17-23.51,484.23Z"/>
      </g>
      <g>
        <ellipse class="cls-2" cx="1726.01" cy="290.18" rx="23.29" ry="6.25" transform="translate(1384.42 2006.75) rotate(-88.29)"/>
        <path class="cls-1" d="m1723.8,315.04c-2.12-.94-3.69-3.83-4.76-8.79-1.03-4.75-1.45-10.87-1.2-17.24.35-8.66,2.2-19.9,6.25-23.09,1.24-.98,2.43-1.02,3.2-.89,2.6.46,4.46,3.42,5.68,9.07,1.03,4.75,1.45,10.87,1.2,17.24-.35,8.66-2.2,19.9-6.25,23.09-1.24.98-2.43,1.02-3.2.89-.32-.06-.63-.15-.92-.28Zm2.84-46.21c-1.28.61-4.36,7.05-4.9,20.34-.53,13.19,2.08,21.57,3.63,22.37,1.28-.61,4.36-7.05,4.9-20.34.53-13.19-2.08-21.57-3.63-22.37Z"/>
      </g>
      <g>
        <path class="cls-2" d="m1744.69,700.76s-3.15-.55-7.04-1.24l-7.04-1.24,7.04,1.24c3.89.68,7.04,1.24,7.04,1.24Z"/>
        <polygon class="cls-1" points="1729.4 704.96 1731.84 691.63 1745.92 694.1 1743.47 707.43 1729.4 704.96"/>
      </g>
      <g>
        <ellipse class="cls-2" cx="1754.77" cy="419.26" rx="35.65" ry="5.86" transform="translate(1271.66 2157.53) rotate(-87.91)"/>
        <path class="cls-1" d="m1752.21,456.52c-1.68-.74-3.41-3.33-4.52-12.58-.84-7.02-1.09-16.17-.7-25.78.47-11.58,2.47-32.13,7.03-35.71.97-.77,1.91-.8,2.53-.69,1.9.34,4.01,2.12,5.29,12.81.84,7.02,1.09,16.17.7,25.78h0c-.47,11.58-2.47,32.13-7.03,35.71-.97.76-1.91.8-2.53.69-.26-.04-.52-.12-.78-.23Zm3.75-70.46c-1.64,2.77-4.3,13.4-5.06,32.25-.35,8.76-.16,17.24.53,23.88.68,6.45,1.61,9.17,2.15,10.26,1.64-2.77,4.3-13.4,5.06-32.25.35-8.76.16-17.24-.53-23.88-.68-6.45-1.61-9.17-2.15-10.26Z"/>
      </g>
      <g>
        <ellipse class="cls-2" cx="1763.9" cy="190.33" rx="31.64" ry="1.37" transform="translate(1503.12 1945.2) rotate(-87.71)"/>
        <path class="cls-1" d="m1761.6,223.64c-1.24-.55-1.49-2.4-1.51-11.12-.02-6.04.16-14.04.5-22.51h0c.33-8.23.78-16.01,1.27-21.91.81-9.9,1.3-10.28,2.04-10.86l.69-.54.94.13c1.84.33,2.17,1.19,2.2,11.31.02,6.04-.16,14.04-.5,22.51-.33,8.23-.78,16.01-1.27,21.91-.81,9.9-1.3,10.28-2.04,10.86l-.69.55-.94-.14c-.25-.04-.48-.1-.68-.19Z"/>
      </g>
      <g>
        <ellipse class="cls-2" cx="1735.03" cy="241.94" rx="6.86" ry="7.94" transform="translate(78.02 810.43) rotate(-26.87)"/>
        <path class="cls-1" d="m1732.2,250.79c-3.78-1.68-6.38-5.76-6.21-10.17h0c.11-2.68,1.29-5.09,3.24-6.63,1.81-1.42,4.1-1.98,6.45-1.57,4.91.87,8.59,5.62,8.38,10.83-.11,2.68-1.29,5.09-3.24,6.63-1.81,1.42-4.1,1.98-6.45,1.57-.76-.13-1.49-.36-2.18-.67Zm-2.3-10.02c-.13,3.24,2.24,6.41,5.17,6.92,1.24.22,2.39-.05,3.31-.78,1.07-.84,1.72-2.22,1.78-3.8.13-3.24-2.24-6.41-5.17-6.92-1.24-.22-2.39.05-3.32.78-1.07.84-1.72,2.22-1.78,3.8h0Z"/>
      </g>
      <g>
        <path class="cls-2" d="m1722.15,558.66l-1.17,29.07,1.17-29.07,1.17-29.07-1.17,29.07Z"/>
        <polygon class="cls-1" points="1717.74 587.61 1720.09 529.46 1726.55 529.71 1724.2 587.86 1717.74 587.61"/>
      </g>
      <g>
        <ellipse class="cls-2" cx="1706.25" cy="468.56" rx="5.1" ry="1.37" transform="translate(1186.96 2160.06) rotate(-88.29)"/>
        <path class="cls-1" d="m1705.14,475.36c-2.11-.94-2.29-4.78-2.2-7.11.07-1.79.42-4.96,1.94-6.16.56-.44,1.25-.62,1.92-.5,2.64.46,2.86,4.76,2.76,7.28-.07,1.79-.42,4.96-1.94,6.16-.56.44-1.25.62-1.92.5-.2-.04-.39-.09-.56-.17Z"/>
      </g>
      <g>
        <path class="cls-2" d="m1709.66,681.99c-1.09,5.68-7.4,6.33-10.93,2.78-3-3.46-1.75-8.53,1.44-9.73,2.65-.71,5.77-.16,7.82,2.44,1.11,1.26,1.75,2.86,1.66,4.51Z"/>
        <path class="cls-1" d="m1699.96,688.61c-1.12-.5-2.16-1.21-3.05-2.1l-.11-.12c-2.03-2.34-2.79-5.49-2.02-8.42.65-2.47,2.33-4.44,4.49-5.26l.24-.08c4-1.07,8,.18,10.48,3.27,1.55,1.79,2.34,3.99,2.23,6.21l-.04.34c-.64,3.33-2.76,5.76-5.81,6.65-2.09.61-4.37.41-6.4-.5Zm.67-5.52c1.17,1.15,2.88,1.64,4.26,1.23,1.15-.34,1.91-1.24,2.22-2.62,0-.9-.37-1.82-1.05-2.6l-.08-.1c-1.68-2.12-4.09-1.81-4.99-1.6-.57.27-1.06.94-1.28,1.79-.35,1.34,0,2.79.92,3.89Z"/>
      </g>
    </g>
    <g>
      <g>
        <polygon class="cls-2" points="60.36 232.02 226.55 152.53 206.77 111.76 40.77 191.74 60.36 232.02"/>
        <path class="cls-1" d="m230.47,153.87L58.98,235.91l-22.13-45.51,171.31-82.53,22.32,46ZM61.75,228.14l160.87-76.95-17.23-35.53L44.7,193.07l17.05,35.07Z"/>
      </g>
      <g>
        <polygon class="cls-2" points="25.31 620.18 191.27 540.64 226.38 152.5 60.42 232.04 25.31 620.18"/>
        <path class="cls-1" d="m194.41,542.75l-172.92,82.88L57.28,229.93l172.92-82.88-35.79,395.69Zm-165.28,71.99l159.01-76.21,34.43-380.59L63.55,234.15l-34.43,380.59Z"/>
      </g>
      <g>
        <polygon class="cls-2" points="18.51 611.2 3.41 588.95 41.93 205.19 60.41 232.15 18.51 611.2"/>
        <path class="cls-1" d="m20.82,620.47l-20.82-30.68.12-1.15L39.53,195.88l24.3,35.44-.13,1.17-42.88,387.97Zm-14-32.35l9.38,13.82L56.98,232.97l-12.66-18.46L6.83,588.12Z"/>
      </g>
      <g>
        <ellipse class="cls-2" cx="142.32" cy="454.27" rx="18.63" ry="10.46" transform="translate(-332.58 421.36) rotate(-68.64)"/>
        <path class="cls-1" d="m142.53,473.08c-.31.15-.62.28-.93.4-3.2,1.25-6.32.95-8.76-.83-3.47-2.53-5.12-7.63-4.55-14,.94-10.39,7.42-20.75,14.74-23.61,3.21-1.25,6.32-.95,8.76.83,3.46,2.52,5.12,7.63,4.54,14-.9,9.95-6.88,19.88-13.82,23.21Zm1.55-33.65c-5.45,2.61-10.53,11.36-11.28,19.61-.42,4.67.63,8.52,2.74,10.06,1.17.85,2.65.94,4.39.27,5.68-2.21,11.13-11.32,11.91-19.89.42-4.67-.63-8.52-2.74-10.06-1.17-.85-2.65-.94-4.39-.27-.21.08-.42.17-.63.27Z"/>
      </g>
      <g>
        <path class="cls-2" d="m103,181.63s5.97-2.32,13.34-5.19c7.37-2.87,13.34-5.19,13.34-5.19,0,0-5.97,2.32-13.34,5.19-7.37,2.87-13.34,5.19-13.34,5.19Z"/>
        <polygon class="cls-1" points="132.64 178.53 105.97 188.91 100.04 174.35 126.72 163.96 132.64 178.53"/>
      </g>
      <g>
        <ellipse class="cls-2" cx="86.62" cy="388.27" rx="27.01" ry="10.36" transform="translate(-310.89 403.73) rotate(-79.65)"/>
        <path class="cls-1" d="m85.61,416.38c-.18.08-.35.16-.53.23-2.26.88-4.54.61-6.43-.77-4.37-3.19-6.36-11.96-5.32-23.47h0c1.62-17.95,8.85-30.11,14.83-32.44,2.26-.88,4.54-.61,6.43.77,4.37,3.19,6.36,11.96,5.32,23.47-1.58,17.43-8.44,29.4-14.3,32.21Zm-7.77-23.62c-.99,10.94,1.13,17.79,3.51,19.53.63.46,1.25.52,2.06.21,4.6-1.8,10.67-14.03,12-28.72.99-10.94-1.13-17.79-3.51-19.53-.63-.46-1.25-.52-2.06-.21-4.6,1.81-10.67,14.03-12,28.72h0Z"/>
      </g>
      <g>
        <ellipse class="cls-2" cx="71.52" cy="557.12" rx="23.46" ry="2.47" transform="translate(-489.88 575.02) rotate(-84.51)"/>
        <path class="cls-1" d="m70.52,582.39c-.09.04-.18.08-.27.11-.83.32-1.75.2-2.47-.32-.76-.55-3.07-2.24-1.08-24.26.57-6.3,1.38-12.34,2.28-17.01,1.48-7.71,2.56-8.7,3.83-9.19.83-.32,1.75-.2,2.47.32.76.55,3.07,2.24,1.08,24.26-.57,6.3-1.38,12.34-2.28,17.01-1.38,7.16-2.41,8.52-3.56,9.07Zm1.91-34.69c-.44,3.08-.87,6.65-1.23,10.62-.28,3.04-.46,5.79-.58,8.22.44-3.08.87-6.65,1.23-10.62.28-3.04.46-5.79.58-8.22Z"/>
      </g>
      <g>
        <ellipse class="cls-2" cx="125.69" cy="495.97" rx="14.66" ry="4.98" transform="translate(-198.67 100.27) rotate(-25.12)"/>
        <path class="cls-1" d="m129.13,502.3c-1.03.49-2.08.95-3.12,1.35-2.41.94-10.56,3.78-14.34,1.03-1.21-.88-1.8-2.19-1.67-3.69.42-4.59,8.03-9.87,15.36-12.72,2.41-.94,10.56-3.78,14.34-1.03,1.21.88,1.8,2.19,1.67,3.69h0c-.36,3.94-6.02,8.38-12.24,11.37Zm-14.59-1.07c.87.36,4.14.52,9.8-1.68,7.58-2.95,12.07-7.24,12.49-8.84-.87-.36-4.14-.52-9.8,1.68-7.58,2.96-12.07,7.24-12.49,8.84Z"/>
      </g>
      <g>
        <path class="cls-2" d="m147.06,262.14l1.94-21.45-1.94,21.45-1.94,21.45,1.94-21.45Z"/>
        <polygon class="cls-1" points="148.85 283.92 141.39 283.27 145.27 240.37 152.73 241.01 148.85 283.92"/>
      </g>
      <g>
        <ellipse class="cls-2" cx="178.02" cy="311.81" rx="4.08" ry="2.29" transform="translate(-177.22 364.03) rotate(-68.64)"/>
        <path class="cls-1" d="m178.86,317.48c-.11.05-.22.1-.34.15-1.28.5-2.6.35-3.63-.4-1.26-.92-1.88-2.6-1.7-4.6h0c.23-2.54,1.78-5.65,4.33-6.62,1.27-.5,2.59-.35,3.62.4,1.26.92,1.88,2.6,1.7,4.6-.22,2.42-1.65,5.35-3.99,6.47Zm-.62-6.23c-.18.33-.33.72-.44,1.14.18-.33.33-.72.44-1.14Z"/>
      </g>
      <g>
        <path class="cls-2" d="m169.52,164.66c2.02-4.93,13.96-10.83,20.66-11.36,5.72-.15,3.4,4.49-2.63,8.08-5,2.78-10.92,5.08-14.84,5.02-2.11.07-3.33-.51-3.19-1.74Z"/>
        <path class="cls-1" d="m185.77,165.57c-3.62,1.74-8.79,3.77-13.04,3.73-2.28.06-3.99-.49-5.07-1.64-.84-.89-1.23-2.07-1.08-3.32l.04-.39.15-.36c1.61-3.95,6.9-7.21,9.91-8.8,4.62-2.44,9.57-4.08,13.25-4.37h.16c4.58-.13,5.81,2.3,6.13,3.35,1.38,4.58-5.12,8.87-7.15,10.08l-.08.04c-.79.44-1.91,1.03-3.23,1.67Zm-11.65-2.14c3.03-.4,7.5-2.08,11.93-4.53,1.58-.95,2.7-1.87,3.42-2.6-4.94.73-11.94,4.1-15.35,7.13Z"/>
      </g>
    </g>
    <g>
      <g>
        <polygon class="cls-2" points="823.92 108.77 736.92 84.63 749.12 3.49 836.01 28.56 823.92 108.77"/>
        <path class="cls-1" d="m826.21,112.23l-92.39-25.64L746.84,0l92.27,26.62-12.9,85.61Zm-86.19-29.56l81.62,22.65,11.27-74.82-81.51-23.51-11.38,75.68Z"/>
      </g>
      <g>
        <polygon class="cls-2" points="828.6 735.07 741.72 710.7 737.01 84.47 823.89 108.84 828.6 735.07"/>
        <path class="cls-1" d="m831.74,739.12l-93.12-26.12-.02-2.28-4.74-630.3,93.12,26.12.02,2.28,4.74,630.3Zm-86.93-30.72l80.65,22.62-4.66-619.89-80.65-22.62,4.66,619.89Z"/>
      </g>
      <g>
        <polygon class="cls-2" points="832.61 715.6 841.6 668.49 834.89 51.82 823.9 109.01 832.61 715.6"/>
        <path class="cls-1" d="m829.5,715.64l-8.72-606.9.06-.3,10.99-57.18,6.17.53,6.71,616.97-9.05,47.4-6.17-.52Zm-2.49-606.37l8.27,575.75,3.2-16.79-6.37-585.5-5.1,26.54Z"/>
      </g>
      <g>
        <ellipse class="cls-2" cx="771.39" cy="534.18" rx="6.2" ry="27.69" transform="translate(-4 5.83) rotate(-.43)"/>
        <path class="cls-1" d="m771.26,563.93c-7.75-.71-8.17-26.69-8.19-29.69-.06-7.54.55-14.66,1.72-20.04,1.44-6.66,3.47-9.77,6.39-9.79,8.1-.04,8.53,26.66,8.55,29.71.06,7.54-.55,14.66-1.72,20.04-1.44,6.66-3.47,9.77-6.39,9.79-.12,0-.24,0-.35-.01Zm-.06-55.19c-1.58,1.78-4,10.96-3.89,25.47.11,14.5,2.66,23.65,4.27,25.41,1.58-1.78,4-10.96,3.89-25.47h0c-.11-14.5-2.66-23.65-4.27-25.41Z"/>
      </g>
      <g>
        <path class="cls-2" d="m802.7,52.4l-7.03.05-7.03.05,7.03-.05,7.03-.05Z"/>
        <rect class="cls-1" x="788.65" y="45.09" width="14.05" height="14.72" transform="translate(-.37 5.96) rotate(-.43)"/>
      </g>
      <g>
        <ellipse class="cls-2" cx="803.96" cy="387.31" rx="5.82" ry="42.41" transform="translate(-2.89 6.06) rotate(-.43)"/>
        <path class="cls-1" d="m803.93,431.78c-2.39-.22-4.33-2.94-5.96-14.16-1.17-8.09-1.86-18.83-1.95-30.25-.09-11.42.44-22.17,1.49-30.27,1.53-11.81,3.55-14.25,6.11-14.26,2.56-.03,4.61,2.39,6.32,14.18,1.17,8.09,1.86,18.83,1.95,30.25.09,11.42-.44,22.17-1.49,30.27-1.53,11.81-3.55,14.25-6.11,14.26-.12,0-.25,0-.37-.02Zm-.26-83.74c-1.7,4.43-3.55,18.58-3.4,39.3.16,20.71,2.22,34.85,3.99,39.25,1.7-4.43,3.55-18.58,3.4-39.3-.16-20.71-2.22-34.85-3.99-39.25Z"/>
      </g>
      <g>
        <ellipse class="cls-2" cx="805.91" cy="659.85" rx="1.36" ry="37.65" transform="translate(-4.94 6.08) rotate(-.43)"/>
        <path class="cls-1" d="m805.9,699.56c-1.94-.18-2.13-2.25-2.37-4.83-.18-1.93-.35-4.67-.5-8.16-.31-7.13-.52-16.61-.6-26.69h0c-.08-10.08,0-19.56.2-26.69.1-3.49.23-6.24.38-8.17.21-2.72.38-4.86,2.61-4.88,2.23,0,2.43,2.13,2.68,4.84.18,1.93.35,4.67.5,8.16.31,7.13.52,16.61.6,26.69.08,10.08,0,19.56-.2,26.69-.1,3.49-.23,6.24-.38,8.17-.21,2.72-.38,4.86-2.61,4.88-.11,0-.21,0-.31-.01Z"/>
      </g>
      <g>
        <ellipse class="cls-2" cx="778.85" cy="593.03" rx="7.08" ry="9.09" transform="translate(-4.73 6.26) rotate(-.46)"/>
        <path class="cls-1" d="m778.15,604.16c-2.27-.21-4.35-1.4-5.93-3.4-1.63-2.06-2.54-4.79-2.56-7.67h0c-.02-2.88.85-5.61,2.45-7.7,1.73-2.26,4.1-3.51,6.67-3.53,5.07-.02,9.23,4.94,9.28,11.1.02,2.88-.85,5.61-2.45,7.7-1.73,2.26-4.1,3.51-6.67,3.53-.26,0-.52,0-.78-.03Zm.98-18.13c-.11-.01-.22-.01-.33-.01-1.21,0-2.38.67-3.3,1.87-1.05,1.36-1.61,3.2-1.6,5.18h0c.01,1.98.61,3.81,1.68,5.16.93,1.18,2.11,1.83,3.33,1.82,1.21,0,2.38-.67,3.3-1.87,1.05-1.36,1.61-3.2,1.6-5.18-.03-3.64-2.13-6.73-4.67-6.96Z"/>
      </g>
      <g>
        <path class="cls-2" d="m775.9,215.92l-.26-34.62.26,34.62.26,34.62-.26-34.62Z"/>
        <rect class="cls-1" x="772.39" y="181.3" width="7.02" height="69.23" transform="translate(-1.6 5.84) rotate(-.43)"/>
      </g>
      <g>
        <ellipse class="cls-2" cx="757.31" cy="319.28" rx="1.36" ry="6.06" transform="translate(-2.38 5.71) rotate(-.43)"/>
        <path class="cls-1" d="m757.1,327.4c-3.21-.29-3.25-6.14-3.27-8.1-.01-1.76.13-3.44.41-4.73.49-2.26,1.5-3.42,3.01-3.43,1.51,0,2.53,1.13,3.06,3.38.3,1.28.47,2.96.48,4.72h0c.02,2.01.06,8.13-3.42,8.16-.09,0-.19,0-.28-.01Z"/>
      </g>
      <g>
        <path class="cls-2" d="m767.33,67.58c-.91-6.93-7.15-8.97-10.76-5.47-3.09,3.49-2,9.73,1.13,11.8,2.61,1.37,5.72,1.35,7.84-1.32,1.14-1.27,1.82-3.04,1.79-5Z"/>
        <path class="cls-1" d="m760.25,77.47c-1.28-.12-2.59-.51-3.87-1.18l-.24-.14c-2.14-1.41-3.66-4.07-4.08-7.12-.45-3.29.43-6.47,2.4-8.7l.15-.15c2.34-2.27,5.69-3.04,8.73-2.01,3.63,1.22,6.15,4.61,6.73,9.07l.02.3c.04,2.55-.82,4.95-2.43,6.77-1.89,2.33-4.58,3.42-7.43,3.16Zm-1.1-5.89c1.23.61,2.92.95,4.21-.67l.1-.12c.7-.78,1.09-1.85,1.1-3.02-.34-2.28-1.46-3.95-3.01-4.47-1.04-.35-2.11-.11-2.95.66-.88,1.05-1.26,2.67-1.03,4.35.19,1.41.82,2.7,1.58,3.27Z"/>
      </g>
    </g>
    <g>
      <g>
        <polygon class="cls-2" points="1081.44 684.18 1206.97 666.33 1194.43 756.93 1069 773.77 1081.44 684.18"/>
        <path class="cls-1" d="m1197.47,759.9l-132.46,17.78,13.39-96.45,132.57-18.85-13.5,97.52Zm-124.47,9.96l118.39-15.89,11.59-83.69-118.49,16.85-11.48,82.73Z"/>
      </g>
      <g>
        <polygon class="cls-2" points="1037.25 33.67 1162.63 16.11 1206.85 666.54 1081.47 684.1 1037.25 33.67"/>
        <path class="cls-1" d="m1210.91,669.76l-132.98,18.62-.27-4.03-44.46-653.89,132.98-18.62.27,4.03,44.46,653.89Zm-125.88,10.06l117.77-16.49-43.71-642.93-117.77,16.49,43.71,642.93Z"/>
      </g>
      <g>
        <polygon class="cls-2" points="1032.7 55.95 1022.7 109.49 1069.21 748.96 1081.46 683.92 1032.7 55.95"/>
        <path class="cls-1" d="m1067.53,778.59l-48.68-669.3,15.43-82.59,51.04,657.43-.09.48-17.7,93.99Zm-40.97-668.89l44.34,609.63,6.71-35.61-46.47-598.52-4.58,24.5Z"/>
      </g>
      <g>
        <ellipse class="cls-2" cx="1130.89" cy="214.78" rx="9" ry="28.95" transform="translate(-7.34 43.07) rotate(-2.17)"/>
        <path class="cls-1" d="m1134.77,245.46c-.33.2-.68.36-1.04.49-1.68.59-3.49.35-5.1-.67-5.66-3.62-8.46-16.43-9.19-27.21h0c-1.04-15.25,1.58-31.98,8.61-34.45,1.68-.59,3.49-.35,5.1.68,5.66,3.62,8.46,16.43,9.19,27.21.98,14.47-1.33,30.28-7.57,33.97Zm-10.11-27.74h0c.87,12.83,4.18,21.56,6.84,23.27.31.2.41.16.47.14,2.38-.85,6.34-11.94,5.17-29.3-.87-12.83-4.18-21.56-6.84-23.27-.31-.2-.41-.16-.47-.14-2.4.85-6.35,11.94-5.17,29.3Z"/>
      </g>
      <g>
        <path class="cls-2" d="m1115.08,732.45s4.49-1.58,10.02-3.53l10.02-3.53-10.02,3.53c-5.53,1.95-10.02,3.53-10.02,3.53Z"/>
        <polygon class="cls-1" points="1138.25 733.92 1118.21 740.97 1111.94 723.92 1131.98 716.87 1138.25 733.92"/>
      </g>
      <g>
        <ellipse class="cls-2" cx="1093.23" cy="383.97" rx="8.46" ry="44.21" transform="translate(-20.2 63.25) rotate(-3.28)"/>
        <path class="cls-1" d="m1097.84,430.08c-.24.14-.48.26-.74.35-1.31.46-2.72.28-3.97-.52-6.09-3.9-9.63-25.51-10.81-42.84h0c-.13-1.88-3.01-46.03,7.02-49.54,1.31-.46,2.72-.28,3.97.52,6.09,3.9,9.63,25.51,10.81,42.84.12,1.83,2.86,43.79-6.28,49.19Zm-10.3-43.35c1.58,23.26,5.85,36.11,8.05,38.55,2.25-3.01,5.02-18.9,3.31-44.05-1.58-23.26-5.85-36.11-8.05-38.56-2.25,3.01-5.02,18.9-3.31,44.05h0Z"/>
      </g>
      <g>
        <ellipse class="cls-2" cx="1074.12" cy="100.86" rx="1.98" ry="39.19" transform="translate(-4.35 72.33) rotate(-3.85)"/>
        <path class="cls-1" d="m1078.38,142.05c-.22.13-.45.22-.72.31-.81.29-1.69.18-2.42-.28-1.11-.71-1.85-1.18-3.29-13.47-.85-7.22-1.69-16.77-2.38-26.9-.71-10.48-1.18-20.42-1.32-27.97-.23-12.87.37-13.7,2.32-14.38.81-.29,1.69-.18,2.42.28,1.11.71,1.85,1.18,3.29,13.47.85,7.22,1.69,16.77,2.38,26.9.71,10.48,1.18,20.42,1.32,27.97.2,11.13-.22,13.26-1.6,14.07Z"/>
      </g>
      <g>
        <ellipse class="cls-2" cx="1116.71" cy="157.13" rx="11.48" ry="8.49" transform="translate(213.22 831.98) rotate(-44.77)"/>
        <path class="cls-1" d="m1121.12,167.62c-.91.54-1.87.99-2.88,1.34-3.63,1.28-7.28,1.01-10.02-.75-2.49-1.6-3.98-4.22-4.2-7.37-.43-6.37,4.48-13.2,11.17-15.56,3.63-1.28,7.28-1.01,10.02.75,2.49,1.6,3.98,4.22,4.2,7.37.37,5.42-3.12,11.17-8.29,14.22Zm-6.08-16.63c-3.51,2.07-6.04,6.05-5.81,9.51.1,1.54.74,2.73,1.85,3.44,1.35.87,3.32.94,5.39.21,4.47-1.57,8-6.34,7.72-10.41-.1-1.54-.74-2.73-1.85-3.44-1.35-.87-3.32-.94-5.39-.21-.66.23-1.3.54-1.92.9Z"/>
      </g>
      <g>
        <path class="cls-2" d="m1143.51,548.75c1.35,19.86,2.44,35.95,2.44,35.95,0,0-1.09-16.1-2.44-35.95-1.35-19.86-2.44-35.95-2.44-35.95,0,0,1.09,16.1,2.44,35.95Z"/>
        <polygon class="cls-1" points="1150.27 584.42 1141.64 584.98 1136.75 513.08 1145.39 512.51 1150.27 584.42"/>
      </g>
      <g>
        <ellipse class="cls-2" cx="1163.83" cy="431.82" rx="1.97" ry="6.33" transform="translate(-15.55 44.48) rotate(-2.17)"/>
        <path class="cls-1" d="m1165.74,440.24c-.19.11-.38.2-.59.28-.97.34-2.04.21-2.92-.36-2.2-1.41-2.78-5.3-2.93-7.49-.13-1.93-.28-8.3,3.23-9.55.97-.34,2.04-.21,2.92.36,2.2,1.41,2.78,5.3,2.93,7.49.12,1.81.27,7.56-2.63,9.27Z"/>
      </g>
      <g>
        <path class="cls-2" d="m1164.61,699.14c1.71,6.78,10.74,5.81,15.68.38,4.2-5.17,2.27-11.14-2.31-11.74-3.8-.14-8.24,1.42-11.11,5.25-1.55,1.89-2.42,4.07-2.25,6.1Z"/>
        <path class="cls-1" d="m1178.81,705.02c-3.33,1.97-7.17,2.73-10.52,1.92-3.54-.86-6.09-3.41-7-7l-.07-.27-.02-.27c-.22-2.8.82-5.78,2.95-8.39,3.26-4.31,8.47-6.76,13.95-6.56l.32.03c3.1.41,5.67,2.39,6.87,5.3,1.53,3.72.66,8.14-2.33,11.83l-.12.14c-1.19,1.31-2.56,2.41-4.03,3.28Zm-10.81-6.4c.33,1.02.93,1.59,1.93,1.83,1.95.47,5.31-.45,7.74-3.08,1.65-2.07,1.75-3.99,1.29-5.1-.26-.64-.7-1.03-1.3-1.15-2.48-.04-5.84.96-8.04,3.9l-.09.12c-.97,1.18-1.51,2.44-1.52,3.49Z"/>
      </g>
    </g>
  </g>
</svg>