<?xml version="1.0" encoding="UTF-8"?>
<svg id="Layer_2" data-name="Layer 2" xmlns="http://www.w3.org/2000/svg" viewBox="0 0 1830.49 554.01">
  <defs>
    <style>
      .cls-1 {
        stroke-width: 26.98px;
      }

      .cls-1, .cls-2 {
        fill: #fff;
        stroke: #eb672c;
        stroke-miterlimit: 10;
      }

      .cls-2 {
        stroke-width: 14.49px;
      }
    </style>
  </defs>
  <g id="Layer_1-2" data-name="Layer 1">
    <g>
      <rect class="cls-2" x="7.25" y="7.25" width="1816" height="539.51" rx="269.76" ry="269.76"/>
      <g>
        <path class="cls-1" d="m178.85,163.92c22.64-.03,45.29-.06,67.93-.09,7.32-.35,14.03-1.69,20.15-4,2.62-.92,4.98-1.46,6.89-1.39,10.33.36,15.79,12.83,19.51,20.73,5.98,12.71,9.12,28.21,8.72,42.71-.27,9.95-2.58,17.37-7.21,21.97-3.48,3.46-7.65,5.19-12.48,5.19-4.57,0-8.52-1.7-11.84-5.1-3.32-3.4-6.65-9.06-9.68-16.85-2.74-7.06-4.83-11.81-6.41-14-1.58-2.19-3.54-3.28-5.86-3.28-3.19,0-5.52,1.79-6.98,5.36-1.47,3.57-2.29,9.45-2.44,17.63-.51,32.27-.53,64.53-.04,96.8.17,9.91,1.12,17.11,2.78,21.61,1.66,4.5,4.71,7.95,9.06,10.38,4.72,2.63,7.96,5.17,9.71,7.53,1.75,2.37,2.69,5.62,2.83,9.77.28,8.3-3.75,14.69-11.88,18.49-11.74,5.48-25.63,5.99-38.34,6-15.74.02-32.72-.89-47.76-7.15-7.89-3.28-13.57-10.34-13.84-19.01-.15-4.68,1.23-8.4,4.24-11.05.75-.57,3.79-2.03,9.03-4.14,3.18-1.28,5.41-3.68,6.56-7.25,1.14-3.57,1.98-10.44,2.53-20.55.78-14.5,1.03-29.08,1.42-43.62.46-17.41.97-34.84,1.28-52.26.18-10.36-.24-17.73-1.33-22.11-1.09-4.37-3.01-6.56-5.76-6.56-3.36,0-6.73,3.23-10.08,9.68-4.1,8.08-8.5,16.85-14.71,23.32-4.3,4.49-8.77,6.74-12.91,6.74-4.66,0-8.46-2.33-11.4-6.99-2.94-4.66-4.33-10.61-4.15-17.86.18-7.13,1.69-15.03,4.32-23.57,2.47-8.03,6.17-16.55,10.62-23.75,4.13-7.32,11.17-17.32,20.17-17.64,1.66-.06,3.7.39,5.88,1.03,4.48,1.32,8.34,2.12,11.28,2.57,2.94.46,6.35.68,10.21.68Z"/>
        <path class="cls-1" d="m391.16,300.6c-3.18-.1-5.36,1.33-6.25,3.98-.89,2.65-1.37,8.9-1.19,18.52.21,11.4.59,22.94,2.63,34.27.48,2.31,1.17,4.1,2.06,5.37.89,1.27,2.56,2.83,5.02,4.68,5.26,3.81,7.96,8.83,8.13,15.07.21,7.62-3.3,13.24-10.28,16.18-11.11,4.68-24.14,4.52-36.25,4.72-16.13.27-47.92-1.85-48.55-24.27-.08-2.76.32-4.99,1.22-6.66.9-1.67,2.98-4.02,6.26-7,3.68-3.34,6.16-7.29,7.39-11.84,1.23-4.55,2.02-12.46,2.33-23.61.82-29.24.11-58.82.54-88.06.16-10.76.58-22.17-1.22-32.7-.97-5.69-3.56-10.05-7.43-12.62-3.65-2.43-6.2-4.64-7.43-6.65-1.23-2.02-1.79-4.64-1.69-7.87.14-4.27,1.5-7.99,4.06-11.16,2.56-3.17,6.07-5.51,10.51-7.02,3.74-1.27,8.84-1.91,15.28-1.92,2.84,0,9.9.57,21.2,1.71,2.14.23,5.54.35,10.17.34,10.33-.04,20.76-1.03,31-2.11,8.14-.85,13.96-1.18,17.18-1.23,16.42-.22,33.44,6.2,45.13,17.8,11.43,11.34,16.13,29.37,15.4,44.68-.46,9.78-2.09,19.9-6,29.01-3,6.99-9.02,15.45-15.75,19.66-2.77,1.85-4.15,4.04-4.15,6.58,0,3.35,2.11,6.06,6.34,8.14,8.73,4.17,15.96,11.22,19.99,19.92,5.88,12.69,7.76,27.1,9.47,40.88.94,7.56,2.1,12.56,3.6,14.81,1.5,2.25,4.95,4.42,10.32,6.5,1.65.69,3.06,2.17,4.22,4.42s1.77,4.77,1.83,7.54c.08,3.58-.87,7.19-2.85,10.82-1.98,3.64-4.57,6.49-7.78,8.57-8.74,5.34-19.48,6.74-29.45,6.73-13.83-.02-29.07-5.25-36.49-17.87-3.42-5.31-6.42-12.04-8.83-20.09-3.7-12.33-6.07-25.3-8.76-37.75-1.66-7.7-3.3-16.48-7.8-23.2-3-4.48-7.65-7.1-13.17-7.27Zm-6.85-88.28c-.75,13.44-1.4,26.88-1.99,40.33,0,.35,0,.87-.01,1.56-.03,4.15.4,6.92,1.3,8.31.9,1.38,2.73,2.08,5.49,2.08,7.59,0,13.26-2.66,16.61-7.88,4.6-7.18,5.31-16.85,5.43-25.19.16-11.3-.84-33.42-17.09-33.4-3.36,0-5.75,1.04-7.18,3.12-1.43,2.08-2.29,5.77-2.56,11.08Z"/>
        <path class="cls-1" d="m551.84,159.91c12.75-.09,25.93.46,38.46,3.62,4.02,1.04,7.22,3.09,9.61,6.15,2.39,3.06,3.55,6.56,3.49,10.48-.05,3.01-1.05,6.07-2.99,9.19-2.83,4.74-4.25,8.15-4.28,10.23-.06,4.16,2.3,10.81,7.12,19.93,3.13,5.89,6.12,8.84,8.96,8.84,1.81,0,3.58-.9,5.32-2.69,1.74-1.79,4.02-5,6.81-9.62,3.42-5.65,5.15-10.17,5.19-13.52.03-2.08-.15-3.64-.52-4.68-.37-1.04-1.74-3.52-4.1-7.45-1.68-2.66-2.49-6.24-2.42-10.75.3-18.53,26.69-19.78,39.78-19.61,9.48.12,20.17-.54,28.96,2.76,2.77,1.04,5.13,3.35,6.94,6.59,1.81,3.23,2.69,6.7,2.64,10.4-.06,4.74-1.17,8.32-3.35,10.75-2.18,2.43-6.01,4.24-11.29,5.55-4.88,1.21-9.33,3.79-12.86,7.55-7.47,7.93-13.88,17.43-20.13,26.45-8.15,11.76-17.32,24.25-22.11,37.54-4.01,11.12-4.39,23.98-4.32,35.97.08,12.38.49,24.89,1.39,37.27.51,7.03,1.37,11.94,2.6,14.65,1.24,2.72,3.76,5.4,7.59,8.06,6.34,4.4,9.57,9.91,9.64,16.47.24,23.4-36.37,23.63-51.44,23.55-13.53-.07-26.83-2.18-40.34-5.57-8.87-2.23-16.29-8.98-16.38-18.55-.07-7.09,3.05-12.32,9.54-15.42,4.85-2.31,7.88-5.25,9.04-8.83,5.03-17.91,3.67-38.17,3.66-56.5,0-9.22-.72-16.44-2.09-21.58-1.37-5.14-4.38-11.81-9-20.02-9.22-15.81-18.96-31.07-29.68-45.91-4.39-5.89-8.63-9.9-12.72-11.95-5.77-2.89-9.29-5.02-10.47-6.4-2.36-2.77-3.48-6.46-3.38-11.08.17-7.74,4.74-13.49,13.43-16.73,13.6-5.06,29.27-5.04,43.69-5.14Z"/>
        <path class="cls-1" d="m938.79,280.34c8.15,23.41,16.29,46.83,24.39,70.25,2.31,6.48,4.24,10.73,5.79,12.75,1.55,2.02,3.92,3.4,7.09,4.08,6.15,1.3,9.28,5.49,9.25,12.66-.03,8.44-3.93,14.75-11.42,18.21-11.31,5.23-24.84,5.48-37.14,5.55-14.16.08-29.24-.11-43.18-3.3-4.26-.97-7.72-3.15-10.26-6.33-2.54-3.18-3.82-7.03-3.83-11.54,0-3.47.66-6.16,1.99-8.07,1.33-1.91,3.82-3.66,7.42-5.29,4.03-1.83,6.06-4.97,6.06-9.37,0-7.75-3.57-12.42-10.48-13.7-10.32-1.92-21.14-2.01-31.67-2.08-11.38-.08-18.31.93-20.54,2.77-1.38,1.16-2.58,3.24-3.6,6.25-1.02,3.01-1.53,5.9-1.52,8.67,0,2.54.38,4.19,1.12,4.94.73.75,3.16,2.07,7.18,3.73,5.16,2.12,7.85,6.29,7.92,12.49.21,18.28-23.2,20.88-36.64,20.64-10.26-.19-21.11-.18-30.71-3.82-5.97-2.27-9.1-7.75-9.16-15.96-.03-3.58.62-6.36,1.94-8.32,1.32-1.96,3.71-3.75,7.13-5.38,5.57-2.64,9.93-6.42,12.66-11.19,5.35-9.34,8.8-20.43,12.22-30.79,6.04-17.87,12.1-35.74,18.18-53.6,4.93-14.57,10.33-29.4,13.58-44.14,2.05-9.3,3.57-19,3.64-28.71.07-9.89.6-16.85,1.43-20.73.83-3.87,2.68-7.66,5.53-11.36,4.42-6.96,14.7-12.28,22.73-12.15,10.11.17,18.62,7.1,24.85,13.7,24.7,26.21,35.66,74.01,48.05,109.11Zm-90.04,21.86c8.45,0,16.9,0,25.36,0,4.66,0,7.14-1.55,6.98-4.16-.54-9.24-5.85-19.21-9.7-28.1-2.93-6.82-5.17-11.39-6.72-13.7-1.55-2.31-3.19-3.47-4.91-3.47-3.1,0-5.7,3.88-7.77,11.62-.35,1.04-1.6,5.15-3.76,12.32-3.63,11.8-5.43,18.85-5.43,21.16,0,2.89,1.99,4.34,5.95,4.34Z"/>
        <path class="cls-1" d="m1078.63,158.6c11.15.05,20.71,2.52,31.91,6.43,4.49,1.97,7.56,2.95,9.19,2.95,1.72,0,5.31-1.33,10.78-3.98,1.79-.81,3.63-1.21,5.53-1.21,4.81,0,9.47,3.82,13.95,11.45,6.94,12.11,10.75,26.62,11.04,40.23.16,7.39-1.4,17.51-5.45,24.1-3.73,6.07-8.64,9.19-14.76,9.19-5,0-9.93-2.43-14.78-7.29-1.47-1.5-5.08-6.94-10.82-16.3-8.21-11.7-17.52-23.08-32.85-23.42-11.29-.25-21.01,7.01-26.58,16.47-7.74,13.16-9.68,29.76-9.75,44.4-.12,23.78,3.97,48.69,15.7,70.59,3.94,7.05,8.65,12.69,14.14,16.91,5.49,4.22,10.94,6.33,16.37,6.33,4.48,0,8.18-2,11.09-5.99,2.91-3.99,4.39-9.11,4.42-15.35.03-5.55-1.16-9.48-3.57-11.79-.95-.92-1.83-1.47-2.65-1.65-.82-.17-3.3-.26-7.44-.26-3.71,0-6.78-1.59-9.23-4.77-2.45-3.18-3.62-7.25-3.66-12.05-.08-9.28,5.78-17.03,14.25-20.46,11.61-4.7,24.07-6.56,36.1-6.59,12.14-.03,24.9,1.41,36.75,6.07,8.88,3.49,14.22,11.89,14.07,21.32-.07,4.11-1.11,7.77-3.28,10.84-2.17,3.06-5.03,4.85-8.43,5.46-2.99.54-4.99,1.48-5.9,2.69-.91,1.21-1.86,4.19-2.83,8.93-3.42,16.66-10.59,33.41-22.12,46.13-7.47,8.43-16.76,15.15-27,19.78-10.34,4.67-21.67,7.11-33.01,7.12-18.38.01-37.15-6.48-51.68-17.5-17.06-12.94-28.72-30.54-36.73-49.95-7.52-18.21-10.6-38.49-10.55-57.76.05-20.47,4.5-40.43,12.6-59.67,7.75-18.4,20.72-36.06,37.36-46.83,14.86-9.62,30.83-14.64,47.83-14.56Z"/>
        <path class="cls-1" d="m1343.11,280.35c8.12,23.33,16.09,46.71,23.89,70.15,2.22,6.47,4.07,10.71,5.58,12.73,1.51,2.02,3.86,3.4,7.02,4.07,6.13,1.3,9.18,5.48,9.01,12.64-.21,8.43-4.25,14.72-11.84,18.19-11.38,5.21-24.92,5.5-37.28,5.57-14.13.09-29.19-.08-43.09-3.26-4.23-.97-7.64-3.14-10.1-6.32-2.46-3.17-3.65-7.02-3.56-11.52.07-3.47.79-6.15,2.15-8.06,1.37-1.91,3.89-3.66,7.52-5.29,4.07-1.83,6.16-4.97,6.23-9.36.12-7.74-3.38-12.4-10.27-13.68-10.31-1.92-21.13-2-31.64-2.07-11.38-.07-18.32.93-20.58,2.78-1.39,1.16-2.62,3.24-3.69,6.24-1.07,3.01-1.62,5.89-1.66,8.67-.03,2.54.31,4.19,1.03,4.94.72.75,3.12,2.07,7.11,3.72,5.12,2.12,7.74,6.28,7.67,12.48-.21,18.27-23.55,20.88-37.14,20.65-10.22-.18-21.06-.14-30.61-3.8-5.9-2.26-8.9-7.74-8.79-15.95.05-3.58.75-6.36,2.11-8.32,1.36-1.96,3.78-3.75,7.23-5.38,5.62-2.64,10.04-6.42,12.85-11.19,5.49-9.31,9.1-20.41,12.63-30.77,6.19-17.84,12.32-35.69,18.4-53.57,4.88-14.54,10.22-29.38,13.29-44.11,1.94-9.3,3.33-18.99,3.23-28.69-.11-9.88.28-16.84,1.03-20.71.75-3.87,2.51-7.65,5.27-11.35,4.27-6.98,14.46-12.27,22.42-12.12,10.16.2,18.82,7.11,25.19,13.71,25.21,26.07,36.86,73.75,49.38,108.99Zm-90.09,21.84c8.45,0,16.9,0,25.36,0,4.66,0,7.14-1.55,7-4.16-.51-9.23-5.82-19.2-9.69-28.07-2.95-6.82-5.21-11.38-6.78-13.69-1.56-2.31-3.21-3.47-4.93-3.47-3.1,0-5.67,3.87-7.71,11.61-.34,1.04-1.58,5.14-3.73,12.31-3.61,11.79-5.45,18.83-5.45,21.15,0,2.89,1.97,4.33,5.94,4.33Z"/>
        <path class="cls-1" d="m1448.24,160.05c8.96-.26,19.09,1.1,27.83,3.49,9.88,2.7,17.81,9.21,18.2,19.92.12,3.33-.41,5.85-1.52,7.52-1.11,1.67-4,4.15-8.65,7.35-3.87,2.66-6.39,8.51-7.42,17.47-1.98,17.29-1.3,35.19-1.24,52.61.09,26.99-1.5,54.95,1.79,81.85.53,3.35,1.41,5.91,2.61,7.7,1.21,1.79,3.34,3.72,6.38,5.79,5.6,3.46,8.25,8.52,8.11,15.05-.21,9.59-7.73,16.38-16.35,19.05-13.18,4.09-28.12,5.78-41.83,5.58-13.55-.19-42.1-1.11-41.41-21.43.18-5.15,3.01-10.04,8.61-14.55,4.29-3.46,6.95-8.24,7.78-14.2,3.83-27.38,3.24-56.15,3.1-83.8-.09-18.57.59-38.53-3.98-56.79-1.29-4.73-4.38-9-8.91-12.82-3.59-3.03-6.02-5.72-7.28-7.8s-1.92-4.73-2-7.97c-.12-4.96,1.55-8.92,5.04-11.86,3.48-2.94,9.81-5.74,18.65-7.86,10.91-2.62,21.23-3.97,32.46-4.3Z"/>
        <path class="cls-1" d="m1573.6,172.12c22.25,25.02,44.37,50.14,66.34,75.4,6.13,7.03,10.51,10.54,13.19,10.54,4.48,0,6.78-6.48,6.47-19.17-.24-9.83-.19-20.21-2.63-29.71-1.34-5.24-4.31-9.27-8.51-11.93-3.43-2.17-5.88-4.53-7.34-7-1.46-2.48-2.21-5.75-2.43-9.59-.51-9.02,5.2-16.52,14.02-18.64,3.98-1.14,11.04-1.67,21.05-1.7,8.88-.03,18.79-.02,27.09,3.15,7.98,3.05,12.33,9.34,12.72,18.31.32,7.48-2.69,13.12-9.02,16.91-2.53,1.49-4.25,2.82-5.16,3.97-.91,1.15-1.67,2.88-2.29,5.18-3.5,13.87-2.69,28.99-2.66,43.16.2,18.77.23,37.52.07,56.29-.12,11.8-.21,23.68-.5,35.4-.36,14.54-.77,29.67-4.22,43.86-2.7,11.1-7.32,16.76-13.42,16.77-2.66,0-4.92-.74-6.79-2.24-1.86-1.49-4.9-4.94-9.13-10.35-24.47-30.84-49.3-61.38-74.42-91.7-5.31-6.45-10.38-10.17-13.28-9.68-8.45,1.43-7.9,21.37-8.11,29.22-.29,10.75-.56,22.27,1.4,32.85,1.07,5.8,3.81,10.22,7.86,12.96,5.62,3.81,8.34,8.8,8.18,14.86-.53,20.08-23.72,24.05-39.47,24.08-9.03.01-19-1.14-26.77-6.11-6.23-3.99-9.25-9.88-9.02-17.38.12-3.92.81-6.86,2.07-8.82,1.26-1.96,4.06-4.61,8.35-7.96,4.13-3.22,6.78-8.97,7.77-17.13,2.57-21.17,2.88-42.92,2.86-64.17-.02-21.49-.2-43.76-4.58-65.04-1.05-4.96-2.35-8.65-3.87-11.07-1.52-2.42-4-4.73-7.41-6.92-3.94-2.53-6.7-5.02-8.28-7.45-1.57-2.42-2.44-5.39-2.52-8.83-.27-11.67,9.47-19.39,20.54-20.91,8.27-1.41,16.92-1.31,25.2-1.35,6.82-.04,11.91.73,15.1,2.18,3.19,1.44,7.05,4.71,11.55,9.78Z"/>
      </g>
    </g>
  </g>
</svg>