<?xml version="1.0" encoding="UTF-8"?>
<svg id="Layer_2" data-name="Layer 2" xmlns="http://www.w3.org/2000/svg" viewBox="0 0 1507.85 381.14">
  <defs>
    <style>
      .cls-1 {
        fill: #ff7bab;
      }

      .cls-2 {
        fill: #666;
      }

      .cls-3 {
        fill: #c04871;
      }

      .cls-4 {
        fill: #4d4d4d;
      }
    </style>
  </defs>
  <g id="Layer_1-2" data-name="Layer 1">
    <g>
      <g>
        <path class="cls-2" d="m1281.65,241.48c-38.08,3.63-74.96,2.07-107.28-2.5-6.21,8.5-14.09,16.68-24.06,24.15-60.1,45.07-186.17,42.79-329.24,42.79s-271.85-6.11-332.98-47.61c-10.54-7.16-19.76-16.88-26.71-28.13-7.72,6.25-16.9,12.01-27.28,17.14,2.78,1.17,5.56,2.41,8.36,3.71,48.55,22.63,80.74,56.35,71.89,75.33-6.8,14.61-35.93,16.23-71.13,5.88,9.16,16.23,11.56,30.29,5.02,38.37-13.17,16.28-57.6,2.15-99.23-31.54-27.05-21.9-46.26-46.67-52.78-65.8-77.25-3.77-136.54-48.03-163.86-65.12L27.52,143.26c-2.2,1.03-4.69,1.55-7.33,1.39-7.45-.45-13.54-6.47-14.07-13.92-.63-8.81,6.33-16.15,15.01-16.15,6.66,0,12.29,4.31,14.27,10.29l106.19-20.13s.03,0,.05,0h.07c.63-.11,2.35-.42,5.82-1.12,42.81-7.36,101.07-13.34,159.19-13.34,67.53,0,126.47,18.53,157.86,46.06,20.31-27.31,55.73-44.67,123.13-54.72.85-.13,1.36-1.03,1-1.81-1.92-4.21-5.75-27.09-7.35-32.3-5.63-18.37-7.51-31.14-2.57-32.65,4.95-1.51,12.34,9.77,20.48,27.17,3.6,7.69,7.59,29.67,12.26,34.58.37.39.89.58,1.42.52,18.6-2.2,33.12-2.05,56.58-3.4.08,0,.14-.09.1-.16-2.49-5.22-9.2-33.64-11.1-40.91-4.87-18.58-3.95-29.02,1.22-28.89,4.8.13,10.51,14.25,18.84,31.56,4.32,8.98,10.81,27.83,12.31,33.44.33,1.24,1.47,2.09,2.75,2.03,37.95-1.72,75.88-.62,127.41-.62,65.53,0,122.53,1.63,170.98,5.2,3.88.29,7.29-2.58,7.63-6.46.5-5.65,5.39-27.94,7.33-34.94,5.12-18.51,11.03-26,16.05-24.75,2.68.67,5.35,4.68,2.01,22.74-1.16,6.27-3.87,34.73-6.02,39.46-1.32,2.9.84,6.38,4.01,6.69,15.62,1.5,26.43,2.79,39.99,4.78,3.68.54,7.14-1.88,7.91-5.52,1.14-5.39,13.06-32.95,15.64-39.39,7.13-17.84,9.59-18.67,14.71-19.4,4.68-.67,7.13,4.23,0,22.07-2,5-10.03,32.77-10.7,39.46-.53,5.32-3.03,6.86.5,7.56,70.73,13.89,106.18,36.8,106.18,71.36,0,14.29-1.23,32.91-8.11,51.94,29.24,4.4,61.35,6.76,93.84,3.67,113.95-10.84,195.73-87.7,218.93-82.29,20.07,4.68-106.37,98.27-220.32,109.1Z"/>
        <path class="cls-4" d="m430.39,381.14c-6.43,0-13.9-1.31-22.22-3.96-19.18-6.1-41.02-18.59-61.51-35.17-25.74-20.84-45.38-44.97-53.1-65.1-68.69-4.14-123.55-39.84-153.19-59.13-3.77-2.46-7.03-4.58-9.98-6.42l-103.23-63.9c-2.3.77-4.74,1.1-7.18.95-9.36-.57-16.93-8.05-17.59-17.4-.38-5.29,1.4-10.33,4.99-14.19,3.55-3.81,8.56-5.99,13.77-5.99,6.99,0,13.27,3.83,16.51,9.8l103.62-19.64h.06c.47-.08,1.84-.32,5.48-1.05l.1-.02c49.51-8.51,107.77-13.39,159.82-13.39,63.87,0,123.59,16.94,157.29,44.42,21.94-27.17,58.34-43.06,120.25-52.6-1-3.59-2.2-9.39-3.73-17.01-1.06-5.28-2.16-10.73-2.77-12.72-7.43-24.26-7.45-35.08-.08-37.35,7.04-2.15,14.29,6.3,24.99,29.17,1.56,3.34,3.1,8.8,4.72,14.58,1.81,6.44,4.23,15.06,6.29,18.25,11.88-1.36,22.26-1.78,34.22-2.27,5.22-.21,10.58-.44,16.56-.75-2.02-6.51-4.79-17.5-7.69-29.19-.79-3.19-1.45-5.83-1.87-7.44-4.16-15.88-4.42-26.28-.76-30.89,1.43-1.81,3.47-2.77,5.72-2.71,6.33.17,10.56,9.17,18.25,25.52,1.23,2.61,2.52,5.35,3.88,8.17,4.22,8.78,10.42,26.58,12.33,33.31,26.49-1.17,53.18-.99,84.04-.78,13.46.09,27.39.19,42.7.19,67.69,0,123.71,1.7,171.26,5.21,1.84.14,3.45-1.23,3.61-3.04.54-6.09,5.57-28.8,7.45-35.61,5.59-20.19,12.52-29.41,20.59-27.39,8.31,2.08,6.92,15.56,4.79,27.07-.37,1.98-.92,6.5-1.56,11.73-1.79,14.59-3.18,25.18-4.73,28.6-.14.3,0,.63.1.79.15.27.46.56.85.6,15.76,1.51,26.65,2.81,40.18,4.8,1.7.25,3.33-.88,3.68-2.58.86-4.05,6.39-17.41,12.47-31.93,1.46-3.49,2.72-6.5,3.36-8.09,7.07-17.69,10.29-20.67,17.67-21.72,2.86-.41,5.32.49,6.92,2.53,3.19,4.06,2.3,11.66-2.9,24.66-2.01,5.02-9.83,32.22-10.45,38.44-.15,1.54-.45,2.83-.73,3.85,72.29,14.48,107.43,38.92,107.43,74.7,0,12.04-.75,29.83-6.85,48.88,32.4,4.59,61.38,5.57,88.47,3,70.89-6.75,129.81-39.67,168.79-61.46,24.88-13.9,41.32-23.09,51.34-20.75,3.3.77,5.22,3.23,5,6.42-.8,11.83-38.74,38.98-74.04,58.52-30.25,16.74-90.2,45.71-151.78,51.57h0c-34.58,3.29-71.16,2.52-105.95-2.21-6.53,8.56-14.42,16.34-23.49,23.13-58.33,43.74-175.78,43.65-311.76,43.55-6.54,0-13.11,0-19.73,0-162.99,0-275.9-8.07-335.09-48.26-9.84-6.68-18.6-15.53-25.52-25.74-5.32,4.01-11.23,7.82-17.68,11.37.43.2.85.39,1.27.59,23.89,11.14,44.7,25.29,58.6,39.84,14.72,15.43,20.09,29.8,15.11,40.48-6.95,14.92-32.96,18.67-67.34,10.14,6.74,14.89,7.05,27.1.74,34.89-4.38,5.41-11.5,8.14-20.78,8.14ZM27.77,139l106.59,65.98c3.02,1.89,6.46,4.13,10.11,6.5,84.13,54.75,128.26,56.91,151.96,58.06l2.55.12.82,2.42c6.49,19.02,26.25,43.58,51.59,64.09,19.78,16.01,40.75,28.03,59.06,33.85,16.92,5.38,29.63,4.74,34.88-1.75,5.21-6.44,3.25-18.89-5.37-34.16l-4.55-8.07,8.89,2.61c33.59,9.88,61,8.29,66.66-3.86,3.53-7.57-1.48-19.28-13.73-32.12-13.26-13.9-33.27-27.47-56.33-38.22-2.72-1.27-5.49-2.5-8.23-3.66l-7.57-3.19,7.37-3.64c10.16-5.02,19.1-10.63,26.58-16.69l3.32-2.69,2.25,3.64c6.67,10.81,15.53,20.14,25.62,26.99,27.82,18.89,70.98,31.56,131.94,38.74,61.46,7.24,135.05,8.22,198.93,8.22,6.62,0,13.19,0,19.73,0,134.65.1,250.93.19,307.25-42.05,9.1-6.82,16.94-14.68,23.28-23.36l1.33-1.82,2.23.32c34.87,4.93,71.66,5.79,106.39,2.48h0c60.04-5.71,118.78-34.05,148.45-50.44,42.23-23.33,66.6-44.54,70.14-51.42-7.96-.4-25.09,9.17-44.74,20.15-39.54,22.09-99.28,55.48-171.75,62.38-28.94,2.75-59.94,1.54-94.76-3.7l-4.53-.68,1.56-4.31c7.07-19.55,7.88-38.28,7.88-50.67,0-31.91-33.74-54.05-103.15-67.67-.83-.16-3.02-.59-4.21-2.58-1.17-1.95-.58-3.88-.1-5.43.3-.99.65-2.11.8-3.61.71-7.06,8.75-34.97,10.95-40.48,4.75-11.89,4.33-15.94,4.06-16.96-.01,0-.02,0-.03,0-3.48.5-5.23.75-11.76,17.07-.66,1.65-1.87,4.54-3.41,8.2-3.94,9.4-11.27,26.88-12.05,30.57-1.18,5.57-6.5,9.29-12.14,8.46-13.4-1.97-24.18-3.26-39.8-4.76-2.74-.26-5.23-1.88-6.64-4.32-1.37-2.37-1.54-5.24-.44-7.66,1.19-2.63,3.02-17.52,4.11-26.41.69-5.58,1.23-9.99,1.63-12.19,2.67-14.41,1.01-17.88.65-18.42h-.01c-1.32,0-6.21,3.46-11.38,22.12-1.93,6.96-6.75,29.07-7.21,34.27-.52,5.88-5.74,10.31-11.65,9.87-47.36-3.49-103.2-5.19-170.7-5.19-15.34,0-29.27-.1-42.75-.19-31.08-.21-57.92-.4-84.48.81-3.1.12-5.76-1.84-6.55-4.82-1.38-5.16-7.76-23.84-12.06-32.78-1.37-2.85-2.67-5.61-3.9-8.23-3.99-8.47-8.89-18.9-11.51-20.97-.84,1.76-1.69,8.44,2.38,23.95.43,1.63,1.09,4.3,1.89,7.53,2.51,10.13,7.19,28.99,8.96,32.71.55,1.16.49,2.52-.16,3.63-.66,1.11-1.82,1.82-3.11,1.9-8.07.47-15.23.76-21.55,1.02-12.19.5-22.73.94-34.81,2.36-1.7.2-3.41-.42-4.59-1.66-3.22-3.38-5.51-10.97-8.65-22.16-1.54-5.47-2.99-10.64-4.29-13.42-9.71-20.76-14.53-24.38-15.83-25.01-.53,1.38-1.43,7.07,4.92,27.8.72,2.35,1.75,7.49,2.95,13.44,1.39,6.89,3.29,16.34,4.22,18.4.66,1.45.6,3.09-.16,4.5-.76,1.39-2.14,2.36-3.71,2.59-63.9,9.53-99.99,25.46-120.66,53.25l-2.43,3.27-3.06-2.69c-31.74-27.83-91.28-45.12-155.38-45.12-51.63,0-109.4,4.84-158.5,13.27-2.91.58-4.99.98-5.89,1.12l-.38.07-109.1,20.68-1.03-3.12c-1.53-4.62-5.83-7.72-10.71-7.72-3.17,0-6.1,1.28-8.26,3.6-2.16,2.32-3.22,5.35-3,8.53.4,5.61,4.93,10.09,10.55,10.43,1.93.12,3.78-.23,5.51-1.04l1.84-.86ZM659.36,7.46h0s0,0,0,0Z"/>
      </g>
      <path d="m247.18,233.37l-16.36-11.6,10.95-3.23,5.94,4.64c1.46,1.13,2.93,2.43,4.81,4.02l.27-.08c.47-2.28.96-4.16,1.46-5.87l2.14-7.02,10.49-3.1-7.34,18.95,17.3,11.96-10.97,3.24-6.57-4.95c-1.67-1.26-3.21-2.56-4.99-4.11l-.27.08c-.51,2.23-1.07,4.15-1.68,6.08l-2.64,7.67-10.49,3.1,7.94-19.76Z"/>
      <path class="cls-4" d="m399.37,306.54c24.67,20.33,39.44,44.36,31.69,53.77-7.75,9.41-34.03.55-58.7-19.78-17.47-14.4-30.32-33.07-31.84-43.36-.63-4.24,2.68-6.02,7.36-8.7,4.11-2.35,7.36-4.68,13.38-2.01,8.98,3.99,24.67,8.98,38.12,20.07Z"/>
      <path class="cls-4" d="m459.68,272.94c27.12,16.92,44.91,38.81,38.45,49.15-6.45,10.34-33.67,5.01-60.79-11.92-19.21-11.99-34.39-28.81-37.25-38.81-1.18-4.12,1.86-6.32,6.16-9.58,3.76-2.86,6.68-5.61,13-3.74,9.42,2.78,25.64,5.67,40.42,14.9Z"/>
      <g>
        <ellipse cx="314.09" cy="137.92" rx="26.42" ry="17.99"/>
        <path d="m314.09,159.74c-16.96,0-30.25-9.58-30.25-21.82s13.29-21.82,30.25-21.82,30.25,9.58,30.25,21.82-13.29,21.82-30.25,21.82Zm0-35.98c-12.25,0-22.59,6.48-22.59,14.16s10.35,14.16,22.59,14.16,22.59-6.48,22.59-14.16-10.35-14.16-22.59-14.16Z"/>
      </g>
      <g>
        <path class="cls-1" d="m315.24,71.44c-19.49,33.75-26.05,69-11.18,77.59s23.8-28.45,43.28-62.2,78.42-47.6,63.54-56.18c-14.88-8.59-76.16,7.05-95.65,40.8Z"/>
        <path d="m308.35,155.3c-2.29,0-4.59-.65-6.8-1.92-6.34-3.66-13.18-12.62-9.74-34.48,2.36-14.98,9.13-32.72,19.08-49.96h0c9.13-15.81,28.16-29.84,52.2-38.49,17.63-6.34,40.02-10.08,50.3-4.15,4.05,2.34,4.9,5.32,4.89,7.42-.02,6.42-7.33,10.58-20.6,18.12-15.29,8.69-36.23,20.6-45.99,37.5-5.88,10.19-10.86,20.85-15.25,30.25-8.73,18.69-15.04,32.2-24.39,35.14-1.21.38-2.44.57-3.68.57Zm90.52-121.96c-8.08,0-19.74,2.01-32.38,6.55-21.85,7.86-38.94,20.27-46.9,34.06h0c-9.35,16.19-15.69,32.71-17.86,46.5-1.96,12.49-.2,21.32,4.85,24.23,1.23.71,1.91.65,2.46.47,5.15-1.62,11.84-15.96,18.32-29.82,4.48-9.59,9.56-20.46,15.65-31.02,11.12-19.26,33.43-31.94,49.72-41.2,5.16-2.94,11.33-6.44,14.21-8.77-1.93-.66-4.68-1.01-8.06-1.01Z"/>
      </g>
      <g>
        <path class="cls-3" d="m331.7,78.05c-18.27,31.64-24.64,64.66-22.96,65.63s4.47-34.57,22.74-66.22,59.74-39.45,57.52-38.12c-3.99,2.38-39.04,7.07-57.3,38.71Z"/>
        <path class="cls-3" d="m308.81,145.33c-.31,0-.61-.08-.88-.24-.96-.55-1.6-1.49-.49-7.91.73-4.23,2.06-9.65,3.73-15.29,1.67-5.63,4.69-14.76,9.33-25.29,2.61-6.58,5.75-13.36,9.57-19.96,17.91-31.03,57.12-39.37,59.22-39.05l1.12.19.29,1.16c.1.56-.07,1.32-.86,1.79-.88.53-2.48,1-5.12,1.77-11.04,3.25-36.88,10.85-51.6,36.35h0c-3.64,6.3-6.78,12.62-9.48,18.7-6.34,15.95-9.47,30.81-11.23,39.2-1.4,6.67-1.65,7.87-2.88,8.42-.23.1-.48.16-.72.16Z"/>
      </g>
      <path d="m311.45,148.55c-1.83,0-3.79-.45-5.86-1.36-9.88-4.32-13.32-13.44-9.7-25.67l.36-1.23,3.85,1.12-.37,1.25c-3.06,10.33-.55,17.35,7.46,20.85,2.71,1.19,4.94,1.34,6.82.47,3.89-1.81,6.13-7.81,7.97-14.03l.59-1.97,3.84,1.15-.59,1.96c-2.11,7.12-4.8,14.05-10.13,16.53-1.33.62-2.75.93-4.26.93Z"/>
      <g>
        <circle class="cls-3" cx="20.13" cy="130.63" r="13.71"/>
        <path class="cls-3" d="m20.13,150.77c-11.1,0-20.13-9.03-20.13-20.13s9.03-20.13,20.13-20.13,20.13,9.03,20.13,20.13-9.03,20.13-20.13,20.13Zm0-27.42c-4.02,0-7.29,3.27-7.29,7.29s3.27,7.29,7.29,7.29,7.29-3.27,7.29-7.29-3.27-7.29-7.29-7.29Z"/>
      </g>
    </g>
  </g>
</svg>