<?xml version="1.0" encoding="UTF-8"?>
<svg id="Layer_2" data-name="Layer 2" xmlns="http://www.w3.org/2000/svg" viewBox="0 0 857.63 467.45">
  <defs>
    <style>
      .cls-1 {
        fill: #8bc53f;
      }

      .cls-2 {
        fill: #39b44a;
      }
    </style>
  </defs>
  <g id="Layer_1-2" data-name="Layer 1">
    <g>
      <g>
        <g>
          <path class="cls-1" d="m451.05,23.85l123.3,112.4c1.42,1.3-78.42-70.36-110.42-100.22-3.38-3.15-.12-8.69,4.27-7.28l35.56,11.38c3.49,1.12,7.16,2.29,10.96,3.51,21.08,8.07,39.08,20.07,62.08,20.07,5,1,10,3,15.33,5.94,3.14,1.54,6.3,2.99,9.48,4.33,15.93,6.71,32.43,10.91,49.22,12.84,3.36.39,6.73.68,10.11.89,40.86-1,81.86-6,122.86-2,4,1,3,9,4.77,14.39.35,2.51.63,5.29,1.12,8.38,14.11,35.23,36.11,67.23,5.11,102.23-2,2-2,7-1.53,11.3.02,2.19.03,4.39.05,6.59.34,50.5-.53,100.25-2.73,122.94-.42,4.33-6.26,5.4-8.18,1.49l-59.47-120.35c-2.26-4.56-9.22-2.15-8.12,2.82.31,1.42.97,2.79,2,3.99l92.63,107.76c.51.59,28.1,41.31,28.49,41.99,12.76,21.84-23.2,9.83-46,20.49-1.15.54-71.74-2.54-73-2.49,0,0-5.65,1.5-14.82,3.93-3.06.81-6.5,1.73-10.1,2.92-30.21,18.63-64.21,19.63-98.38,25.85-2.18.58-4.3,1.14-6.34,1.68-18.26,4.84-30.97,8.21-30.97,8.21-1.48.25-2.99-.28-3.98-1.41l-25.43-28.93c-1.19-1.35-3.1-1.83-4.78-1.19l-84.2,31.94c-2.02.04,31.91-31.19,30.32-29.94-14.95,11.75-27.43,38.8-42.32,26.94-1.38-1.1-92.03-7.08-104.59-7.91-.92-.06-1.79-.41-2.5-1.01l-32.51-27.36c-1.12-.94-2.64-1.26-4.04-.83-7.53,2.32-27.87,11.78-34.55,13.04-.91.17-1.84.05-2.67-.35,0,0-41.7-20.02-62.55-30.03l-8.4-4.03c-1.32-1.05-2.32-1.05-3.32-1.05,3-5,17-13,8-14-35-2-68,0-96.61-23.25-3.21-.99-6.73-1.96-10.39-2.97-7.3-2.01-15.13-4.16-22.17-6.1-4.23-1.16-8.17-2.25-11.55-3.17-7.28-4.51-27.28-2.51-22.28-9.51,24-35,35-68,22-107-2-6,5-14,11.86-15.14,2.49-.68,5.19-.92,8.05-.85,14.28.35,32.32,8.45,46.06,9.2l9.44,2.02,3.78.81c3.68.79-2.44,1.09-12.27.92-3.37-.07-7.16-.2-11.22-.4-5.92-2.14-13.11-2.44-20.68-2.14-3.78.15-7.65.46-11.52.9-13.49,2.68-28.49,3.68-38.2-7.23-1.95-2.38-3.41-5.35-4.28-9.1-4-17,11-33,.86-50.09-.69-2.52-1.15-5.04-1.3-7.56-.76-12.62,6.19-25.35,17.44-35.35,13-11,30-13,45-21,7-4,15-8,21.48-12.8,1.89-1.28,3.71-2.53,5.48-3.73,12.35-8.4,22.41-14.63,27.05-16.42,1.14-.44,2.41-.38,3.51.17,0,0,21.97,11.05,50.04,25.16,2.16,1.09,4.35,2.19,6.58,3.31,25.86,16.31,50.86,32.31,80.86,40.31,7,2,12,7,18.5,9.66,2.6,1.31,4.85,2.44,6.7,3.36,3.68,1.84,5.72,2.88,5.72,2.88.38.02-3.51-2-10.41-5.45-2.3-1.15-4.93-2.46-7.79-3.88-30.72-13.58-64.72-23.58-91.81-45.15-2.17-1.14-4.3-2.2-6.4-3.24-16.79-8.33-31.66-15.78-41.42-20.85-3.82-1.99-2.7-7.72,1.58-8.14,0,0,9.47-.93,24.95-2.45l9.99-.98c21.39-4.77,35.39,13.23,55.39,17.23,2,0,5,0,7-1,15-9,27-30,46.6-20.73,3.16,1.13,6.3,2.36,9.45,3.52,9.45,3.47,18.95,6.22,28.95,3.22,13-5,23-18,36.56-20.01,2.51-.47,5.02-.74,7.47-.98,34.34-3.37,58.58-5.74,58.58-5.74.74-.07,1.46-.33,2.06-.77,3.48-2.53,8.32-2.31,11.57.65Z"/>
          <path class="cls-2" d="m428.61,467.45l-.54-1.3c-2.16-.61-4.27-1.5-6.33-2.66-11.02-1.13-49.25-3.91-99.51-7.22-4.56-.3-8.83-2.02-12.33-4.96l-26.85-22.6c-2.1.84-4.41,1.79-6.58,2.69-11.18,4.61-18.35,7.47-23.56,8.46-4.5.85-9.06.25-13.19-1.73l-69.65-33.43h-27.29l9.21-15.35c-25.73-1.5-51.74-5.29-75.75-23.53-2.31-.67-4.73-1.33-6.94-1.94l-22.17-6.1c-4.22-1.16-8.16-2.24-11.53-3.17l-2.37-.65-1.58-.98c-1.34-.43-4.54-.93-6.51-1.24-8.07-1.26-19.13-2.99-23.66-13.77-2.61-6.21-1.74-13.11,2.37-18.98,23.13-33.77,29.36-59.66,20.98-88.27-4.38-2.23-8.61-5.34-12.42-9.62l-.45-.53c-3.67-4.48-6.26-9.86-7.7-16.02-2.67-11.34-.1-21.48,1.96-29.62,2.2-8.69,2.84-12.29.84-15.65l-1.17-1.98-.61-2.22c-1.04-3.81-1.65-7.41-1.87-11.01-1.04-17.21,7.38-35.1,23.11-49.08l.31-.27c10.26-8.68,21.85-12.83,32.07-16.49,5.65-2.02,10.99-3.93,15.71-6.43,1.76-1,3.58-2,5.41-3.02,5.02-2.77,10.2-5.63,14.14-8.55l.59-.42,2.61-1.78c.97-.66,1.93-1.32,2.88-1.96,19.62-13.35,26.78-16.78,30.45-18.2,4.09-1.58,8.55-1.85,12.75-.82,2.26-1.11,4.75-1.83,7.39-2.09l34.01-3.33c18.64-3.74,32.94,3.95,44.48,10.15,4.98,2.68,9.73,5.23,14.31,6.6,2.27-1.69,4.72-3.83,7.27-6.07,10.6-9.29,28.26-24.77,51.97-14.11,1.67.61,3.34,1.24,5.01,1.87,1.28.48,2.57.97,3.85,1.44,7.61,2.79,13,4.2,17.62,3.06,3.37-1.44,7.14-4.15,11.12-7.02,7.7-5.54,16.42-11.81,28.09-13.63,3.15-.57,6.1-.88,8.63-1.13l55.76-5.46c9.57-4.88,21.44-3.45,29.57,3.96l.61.56c3.33-.59,6.84-.39,10.27.71l46.97,15.03.45.17c6.19,2.37,11.98,4.98,17.58,7.51,13.59,6.14,25.33,11.43,38.42,11.43h1.68l1.65.33c6.43,1.29,12.92,3.75,19.84,7.52,2.7,1.32,5.47,2.58,8.24,3.75,14.06,5.92,29.06,9.83,44.57,11.62,2.79.32,5.64.58,8.49.77,12.06-.31,24.45-.99,36.43-1.64,28.54-1.56,58.06-3.17,87.75-.27l1.25.12,1.22.31c13.87,3.47,15.67,17.36,16.34,22.59.13,1.01.33,2.54.47,3.06l.48,1.45.19,1.44c.14,1.03.28,2.11.42,3.23.12.98.25,1.99.38,3,1.77,4.31,3.69,8.68,5.55,12.93,12.78,29.09,28.6,65.11-1.7,102.09.02.34.06.73.1,1.17l.09.85.06,7.46c.2,29.6-.01,64.91-.97,92.57l12.99,15.11c1.84,2.14,30.12,44.21,30.29,44.5,5.73,9.81,6.55,18.71,2.43,26.46-6.53,12.31-20.65,13.25-33.09,14.08-7.9.53-16.85,1.12-22.82,3.91q-4.25,1.99-29.18,1.09c-11.79-.42-26.17-1-36.68-1.42-4.96-.2-9.72-.39-12.4-.49l-12.41,3.29c-2.59.69-4.98,1.33-7.38,2.07-25.94,15.4-53.54,19.5-80.26,23.46-7.08,1.05-14.39,2.13-21.5,3.41l-37.4,9.92-.76.13c-7.35,1.25-14.68-1.34-19.6-6.94l-19.63-22.34-78.73,29.86-14.61.3Zm-99.99-44.83c11.29.75,32.5,2.17,52.42,3.58,13.97.99,25.12,1.83,33.12,2.49,11.54.95,16.52,1.35,19.92,2.61.98-.96,2.06-2.02,3.25-3.18,4.29-4.16,9.31-8.91,13.37-12.73,2.81-3.01,5.78-5.91,9.04-8.48l12.79-10.05,10.66,12.29c1.31,1.52,2.36,3.33,3.07,5.31l31.84-12.08c8.27-3.14,17.75-.78,23.58,5.86l20.23,23.02,30.01-7.96.66-.12c7.87-1.43,15.69-2.59,23.26-3.71,25.05-3.71,48.72-7.22,69.24-19.88l1.7-1.05,1.9-.63c3.89-1.28,7.46-2.25,11.07-3.21l16.67-4.42,1.91-.07c.97-.03,1.01-.04,16.31.58,13.83.56,44.25,1.78,53.74,1.95,9.42-3.62,19.32-4.64,27.89-5.25-4.56-6.74-10.33-15.26-14.62-21.56-3.01,3.11-6.98,5.3-11.53,6.13-9.47,1.73-18.7-2.9-22.97-11.53l-42.34-85.68-20.9-24.31c-2.81-3.27-4.78-7.21-5.71-11.39-2.36-10.67,3.41-21.06,13.73-24.69,10.34-3.64,21.37.84,26.22,10.66l15.23,30.82,22.8,26.53c.2-16.43.24-34.63.12-53.79l-.04-5.74c-.48-4.76-1.2-16.01,5.99-23.74,18.17-20.67,11.92-37.79-1.63-68.64-2.24-5.1-4.56-10.37-6.72-15.78l-.71-1.77-.3-1.89c-.35-2.21-.6-4.22-.82-6-.06-.52-.13-1.03-.19-1.53-.16-.62-.31-1.23-.44-1.82-23.54-1.42-47.12-.13-71.9,1.22-12.48.68-25.39,1.38-38.19,1.7l-.73.02-.73-.04c-3.68-.23-7.39-.56-11.01-.97-18.71-2.16-36.83-6.89-53.87-14.06-3.5-1.47-6.99-3.07-10.4-4.74l-.7-.36c-3.4-1.87-6.4-3.14-9.13-3.85-19.48-.46-35.19-7.55-50.4-14.42-1.06-.48-2.11-.95-3.15-1.42l71.85,65.49-4.27,19.26-9.42,2.92c-5.81,1.8-11.35.55-16.49-3.71h-.01s-.33-.29-.33-.29c-.15-.13-.29-.26-.44-.39l-2.57-2.3c-2.22-1.99-5.42-4.87-9.37-8.42-7.88-7.09-18.72-16.86-30.56-27.55-21.58-19.5-50.77-45.98-67.31-61.41-.87-.81-1.65-1.67-2.36-2.58l-6.47-5.9c-1.43.46-2.92.77-4.44.92l-58.58,5.74c-1.99.19-4.09.42-6.02.77l-.63.1c-3.66.54-8.46,4-13.54,7.65-5.52,3.97-11.78,8.48-19.4,11.4l-1.22.42c-14.52,4.36-27.66.87-39.69-3.54-1.39-.51-2.77-1.03-4.16-1.55-1.72-.65-3.44-1.3-5.16-1.92l-.79-.28-.76-.36c-2.99-1.41-4.88-1.06-15.84,8.55-4.3,3.77-9.18,8.05-14.75,11.39l-1.14.63c-5.59,2.79-11.45,2.79-14.6,2.79h-1.68l-1.65-.33c-10.32-2.06-18.79-6.62-26.26-10.63-2.71-1.46-5.09-2.72-7.26-3.76l1.68,1.06c15.97,10.07,31.36,19.78,47.58,27.3,5.21,2.2,10.52,4.34,15.9,6.51,3.63,1.28,7.32,2.42,11.08,3.43l.29.08c6.28,1.79,11.09,4.82,14.95,7.25.31.2.62.39.92.58,2.77,1.37,5.33,2.65,7.58,3.77,3.45,1.72,6.13,3.08,7.95,4.03,1.1.57,1.95,1.03,2.52,1.35,8.97,5.03,10.35,13.69,8.81,19.57l-3.5,13.35-17.42-.85-3.23-1.64s-2.03-1.03-5.65-2.84c-1.73-.86-3.81-1.91-6.2-3.11-2.56-1.1-4.81-2.34-6.85-3.56-7.12-3.11-14.39-6.03-22.05-9.11-.42-.17-.84-.34-1.27-.51-5.96-2.13-11.74-4.52-17.38-7.11-18.03-7.64-35.96-16.41-52.19-29.05-1.53-.78-3.06-1.54-4.66-2.34-19.24-9.54-32.88-16.41-41.74-21.01-1.61-.83-3.07-1.84-4.37-3l-.27-.14c-3.52,2.03-9.47,5.7-19.08,12.24-.95.64-1.88,1.27-2.82,1.92l-2.39,1.62c-5.69,4.18-12.05,7.69-17.67,10.79-1.77.98-3.52,1.94-5.2,2.9l-.43.24c-6.97,3.72-13.83,6.17-20.45,8.54-8.51,3.05-15.87,5.68-21.42,10.31-7.67,6.87-12,14.89-11.6,21.47.04.74.15,1.54.33,2.4,7.59,14.82,4.1,28.63,1.51,38.85-1.09,4.31-2.06,8.16-2.06,11.21,3.36-2.19,7.05-3.76,10.83-4.52,3.77-.95,7.76-1.36,12.2-1.25,9.49.23,19.05,2.82,28.29,5.31,6.63,1.79,13.5,3.65,18.29,3.91l1.33.07,14.51,3.11c11.12,2.38,15.26,11.51,14.4,18.98-.71,6.21-5.29,13.93-15.82,15.23-1.15.14-2.5.24-4.24.3-2.63.09-6.26.1-10.48.03-3.87-.08-7.79-.22-11.74-.41l-2.56-.12-2.41-.87c-4.23-1.53-11.76-1.24-14.23-1.14-2.96.11-6.18.36-9.6.73-1.48.29-3.25.63-5.27.95,5.89,34.05-4.39,62.73-17.76,86.09,1.19.41,2.37.88,3.52,1.43,2.95.81,6.26,1.72,9.77,2.69l22.17,6.1c4.14,1.14,7.56,2.09,10.88,3.11l3.16.97,2.56,2.08c20.42,16.6,44.66,17.62,72.71,18.8,4.6.19,9.35.4,14.15.67l.91.08c12.54,1.39,16.36,10.36,17.23,13.08,1.37,4.28,1.1,8.08-.04,11.41l50.14,24.07c3.86-1.41,9.64-3.79,13.52-5.39,6.37-2.62,11.87-4.89,15.78-6.09,6.95-2.14,14.42-.62,20,4.07l29.33,24.68Zm456.13-28.32s-.01,0-.02,0c0,0,.01,0,.02,0ZM439.59,36.41s0,0,0,0h0Z"/>
        </g>
        <g>
          <path class="cls-2" d="m806.52,392.72s-90.12-34.02-170.58-64.39c-2.58-1.13-5.16-2.15-7.73-3.19-18.41-8.45-34.41-18.45-52.41-23.45-24-7-47-15-70.07-22.35-2.13-.75-4.72-1.66-7.69-2.71-22.07-7.78-65.15-22.97-98.03-34.56-2.05-.72-4.07-1.43-6.07-2.13-48.14-14.26-93.14-39.26-143.8-35.27-4.38-.51-8.55-1.05-12.32-1.61-11.31-1.68-19.03-3.49-18.38-5.36h0c.66-1.87,9.09-2.72,20.74-2.94,1.94-.04,3.97-.06,6.07-.07,17.55,0,37.55-7.01,52.55-1.01,47,18,93,33,140.12,49.45l7.86,2.85,32.67,11.85,8.17,2.96c52.18,15.89,104.18,25.89,150.89,54.72,2.68.97,5.34,1.94,7.99,2.9,81.98,29.73,146.95,53.29,146.95,53.29,6.23,2.19,46.19,10.77,44,17l-9,15c-2.19,6.23-15.69-8.81-21.92-11Z"/>
          <path class="cls-2" d="m826.36,422.25c-8.24,0-15.17-5.37-21.41-10.2-1.52-1.18-3.75-2.91-4.81-3.56l-170.61-64.4-.4-.17c-1.99-.87-4.03-1.69-6.18-2.56l-1.83-.76c-6.11-2.8-11.87-5.72-17.44-8.54-11.18-5.66-21.74-11.01-32.43-13.98l-.21-.06c-16.17-4.72-31.96-9.9-47.22-14.91-7.63-2.51-15.53-5.1-23.25-7.56l-.47-.16c-2.13-.75-4.73-1.67-7.71-2.72l-98.03-34.56c-1.9-.67-3.76-1.33-5.62-1.97-13.7-4.07-27.1-8.96-40.06-13.68-33.04-12.05-64.26-23.43-97.21-20.83l-1.65.13-1.64-.19c-4.59-.53-8.92-1.1-12.86-1.68-15.03-2.23-25.26-4.32-30.36-12.78-2.75-4.56-3.32-10.03-1.56-15.03,4.82-13.7,20.9-14.01,36.46-14.3,2.01-.04,4.11-.06,6.27-.07h.12c5.03,0,10.75-.77,16.81-1.58,13.17-1.76,28.09-3.75,41.93,1.73,33.27,12.74,66.84,24.24,99.32,35.36,13.14,4.5,26.72,9.15,40.22,13.86l3.01,1.09,45.46,16.49c11.33,3.45,22.9,6.68,34.09,9.81,39.8,11.13,80.94,22.63,118.84,45.66l153.19,55.56c.92.31,4.25,1.18,6.93,1.89,30.26,7.97,41.19,12.23,46.26,21.8,2.5,4.71,2.91,10.02,1.17,14.98l-.57,1.63-9.37,15.62c-2.36,4.8-6.49,8.32-11.62,9.83-1.92.57-3.77.82-5.55.82Zm-25.49-13.5h0s0,0,0,0Z"/>
        </g>
        <g>
          <path class="cls-2" d="m455.23,250.13l-5.3-6.86c-1.66-2.14-3.69-4.72-6.89-7.62-17.23-15.94-39.23-21.94-60.23-34.94-4-3-9-7-7-11,6-15,9-32-2.56-44.59-1.28-1.79-2.72-3.67-4.21-5.62-11.02-13.56-24.24-29.82-24.24-29.82,0,0-2.6-3.23-5.2-6.44-7.79-11.54-21.79-15.54-31.79-25.54,16,4,30,13,38.93,25.87,1.82,2.27,3.88,4.86,6.14,7.7,5.93,7.45,13.26,16.65,21.24,26.68,1.33,1.67,2.68,3.37,4,5.08,15.69,14.67,4.69,31.67,2.69,48.67,0,4,6,7,11,10,22,12,46,21,63.78,38.75.85.96,4.11,4.02,6.84,7.06s5,6.07,3.92,6.94l-6.4,3.53c-2.15,1.75-3.16-5.94-4.71-7.85Z"/>
          <path class="cls-2" d="m459.29,275.23c-1.64,0-3.29-.23-4.89-.69-9.48-2.74-12.34-11.23-13.72-15.31-.02-.06-.04-.13-.07-.19l-4.15-5.37c-1.49-1.93-2.79-3.55-4.86-5.42l-.13-.12c-8.83-8.18-19.61-13.39-32.08-19.43-8.28-4.01-16.83-8.15-25.55-13.54l-.65-.4-.61-.46c-3.04-2.28-6.21-4.84-8.82-8.11-5.65-7.06-6.96-15.66-3.6-23.21,7.44-18.86,2.44-24.31.55-26.38l-.7-.77-.61-.85c-1.09-1.53-2.43-3.27-3.72-4.96l-24.09-29.64c-.05-.07-2.64-3.28-5.22-6.46l-.46-.57-.41-.61c-2.49-3.68-7.19-6.67-12.63-10.13-5.39-3.43-11.5-7.31-17.09-12.9l-43.4-43.4,59.54,14.89c20.15,5.04,37.32,16.45,48.42,32.17,1.64,2.06,3.47,4.35,5.46,6.85l21.6,27.13c1.13,1.42,2.27,2.85,3.39,4.28,17.73,17.53,12.61,37.74,9.2,51.19-.3,1.17-.59,2.32-.86,3.45.37.22.74.43,1.1.65,5.19,2.82,10.47,5.46,16.07,8.26,17.72,8.85,36.05,18.01,51.29,33.23l.62.65c.27.29.68.69,1.17,1.17,1.55,1.54,3.66,3.66,5.69,5.92,3.21,3.57,9.18,10.23,8.48,19.07-.38,4.84-2.74,9.36-6.48,12.4l-1.19.97-7.19,3.96c-2.85,1.75-6.12,2.67-9.41,2.67Z"/>
        </g>
        <g>
          <path class="cls-2" d="m584.28,292.25c-12.47-16.55-31.47-27.55-39.47-46.55-1.25-2.88-2.5-5.73-3.76-8.57s-2.54-5.66-3.84-8.45c-10.4-18.97-33.4-23.97-52.4-31.97-5-2-11-5-13-9-5-15,14-23,11.63-36.88-.88-3.65-3.26-7.03-3.26-7.03-1.46-1.98-29.24-22.06-27.01-23.7h0c2.23-1.64,29.39,17.78,30.85,19.76,0,0,1.15,1.59,2.98,4.58,6.82,12.28-4.18,24.28-8.18,35.28-1,2,0,4,1,6,20,17,50,18,62.67,41.95,1.42,2.81,2.81,5.63,4.2,8.47,1.39,2.84,2.76,5.7,4.14,8.58,10,19,28,32,44,48,2,3,7,6,4,9-1,2-8,7-9.01-.97-1.75-2.98-3.97-6.84-5.52-8.48Z"/>
          <path class="cls-2" d="m593.21,322.09c-1.11,0-2.24-.09-3.37-.28-6.29-1.07-13.38-5.53-16.05-14.77-.77-1.3-1.63-2.71-2.12-3.38l-.39-.41-.57-.76c-4.03-5.35-9.2-10.3-14.68-15.55-9.65-9.25-20.59-19.74-26.85-34.54-1.22-2.8-2.44-5.59-3.67-8.35-1.24-2.78-2.37-5.27-3.45-7.61-5.47-9.48-17.7-14.06-31.84-19.37-3.9-1.46-7.92-2.97-11.87-4.63-7.13-2.86-17.06-7.75-21.75-17.12l-.54-1.08-.38-1.15c-5.33-16,2.8-27.84,7.67-34.92.84-1.22,1.97-2.87,2.69-4.11-1.32-1.05-2.98-2.35-4.44-3.5-18.71-14.66-25.72-20.14-25.56-30.46.08-5.39,2.71-10.51,7.04-13.7,9.62-7.09,19.68-1.43,23.97.98,3.07,1.73,6.89,4.13,11.34,7.14,16.07,10.86,18.25,13.81,19.3,15.24l.11.16c.25.35,1.61,2.26,3.67,5.6l.38.65c9.25,16.65,1.52,32.24-3.44,41.81,4.66,2.68,9.9,4.99,15.33,7.39,15.66,6.91,33.41,14.75,43.77,34.34l.15.29c1.45,2.88,2.88,5.77,4.3,8.68,1.35,2.78,2.7,5.57,4.04,8.38,5.99,11.23,16.35,20.76,27.32,30.84,4.43,4.07,9.01,8.28,13.52,12.79l1.19,1.19.69,1.03c.18.2.38.41.57.61,1.58,1.68,3.97,4.23,5.63,7.88,3.2,7.05,2.19,14.77-2.58,20.66-4.01,5.53-11.3,10.04-19.13,10.04Zm-21.3-18.18s.01.02.02.02l-.02-.02Zm36.66-21.17s0,0,0,0h0Z"/>
        </g>
        <g>
          <path class="cls-2" d="m708.88,346.08l-50.03-105.83-27.37-55.19-7.33-14.91c-1.09-2.2-22.69-27.93-20.81-28.86h0c1.87-.93,22.99,24.03,24.08,26.23l82.65,169.94c1.09,2.2,9.28,15,7.4,15.93l-5.45,1.24c-1.87.93-2.06-6.35-3.15-8.55Z"/>
          <path class="cls-2" d="m711.71,371.73c-2.68,0-5.35-.62-7.84-1.86-8.36-4.17-9.91-12.42-10.74-16.85-.04-.23-.1-.52-.15-.78l-49.44-104.57-27.3-55.05-6.83-13.89c-.97-1.3-3.1-4-4.87-6.24-3.15-3.99-7.06-8.95-10.13-13.1-4.99-6.73-9.7-13.09-7.77-21.67,1.14-5.09,4.47-9.33,9.13-11.65,11.55-5.74,20.55,3.19,23.94,6.56,2.36,2.34,5.29,5.49,8.7,9.36,12.11,13.72,13.71,16.93,14.23,17.98l.06.13,82.54,169.7c.24.44.63,1.09,1.08,1.86,5.97,10.2,10.28,17.56,7.68,26.3-1.38,4.64-4.65,8.53-8.96,10.67l-1.81.9-6.62,1.51c-1.61.47-3.25.7-4.9.7Zm-18.86-20.15h0s0,0,0,0Z"/>
        </g>
        <g>
          <path class="cls-2" d="m386.33,229.93c-27.52,1.77-56.52.77-84.06,4.58-4.33.24-8.39.47-12.04.67-10.96.61-18.27,1.01-18.27,1.01l-61.58,1.89-16.6.59c-2.46.07-35.4-9.41-35.32-6.64h0c.08,2.77,32.12,12.16,34.58,12.09,0,0,64.25-2.62,117.8-4.81,2.55-.1,5.08-.21,7.55-.32,26.42-1.3,53.42-.3,79.42-3.3,4-1-1-4-2.27-7.4-1.64-2.68-6.51,1.53-9.21,1.63Z"/>
          <path class="cls-2" d="m192.93,261.12c-2.06,0-6.71-.46-23.29-5.8-5.11-1.65-9.36-3.17-12.61-4.52-4.55-1.89-15.21-6.32-15.56-18.26-.16-5.38,2.25-10.61,6.44-13.99,8.02-6.48,16.66-4.35,39.74,1.33,2.54.62,5.57,1.37,7.24,1.74l14.9-.53,61.44-1.89,29.41-1.63c18.15-2.46,36.63-2.96,54.5-3.44,9.71-.26,18.93-.51,28.03-1.05,16.73-7.47,24.78,2.94,26.85,6.33l.93,1.6s.04.05.06.08c1.88,2.36,7.6,9.56,4.36,19.11-2.03,5.98-6.93,10.35-13.45,11.98l-1.07.27-1.1.13c-17.34,2-34.96,2.3-52,2.6-9.42.16-19.16.33-28.53.79-2.44.11-4.84.21-7.27.31l-118.41,4.83c-.18,0-.38.01-.61.01Z"/>
        </g>
        <g>
          <path class="cls-2" d="m562,294.48c-6.19,7.21-15.19,9.21-24.02,9.42l-6.65.69c-34.12,3.55-79.6,8.29-79.6,8.29l-61.41,4.87-16.55,1.39c-2.45.19-35.82-7.68-35.6-4.92h0c.22,2.76,32.67,10.59,35.12,10.4,0,0,113.87-10.18,164.48-14.71,3.61-.32,6.91-.64,9.82-.95,9.24-1.27,19.24-2.27,24.24-9.27,3-3-3-8-5.69-11.83-2.45-4.42-2.74,5.35-4.12,6.62Z"/>
          <path class="cls-2" d="m373.32,341.63c-2.39,0-7.66-.58-22.87-4.69-5.19-1.4-9.5-2.71-12.82-3.91-4.64-1.67-15.49-5.58-16.43-17.49-.42-5.36,1.73-10.7,5.75-14.29,7.7-6.86,16.43-5.16,39.76-.59,2.56.5,5.63,1.1,7.32,1.39l14.85-1.25,61.28-4.85,86.73-9.04.68-.02c5.03-.12,7.86-.95,9.56-1.91.21-.8.45-1.65.75-2.51,3.59-10.27,12.11-12.24,14.64-12.59,5.56-.78,12.97,1.08,17.71,8.48.31.39.83,1.01,1.2,1.44,1.8,2.13,4.05,4.78,5.73,8.11,3.96,7.83,3.1,16.32-2.19,22.54-9.05,11.83-23.24,13.75-33.67,15.16l-1.92.25c-2.81.3-6.03.62-10.14.98l-164.66,14.72c-.33.03-.73.06-1.28.06Z"/>
        </g>
        <g>
          <path class="cls-2" d="m668.39,342.75l-112.77,31.4-59.65,15.41-16.07,4.21c-2.38.61-35.97,1.12-35.45,3.14h0c.52,2.03,33.21,1.66,35.59,1.05l182.6-48.68c2.38-.61,17.41-2.8,16.89-4.82l-2.62-4.93c-.52-2.03-6.15,2.6-8.53,3.21Z"/>
          <path class="cls-2" d="m466.08,415.46c-1.45,0-3.01,0-4.69-.02-5.16-.05-9.46-.21-12.77-.46-4.76-.36-17.4-1.32-20.62-13.82-1.3-5.03-.26-10.33,2.83-14.52,5.23-7.07,13.12-7.67,21.47-8.3,5.15-.39,11.46-.68,16.54-.91,2.85-.13,6.29-.28,7.9-.4l14.92-3.91,59.55-15.39,111.43-31.03c.23-.13.49-.28.69-.4,3.9-2.27,11.14-6.5,19.77-2.9,4.14,1.73,7.38,4.88,9.21,8.88l3.19,5.99.5,1.96c1.2,4.66.4,9.68-2.2,13.76-4.9,7.69-13.3,9.25-24.91,11.4-.89.16-1.63.3-2.12.4l-182.48,48.64c-1.03.27-3.98,1.03-18.21,1.03Z"/>
        </g>
      </g>
      <g>
        <g>
          <path class="cls-1" d="m450.91,11.32l123.3,112.4c1.42,1.3-78.42-70.36-110.42-100.22-3.38-3.15-.12-8.69,4.27-7.28l35.56,11.38c3.49,1.12,7.16,2.28,10.94,3.68,24.24,17.41,53.24,22.41,81.38,28.98,2.98,1.46,5.95,3.03,8.96,4.53,9.03,4.51,18.4,8.4,28.9,9.9,5.75.75,11.44,1.06,17.09,1.11,2.83.02,5.64-.02,8.46-.11,41.45-2.99,82.45-8.99,122.45-.99,6.75,1.5,7.31,11.44,7.68,21.33.12,3.3.22,6.59.53,9.57,1.79,27.1,32.79,50.1,20.79,76.1-7,14-20,26-17.57,43.23,0,2.15.01,4.3.02,6.45.08,45-.82,87.25-2.8,107.63-.42,4.33-6.26,5.4-8.18,1.49l-59.47-120.35c-2.26-4.56-9.22-2.15-8.12,2.82.31,1.42.97,2.79,2,3.99l92.63,107.76c.51.59,28.1,41.31,28.49,41.99,12.76,21.84-23.2,9.83-46,20.49-1.15.54-71.74-2.54-73-2.49,0,0-5.65,1.5-14.82,3.93-3.06.81-6.51,1.73-10.27,2.72-30.9,15.34-63.9,20.34-98.19,26.04-2.19.58-4.31,1.14-6.36,1.69-18.26,4.84-30.97,8.21-30.97,8.21-1.48.25-2.99-.28-3.98-1.41l-25.43-28.93c-1.19-1.35-3.1-1.83-4.78-1.19l-84.2,31.94c-2.02.04,31.91-31.19,30.32-29.94-14.95,11.75-27.43,38.8-42.32,26.94-1.38-1.1-92.03-7.08-104.59-7.91-.92-.06-1.79-.41-2.5-1.01l-32.51-27.36c-1.12-.94-2.64-1.26-4.04-.83-7.53,2.32-27.87,11.78-34.55,13.04-.91.17-1.84.05-2.67-.35,0,0-35.04-16.82-56.94-27.33l-5.61-2.69c-3.58-1.56-7.58-3.56-12.58-4.56,4-5,13-10,11-12-13-13-33,3-50-1-15-5-28-14-41.04-22.01-2.51-1.25-5.69-2.22-9.17-3.27l-11.14-3.06c-2.22-.61-4.47-1.23-6.72-1.85-14.93-8.81-47.93-8.81-43.93-14.81,26-33,25-69,11-103-2-5,3-9,5.64-13.79,2.23-2.28,4.8-3.94,7.61-5.1,16.87-7,42.71,3.82,60.59,6.59l9.44,2.02,3.78.81c3.68.79-2.44,1.09-12.27.92-3.46-.09-7.34-.23-11.59-.46-7.94-3.37-18.67-2.52-29.2-1.36-3.51.39-6.99.81-10.34,1.12-7.65.25-16.65,2.25-23.52-4.04-1.55-1.64-2.62-3.83-3.12-6.71-3-15,8-32-3.04-45.15-1.41-2.38-2.82-4.76-3.98-7.2-2.32-4.88-3.65-9.99-2.99-15.66,6-32,44-36,67.95-52.94,2.03-1.45,4.01-2.88,5.97-4.29,19.63-14.07,37.32-25.68,43.95-28.24,1.14-.44,2.41-.38,3.51.17,0,0,21.97,11.05,50.04,25.16,2.16,1.09,4.36,2.22,6.61,3.44,16.97,10.71,30.97,27.71,50.97,34.71,19,6,39,7,55.07,18.51l5.78,2.91c.25.01-1.41-.89-4.6-2.52-1.59-.81-3.57-1.81-5.85-2.95-5.4-2.94-10.4-6.94-16.4-6.94-36-3-61-27-89.63-45.34-2.1-1.04-4.17-2.07-6.2-3.08-14.23-7.07-26.68-13.33-35.22-17.77-3.82-1.99-2.7-7.72,1.58-8.14,0,0,9.47-.93,24.95-2.45,3.1-.3,6.43-.63,9.99-.98,19.53-3.25,36.53,8.75,56.53,6.75,11-1,19-9,29-13,6-2,13-2,18.56.14,2.33.66,4.65,1.42,6.97,2.22,6.97,2.39,13.97,5.14,21.47,6.64,5,1,10-1,14-2,13-6,23-16,37.39-18.63,2.54-.36,5.05-.64,7.5-.88,34.34-3.37,58.58-5.74,58.58-5.74.74-.07,1.46-.33,2.06-.77,3.48-2.53,8.32-2.31,11.57.65Z"/>
          <path class="cls-2" d="m433.84,446.76l-.11-.26c-3.27-.27-6.46-1.39-9.48-3.35-8.64-1.02-48.23-3.93-101.63-7.44-2.84-.19-5.49-1.25-7.67-3.09l-30.51-25.68c-2.97,1.09-7.13,2.81-11.18,4.48-10.4,4.28-17.55,7.15-21.99,7.99-2.8.53-5.64.16-8.21-1.08l-62.41-29.96c-.51-.22-1.03-.45-1.56-.69-2.97-1.33-5.78-2.58-9.06-3.23l-14.41-2.88,9.18-11.48c.7-.88,1.47-1.72,2.28-2.52-2.75.28-6.1,1-10.33,1.99-7.94,1.86-16.94,3.97-26.01,1.83l-.78-.22c-13.6-4.53-25.32-11.88-36.65-18.99-1.96-1.23-3.91-2.45-5.86-3.66-1.87-.87-4.64-1.71-7.34-2.53l-18.9-5.2-1.03-.61c-5.89-3.47-16.63-5.53-25.26-7.19-12.38-2.38-19.86-3.81-22.62-10.4-1.36-3.25-.98-6.85,1.04-9.88l.42-.57c21.13-26.82,24.41-58.46,9.75-94.06-1.92-4.79-1.16-8.97.35-12.4-1.94-2.64-3.24-5.77-3.88-9.36-1.45-7.37-.31-14.67.69-21.12,1.45-9.3,2.14-15.24-1.79-19.92l-.47-.56-.37-.62c-1.4-2.36-3-5.04-4.37-7.92-3.35-7.04-4.59-13.76-3.79-20.54l.09-.6c4.98-26.57,27.78-36.95,47.89-46.1,8.69-3.96,16.9-7.69,23.69-12.5,1.11-.79,2.24-1.61,3.36-2.41l2.57-1.84c13.08-9.37,36.43-25.65,45.93-29.32,3.49-1.35,7.41-1.16,10.75.52l.08.04c1.98-1.64,4.46-2.7,7.19-2.97l34.65-3.4c11.85-1.9,22.33.78,32.47,3.37,8.36,2.14,16.26,4.16,24.32,3.35,4.98-.45,9.51-3.14,14.76-6.25,3.66-2.17,7.45-4.42,11.81-6.16l.49-.18c7.87-2.62,16.87-2.57,24.19.12,2.1.6,4.3,1.3,7.08,2.26,1.38.47,2.76.96,4.14,1.45,5.53,1.95,10.76,3.8,16.17,4.88,1.91.38,4.69-.41,7.38-1.17.62-.18,1.22-.35,1.81-.5,4-1.91,7.79-4.29,11.78-6.8,7.99-5.02,16.26-10.21,27.05-12.18l.36-.06c2.39-.34,4.89-.63,7.88-.92l57.42-5.63c6.8-4.17,15.71-3.39,21.69,2.05l4.02,3.66c2.98-1.44,6.47-1.75,9.83-.68l35.91,11.49c3.5,1.12,7.13,2.28,10.98,3.7l1.13.42.98.71c19.96,14.34,43.46,19.66,68.35,25.29,3.29.74,6.57,1.49,9.85,2.25l.99.23.91.45c1.73.85,3.46,1.73,5.2,2.62,1.27.65,2.54,1.3,3.82,1.94,7.35,3.67,16.2,7.61,26.12,9.04,4.96.64,10.18.98,15.95,1.02,2.5.02,5.1-.01,7.92-.1,7.32-.53,14.77-1.17,21.98-1.78,33.74-2.88,68.63-5.86,102.69.95l.19.04c13.69,3.04,14.28,19.1,14.68,29.73l.03.91c.11,2.91.21,5.67.45,8.08l.03.32c.61,9.23,5.67,18.5,11.02,28.31,8.39,15.37,17.9,32.79,8.97,52.13l-.12.25c-2.18,4.35-4.78,8.38-7.29,12.28-5.75,8.9-10.71,16.59-9.42,25.7l.08.6v.61c.01,2.16.02,4.32.02,6.47.06,31.14-.36,58.97-1.15,80.02l15.05,17.51c1.16,1.35,29.27,43.03,29.44,43.31,1.57,2.7,6.37,10.91,2.27,18.63-4.43,8.35-14.67,9.03-26.51,9.82-8.61.57-18.36,1.22-25.69,4.65q-2.79,1.31-62.08-1.08c-5.8-.23-11.34-.46-13.67-.54l-22.98,6.09c-30.52,14.97-62.07,20.19-95.47,25.71l-4,.66-37.71,9.96c-4.51.77-9.18-.89-12.2-4.32l-23.31-26.53-82.65,31.35-7.69.15Zm-108.52-28.8c10.29.68,33.3,2.21,55.02,3.75,49.99,3.56,50.17,3.69,53.04,5.98.78.62,1.31,1.04,2.12.98.12-.13.24-.25.36-.38,1.64-1.71,3.92-3.98,6.96-6.93,4.33-4.2,9.41-9,13.49-12.85,2.63-2.83,5.36-5.51,8.28-7.81l6.73-5.29,5.64,6.45c2.18,2.54,3.76,7.9-.71,12.42l44.58-16.91c5.15-1.95,11.04-.49,14.68,3.65l23.52,26.77,34.61-9.18,4.84-.8c32.33-5.35,62.88-10.4,91.25-24.49l.81-.4,26.94-7.15,1-.04c.61-.02.7-.03,15.75.58,16.01.64,48.13,1.94,55.53,1.97,9.96-4.17,21.2-4.92,30.34-5.52,3.32-.22,7.5-.5,10.32-.97-.08-.14-.16-.29-.25-.45-1.79-2.71-25.28-37.4-27.89-41.12l-2.68-3.12c-.08.95-.16,1.86-.25,2.72-.58,5.96-4.92,10.69-10.81,11.77-5.89,1.08-11.64-1.8-14.29-7.18l-42.79-86.59-21.56-25.08c-1.94-2.26-3.31-4.99-3.95-7.88-1.47-6.64,2.12-13.09,8.54-15.35,6.44-2.27,13.31.52,16.33,6.63l15.68,31.73,37.25,43.34c.4-17.38.59-37.76.55-59.87,0-1.95,0-3.9-.02-5.86-1.92-15.39,5.57-27,12.19-37.26,2.33-3.61,4.53-7.02,6.26-10.45,4.81-10.58-.1-20.56-8.49-35.94-6.02-11.03-12.24-22.43-13.15-35.53-.3-2.95-.41-6.07-.52-9.09l-.03-.9c-.12-3.25-.39-10.54-1.53-13.1-31.24-6.05-63.01-3.34-96.63-.47-7.32.63-14.89,1.27-22.39,1.81l-.36.02c-3.13.1-6.02.14-8.81.12-6.53-.05-12.47-.44-18.18-1.18h-.11c-12.47-1.8-22.99-6.45-31.63-10.76-1.33-.67-2.66-1.34-3.98-2.02-1.34-.69-2.68-1.37-4.02-2.04-2.9-.67-5.81-1.33-8.73-1.99-25.15-5.69-51.15-11.57-73.82-27.48-3.1-1.12-6.16-2.09-9.13-3.04l-14.99-4.8,97.83,89.18-2.24,10.14-4.96,1.53c-3.58,1.11-5.75.29-8.64-2.01l-.05.05-1.23-1.12c-.67-.57-1.38-1.21-2.15-1.91-2.22-1.99-5.42-4.87-9.36-8.41-7.88-7.09-18.72-16.85-30.54-27.53-21.56-19.48-50.72-45.93-67.22-61.32-.7-.65-1.31-1.36-1.84-2.11l-10.97-10c-.11-.1-.24-.06-.29-.02-1.88,1.37-4.11,2.21-6.45,2.44l-58.58,5.74c-2.65.26-4.86.52-6.94.81-7.34,1.39-13.78,5.43-20.59,9.7-4.52,2.84-9.19,5.77-14.49,8.22l-.76.35-.82.2c-.68.17-1.4.38-2.14.59-4.06,1.16-9.63,2.74-15.79,1.51-6.67-1.33-12.75-3.48-18.62-5.56-1.34-.47-2.67-.94-4-1.4-2.62-.9-4.62-1.54-6.5-2.07l-.78-.26c-3.46-1.33-8.25-1.36-12.27-.08-2.98,1.23-5.95,2.98-9.08,4.84-6.21,3.68-13.25,7.85-22.18,8.67-11.13,1.11-20.95-1.4-30.45-3.83-8.82-2.25-17.15-4.38-25.42-3.01l-.6.08-17.72,1.74,23.82,11.98c2.63,1.33,4.81,2.46,6.85,3.56l.51.3c6.73,4.25,12.93,9.34,18.93,14.26.82.67,1.64,1.34,2.45,2.01,10.26,7.13,20.42,13.77,31.29,18.6,4.48,1.26,9.09,2.31,13.58,3.34,5.63,1.29,11.35,2.6,16.99,4.32,4.45.6,8.3,2.44,11.64,4.33,3.34,1.52,6.62,3.29,9.81,5.41.65.33,1.26.64,1.82.93,1.58.81,2.81,1.45,3.64,1.9,6.42,3.48,6.25,8.3,5.57,10.87l-1.84,6.97-9.14-.4-8.11-4.08-.57-.41c-.16-.11-.31-.22-.47-.33-.92-.47-1.92-.97-2.99-1.5l-.28-.15c-1.34-.73-2.61-1.49-3.83-2.22-.57-.34-1.13-.68-1.69-1-2.25-.99-4.58-1.85-6.97-2.63l-.38-.03c-11.98-1-22.79-4.1-32.84-8.44-1.04-.3-2.07-.61-3.11-.94l-.26-.09c-12.78-4.47-22.97-12.27-32.64-20.15-2.17-1.51-4.32-3.03-6.47-4.54-5.86-4.13-11.92-8.4-17.98-12.3l-5.76-2.86c-15.93-7.92-27.5-13.76-35.36-17.84-1.29-.67-2.43-1.52-3.4-2.51l-5.11-2.57c-5.52,2.74-18.52,10.84-40.18,26.37l-2.55,1.83c-1.13.82-2.28,1.64-3.44,2.47-8.21,5.81-17.59,10.07-26.65,14.2-18.37,8.36-34.25,15.59-37.65,32.8-.33,3.33.35,6.57,2.21,10.48.92,1.94,2.13,4.01,3.25,5.9,8.78,10.99,6.83,23.49,5.26,33.56-.65,4.2-1.28,8.22-1.16,11.79,1.39-.84,2.86-1.59,4.4-2.22,14.87-6.17,33.35-1.55,49.66,2.52,5.72,1.43,11.12,2.78,15.73,3.49l.51.09,13.21,2.83c7.13,1.53,8.44,7.12,8.09,10.19-.14,1.2-1.21,7.22-8.8,8.15-.9.11-2.06.19-3.53.24-2.5.09-5.98.09-10.06.02-4.02-.1-8-.26-11.92-.47l-1.57-.08-1.45-.61c-5.93-2.51-15.46-1.72-24.72-.7l-2.96.33c-2.48.28-5.04.57-7.53.81l-.54.03c-1.13.04-2.35.12-3.65.21-3.17.22-6.84.48-10.67.09,14.29,36.94,11.81,70.5-7.4,99.92,1.46.29,2.94.58,4.28.83,9.56,1.84,21.36,4.1,29.86,8.72l17.01,4.68c3.6,1.09,7.33,2.21,10.57,3.83l.69.38c2.12,1.31,4.25,2.64,6.38,3.97,10.31,6.47,20.98,13.15,32.38,17.03,4.93,1.02,11.03-.4,17.48-1.92,11.27-2.64,25.3-5.92,36.44,5.22,1.97,1.97,3.02,4.69,2.9,7.46-.14,3.03-1.51,5.4-3.45,7.52l60.74,29.16c3.8-1.12,11.4-4.25,17.14-6.61,5.93-2.44,11.52-4.75,15.08-5.84,4.32-1.33,8.97-.38,12.44,2.54l31.34,26.38Zm477.11-77.53s.07.09.09.11l-.09-.11Zm-24.03-27.96l4.31,8.73c.06-1.14.11-2.31.17-3.51l-4.48-5.21Zm-54.99-91.44s0,0,0,0c0,0,0,0,0,0Z"/>
        </g>
        <g>
          <path class="cls-2" d="m806.39,380.2s-90.12-34.02-170.58-64.39c-2.64-1.5-5.3-2.69-8.04-4.01-16.96-9.11-33.96-20.11-51.96-26.11-29-11-59-15-87.88-25.09l-5.7-2.01-38.8-13.68-6.99-2.46c-45.63-15.75-91.63-28.75-137.63-47.75-14-6-32,0-48.83-2.64-4.35-.4-8.52-.95-12.29-1.51-11.31-1.68-19.03-3.49-18.38-5.36h0c.66-1.87,9.09-2.72,20.74-2.94,1.94-.04,3.97-.06,6.07-.08,18.69.53,38.69-8.47,54.69-.47,55,29,114,38,170.32,60.69,2.78.97,5.49,1.95,8.2,2.94,56.49,11.38,110.49,25.38,158.91,57.04,2.76,1.17,5.46,2.27,8.13,3.54,81.98,29.73,146.95,53.29,146.95,53.29,6.23,2.19,46.19,10.77,44,17l-9,15c-2.19,6.23-15.69-8.81-21.92-11Z"/>
          <path class="cls-2" d="m826.27,396.14c-3.47,0-7.43-2.91-13.14-7.34-2.87-2.23-6.13-4.75-7.88-5.36l-.07-.03-170.83-64.48-.23-.13c-1.99-1.13-4-2.08-6.13-3.09l-1.84-.88c-4.29-2.31-8.66-4.77-12.87-7.15-12.48-7.05-25.39-14.34-38.55-18.73l-.13-.05c-15.24-5.78-31.09-9.69-46.43-13.46-13.62-3.35-27.7-6.82-41.36-11.6l-51.5-18.16c-14.72-5.08-29.77-9.97-44.32-14.7-30.6-9.94-62.24-20.22-93.48-33.12-7.4-3.17-16.35-2.65-25.81-2.11-7.23.42-14.71.85-22.13-.29-3.85-.36-7.9-.86-12.37-1.52-17.16-2.55-19.54-4.39-20.73-6.37-.65-1.08-.79-2.36-.38-3.52.96-2.73,3.33-4.84,23.91-5.24,1.36-.03,2.76-.04,4.19-.06l1.97-.02h.07c6.47.19,13.34-.87,19.99-1.88,12.28-1.88,24.97-3.81,36.14,1.77,32.44,17.1,66.93,27.39,100.29,37.35,22.97,6.85,46.71,13.94,69.71,23.2,2.68.94,5.3,1.89,7.91,2.83,62.33,12.57,113.36,27.15,159.6,57.31l1.35.57c2.13.89,4.32,1.82,6.48,2.84l146.79,53.24c1.22.43,4.35,1.25,7.98,2.21,22.94,6.04,35.07,10.02,37.73,15.04.7,1.32.83,2.78.36,4.12l-.12.33-9.03,15.05c-.67,1.6-1.89,2.72-3.45,3.18-.55.16-1.1.24-1.67.24Zm-18.7-19.16c2.79,1,6.18,3.62,9.76,6.4,2.43,1.88,6.28,4.87,8.25,5.68l7.93-13.22c-4.49-3.57-25.59-9.13-32.81-11.03-4.08-1.07-7.03-1.85-8.54-2.38l-147.14-53.36-.15-.07c-2.06-.98-4.14-1.86-6.33-2.78l-1.94-.82-.26-.17c-45.46-29.73-95.92-44.1-157.71-56.55l-.49-.14c-2.7-.98-5.39-1.95-8.16-2.92l-.15-.06c-22.72-9.15-46.34-16.2-69.18-23.01-33.67-10.05-68.49-20.44-101.46-37.82-9.16-4.58-20.24-2.88-31.97-1.09-6.92,1.06-14.08,2.15-21.14,1.96l-1.83.02c-1.42.02-2.8.03-4.15.06-3.59.07-6.49.19-8.83.34,1.9.35,4.17.73,6.9,1.13,4.39.65,8.35,1.14,12.1,1.49l.21.03c6.73,1.05,13.87.64,20.78.24,9.84-.57,20.03-1.16,28.87,2.63,30.95,12.78,62.46,23.02,92.94,32.92,14.59,4.74,29.67,9.64,44.47,14.74l51.51,18.16c13.35,4.67,27.27,8.09,40.73,11.41,15.51,3.82,31.55,7.77,47.16,13.69,13.77,4.6,26.94,12.04,39.69,19.24,4.16,2.35,8.46,4.78,12.67,7.04l1.6.76c2.07.98,4.22,2,6.35,3.19l170.31,64.28Z"/>
        </g>
        <g>
          <path class="cls-2" d="m454.53,237.59c-16.73-14.89-37.73-23.89-57.73-33.89-6-4-18-10-14-17,7-14,12-29,.63-41.74,0,0-1.84-2.37-4.82-6.04-5.97-7.34-16.2-19.94-23.88-29.38-2.88-3.54-5.4-6.64-7.19-8.82-9.74-16.02-26.74-22.02-39.74-34.02,17,8,35,15,44.94,32.08,2.25,2.8,4.71,5.9,7.34,9.19,7.31,9.18,15.87,19.93,24.81,31.17,1.49,1.87,2.99,3.76,4.44,5.66,13.47,11.91,4.47,25.91.47,39.91-2,6,3,11,8,15,23,16,51,21,68.25,42.22l-6.26,3.53c-2.15,1.75-3.45-5.95-5.27-7.87Z"/>
          <path class="cls-2" d="m459.18,247.07c-.18,0-.36-.02-.54-.07-1.61-.42-2.46-2.57-3.44-5.06-.5-1.26-1.11-2.81-1.62-3.38-13.95-12.4-31.2-20.82-47.88-28.97-3.18-1.55-6.35-3.1-9.5-4.68l-.15-.08c-.82-.54-1.74-1.12-2.73-1.74-6.29-3.94-15.79-9.89-11.7-17.06,6.82-13.64,11.66-27.99.8-40.16-.08-.09-1.92-2.47-4.86-6.09l-23.88-29.38c-2.88-3.54-5.39-6.64-7.18-8.82l-.11-.16c-6-9.87-14.7-15.75-23.91-21.98-5.27-3.57-10.73-7.26-15.59-11.74l-6.47-5.98,7.97,3.75c1.63.77,3.26,1.52,4.9,2.28,15.43,7.13,31.38,14.51,40.59,30.26,2.23,2.78,4.68,5.85,7.28,9.12l24.81,31.17c1.45,1.82,2.94,3.69,4.38,5.57,11.51,10.26,7.36,22.05,3.34,33.44-.9,2.55-1.83,5.18-2.56,7.76-1.75,5.25,2.83,9.8,7.54,13.57,8.7,6.05,18.34,10.6,27.66,14.99,15.43,7.28,30,14.15,40.8,27.43l1.01,1.25-7.57,4.28c-.43.32-.9.48-1.38.48Zm-39.43-33.55c12.63,6.44,25.05,13.59,35.68,23.05l.08.08c.87.92,1.52,2.56,2.2,4.29.41,1.03,1.05,2.66,1.52,3.28l4.74-2.67c-10.31-12.01-24.17-18.55-38.82-25.46-1.79-.85-3.6-1.7-5.4-2.56Zm-22.26-11c3.12,1.56,6.26,3.09,9.4,4.63,1.35.66,2.7,1.32,4.05,1.98-4.74-2.49-9.42-5.2-13.91-8.32-5.19-4.15-10.78-9.73-8.51-16.54.74-2.6,1.69-5.28,2.6-7.86,3.9-11.07,7.59-21.52-2.68-30.6l-.18-.19c-1.44-1.9-2.96-3.8-4.42-5.63l-24.81-31.17c-2.62-3.29-5.08-6.39-7.33-9.19l-.11-.17c-7.74-13.3-20.79-20.48-34.11-26.77,2.17,1.55,4.37,3.04,6.53,4.5,9.02,6.1,18.35,12.42,24.66,22.74,1.79,2.18,4.28,5.25,7.13,8.75l23.88,29.38c2.96,3.64,4.82,6.04,4.84,6.06,11.91,13.34,6.44,29.32-.49,43.18-2.62,4.6,3.59,9,10.75,13.48.98.61,1.9,1.19,2.72,1.74Z"/>
        </g>
        <g>
          <path class="cls-2" d="m575.04,272.85c-11.23-11.15-23.23-22.15-27.23-37.15-.75-2.62-1.58-5.19-2.48-7.69-1-2.45-2.08-4.84-3.34-7.12-13.18-19.19-37.18-21.19-56.18-33.19-2-1-3-4-3-6,3-16,15-30,2.12-43.72l-4.89-6.71c-1.46-1.98-29.24-22.06-27.01-23.7h0c2.23-1.64,29.39,17.78,30.85,19.76l9.5,13.19c1.13,3.23,2.61,6.69,3.27,10.68,3.17,11.5-9.83,24.5.17,32.5,17,15,43,19,53.11,41.13,1.38,2.75,2.73,5.53,4.04,8.34,1.31,2.81,2.6,5.66,3.85,8.53,7,17,26,26,36,42-4,1-10,5-12.33-2.09-2.18-3.12-4.75-7.08-6.44-8.76Z"/>
          <path class="cls-2" d="m586.28,287.09c-.91,0-1.81-.17-2.66-.58-1.5-.74-2.64-2.17-3.37-4.28-.43-.61-.87-1.26-1.32-1.91-1.78-2.59-3.61-5.26-4.86-6.5l-2.4-2.37c-10.51-10.37-21.37-21.1-25.18-35.39-.72-2.53-1.55-5.09-2.45-7.58-1.11-2.69-2.14-4.89-3.22-6.86-8.23-11.95-20.72-17-33.94-22.36-7.31-2.96-14.87-6.02-21.76-10.37-2.39-1.25-3.68-4.62-3.68-7.18l.02-.25c.87-4.61,2.45-9.02,3.98-13.29,3.85-10.73,7.17-20-1.51-29.25l-.11-.13-4.89-6.71c-.47-.58-4.21-3.51-7.83-6.35-15.58-12.2-19.6-15.88-19.57-17.91,0-.54.26-1.02.68-1.33.9-.66,2.25-1.66,17.28,8.49,6.55,4.42,14.51,10.25,15.47,11.56l9.62,13.37.06.19c.23.67.48,1.34.73,2.03.95,2.6,2.03,5.55,2.59,8.81,1.41,5.21-.18,10.48-1.72,15.57-1.96,6.5-3.66,12.12,1.4,16.16,6.27,5.53,13.89,9.61,21.26,13.56,12.64,6.77,25.71,13.77,32.24,28.07,1.35,2.69,2.72,5.51,4.04,8.33,1.31,2.8,2.6,5.68,3.86,8.56,3.78,9.18,11.08,15.9,18.82,23.01,6.16,5.67,12.54,11.53,17.09,18.81l.99,1.58-1.81.45c-.69.17-1.48.46-2.32.76-1.76.63-3.68,1.32-5.53,1.32Zm-102.12-105.27c.04,1.75.93,4.01,2.25,4.67l.12.07c6.7,4.23,14.16,7.25,21.38,10.18,13.03,5.28,26.5,10.73,35.19,23.39l.07.11c1.14,2.08,2.22,4.39,3.4,7.25.94,2.61,1.78,5.23,2.53,7.84,3.63,13.6,14.23,24.06,24.48,34.18l2.41,2.38c1.42,1.42,3.33,4.2,5.18,6.89.48.7.96,1.39,1.42,2.05l.11.16.06.19c.5,1.51,1.16,2.45,2.04,2.88,1.57.77,3.97-.09,6.09-.85.27-.1.53-.19.79-.28-4.28-6.31-10.06-11.62-15.66-16.77-7.61-7-15.48-14.24-19.48-23.95-1.24-2.84-2.52-5.7-3.82-8.47-1.31-2.8-2.66-5.6-4.03-8.31-6.18-13.51-18.27-19.99-31.08-26.85-7.51-4.02-15.27-8.18-21.72-13.87-6.44-5.15-4.31-12.2-2.26-19.02,1.43-4.75,2.91-9.65,1.68-14.14l-.03-.14c-.51-3.04-1.5-5.76-2.47-8.39-.23-.64-.46-1.26-.68-1.88l-9.39-13.04c-1.47-1.81-19.36-14.49-26.64-18.25,3.69,3.56,11.81,9.92,16.66,13.72,5.63,4.41,7.8,6.14,8.35,6.88l4.85,6.65c9.75,10.44,6,20.9,2.03,31.96-1.48,4.12-3.01,8.39-3.84,12.74Z"/>
        </g>
        <g>
          <path class="cls-2" d="m708.75,333.56l-50.03-105.83-27.37-55.19-7.33-14.91c-1.09-2.2-22.69-27.93-20.81-28.86h0c1.87-.93,22.99,24.03,24.08,26.23l82.65,169.94c1.09,2.2,9.28,15,7.4,15.93l-5.45,1.24c-1.87.93-2.06-6.35-3.15-8.55Z"/>
          <path class="cls-2" d="m711.58,343.37c-.27,0-.53-.06-.78-.19-1.25-.63-1.67-2.54-2.25-5.61-.25-1.33-.53-2.84-.86-3.5v-.02s-50.04-105.83-50.04-105.83l-27.36-55.17-7.33-14.91c-.31-.62-3.27-4.37-6.12-7.99-12.34-15.64-15.26-19.86-14.89-21.51.09-.42.36-.76.73-.94.96-.48,2.05-1.02,13.74,12.22,5.08,5.75,11.22,13.14,11.92,14.55l82.66,169.95c.22.44.83,1.49,1.54,2.7,4.52,7.71,6.71,11.96,6.17,13.78-.14.46-.44.82-.84,1.02l-.26.09-5.34,1.22c-.23.09-.46.14-.69.14Zm-1.77-10.33c.47.95.76,2.48,1.06,4.1.22,1.18.57,3.07.93,3.78l4.61-1.05c-.39-2.14-4.35-8.9-5.91-11.56-.79-1.35-1.36-2.33-1.62-2.85l-82.66-169.95c-.38-.77-4.91-6.43-10.86-13.21-4.05-4.61-6.91-7.64-8.86-9.56,3.1,4.45,8.7,11.55,12.18,15.96,3.92,4.97,5.99,7.6,6.38,8.4l7.33,14.91,27.37,55.19,50.04,105.84Z"/>
        </g>
        <g>
          <path class="cls-2" d="m379.1,217.64c-38.29-3.94-75.29,4.06-111.84,6.15-2.85.11-6.84.23-11.4.37-18.25.56-45.61,1.4-45.61,1.4l-16.6.59c-2.46.07-35.4-9.41-35.32-6.64h0c.08,2.77,32.12,12.16,34.58,12.09,0,0,32.78-1.34,71.03-2.9l7.71-.31c41.16-4.69,81.16-3.69,122.16-5.69-3-2-5-4-7.68-6.46-2.87-2.79-4.45,1.41-7.03,1.4Z"/>
          <path class="cls-2" d="m192.92,232.95c-1.76,0-11.16-2.64-18.61-5.04-17.26-5.56-17.31-7.25-17.34-8.36-.02-.53.21-1.02.63-1.36,1.58-1.28,6.96-.38,26.17,4.35,4.46,1.1,9.08,2.23,9.85,2.25l16.58-.59,45.62-1.4c4.57-.14,8.55-.26,11.39-.37,11.87-.68,24.08-2.02,35.88-3.31,24.66-2.7,50.17-5.5,76.07-2.84.53-.02,1.15-.48,1.8-.95,1.32-.96,3.53-2.58,6.11-.06l1.22,1.12c2.06,1.91,3.84,3.56,6.27,5.18l3.42,2.28-4.11.2c-14.15.69-28.39,1.03-42.16,1.36-26.06.62-53,1.26-79.91,4.32l-78.84,3.22s-.03,0-.05,0Zm-30.86-12.42c7.45,3.42,28.47,9.67,30.83,9.71l78.71-3.21c26.94-3.07,53.94-3.71,80.06-4.33,12.53-.3,25.44-.6,38.31-1.18-1.2-1-2.31-2.02-3.52-3.14l-1.23-1.14c-.91-.88-1.21-.78-2.65.28-.9.66-2.04,1.48-3.47,1.47h-.13c-25.65-2.65-51.03.13-75.57,2.82-11.84,1.3-24.08,2.64-36.05,3.32-2.87.11-6.85.23-11.41.37l-45.64,1.4-16.59.59c-.91.01-3.63-.62-10.57-2.33-5.99-1.47-15.99-3.94-21.07-4.65Z"/>
        </g>
        <g>
          <path class="cls-2" d="m552.86,275.24c-4.05,12.46-17.05,17.46-28.66,17.54-2.33.27-4.72.52-7.13.77-31.32,3.26-65.49,6.82-65.49,6.82l-61.41,4.87-16.55,1.39c-2.45.19-35.82-7.68-35.6-4.92h0c.22,2.76,32.67,10.59,35.12,10.4,0,0,90.77-8.12,146.25-13.08l6.48-.58c13.94.25,28.94-3.75,35.94-16.75,3-6-4-9-6.04-14.17-1.95-4.19-2.01,6.03-2.91,7.71Z"/>
          <path class="cls-2" d="m373.11,313.46c-2,0-11.31-2.14-18.72-4.14-17.5-4.72-17.64-6.4-17.72-7.51-.04-.52.17-1.03.57-1.39,1.52-1.35,6.93-.72,26.35,3.08,4.51.88,9.15,1.78,9.94,1.77l16.53-1.39,61.42-4.87,65.45-6.82c2.44-.25,4.81-.5,7.11-.77h.15c10.65-.08,23.43-4.48,27.38-16.61l.09-.22c.2-.4.44-2.17.59-3.35.48-3.62.78-5.81,2.44-6.06,1.4-.22,2.08,1.28,2.31,1.77.66,1.68,1.92,3.15,3.14,4.57,2.45,2.85,5.23,6.09,2.88,10.78-8.41,15.62-26.82,17.66-37.1,17.5l-152.66,13.65s-.1,0-.15,0Zm-31.32-10.92c7.55,3.03,28.6,8.21,31.21,8.21.02,0,.04,0,.05,0l152.77-13.66h.07c9.66.17,26.99-1.68,34.72-16.03,1.45-2.9.06-4.75-2.53-7.77-1.01-1.18-2.05-2.38-2.84-3.76-.12.72-.22,1.49-.3,2.08-.27,2.04-.46,3.36-.83,4.14-4.42,13.4-18.28,18.28-29.84,18.38-2.29.26-4.64.51-7.01.76l-65.54,6.83-61.45,4.87-16.55,1.39c-.91.07-3.66-.44-10.67-1.81-6.05-1.18-16.16-3.16-21.27-3.62Z"/>
        </g>
        <g>
          <path class="cls-2" d="m668.25,330.23l-112.77,31.4-59.65,15.41-16.07,4.21c-2.38.61-35.97,1.12-35.45,3.14h0c.52,2.03,33.21,1.66,35.59,1.05l182.6-48.68c2.38-.61,17.41-2.8,16.89-4.82l-2.62-4.93c-.52-2.03-6.15,2.6-8.53,3.21Z"/>
          <path class="cls-2" d="m464.92,387.11c-1.19,0-2.37,0-3.51-.02-17.66-.18-17.96-1.36-18.23-2.4-.1-.4-.02-.83.23-1.17,1-1.36,6.11-1.91,26.01-2.81,4.61-.21,9.37-.42,10.05-.6l16.06-4.21,59.65-15.42,112.77-31.4c.71-.18,2.04-.96,3.21-1.64,2.7-1.57,4.41-2.51,5.71-1.97.48.2.83.58,1,1.08l2.67,5.09c.11.44.03.9-.22,1.31-1.02,1.6-5.67,2.72-14.46,4.35-1.38.26-2.57.48-3.06.6l-182.59,48.68c-1.3.34-8.46.52-15.3.52Zm-15.43-2.81c2.72.22,6.89.4,13.02.45,9.02.06,16.27-.22,17.11-.44l182.59-48.68c.58-.15,1.69-.35,3.22-.64,3.03-.56,10.73-1.99,12.61-3.1l-2.22-4.18c-.77.19-2.43,1.16-3.47,1.77-1.42.83-2.77,1.61-3.79,1.88l-112.76,31.4-59.67,15.42-16.06,4.21c-.87.23-4.21.38-10.54.67-5.61.25-14.64.66-20.04,1.23Z"/>
        </g>
      </g>
    </g>
  </g>
</svg>