<?xml version="1.0" encoding="UTF-8"?>
<svg id="Layer_2" data-name="Layer 2" xmlns="http://www.w3.org/2000/svg" viewBox="0 0 827 868">
  <defs>
    <style>
      .cls-1 {
        letter-spacing: 0em;
      }

      .cls-1, .cls-2, .cls-3, .cls-4, .cls-5, .cls-6, .cls-7, .cls-8, .cls-9, .cls-10, .cls-11, .cls-12, .cls-13, .cls-14 {
        font-size: 30.6px;
      }

      .cls-15 {
        font-size: 71.87px;
        stroke-width: 3.29px;
      }

      .cls-15, .cls-16, .cls-17, .cls-18 {
        fill: #fff;
      }

      .cls-15, .cls-17, .cls-18 {
        stroke: #ff5c00;
        stroke-miterlimit: 10;
      }

      .cls-15, .cls-18 {
        font-family: CooperBlack, 'Cooper Black';
      }

      .cls-2 {
        letter-spacing: -.03em;
      }

      .cls-3 {
        letter-spacing: 0em;
      }

      .cls-4 {
        letter-spacing: 0em;
      }

      .cls-5 {
        letter-spacing: 0em;
      }

      .cls-19, .cls-20, .cls-21, .cls-22, .cls-23, .cls-24, .cls-25 {
        font-size: 30.6px;
      }

      .cls-26 {
        fill: #ed4d00;
      }

      .cls-27 {
        fill: #ffd69e;
      }

      .cls-28 {
        fill: #ff5c00;
      }

      .cls-29 {
        fill: #664690;
      }

      .cls-30 {
        fill: #b6c4fa;
      }

      .cls-31 {
        fill: #8bc53f;
      }

      .cls-32 {
        fill: #d10000;
      }

      .cls-33 {
        fill: #a80000;
      }

      .cls-34 {
        fill: #c59b6d;
      }

      .cls-35 {
        fill: #42210b;
      }

      .cls-36 {
        fill: #39b44a;
      }

      .cls-37 {
        fill: #603813;
      }

      .cls-17 {
        stroke-width: 3.33px;
      }

      .cls-20 {
        letter-spacing: 0em;
      }

      .cls-7 {
        letter-spacing: 0em;
      }

      .cls-21 {
        letter-spacing: -.01em;
      }

      .cls-8 {
        letter-spacing: -.04em;
      }

      .cls-22 {
        letter-spacing: 0em;
      }

      .cls-38 {
        font-size: 38px;
      }

      .cls-9 {
        letter-spacing: -.07em;
      }

      .cls-39 {
        letter-spacing: -.03em;
      }

      .cls-18 {
        stroke-width: 2.04px;
      }

      .cls-10 {
        letter-spacing: -.01em;
      }

      .cls-23 {
        letter-spacing: -.04em;
      }

      .cls-11 {
        letter-spacing: 0em;
      }

      .cls-24 {
        letter-spacing: 0em;
      }

      .cls-25 {
        letter-spacing: -.04em;
      }

      .cls-12 {
        letter-spacing: 0em;
      }

      .cls-13 {
        letter-spacing: -.04em;
      }

      .cls-14 {
        letter-spacing: -.04em;
      }
    </style>
  </defs>
  <g id="Layer_1-2" data-name="Layer 1">
    <g>
      <g>
        <rect class="cls-16" x="2.5" y="2.5" width="822" height="863" rx="64.42" ry="64.42"/>
        <path class="cls-28" d="m760.08,868H66.92c-36.9,0-66.92-30.02-66.92-66.92V66.92C0,30.02,30.02,0,66.92,0h693.16c36.9,0,66.92,30.02,66.92,66.92v734.16c0,36.9-30.02,66.92-66.92,66.92ZM66.92,5C32.78,5,5,32.78,5,66.92v734.16c0,34.14,27.78,61.92,61.92,61.92h693.16c34.14,0,61.92-27.78,61.92-61.92V66.92c0-34.14-27.78-61.92-61.92-61.92H66.92Z"/>
      </g>
      <g>
        <text class="cls-15" transform="translate(258.02 446.96)"><tspan x="0" y="0">BU</tspan><tspan class="cls-39" x="110.47" y="0">R</tspan><tspan x="164.41" y="0">GER</tspan></text>
        <g>
          <g>
            <g>
              <g>
                <path class="cls-27" d="m536.84,338.87c0-3.3-1.05-6.38-2.59-8.93,0,0,0,0,0,0,0-11.38-52.82-15.48-117.92-15.48s-117.81,4.1-117.81,15.48c0,0,0,0,0,0-1.54,2.55-2.44,5.63-2.44,8.93v11.14c0,3.36.94,6.48,2.53,9.06,2.07,11.07,53.95,15.76,117.73,15.76s116.06-4.67,117.92-15.77c1.56-2.57,2.59-5.72,2.59-9.04v-11.14Z"/>
                <path class="cls-34" d="m416.33,380.95c-33.66,0-62.27-1.3-82.74-3.77-26.16-3.15-38.19-7.76-40.7-15.74-1.93-3.45-2.94-7.38-2.94-11.43v-11.14c0-3.81.9-7.53,2.62-10.83,1.35-7.17,10.2-10.11,13.27-11.13,6.23-2.08,14.89-3.73,26.48-5.06,20.29-2.33,48.56-3.51,84.02-3.51s63.75,1.18,84.07,3.51c11.6,1.33,20.27,2.98,26.51,5.06,3.07,1.02,11.92,3.96,13.29,11.12,1.81,3.43,2.77,7.15,2.77,10.85v11.14c0,3.93-1.03,7.84-2.97,11.36-2.41,8.03-14.45,12.66-40.7,15.81-20.5,2.47-49.19,3.77-82.96,3.77Zm-111.81-23.51c.97.9,6.81,5.04,34.38,8.02,19.65,2.12,46.42,3.25,77.43,3.25s57.83-1.12,77.5-3.23c27.5-2.95,33.45-7.06,34.48-7.99l.1-.62.61-1.01c1.09-1.79,1.69-3.87,1.69-5.86v-11.14c0-2.43-.93-4.47-1.71-5.76l-.88-1.46v-.81c-1.45-1.16-7.98-4.8-34.42-7.39-19.45-1.9-45.48-2.87-77.37-2.87s-57.9.97-77.32,2.87c-26.41,2.59-32.92,6.22-34.37,7.39v.81l-.88,1.46c-1.02,1.69-1.56,3.69-1.56,5.76v11.14c0,2.11.56,4.13,1.61,5.85l.6.97.11.61Z"/>
              </g>
              <g>
                <path class="cls-27" d="m536.74,331.95c0-3.3-1.05-6.38-2.59-8.93,0,0,0,0,0,0,0-11.38-52.82-15.48-117.92-15.48s-117.81,4.1-117.81,15.48c0,0,0,0,0,0-1.54,2.55-2.44,5.63-2.44,8.93v11.14c0,3.36.94,6.48,2.53,9.06,2.07,11.07,53.95,15.76,117.73,15.76s116.06-4.67,117.92-15.77c1.56-2.57,2.59-5.72,2.59-9.04v-11.14Z"/>
                <path class="cls-34" d="m416.23,374.03c-33.66,0-62.27-1.3-82.74-3.77-26.16-3.15-38.19-7.76-40.7-15.74-1.93-3.45-2.94-7.38-2.94-11.43v-11.14c0-3.81.9-7.53,2.62-10.83,1.35-7.17,10.2-10.11,13.27-11.14,6.23-2.08,14.89-3.73,26.48-5.06,20.29-2.33,48.56-3.51,84.02-3.51s63.75,1.18,84.07,3.51c11.6,1.33,20.27,2.98,26.51,5.06,3.07,1.02,11.92,3.96,13.29,11.12,1.81,3.43,2.76,7.15,2.76,10.85v11.14c0,3.93-1.03,7.84-2.97,11.36-2.41,8.03-14.45,12.66-40.7,15.81-20.5,2.47-49.19,3.77-82.96,3.77Zm-111.81-23.51c.97.9,6.81,5.04,34.38,8.02,19.65,2.12,46.42,3.25,77.43,3.25s57.83-1.12,77.5-3.23c27.5-2.95,33.45-7.06,34.48-7.99l.1-.61.61-1.01c1.09-1.79,1.69-3.87,1.69-5.86v-11.14c0-2.43-.93-4.47-1.71-5.76l-.88-1.46v-.81c-1.45-1.16-7.98-4.8-34.42-7.39-19.45-1.9-45.48-2.87-77.37-2.87s-57.9.97-77.32,2.87c-26.41,2.59-32.92,6.22-34.37,7.39v.81l-.88,1.46c-1.02,1.69-1.56,3.69-1.56,5.76v11.14c0,2.11.56,4.13,1.62,5.85l.6.97.11.61Z"/>
              </g>
              <g>
                <path class="cls-27" d="m536.86,321.13c0-3.3-1.05-6.38-2.59-8.93,0,0,0,0,0,0,0-11.38-52.82-15.48-117.92-15.48s-117.81,4.1-117.81,15.48c0,0,0,0,0,0-1.54,2.55-2.44,5.63-2.44,8.93v11.14c0,3.36.94,6.48,2.53,9.06,2.07,11.07,53.95,15.76,117.73,15.76s116.06-4.67,117.92-15.77c1.56-2.57,2.59-5.72,2.59-9.04v-11.14Z"/>
                <path class="cls-34" d="m416.35,363.21c-33.66,0-62.27-1.3-82.74-3.77-26.16-3.15-38.19-7.76-40.7-15.74-1.93-3.45-2.94-7.38-2.94-11.43v-11.14c0-3.81.9-7.53,2.62-10.83,1.35-7.17,10.2-10.11,13.27-11.13,6.23-2.08,14.89-3.73,26.48-5.06,20.29-2.33,48.56-3.51,84.02-3.51s63.75,1.18,84.07,3.51c11.6,1.33,20.27,2.98,26.51,5.06,3.07,1.02,11.92,3.96,13.29,11.12,1.81,3.43,2.77,7.15,2.77,10.85v11.14c0,3.93-1.03,7.84-2.97,11.36-2.41,8.03-14.45,12.66-40.7,15.81-20.5,2.47-49.19,3.77-82.96,3.77Zm-111.81-23.51c.97.9,6.81,5.04,34.38,8.02,19.65,2.12,46.42,3.25,77.43,3.25s57.83-1.12,77.5-3.23c27.5-2.95,33.45-7.06,34.48-7.99l.1-.62.61-1.01c1.09-1.79,1.69-3.87,1.69-5.86v-11.14c0-2.43-.93-4.47-1.71-5.76l-.88-1.46v-.81c-1.45-1.16-7.98-4.8-34.42-7.39-19.45-1.9-45.48-2.87-77.37-2.87s-57.9.97-77.32,2.87c-26.41,2.59-32.92,6.22-34.37,7.39v.81l-.88,1.46c-1.02,1.69-1.56,3.69-1.56,5.76v11.14c0,2.11.56,4.13,1.62,5.85l.6.97.11.61Z"/>
              </g>
            </g>
            <g>
              <path class="cls-27" d="m392.78,341.72c1.15.66,1.29,2.56.32,4.25s-2.69,2.51-3.84,1.85-2.72-3.39-1.75-5.07,4.12-1.69,5.26-1.02Z"/>
              <path class="cls-34" d="m390.14,348.75c-.44,0-.86-.11-1.24-.32-1.41-.81-3.22-3.92-2-6.04.55-.94,1.64-1.56,3.09-1.74,1.18-.14,2.41.04,3.14.46,1.51.87,1.76,3.16.58,5.21-.54.94-1.31,1.68-2.16,2.09-.47.23-.95.34-1.41.34Zm.66-6.73c-.21,0-.42.01-.64.04-.98.12-1.73.5-2.04,1.04-.73,1.26.58,3.58,1.49,4.1.47.27,1.03.07,1.32-.07.59-.28,1.15-.84,1.55-1.52.76-1.32.74-2.82-.06-3.28-.3-.18-.91-.32-1.62-.32Z"/>
            </g>
            <g>
              <path class="cls-27" d="m329.76,308.9c-1.52-.88.43-1.7,1.4-3.37s.78-.88,2.3,0,3.67,1.34,2.7,3.02-4.88,1.23-6.4.35Z"/>
              <path class="cls-34" d="m333.19,310.49c-1.45,0-2.95-.37-3.83-.88h0c-.21-.12-.85-.49-.95-1.21-.11-.77.44-1.36,1.02-1.99.35-.38.75-.8,1.03-1.29.44-.76.77-1.26,1.34-1.37.53-.1.91.21,1.24.48.2.17.46.38.83.59.29.17.62.33.94.48.99.48,2.02.97,2.32,1.94.17.53.07,1.11-.27,1.71-.64,1.11-2.13,1.53-3.68,1.53Zm-3.11-2.35s.06.04.09.06h0c1.34.77,4.67,1.02,5.29-.06.11-.18.15-.33.13-.41-.09-.29-.89-.68-1.47-.96-.35-.17-.71-.34-1.05-.54-.43-.25-.74-.49-.96-.67-.06.09-.13.22-.23.38-.37.64-.86,1.17-1.25,1.58-.19.2-.42.45-.54.62Z"/>
            </g>
            <g>
              <path class="cls-27" d="m463.45,299.69c1.76,0,3.18,2.14,3.18,4.77s-1.42,4.77-3.18,4.77-5.36-2.14-5.36-4.77,3.61-4.77,5.36-4.77Z"/>
              <path class="cls-34" d="m463.45,310.18c-2.16,0-6.31-2.41-6.31-5.72s4.15-5.72,6.31-5.72c2.31,0,4.13,2.51,4.13,5.72,0,3.21-1.81,5.72-4.13,5.72Zm0-9.54c-1.38,0-4.42,1.85-4.42,3.82s3.04,3.82,4.42,3.82c1.19,0,2.23-1.79,2.23-3.82,0-2.04-1.04-3.82-2.23-3.82Z"/>
            </g>
            <g>
              <path class="cls-27" d="m366.25,318.26c1.31-1.16,3.18-1.2,4.17-.08s.73,2.97-.58,4.13-4.82,2.65-5.81,1.53.91-4.42,2.22-5.58Z"/>
              <path class="cls-34" d="m365.17,324.95c-.73,0-1.3-.21-1.68-.64-1.47-1.66.96-5.42,2.28-6.59h0c1.61-1.42,3.93-1.43,5.18-.02,1.25,1.41.96,3.72-.65,5.14-.75.66-2.07,1.37-3.28,1.77-.7.23-1.33.34-1.86.34Zm1.55-6.16h0c-1.33,1.18-2.67,4-2.16,4.58.18.2.89.25,2.03-.12,1.03-.33,2.17-.94,2.77-1.48,1.02-.9,1.25-2.3.52-3.13-.73-.82-2.15-.76-3.17.14Z"/>
            </g>
            <g>
              <path class="cls-27" d="m509.07,313.21c1.44.83,1.74,2.98.69,4.81s-3.08,2.64-4.51,1.81-3.53-4.01-2.48-5.84,4.86-1.61,6.3-.78Z"/>
              <path class="cls-34" d="m506.48,320.98c-.59,0-1.15-.15-1.65-.44-1.75-1.01-4.12-4.64-2.78-6.97,1.34-2.32,5.68-2.09,7.42-1.08.92.53,1.52,1.46,1.68,2.63.16,1.09-.09,2.27-.69,3.31s-1.5,1.84-2.52,2.25c-.49.2-.99.3-1.46.3Zm-.3-7.56c-1.15,0-2.3.28-2.7.98-.75,1.29,1.02,4.05,2.17,4.72.47.27,1.07.29,1.68.04.68-.27,1.29-.82,1.71-1.55s.59-1.52.49-2.25c-.09-.65-.4-1.16-.87-1.43-.53-.31-1.5-.5-2.47-.5Z"/>
            </g>
            <g>
              <path class="cls-27" d="m525.78,335.19c-1.31-1.16-3.35-1.02-4.54.33s-1.1,3.39.21,4.55,4.98,2.46,6.18,1.12-.54-4.84-1.85-6Z"/>
              <path class="cls-34" d="m525.99,342.55c-.48,0-1.01-.07-1.59-.21-1.32-.33-2.69-.98-3.47-1.68-1.64-1.45-1.76-3.99-.28-5.66.71-.81,1.69-1.29,2.76-1.37,1.07-.08,2.1.27,2.89.97h0c.78.69,1.6,1.96,2.08,3.24.63,1.67.57,3.04-.16,3.87-.49.55-1.26.84-2.23.84Zm-2.28-7.36c-.06,0-.12,0-.18,0-.65.05-1.26.35-1.7.85-.91,1.02-.84,2.57.15,3.44.59.52,1.74,1.07,2.8,1.33,1.09.27,1.96.21,2.27-.14.31-.35.26-1.23-.13-2.27-.39-1.02-1.07-2.1-1.65-2.62h0c-.43-.38-.98-.59-1.56-.59Z"/>
            </g>
            <g>
              <path class="cls-27" d="m430.07,325.15c-1.52.88-1.97,2.95-1,4.63s2.99,2.32,4.51,1.45,3.86-4.04,2.89-5.72-4.88-1.23-6.4-.35Z"/>
              <path class="cls-34" d="m432.11,332.43c-.41,0-.83-.07-1.24-.2-1.04-.34-1.93-1.06-2.5-2.05-.57-.99-.76-2.12-.52-3.19.24-1.1.88-2,1.82-2.54h0c1.83-1.06,6.26-1.51,7.51.65.58,1.01.4,2.42-.52,3.98-.71,1.2-1.76,2.32-2.67,2.85-.58.33-1.22.5-1.88.5Zm-1.63-6.57c-.53.31-.91.83-1.05,1.48-.15.68-.02,1.4.34,2.03.37.64.93,1.1,1.59,1.31.63.2,1.27.14,1.81-.16.55-.32,1.43-1.16,2.09-2.27.59-1,.78-1.87.51-2.34-.62-1.07-3.95-.83-5.29-.06h0Z"/>
            </g>
            <g>
              <path class="cls-27" d="m482.41,347.87c1.76,0,3.18-2.14,3.18-4.77s-1.42-4.77-3.18-4.77-5.36,2.14-5.36,4.77,3.61,4.77,5.36,4.77Z"/>
              <path class="cls-34" d="m482.41,348.82c-2.16,0-6.31-2.41-6.31-5.72s4.15-5.72,6.31-5.72c2.31,0,4.13,2.51,4.13,5.72s-1.81,5.72-4.13,5.72Zm0-9.54c-1.38,0-4.42,1.85-4.42,3.82s3.04,3.82,4.42,3.82c1.19,0,2.23-1.79,2.23-3.82s-1.04-3.82-2.23-3.82Z"/>
            </g>
            <g>
              <path class="cls-27" d="m324.07,342.22c1.31,1.16,3.35,1.02,4.54-.33s1.1-3.39-.21-4.55-4.98-2.46-6.18-1.12.54,4.84,1.85,6Z"/>
              <path class="cls-34" d="m326.14,343.79c-.93,0-1.86-.32-2.6-.98h0c-.78-.69-1.6-1.96-2.08-3.24-.63-1.67-.57-3.04.16-3.87.73-.83,2.09-1.05,3.82-.63,1.32.33,2.69.98,3.47,1.68,1.64,1.45,1.76,3.99.28,5.66-.81.91-1.93,1.38-3.05,1.38Zm-2.3-7.36c-.49,0-.86.1-1.04.31-.31.35-.26,1.23.13,2.27.39,1.02,1.07,2.1,1.65,2.62h0c.99.88,2.53.76,3.44-.27.91-1.02.84-2.57-.15-3.44-.59-.52-1.74-1.07-2.8-1.33-.46-.11-.88-.17-1.23-.17Z"/>
            </g>
            <g>
              <path class="cls-27" d="m407.7,307.42c1.52-.88,1.97-2.95,1-4.63s-2.99-2.32-4.51-1.45-3.86,4.04-2.89,5.72,4.88,1.23,6.4.35Z"/>
              <path class="cls-34" d="m404.22,309.01c-1.77,0-3.05-.55-3.63-1.54-.58-1.01-.4-2.42.52-3.98.71-1.2,1.76-2.32,2.67-2.85,1.91-1.1,4.42-.32,5.62,1.74.57.99.76,2.12.52,3.19-.24,1.1-.88,2-1.82,2.54h0c-.91.53-2.41.88-3.81.89-.03,0-.05,0-.08,0Zm1.45-7.24c-.37,0-.74.09-1.07.28-.55.32-1.43,1.16-2.09,2.27-.59,1-.78,1.87-.51,2.34.27.47,1.12.74,2.28.73,1.29-.01,2.46-.36,3.01-.67.53-.31.91-.83,1.05-1.48.15-.68.02-1.4-.34-2.03-.52-.91-1.44-1.43-2.33-1.43Z"/>
            </g>
          </g>
          <g>
            <g>
              <g>
                <path class="cls-37" d="m534.49,301.61c0-3.3-1.05-6.38-2.59-8.93,0,0,0,0,0,0,0-11.38-52.82-15.48-117.92-15.48s-117.81,4.1-117.81,15.48c0,0,0,0,0,0-1.54,2.55-2.44,5.63-2.44,8.93v11.14c0,3.36.94,6.48,2.53,9.06,2.07,11.07,53.95,15.76,117.73,15.76s116.06-4.67,117.92-15.77c1.56-2.57,2.59-5.72,2.59-9.04v-11.14Z"/>
                <path class="cls-35" d="m413.99,343.69c-33.66,0-62.27-1.3-82.74-3.77-26.16-3.15-38.19-7.76-40.7-15.74-1.93-3.45-2.94-7.38-2.94-11.43v-11.14c0-3.81.9-7.53,2.62-10.83,1.35-7.17,10.2-10.11,13.27-11.14,6.23-2.08,14.89-3.73,26.48-5.06,20.29-2.33,48.56-3.51,84.02-3.51s63.75,1.18,84.07,3.51c11.6,1.33,20.27,2.98,26.51,5.06,3.07,1.02,11.92,3.96,13.29,11.12,1.81,3.43,2.77,7.15,2.77,10.85v11.14c0,3.93-1.03,7.84-2.97,11.36-2.41,8.03-14.45,12.66-40.7,15.81-20.5,2.47-49.19,3.77-82.96,3.77Zm-111.81-23.51c.97.9,6.81,5.04,34.38,8.02,19.65,2.12,46.42,3.25,77.43,3.25s57.83-1.12,77.5-3.23c27.5-2.95,33.45-7.06,34.48-7.99l.1-.62.61-1.01c1.09-1.79,1.69-3.87,1.69-5.86v-11.14c0-2.43-.93-4.47-1.71-5.76l-.88-1.46v-.81c-1.45-1.16-7.98-4.8-34.42-7.39-19.45-1.9-45.48-2.87-77.37-2.87s-57.9.97-77.32,2.87c-26.41,2.59-32.92,6.22-34.37,7.39v.81l-.88,1.46c-1.02,1.69-1.56,3.69-1.56,5.76v11.14c0,2.11.56,4.13,1.62,5.85l.6.97.11.61Z"/>
              </g>
              <g>
                <path class="cls-35" d="m311.88,292.73c1.31-1.16,2.93-1.48,3.62-.71s.18,2.34-1.14,3.51-4.57,2.93-5.26,2.16,1.46-3.79,2.77-4.96Z"/>
                <path class="cls-35" d="m309.66,298.47c-.43,0-.76-.13-.99-.39-.51-.58-.33-1.57.58-3.04.62-1.01,1.53-2.12,2.25-2.76.71-.63,1.54-1.07,2.33-1.22.9-.18,1.66.02,2.13.56.48.54.58,1.31.3,2.18-.25.76-.78,1.53-1.49,2.16-.72.64-1.93,1.4-3.01,1.9-.86.4-1.56.6-2.09.6Zm-.09-1.19c.59.15,3.06-1,4.4-2.2.55-.49.97-1.08,1.15-1.64.15-.45.12-.82-.06-1.03-.18-.21-.55-.27-1.02-.18-.57.11-1.22.46-1.77.94h0c-1.35,1.19-2.78,3.5-2.71,4.11Z"/>
              </g>
              <g>
                <path class="cls-35" d="m422.76,325.06c1.15.66,1.29,2.56.32,4.25s-2.69,2.51-3.84,1.85-2.72-3.39-1.75-5.07,4.12-1.69,5.26-1.02Z"/>
                <path class="cls-35" d="m420.12,332.09c-.44,0-.86-.11-1.24-.32-1.41-.81-3.22-3.92-2-6.04.55-.94,1.64-1.56,3.09-1.74,1.18-.14,2.41.04,3.14.46,1.51.87,1.76,3.16.58,5.21-.54.94-1.31,1.68-2.16,2.09-.47.23-.95.34-1.41.34Zm.66-6.73c-.21,0-.42.01-.64.04-.98.12-1.73.5-2.04,1.04-.73,1.26.58,3.58,1.49,4.1.47.27,1.03.07,1.32-.07.59-.28,1.15-.84,1.55-1.52.76-1.32.74-2.82-.06-3.28-.3-.18-.91-.32-1.62-.32Z"/>
              </g>
              <g>
                <path class="cls-35" d="m318.53,309.8c1.76,0,3.18.43,3.18.95s-1.42.95-3.18.95-5.36-.43-5.36-.95,3.61-.95,5.36-.95Z"/>
                <path class="cls-35" d="m318.53,312.13c-.93,0-2.3-.11-3.4-.28-1.98-.31-2.38-.64-2.38-1.09s.4-.79,2.38-1.09c1.1-.17,2.47-.28,3.4-.28,1.34,0,3.6.29,3.6,1.38s-2.26,1.38-3.6,1.38Zm-4.56-1.38c.95.27,3.07.53,4.56.53,1.58,0,2.5-.34,2.72-.53-.22-.19-1.14-.53-2.72-.53-1.49,0-3.61.26-4.56.53Z"/>
              </g>
              <g>
                <path class="cls-35" d="m406.86,290.25c-1.31,1.16-3.35,1.02-4.54-.33s-1.1-3.39.21-4.55,4.98-2.46,6.18-1.12-.54,4.84-1.85,6Z"/>
                <path class="cls-35" d="m404.79,291.81c-.1,0-.2,0-.3-.01-1.06-.08-2.04-.56-2.76-1.37-1.48-1.67-1.35-4.21.28-5.66,1.41-1.25,5.62-2.93,7.29-1.05,1.67,1.88-.51,5.86-1.92,7.11h0c-.72.64-1.63.98-2.59.98Zm2.31-7.36c-1.23,0-3.12.68-4.05,1.5-.99.88-1.05,2.42-.15,3.44.44.5,1.04.8,1.7.85.64.05,1.26-.16,1.74-.58h0c1.27-1.13,2.49-4.09,1.78-4.89-.19-.22-.56-.31-1.03-.31Z"/>
              </g>
              <g>
                <path class="cls-35" d="m360.03,283.33c-1.52-.88-1.97-2.95-1-4.63s2.99-2.32,4.51-1.45,3.86,4.04,2.89,5.72-4.88,1.23-6.4.35Z"/>
                <path class="cls-35" d="m363.45,284.91c-1.45,0-2.95-.37-3.83-.88h0c-.94-.54-1.58-1.44-1.82-2.54-.23-1.07-.05-2.2.52-3.19.57-.99,1.46-1.71,2.5-2.05,1.07-.34,2.18-.24,3.11.3,1.83,1.06,4.44,4.67,3.19,6.83-.64,1.11-2.13,1.53-3.68,1.53Zm-1.4-7.24c-.24,0-.49.04-.74.12-.66.21-1.22.68-1.59,1.31-.37.64-.49,1.36-.34,2.03.14.65.51,1.17,1.05,1.48h0c1.34.77,4.67,1.02,5.29-.06.62-1.07-1.26-3.84-2.6-4.61-.33-.19-.69-.28-1.07-.28Z"/>
              </g>
              <g>
                <path class="cls-35" d="m446,292.23c1.76,0,3.18,2.14,3.18,4.77s-1.42,4.77-3.18,4.77-5.36-2.14-5.36-4.77,3.61-4.77,5.36-4.77Z"/>
                <path class="cls-35" d="m446,302.72c-2.16,0-6.31-2.41-6.31-5.72s4.15-5.72,6.31-5.72c2.31,0,4.13,2.51,4.13,5.72s-1.81,5.72-4.13,5.72Zm0-9.54c-1.38,0-4.42,1.85-4.42,3.82s3.04,3.82,4.42,3.82c1.19,0,2.23-1.79,2.23-3.82s-1.04-3.82-2.23-3.82Z"/>
              </g>
              <g>
                <path class="cls-35" d="m468.39,278.03c1.31-1.16,3.18-1.2,4.17-.08s.73,2.97-.58,4.13-4.82,2.65-5.81,1.53.91-4.42,2.22-5.58Z"/>
                <path class="cls-35" d="m467.32,284.72c-.68,0-1.28-.18-1.69-.64-1.47-1.66.96-5.42,2.28-6.59h0c1.61-1.42,3.93-1.43,5.18-.02,1.25,1.41.96,3.72-.65,5.14-.96.85-3.33,2.11-5.13,2.11Zm1.54-6.16h0c-1.33,1.18-2.67,4-2.16,4.58.51.57,3.47-.41,4.8-1.59,1.02-.9,1.25-2.3.52-3.13s-2.15-.76-3.17.14Z"/>
              </g>
              <g>
                <path class="cls-35" d="m507.72,285.12c1.52.88,2.15,2.64,1.4,3.93s-2.59,1.63-4.11.76-4.04-3.73-3.29-5.03,4.48-.54,6,.34Z"/>
                <path class="cls-35" d="m506.78,291.01c-.71,0-1.44-.19-2.13-.58-.87-.5-1.96-1.53-2.71-2.55-1.04-1.41-1.33-2.6-.84-3.45s1.67-1.19,3.41-1c1.27.14,2.7.57,3.57,1.07,1.86,1.07,2.6,3.28,1.66,4.91-.6,1.04-1.73,1.6-2.96,1.6Zm-3.16-6.21c-.74,0-1.18.16-1.28.34-.14.24.04.93.75,1.89.64.87,1.58,1.76,2.28,2.16,1.18.68,2.58.46,3.13-.49.55-.95.04-2.28-1.14-2.96h0c-.7-.41-1.94-.77-3.01-.89-.27-.03-.51-.04-.73-.04Z"/>
              </g>
              <g>
                <path class="cls-35" d="m483.08,321.12c1.76,0,3.18.78,3.18,1.75s-1.42,1.75-3.18,1.75-5.36-.78-5.36-1.75,3.61-1.75,5.36-1.75Z"/>
                <path class="cls-35" d="m483.08,325.18c-1.21,0-5.94-.61-5.94-2.32s4.73-2.32,5.94-2.32c2.1,0,3.75,1.02,3.75,2.32s-1.65,2.32-3.75,2.32Zm-4.76-2.32c.44.47,3.01,1.17,4.76,1.17,1.47,0,2.61-.63,2.61-1.17s-1.14-1.17-2.61-1.17c-1.75,0-4.32.7-4.76,1.17Z"/>
              </g>
              <g>
                <path class="cls-35" d="m446.41,321.52c1.31,1.16,2.93,1.48,3.62.71s.18-2.34-1.14-3.51-4.57-2.93-5.26-2.16,1.46,3.79,2.77,4.96Z"/>
                <path class="cls-35" d="m448.94,323.24c-.91,0-1.99-.44-2.93-1.28-.91-.8-4.03-4.43-2.82-5.8.51-.58,1.52-.51,3.08.21,1.08.5,2.29,1.26,3.01,1.9.71.63,1.24,1.4,1.49,2.16.28.87.18,1.65-.3,2.18-.37.42-.91.62-1.53.62Zm-4.85-6.27c-.07.61,1.37,2.92,2.71,4.11,1.11.98,2.38,1.21,2.78.76.18-.21.21-.58.06-1.03-.18-.56-.6-1.15-1.15-1.64-1.35-1.19-3.81-2.34-4.4-2.2Z"/>
              </g>
              <g>
                <path class="cls-35" d="m398.43,311.34c1.76,0,3.18-.74,3.18-1.66s-1.42-1.66-3.18-1.66-5.36.74-5.36,1.66,3.61,1.66,5.36,1.66Z"/>
                <path class="cls-35" d="m398.43,311.9c-.74,0-5.92-.44-5.92-2.22s5.19-2.22,5.92-2.22c2.13,0,3.74.96,3.74,2.22s-1.61,2.22-3.74,2.22Zm-4.76-2.22c.49.45,2.99,1.1,4.76,1.1,1.6,0,2.62-.65,2.62-1.1s-1.02-1.1-2.62-1.1c-1.77,0-4.27.65-4.76,1.1Z"/>
              </g>
              <g>
                <path class="cls-35" d="m506.89,324c-1.31-1.16-3.35-1.02-4.54.33s-1.1,3.39.21,4.55,4.98,2.46,6.18,1.12-.54-4.84-1.85-6Z"/>
                <path class="cls-35" d="m507.1,331.36c-1.87,0-4.11-1.05-5.06-1.89-1.64-1.45-1.76-3.99-.28-5.66.71-.81,1.69-1.29,2.76-1.37,1.07-.08,2.1.27,2.89.97h0c.78.69,1.6,1.96,2.08,3.24.63,1.67.57,3.04-.16,3.87-.54.61-1.34.84-2.22.84Zm-2.29-7.36c-.06,0-.12,0-.18,0-.65.05-1.26.35-1.7.85-.91,1.02-.84,2.57.15,3.44,1.27,1.13,4.36,1.98,5.07,1.18.31-.35.26-1.23-.13-2.27-.39-1.02-1.07-2.1-1.65-2.62h0c-.43-.38-.98-.59-1.56-.59Z"/>
              </g>
              <g>
                <path class="cls-35" d="m460.05,330.91c-1.52.88-1.97,2.95-1,4.63s2.99,2.32,4.51,1.45,3.86-4.04,2.89-5.72-4.88-1.23-6.4-.35Z"/>
                <path class="cls-35" d="m462.09,338.19c-.41,0-.83-.07-1.24-.2-1.04-.33-1.93-1.06-2.5-2.05-.57-.99-.76-2.12-.52-3.19.24-1.1.88-2,1.82-2.54,1.83-1.06,6.26-1.51,7.51.65,1.25,2.16-1.36,5.77-3.19,6.83-.58.33-1.22.5-1.88.5Zm1.45-7.24c-1.12,0-2.37.26-3.08.67h0c-.53.31-.91.83-1.05,1.48-.15.68-.02,1.4.34,2.03s.93,1.1,1.59,1.31c.63.2,1.27.14,1.81-.16,1.34-.77,3.22-3.54,2.6-4.61-.29-.51-1.2-.72-2.21-.72Z"/>
              </g>
              <g>
                <path class="cls-35" d="m498.3,308.5c1.76,0,3.18-2.14,3.18-4.77s-1.42-4.77-3.18-4.77-5.36,2.14-5.36,4.77,3.61,4.77,5.36,4.77Z"/>
                <path class="cls-35" d="m498.3,309.45c-2.16,0-6.31-2.41-6.31-5.72s4.15-5.72,6.31-5.72c2.31,0,4.13,2.51,4.13,5.72s-1.81,5.72-4.13,5.72Zm0-9.54c-1.38,0-4.42,1.85-4.42,3.82s3.04,3.82,4.42,3.82c1.19,0,2.23-1.79,2.23-3.82s-1.04-3.82-2.23-3.82Z"/>
              </g>
              <g>
                <path class="cls-35" d="m333.06,307.74c1.31,1.16,3.35,1.02,4.54-.33s1.1-3.39-.21-4.55-4.98-2.46-6.18-1.12.54,4.84,1.85,6Z"/>
                <path class="cls-35" d="m335.13,309.31c-.96,0-1.87-.34-2.59-.98h0c-1.41-1.25-3.59-5.22-1.92-7.11,1.67-1.88,5.88-.2,7.28,1.05,1.64,1.45,1.76,3.99.28,5.66-.71.81-1.69,1.29-2.76,1.37-.1,0-.2.01-.3.01Zm-2.31-7.36c-.46,0-.83.1-1.03.31-.71.8.51,3.77,1.78,4.89h0c.48.42,1.09.63,1.74.58.65-.05,1.26-.35,1.7-.85.91-1.02.84-2.57-.15-3.44-.92-.82-2.81-1.5-4.05-1.5Z"/>
              </g>
              <g>
                <path class="cls-35" d="m379.89,300.82c1.52-.88,1.97-2.95,1-4.63s-2.99-2.32-4.51-1.45-3.86,4.04-2.89,5.72,4.88,1.23,6.4.35Z"/>
                <path class="cls-35" d="m376.47,302.41c-1.54,0-3.03-.42-3.68-1.53-1.25-2.16,1.36-5.77,3.19-6.83.94-.54,2.04-.65,3.11-.3,1.04.33,1.93,1.06,2.5,2.05,1.19,2.06.61,4.63-1.3,5.73h0c-.89.51-2.38.88-3.83.88Zm1.4-7.24c-.38,0-.74.1-1.07.28-1.34.77-3.22,3.54-2.6,4.61.62,1.07,3.95.83,5.29.06,1.13-.65,1.45-2.23.7-3.52-.37-.64-.93-1.1-1.59-1.31-.25-.08-.49-.12-.74-.12Z"/>
              </g>
              <g>
                <path class="cls-35" d="m368.09,325.25c-1.76,0-3.18,2.14-3.18,4.77s1.42,4.77,3.18,4.77,5.36-2.14,5.36-4.77-3.61-4.77-5.36-4.77Z"/>
                <path class="cls-35" d="m368.09,335.74c-2.31,0-4.13-2.51-4.13-5.72s1.81-5.72,4.13-5.72c2.16,0,6.31,2.41,6.31,5.72s-4.15,5.72-6.31,5.72Zm0-9.54c-1.19,0-2.23,1.79-2.23,3.82s1.04,3.82,2.23,3.82c1.38,0,4.42-1.85,4.42-3.82s-3.04-3.82-4.42-3.82Z"/>
              </g>
            </g>
            <g>
              <g>
                <path class="cls-37" d="m534.54,292.83c0-1.2-1.05-2.31-2.59-3.24,0,0,0,0,0,0,0-4.12-52.93-12.48-118.03-12.48s-117.71,8.36-117.71,12.48c0,0,0,0,0,0-1.54.93-2.44,2.04-2.44,3.24v4.04c0,1.22.94,2.35,2.53,3.28,2.07,4.01,51.83,11.46,115.61,11.46s118.18-7.44,120.04-11.46c1.56-.93,2.59-2.07,2.59-3.28v-4.04Z"/>
                <path class="cls-35" d="m411.91,315.29c-28.5,0-57.4-1.51-81.37-4.25-28.71-3.28-34.99-6.26-36.8-8.15-3.16-2.14-3.66-4.66-3.66-6.03v-4.04c0-1.29.44-3.63,3.18-5.69,1.5-2.18,5.31-3.45,11.36-4.83,6.33-1.45,15.17-2.89,25.58-4.16,14.41-1.76,44.45-4.72,83.71-4.72s69.41,2.96,83.87,4.72c10.45,1.27,19.33,2.71,25.69,4.16,6.06,1.38,9.88,2.65,11.4,4.81,2.73,2,3.34,4.17,3.34,5.71v4.04c0,1.34-.5,3.84-3.71,6.01-1.41,1.54-4.46,2.78-12.4,4.36-6.69,1.33-15.86,2.64-26.52,3.8-14.62,1.59-44.93,4.25-83.69,4.25Zm-112.65-17.44c5.89,3.08,50.33,10.07,112.65,10.07s110.38-6.82,117.04-10.07l.14-.3.98-.58c.41-.24.65-.44.78-.57v-3.08c-.14-.13-.39-.33-.8-.57l-1.79-1.07v-.37c-3.48-1.41-14.82-3.99-35.5-6.33-23.83-2.7-51.83-4.18-78.84-4.18s-54.95,1.48-78.68,4.18c-20.58,2.34-31.87,4.92-35.34,6.33v.38l-1.79,1.07c-.34.2-.54.37-.65.48v3.23c.12.11.34.29.71.51l.92.54.18.34Z"/>
              </g>
              <g>
                <path class="cls-35" d="m311.93,289.61c1.31-.42,2.93-.54,3.62-.26s.18.85-1.14,1.27-4.57,1.06-5.26.78,1.46-1.37,2.77-1.8Z"/>
                <path class="cls-35" d="m309.73,291.83c-.3,0-.55-.03-.71-.09-.23-.09-.36-.28-.35-.5.04-.91,3.12-1.96,3.15-1.97,1.4-.45,3.1-.56,3.86-.25.47.19.53.51.53.67-.02.61-.93,1.02-1.69,1.27-.87.28-3.41.87-4.79.87Zm-.15-.71c.93.04,3.4-.41,4.72-.84.73-.23,1.05-.46,1.16-.58-.01,0-.03-.01-.05-.02-.54-.22-2.03-.17-3.38.27h0c-.95.3-2,.83-2.46,1.17Z"/>
              </g>
              <g>
                <path class="cls-35" d="m422.8,301.32c1.15.24,1.29.93.32,1.54s-2.69.91-3.84.67-2.72-1.23-1.75-1.84,4.12-.61,5.26-.37Z"/>
                <path class="cls-35" d="m420.17,304.04c-.34,0-.68-.03-.97-.09-.87-.18-2.23-.83-2.37-1.66-.04-.22-.03-.63.49-.96,1.17-.73,4.49-.65,5.58-.43h0c1,.21,1.24.71,1.29.98.05.27,0,.81-.83,1.33-.81.51-2.07.82-3.18.82Zm.68-2.44c-1.23,0-2.59.14-3.09.46-.09.06-.11.09-.11.09.01.2.81.78,1.71.97,1.03.22,2.65-.06,3.52-.61.39-.24.45-.43.45-.46,0-.04-.14-.2-.62-.3-.44-.09-1.13-.14-1.86-.14Z"/>
              </g>
              <g>
                <path class="cls-35" d="m318.57,295.8c1.76,0,3.18.15,3.18.35s-1.42.35-3.18.35-5.36-.15-5.36-.35,3.61-.35,5.36-.35Z"/>
                <path class="cls-35" d="m318.57,296.74c-.92,0-2.26-.04-3.35-.1-2.26-.13-2.26-.24-2.26-.5s0-.37,2.26-.5c1.09-.06,2.44-.1,3.35-.1,3.43,0,3.43.41,3.43.6s0,.6-3.43.6Zm-3.12-.6c1.02.05,2.22.09,3.12.09s1.61-.04,2.13-.09c-.52-.05-1.25-.09-2.13-.09s-2.1.04-3.12.09Z"/>
              </g>
              <g>
                <path class="cls-35" d="m406.91,288.71c-1.31.42-3.35.37-4.54-.12s-1.1-1.23.21-1.65,4.98-.89,6.18-.4-.54,1.75-1.85,2.17Z"/>
                <path class="cls-35" d="m404.83,289.47c-.96,0-1.93-.15-2.64-.44-.96-.39-1.14-.9-1.13-1.27.01-.38.27-.91,1.38-1.27,1.2-.39,5.1-.96,6.5-.39.62.26.7.69.69.93-.04,1-1.75,1.87-2.58,2.13-.64.21-1.43.31-2.23.31Zm2.31-2.67c-1.45,0-3.45.28-4.42.59-.64.2-.72.41-.73.41.01.03.14.18.54.35,1.09.44,3.02.49,4.22.11h0c1.01-.32,1.81-.97,1.91-1.24-.02-.01-.05-.03-.1-.05-.3-.12-.82-.17-1.44-.17Z"/>
              </g>
              <g>
                <path class="cls-35" d="m360.07,286.2c-1.52-.32-1.97-1.07-1-1.68s2.99-.84,4.51-.52,3.86,1.46,2.89,2.07-4.88.45-6.4.13Z"/>
                <path class="cls-35" d="m363.55,286.98c-1.39,0-2.84-.14-3.58-.29-1.11-.23-1.78-.69-1.88-1.31-.05-.27-.02-.8.72-1.26,1.08-.68,3.21-.93,4.87-.59,1.02.21,3.31,1.03,3.5,2.07.03.17.05.59-.44.89-.57.36-1.85.49-3.18.49Zm-1.44-2.62c-1.08,0-2.18.22-2.77.59-.22.14-.28.24-.28.27.01.05.25.33,1.12.52h0c1.52.32,5.11.42,5.98-.03-.29-.33-1.5-.96-2.68-1.21-.42-.09-.9-.13-1.37-.13Z"/>
              </g>
              <g>
                <path class="cls-35" d="m446.04,289.43c1.76,0,3.18.77,3.18,1.73s-1.42,1.73-3.18,1.73-5.36-.77-5.36-1.73,3.61-1.73,5.36-1.73Z"/>
                <path class="cls-35" d="m446.04,293.46c-.74,0-5.93-.46-5.93-2.3s5.2-2.3,5.93-2.3c2.14,0,3.75.99,3.75,2.3s-1.61,2.3-3.75,2.3Zm-4.76-2.3c.44.47,2.96,1.16,4.76,1.16,1.59,0,2.61-.69,2.61-1.16s-1.02-1.16-2.61-1.16c-1.8,0-4.31.69-4.76,1.16Z"/>
              </g>
              <g>
                <path class="cls-35" d="m468.43,284.28c1.31-.42,3.18-.44,4.17-.03s.73,1.08-.58,1.5-4.82.96-5.81.56.91-1.6,2.22-2.02Z"/>
                <path class="cls-35" d="m467.38,286.88c-.55,0-1.02-.05-1.33-.18-.51-.21-.55-.59-.54-.74.04-1,2.21-1.9,2.79-2.09h0c1.42-.46,3.38-.46,4.47-.02.78.32.88.78.87,1.02-.01.37-.28.9-1.48,1.28-.92.29-3.19.72-4.78.72Zm-.96-.96c.88.31,4.11-.14,5.47-.58.66-.21.86-.44.89-.5h0s-.08-.09-.33-.19c-.89-.37-2.67-.35-3.88.04h0c-.97.31-1.91.92-2.15,1.23Z"/>
              </g>
              <g>
                <path class="cls-35" d="m507.76,286.85c1.52.32,2.15.96,1.4,1.43s-2.59.59-4.11.27-4.04-1.35-3.29-1.82,4.48-.2,6,.12Z"/>
                <path class="cls-35" d="m506.82,289.16c-.61,0-1.25-.06-1.85-.19-.04,0-3.56-.83-3.76-1.93-.05-.26.07-.52.33-.67.98-.62,5.08-.19,6.32.07h0c.7.15,1.91.51,2.04,1.28.04.21.02.6-.5.93-.53.33-1.51.52-2.57.52Zm-4.6-2.15c.49.34,1.8.88,2.93,1.12,1.54.32,3.21.15,3.79-.22.05-.03.08-.06.1-.08-.08-.1-.43-.37-1.36-.56-1.54-.32-4.51-.48-5.46-.26Z"/>
              </g>
              <g>
                <path class="cls-35" d="m483.13,299.89c1.76,0,3.18.28,3.18.63s-1.42.63-3.18.63-5.36-.28-5.36-.63,3.61-.63,5.36-.63Z"/>
                <path class="cls-35" d="m483.13,301.5c-.23,0-5.71-.01-5.71-.98s5.48-.98,5.71-.98c1.06,0,3.52.1,3.52.98s-2.46.98-3.52.98Zm-4.17-.98c1.09.15,2.86.29,4.17.29s2.2-.15,2.62-.29c-.42-.14-1.3-.29-2.62-.29s-3.08.13-4.17.29Z"/>
              </g>
              <g>
                <path class="cls-35" d="m446.45,300.04c1.31.42,2.93.54,3.62.26s.18-.85-1.14-1.27-4.57-1.06-5.26-.78,1.46,1.37,2.77,1.8Z"/>
                <path class="cls-35" d="m448.98,300.8c-.8,0-1.77-.15-2.64-.43h0s-3.12-1.06-3.15-1.97c0-.22.12-.41.35-.5.89-.36,4.44.43,5.5.77.76.24,1.67.66,1.69,1.27,0,.17-.05.48-.53.67-.29.12-.73.18-1.23.18Zm-2.42-1.11c1.35.43,2.83.49,3.38.27.02,0,.03-.01.05-.02-.11-.12-.43-.35-1.16-.58-1.32-.42-3.79-.87-4.72-.84.45.34,1.51.87,2.46,1.17h0Z"/>
              </g>
              <g>
                <path class="cls-35" d="m398.47,296.35c1.76,0,3.18-.27,3.18-.6s-1.42-.6-3.18-.6-5.36.27-5.36.6,3.61.6,5.36.6Z"/>
                <path class="cls-35" d="m398.47,296.69c-.58,0-5.7-.03-5.7-.94s5.12-.94,5.7-.94c1.06,0,3.52.09,3.52.94s-2.46.94-3.52.94Zm-4.11-.94c1.09.14,2.82.27,4.11.27s2.16-.14,2.59-.27c-.43-.13-1.31-.27-2.59-.27s-3.02.12-4.11.27Z"/>
              </g>
              <g>
                <path class="cls-35" d="m506.93,300.94c-1.31-.42-3.35-.37-4.54.12s-1.1,1.23.21,1.65,4.98.89,6.18.4-.54-1.75-1.85-2.17Z"/>
                <path class="cls-35" d="m507.15,303.79c-1.7,0-3.85-.36-4.69-.63-1.11-.36-1.36-.89-1.38-1.27-.01-.36.17-.87,1.13-1.27,1.3-.53,3.44-.59,4.87-.13h0c.82.26,2.54,1.13,2.58,2.13,0,.24-.07.67-.69.93-.42.17-1.07.24-1.81.24Zm-5.13-1.93s.11.2.72.4c1.38.44,4.86.82,5.86.42.05-.02.08-.04.1-.05-.1-.26-.91-.91-1.91-1.24h0c-1.2-.39-3.13-.34-4.22.11-.41.17-.53.32-.54.36t0,0Z"/>
              </g>
              <g>
                <path class="cls-35" d="m460.1,303.44c-1.52.32-1.97,1.07-1,1.68s2.99.84,4.51.52,3.86-1.46,2.89-2.07-4.88-.45-6.4-.13Z"/>
                <path class="cls-35" d="m462.13,306.28c-1.26,0-2.54-.27-3.29-.74-.74-.47-.77-.99-.72-1.26.11-.61.78-1.07,1.89-1.31h0c1.44-.3,5.58-.54,6.76.19.49.31.47.73.44.89-.19,1.04-2.48,1.86-3.5,2.07-.5.1-1.03.15-1.58.15Zm-1.93-2.35c-.87.18-1.11.46-1.12.52,0,.02.06.13.28.26.86.54,2.76.75,4.15.46,1.17-.25,2.37-.87,2.67-1.2-.96-.45-4.47-.35-5.98-.04h0Z"/>
              </g>
              <g>
                <path class="cls-35" d="m498.35,295.32c1.76,0,3.18-.77,3.18-1.73s-1.42-1.73-3.18-1.73-5.36.77-5.36,1.73,3.61,1.73,5.36,1.73Z"/>
                <path class="cls-35" d="m498.35,295.89c-.74,0-5.93-.46-5.93-2.3s5.2-2.3,5.93-2.3c2.14,0,3.75.99,3.75,2.3s-1.61,2.3-3.75,2.3Zm-4.76-2.3c.44.47,2.96,1.16,4.76,1.16,1.59,0,2.61-.69,2.61-1.16s-1.02-1.16-2.61-1.16c-1.8,0-4.31.69-4.76,1.16Z"/>
              </g>
              <g>
                <path class="cls-35" d="m333.1,295.05c1.31.42,3.35.37,4.54-.12s1.1-1.23-.21-1.65-4.98-.89-6.18-.4.54,1.75,1.85,2.17Z"/>
                <path class="cls-35" d="m335.18,295.81c-.79,0-1.58-.1-2.22-.31h0c-.82-.26-2.54-1.13-2.58-2.13,0-.24.07-.67.69-.93,1.4-.57,5.3,0,6.5.39,1.11.36,1.36.89,1.38,1.27.01.36-.17.87-1.13,1.27-.71.29-1.68.44-2.64.44Zm-3.85-2.44c.1.26.91.91,1.91,1.24h0c1.2.39,3.13.34,4.22-.11.41-.17.53-.32.54-.36,0,0-.1-.2-.73-.4-1.38-.44-4.86-.82-5.86-.42-.05.02-.08.04-.1.05Z"/>
              </g>
              <g>
                <path class="cls-35" d="m379.94,292.54c1.52-.32,1.97-1.07,1-1.68s-2.99-.84-4.51-.52-3.86,1.46-2.89,2.07,4.88.45,6.4.13Z"/>
                <path class="cls-35" d="m376.46,293.31c-1.33,0-2.61-.13-3.18-.49-.49-.31-.47-.73-.44-.89.19-1.04,2.48-1.86,3.5-2.07,1.65-.35,3.79-.09,4.87.59.74.47.77.99.72,1.26-.11.61-.78,1.07-1.88,1.31h0c-.74.15-2.18.29-3.58.29Zm-2.6-1.29c.96.45,4.47.35,5.98.04h0c.87-.18,1.11-.46,1.12-.52,0-.02-.06-.13-.28-.26-.86-.54-2.76-.75-4.15-.46-1.17.25-2.37.87-2.67,1.2Z"/>
              </g>
              <g>
                <path class="cls-35" d="m368.14,301.39c-1.76,0-3.18.77-3.18,1.73s1.42,1.73,3.18,1.73,5.36-.77,5.36-1.73-3.61-1.73-5.36-1.73Z"/>
                <path class="cls-35" d="m368.14,305.42c-2.14,0-3.75-.99-3.75-2.3s1.61-2.3,3.75-2.3c.74,0,5.93.46,5.93,2.3s-5.2,2.3-5.93,2.3Zm0-3.46c-1.59,0-2.61.69-2.61,1.16s1.02,1.16,2.61,1.16c1.8,0,4.31-.69,4.76-1.16-.44-.47-2.96-1.16-4.76-1.16Z"/>
              </g>
            </g>
          </g>
          <g>
            <g>
              <path class="cls-29" d="m414.37,308.01c63.92,0,115.99-7.87,117.85-17.75,1.56-2.28,2.59-5.09,2.59-8.05v-9.92c0-2.94-1.05-5.68-2.59-7.95,0,0,0,0,0,0,0-10.13-52.77-18.35-117.87-18.35s-117.87,8.21-117.87,18.35c0,0,0,0,0,0-1.54,2.27-2.44,5.01-2.44,7.95v9.92c0,2.99.94,5.77,2.53,8.06,2.07,9.85,54.02,17.74,117.8,17.74"/>
              <path class="cls-29" d="m414.37,313.79c-31.08,0-60.52-1.86-82.9-5.24-31.17-4.71-38.38-10.56-40.21-15.84-1.96-3.16-2.99-6.77-2.99-10.5v-9.92c0-3.51.91-6.92,2.66-9.94,1.71-7.67,13.71-12.73,39.2-16.7,22.55-3.51,52.46-5.44,84.23-5.44s61.69,1.93,84.23,5.44c25.47,3.96,37.47,9.02,39.19,16.68,1.84,3.13,2.81,6.55,2.81,9.96v9.92c0,3.65-1.05,7.26-3.06,10.49-1.91,5.33-8.59,8.22-13.63,9.96-6.45,2.23-15.36,4.22-26.47,5.89-22.39,3.38-51.89,5.24-83.06,5.24Zm-112.27-25.27c1.05.92,7.34,5.33,34.68,9.13,21.34,2.96,48.89,4.59,77.58,4.59s56.27-1.62,77.6-4.57c27.23-3.76,33.6-8.14,34.69-9.09l.11-.58.68-1c1.02-1.49,1.58-3.19,1.58-4.79v-9.92c0-1.95-.87-3.64-1.59-4.71l-1-1.47v-.78c-1.49-1.18-8.42-5.36-34.51-8.98-21.34-2.96-48.89-4.59-77.58-4.59s-56.24,1.63-77.58,4.59c-26.09,3.62-33.01,7.8-34.51,8.98v.78l-1,1.47c-.95,1.4-1.45,3.03-1.45,4.71v9.92c0,1.71.52,3.36,1.5,4.77l.66.96.12.57Z"/>
            </g>
            <g>
              <path class="cls-30" d="m535.82,262.98c0-2.94-1.05-5.68-2.59-7.95,0,0,0,0,0,0,0-10.13-52.77-18.35-117.87-18.35s-117.87,8.21-117.87,18.35c0,0,0,0,0,0-1.54,2.27-2.44,5.01-2.44,7.95v9.92c0,2.99.94,5.77,2.53,8.06,2.07,9.85,51.44,17.61,115.22,17.61s118.57-7.74,120.43-17.62c1.56-2.28,2.59-5.09,2.59-8.05v-9.92Z"/>
              <path class="cls-29" d="m412.81,304.35c-30.98,0-59.97-1.84-81.63-5.18-10.76-1.66-19.38-3.63-25.62-5.86-4.85-1.73-11.31-4.6-13.25-9.87-1.98-3.17-3.02-6.8-3.02-10.54v-9.92c0-3.51.91-6.92,2.66-9.94,1.71-7.67,13.71-12.73,39.2-16.7,22.55-3.51,52.46-5.44,84.23-5.44s61.69,1.93,84.23,5.44c25.47,3.96,37.47,9.02,39.19,16.68,1.84,3.13,2.81,6.55,2.81,9.96v9.92c0,3.63-1.04,7.22-3.03,10.44-1.79,5.31-9.21,11.17-41.45,15.84-22.99,3.33-52.94,5.17-84.31,5.17Zm-109.67-25.08c.95.88,6.88,5.26,33.27,8.99,20.66,2.92,47.79,4.53,76.41,4.53s56.87-1.6,78.78-4.51c28.17-3.74,34.9-8.1,36.1-9.09l.1-.51.68-1c1.02-1.49,1.58-3.19,1.58-4.79v-9.92c0-1.95-.87-3.64-1.59-4.71l-1-1.47v-.78c-1.49-1.18-8.42-5.36-34.51-8.98-21.34-2.96-48.89-4.59-77.58-4.59s-56.24,1.63-77.58,4.59c-26.09,3.62-33.01,7.8-34.51,8.98v.78l-1,1.47c-.95,1.4-1.45,3.03-1.45,4.71v9.92c0,1.71.52,3.36,1.5,4.77l.66.96.13.63Z"/>
            </g>
            <path class="cls-29" d="m412.26,269.52c-4.79,0-9.93-.96-9.93-3.07s5.15-3.07,9.93-3.07,9.93.96,9.93,3.07-5.15,3.07-9.93,3.07Zm0-5.03c-5.7,0-8.82,1.29-8.82,1.96s3.11,1.96,8.82,1.96,8.82-1.29,8.82-1.96-3.11-1.96-8.82-1.96Z"/>
            <path class="cls-29" d="m412.95,271.77c-11.31,0-16.47-2.72-16.47-5.25s5.15-5.25,16.47-5.25,16.47,2.72,16.47,5.25-5.15,5.25-16.47,5.25Zm0-8.62c-9.44,0-14.58,2.23-14.58,3.37s5.15,3.37,14.58,3.37,14.58-2.23,14.58-3.37-5.15-3.37-14.58-3.37Z"/>
            <path class="cls-29" d="m413.65,275.57c-13.96,0-28.79-3.16-28.79-9s14.83-9,28.79-9,28.79,3.16,28.79,9-14.83,9-28.79,9Zm0-15.99c-7.33,0-14.21.82-19.37,2.3-5.46,1.57-7.41,3.45-7.41,4.69s1.95,3.11,7.41,4.69c5.16,1.48,12.04,2.3,19.37,2.3s14.21-.82,19.37-2.3c5.46-1.57,7.41-3.45,7.41-4.69s-1.95-3.11-7.41-4.69c-5.16-1.48-12.04-2.3-19.37-2.3Z"/>
            <path class="cls-29" d="m412.81,280.31c-23.1,0-47-5.16-47-13.78s23.9-13.78,47-13.78,47,5.16,47,13.78-23.9,13.78-47,13.78Zm0-25.55c-12.2,0-23.65,1.32-32.26,3.71-7.97,2.22-12.74,5.23-12.74,8.07s4.76,5.85,12.74,8.07c8.6,2.39,20.06,3.71,32.26,3.71s23.65-1.32,32.26-3.71c7.97-2.22,12.74-5.23,12.74-8.07s-4.76-5.85-12.74-8.07c-8.6-2.39-20.06-3.71-32.26-3.71Z"/>
            <path class="cls-29" d="m412.33,283.46c-15.38,0-29.85-1.67-40.75-4.7-14.59-4.05-17.66-9-17.66-12.43s3.06-8.38,17.66-12.43c10.9-3.03,25.38-4.7,40.75-4.7s29.85,1.67,40.75,4.7c14.59,4.05,17.66,9,17.66,12.43s-3.06,8.38-17.66,12.43c-10.9,3.03-25.38,4.7-40.75,4.7Zm0-31.76c-15.16,0-29.39,1.64-40.09,4.61-9.91,2.75-15.83,6.5-15.83,10.02s5.92,7.27,15.83,10.02c10.69,2.97,24.93,4.61,40.09,4.61s29.39-1.64,40.09-4.61c9.91-2.75,15.83-6.5,15.83-10.02s-5.92-7.27-15.83-10.02c-10.69-2.97-24.93-4.61-40.09-4.61Z"/>
            <path class="cls-29" d="m412.16,289.76c-46.07,0-82.15-10.34-82.15-23.55s36.08-23.55,82.15-23.55,82.15,10.34,82.15,23.55-36.08,23.55-82.15,23.55Zm0-45.08c-43.44,0-80.14,9.86-80.14,21.53s36.7,21.53,80.14,21.53,80.14-9.86,80.14-21.53-36.7-21.53-80.14-21.53Z"/>
            <path class="cls-29" d="m411.08,286.93c-17.77,0-34.93-2.44-48.33-6.86-13.06-4.31-20.56-9.99-20.56-15.56,0-12.44,35.71-18.11,68.88-18.11s69.03,5.67,69.03,18.11c0,5.57-7.52,11.25-20.63,15.56-13.43,4.42-30.62,6.86-48.4,6.86Zm0-38.52c-38.12,0-66.87,6.92-66.87,16.1,0,4.58,7.17,9.69,19.18,13.65,13.2,4.36,30.14,6.76,47.7,6.76s34.53-2.4,47.77-6.76c12.05-3.97,19.25-9.07,19.25-13.65,0-9.18-28.81-16.1-67.02-16.1Z"/>
            <path class="cls-29" d="m411.12,294.91c-25.4,0-49.3-2.83-67.28-7.96-18.36-5.24-28.48-12.37-28.48-20.08s10.11-14.84,28.48-20.08c17.99-5.13,41.88-7.96,67.28-7.96s49.3,2.83,67.28,7.96c18.36,5.24,28.48,12.37,28.48,20.08s-10.11,14.84-28.48,20.08c-17.99,5.13-41.88,7.96-67.28,7.96Zm0-54.08c-25.22,0-48.93,2.8-66.74,7.88-17.18,4.9-27.04,11.52-27.04,18.17s9.85,13.26,27.04,18.17c17.81,5.08,41.52,7.88,66.74,7.88s48.93-2.8,66.74-7.88c17.18-4.9,27.04-11.52,27.04-18.17s-9.85-13.26-27.04-18.17c-17.81-5.08-41.52-7.88-66.74-7.88Z"/>
            <path class="cls-29" d="m412.88,299.79c-29.76,0-57.76-3.22-78.83-9.08-21.51-5.98-33.36-14.11-33.36-22.92s11.85-16.94,33.36-22.92c21.07-5.85,49.06-9.08,78.83-9.08s57.76,3.22,78.83,9.08c21.51,5.98,33.36,14.11,33.36,22.92s-11.85,16.94-33.36,22.92c-21.07,5.85-49.06,9.08-78.83,9.08Zm0-61.69c-29.56,0-57.34,3.19-78.21,8.99-20.13,5.59-31.68,13.14-31.68,20.7s11.55,15.11,31.68,20.7c20.88,5.8,48.65,8.99,78.21,8.99s57.34-3.19,78.21-8.99c20.13-5.59,31.68-13.14,31.68-20.7s-11.55-15.11-31.68-20.7c-20.88-5.8-48.65-8.99-78.21-8.99Z"/>
          </g>
          <g>
            <g>
              <path class="cls-32" d="m532.98,245.85c0-2.94-1.05-5.68-2.59-7.95,0,0,0,0,0,0,0-10.13-52.77-18.35-117.87-18.35s-117.87,8.21-117.87,18.35c0,0,0,0,0,0-1.54,2.27-2.44,5.01-2.44,7.95v9.92c0,2.99.94,5.77,2.53,8.06,2.07,9.85,54.02,17.74,117.8,17.74s115.99-7.87,117.85-17.75c1.56-2.28,2.59-5.09,2.59-8.05v-9.92Z"/>
              <path class="cls-33" d="m412.54,287.35c-31.08,0-60.52-1.86-82.9-5.24-31.17-4.71-38.38-10.56-40.21-15.84-1.96-3.16-2.99-6.77-2.99-10.5v-9.92c0-3.51.91-6.92,2.66-9.94,1.71-7.67,13.71-12.73,39.2-16.7,22.55-3.51,52.46-5.44,84.23-5.44s61.69,1.93,84.23,5.44c25.47,3.96,37.47,9.02,39.19,16.68,1.84,3.13,2.81,6.55,2.81,9.96v9.92c0,3.65-1.05,7.26-3.06,10.49-1.91,5.33-8.59,8.22-13.63,9.96-6.45,2.23-15.36,4.22-26.47,5.89-22.39,3.38-51.89,5.24-83.06,5.24Zm-112.27-25.27c1.05.92,7.34,5.33,34.68,9.13,21.34,2.96,48.89,4.59,77.58,4.59s56.27-1.62,77.6-4.57c27.23-3.76,33.6-8.14,34.69-9.09l.11-.58.68-1c1.02-1.49,1.58-3.19,1.58-4.79v-9.92c0-1.95-.87-3.64-1.59-4.71l-1-1.47v-.78c-1.49-1.18-8.42-5.36-34.51-8.98-21.34-2.96-48.89-4.59-77.58-4.59s-56.24,1.63-77.58,4.59c-26.09,3.62-33.01,7.8-34.51,8.98v.78l-1,1.47c-.95,1.4-1.45,3.03-1.45,4.71v9.92c0,1.71.52,3.36,1.5,4.78l.66.96.12.57Z"/>
            </g>
            <g>
              <g>
                <path class="cls-32" d="m532.85,236.54c0-2.94-1.05-5.68-2.59-7.95,0,0,0,0,0,0,0-10.13-52.77-18.35-117.87-18.35s-117.87,8.21-117.87,18.35c0,0,0,0,0,0-1.54,2.27-2.44,5.01-2.44,7.95v9.92c0,2.99.94,5.77,2.53,8.06,2.07,9.85,54.02,17.74,117.8,17.74s115.99-7.87,117.85-17.75c1.56-2.28,2.59-5.09,2.59-8.05v-9.92Z"/>
                <path class="cls-33" d="m412.41,278.03c-31.08,0-60.52-1.86-82.9-5.24-31.17-4.71-38.38-10.56-40.21-15.85-1.96-3.16-2.99-6.77-2.99-10.5v-9.92c0-3.51.91-6.92,2.66-9.94,1.71-7.67,13.71-12.73,39.2-16.7,22.55-3.51,52.46-5.44,84.23-5.44s61.69,1.93,84.23,5.44c25.47,3.96,37.47,9.02,39.19,16.68,1.84,3.13,2.81,6.55,2.81,9.96v9.92c0,3.65-1.05,7.26-3.06,10.49-1.91,5.33-8.59,8.22-13.63,9.96-6.45,2.23-15.36,4.22-26.47,5.89-22.39,3.38-51.89,5.24-83.06,5.24Zm-112.27-25.27c1.05.92,7.34,5.33,34.68,9.13,21.34,2.96,48.89,4.59,77.58,4.59s56.27-1.62,77.6-4.57c27.23-3.76,33.6-8.14,34.69-9.09l.11-.58.68-1c1.02-1.49,1.58-3.19,1.58-4.79v-9.92c0-1.95-.87-3.64-1.59-4.71l-1-1.47v-.78c-1.49-1.18-8.42-5.36-34.51-8.98-21.34-2.96-48.89-4.59-77.58-4.59s-56.24,1.63-77.58,4.59c-26.09,3.62-33.01,7.8-34.51,8.98v.78l-1,1.47c-.95,1.4-1.45,3.03-1.45,4.71v9.92c0,1.71.52,3.36,1.5,4.78l.66.96.12.57Z"/>
              </g>
              <g>
                <path class="cls-32" d="m411.48,229.58l38.28-8.85c.82-.19,1.52.59,1.25,1.39l-4.36,12.68c-.22.63.2,1.31.86,1.4l36.94,5.15c1.23.17,1.23,1.94,0,2.11l-36.94,5.15c-.66.09-1.08.77-.86,1.4l4.36,12.68c.27.79-.43,1.58-1.25,1.39l-38.28-8.85c-.16-.04-.32-.04-.48,0l-38.28,8.85c-.82.19-1.52-.59-1.25-1.39l4.36-12.68c.22-.63-.2-1.31-.86-1.4l-36.94-5.15c-1.23-.17-1.23-1.94,0-2.11l36.94-5.15c.66-.09,1.08-.77.86-1.4l-4.36-12.68c-.27-.79.43-1.58,1.25-1.39l38.28,8.85c.16.04.32.04.48,0Z"/>
                <path class="cls-33" d="m372.49,267.55c-1.26,0-2.49-.53-3.36-1.49-1.1-1.22-1.45-2.94-.92-4.49l3.42-9.94-34.07-4.75c-2.26-.31-3.89-2.2-3.89-4.47s1.64-4.16,3.89-4.47l34.07-4.75-3.42-9.94c-.53-1.55-.18-3.27.92-4.49,1.1-1.22,2.77-1.75,4.37-1.38l37.74,8.73,37.74-8.73c1.6-.37,3.27.16,4.37,1.38,1.1,1.22,1.45,2.94.92,4.49l-3.42,9.94,34.07,4.75c2.26.31,3.89,2.2,3.89,4.47s-1.64,4.16-3.89,4.47l-34.07,4.75,3.42,9.94c.53,1.55.18,3.27-.92,4.49-1.1,1.22-2.77,1.75-4.37,1.38l-37.74-8.73-37.74,8.73c-.34.08-.68.12-1.02.12Zm38.76-15.81c.34,0,.68.04,1.02.12l34.09,7.89-2.96-8.61c-.44-1.28-.29-2.68.42-3.83.71-1.15,1.88-1.92,3.23-2.11l20-2.79-20-2.79c-1.34-.19-2.52-.96-3.23-2.11-.71-1.15-.86-2.55-.42-3.83l2.96-8.61-34.09,7.89c-.67.15-1.37.15-2.03,0l-34.09-7.89,2.96,8.61c.44,1.28.29,2.68-.42,3.83-.71,1.15-1.88,1.92-3.23,2.11l-20,2.79,20,2.79c1.34.19,2.52.96,3.23,2.11.71,1.15.86,2.55.42,3.83l-2.96,8.61,34.09-7.88c.33-.08.68-.12,1.02-.12Z"/>
              </g>
              <g>
                <path class="cls-32" d="m386.21,247.63c2-1.77,4.47-2.26,5.52-1.08s.27,3.57-1.73,5.35-6.97,4.47-8.01,3.29,2.22-5.78,4.23-7.56Z"/>
                <path class="cls-26" d="m382.83,256.37c-.63,0-1.15-.17-1.52-.58-.78-.88-.5-2.4.88-4.63.95-1.54,2.33-3.23,3.43-4.2h0c2.41-2.14,5.4-2.58,6.79-1s.6,4.49-1.81,6.62c-1.11.98-5.23,3.79-7.77,3.79Zm-.14-1.8c.85.19,4.53-1.42,6.71-3.35,1.69-1.5,2.27-3.38,1.66-4.07-.61-.69-2.55-.34-4.24,1.16h0c-2.18,1.93-4.22,5.39-4.13,6.26Z"/>
              </g>
              <g>
                <path class="cls-32" d="m436.1,247.69c-2.06-1.71-4.54-2.11-5.55-.9s-.15,3.58,1.91,5.29,7.11,4.23,8.11,3.02-2.41-5.71-4.47-7.41Z"/>
                <path class="cls-26" d="m439.65,256.32c-2.55,0-6.65-2.6-7.77-3.54-1.12-.93-1.96-2.07-2.38-3.22-.47-1.31-.35-2.5.35-3.34,1.34-1.62,4.34-1.28,6.82.78,1.13.94,2.56,2.58,3.56,4.09,1.45,2.18,1.79,3.69,1.03,4.6-.37.45-.94.63-1.62.63Zm-7.37-9.31c-.47,0-.83.13-1.04.37-.27.32-.28.9-.04,1.57.3.84.97,1.73,1.83,2.44,2.24,1.86,5.97,3.35,6.82,3.12.06-.87-2.09-4.26-4.33-6.12h0c-1.13-.94-2.36-1.39-3.24-1.39Z"/>
              </g>
              <g>
                <path class="cls-32" d="m389.79,231.82c2.32,1.34,3.56,3.53,2.77,4.89s-3.3,1.38-5.62.05-6.44-5.19-5.65-6.56,6.19.28,8.51,1.62Z"/>
                <path class="cls-26" d="m390.28,238.65c-1.21,0-2.56-.39-3.8-1.11-1.27-.73-2.96-2.11-4.2-3.43-1.79-1.91-2.38-3.34-1.79-4.36.59-1.02,2.12-1.23,4.67-.63,1.76.41,3.8,1.18,5.07,1.92h0c1.26.73,2.28,1.71,2.88,2.77.69,1.21.76,2.41.22,3.35-.55.95-1.62,1.48-3.01,1.49-.02,0-.03,0-.05,0Zm-8.19-7.99c.09.87,2.78,3.85,5.3,5.31.97.56,2.04.87,2.92.87.72,0,1.25-.22,1.46-.58.21-.37.13-.93-.22-1.56-.44-.77-1.25-1.54-2.21-2.1h0c-2.52-1.46-6.45-2.3-7.25-1.94Z"/>
              </g>
              <g>
                <path class="cls-32" d="m378.8,240.99c2.68,0,4.84.65,4.84,1.45s-2.17,1.45-4.84,1.45-8.18-.65-8.18-1.45,5.5-1.45,8.18-1.45Z"/>
                <path class="cls-26" d="m378.8,244.54c-1.42,0-3.51-.17-5.19-.43-3.02-.47-3.63-.98-3.63-1.67s.61-1.2,3.63-1.66c1.68-.26,3.77-.43,5.19-.43,2.04,0,5.49.44,5.49,2.1s-3.45,2.1-5.49,2.1Zm-6.95-2.1c1.45.41,4.68.81,6.95.81,2.41,0,3.81-.52,4.15-.81-.34-.29-1.74-.81-4.15-.81-2.26,0-5.5.4-6.95.81Z"/>
              </g>
              <g>
                <path class="cls-32" d="m435.98,236.87c-2.06,1.71-4.54,2.11-5.55.9s-.15-3.58,1.91-5.29,7.11-4.23,8.11-3.02-2.41,5.71-4.47,7.41Z"/>
                <path class="cls-26" d="m432.17,239.37c-1,0-1.87-.33-2.44-1.02-.7-.84-.82-2.03-.35-3.34.41-1.15,1.26-2.29,2.38-3.22,1.42-1.18,7.62-5.04,9.39-2.9,1.77,2.14-3.17,7.51-4.59,8.69h0c-1.43,1.18-3.03,1.8-4.38,1.8Zm7.36-9.34c-1.13,0-4.52,1.41-6.61,3.15-.86.71-1.53,1.6-1.83,2.44-.24.68-.23,1.25.04,1.57.59.71,2.54.42,4.28-1.02,2.24-1.86,4.4-5.25,4.33-6.12-.06-.01-.13-.02-.21-.02Z"/>
              </g>
              <g>
                <path class="cls-32" d="m441.71,240.98c-2.68,0-4.84.65-4.84,1.45s2.17,1.45,4.84,1.45,8.18-.65,8.18-1.45-5.5-1.45-8.18-1.45Z"/>
                <path class="cls-26" d="m441.71,244.53c-2.04,0-5.49-.44-5.49-2.1s3.45-2.1,5.49-2.1c1.42,0,3.51.17,5.19.43,3.02.47,3.63.98,3.63,1.67s-.61,1.2-3.63,1.66c-1.68.26-3.77.43-5.19.43Zm-4.15-2.1c.34.29,1.74.81,4.15.81,2.26,0,5.5-.4,6.95-.81-1.45-.41-4.68-.81-6.95-.81-2.41,0-3.81.52-4.15.81Z"/>
              </g>
              <g>
                <ellipse class="cls-32" cx="411.24" cy="241.14" rx="11.79" ry="3.31"/>
                <path class="cls-26" d="m411.24,245.09c-6.18,0-12.43-1.36-12.43-3.95s6.25-3.95,12.43-3.95,12.43,1.36,12.43,3.95-6.25,3.95-12.43,3.95Zm0-6.61c-7.31,0-11.14,1.73-11.14,2.66s3.83,2.66,11.14,2.66,11.14-1.73,11.14-2.66-3.83-2.66-11.14-2.66Z"/>
              </g>
            </g>
          </g>
          <g>
            <g>
              <g>
                <path class="cls-31" d="m419.25,138.63l35.45,32.31c.41.37-22.54-20.23-31.75-28.81-.97-.91-.04-2.5,1.23-2.09,0,0,4.2,1.34,10.22,3.27,1,.32,2.06.66,3.15,1.01,6.06,2.32,11.24,5.77,17.85,5.77,1.44.29,2.87.86,4.41,1.71.9.44,1.81.86,2.73,1.24,4.58,1.93,9.32,3.14,14.15,3.69.97.11,1.93.2,2.91.26,11.75-.29,23.53-1.73,35.32-.58,1.15.29.86,2.59,1.37,4.14.1.72.18,1.52.32,2.41,4.06,10.13,10.38,19.33,1.47,29.39-.57.57-.57,2.01-.44,3.25,0,.63,0,1.26.01,1.89.1,14.52-.15,28.82-.79,35.34-.12,1.25-1.8,1.55-2.35.43l-17.1-34.6c-.65-1.31-2.65-.62-2.33.81.09.41.28.8.58,1.15l26.63,30.98c.15.17,8.08,11.88,8.19,12.07,3.67,6.28-6.67,2.82-13.22,5.89-.33.15-20.62-.73-20.99-.72l-4.26,1.13c-.88.23-1.87.5-2.9.84-8.68,5.35-18.46,5.64-28.28,7.43l-1.82.48-8.9,2.36c-.43.07-.86-.08-1.14-.4l-7.31-8.32c-.34-.39-.89-.53-1.38-.34l-24.2,9.18c-.58.01,9.17-8.97,8.72-8.61-4.3,3.38-7.88,11.15-12.17,7.75-.4-.32-26.46-2.04-30.07-2.27-.26-.02-.52-.12-.72-.29l-9.34-7.86c-.32-.27-.76-.36-1.16-.24-2.16.67-8.01,3.39-9.93,3.75-.26.05-.53.01-.77-.1,0,0-11.99-5.75-17.98-8.63l-2.41-1.16c-.38-.3-.67-.3-.95-.3.86-1.44,4.89-3.74,2.3-4.02-10.06-.57-19.55,0-27.77-6.68-.92-.28-1.94-.56-2.99-.85-2.1-.58-4.35-1.2-6.37-1.75-1.21-.33-2.35-.65-3.32-.91-2.09-1.3-7.84-.72-6.4-2.73,6.9-10.06,10.06-19.55,6.32-30.76-.57-1.72,1.44-4.02,3.41-4.35.71-.2,1.49-.26,2.31-.24,4.11.1,9.29,2.43,13.24,2.65l2.71.58,1.09.23c1.06.23-.7.31-3.53.26-.97-.02-2.06-.06-3.23-.11-1.7-.62-3.77-.7-5.94-.62-1.09.04-2.2.13-3.31.26-3.88.77-8.19,1.06-10.98-2.08-.56-.68-.98-1.54-1.23-2.62-1.15-4.89,3.16-9.49.25-14.4-.2-.72-.33-1.45-.37-2.17-.22-3.63,1.78-7.29,5.01-10.16,3.74-3.16,8.62-3.74,12.94-6.04,2.01-1.15,4.31-2.3,6.17-3.68.54-.37,1.07-.73,1.58-1.07,3.55-2.42,6.44-4.21,7.78-4.72.33-.13.69-.11,1.01.05l14.39,7.23c.62.31,1.25.63,1.89.95,7.44,4.69,14.62,9.29,23.25,11.59,2.01.57,3.45,2.01,5.32,2.78.75.38,1.39.7,1.92.97,1.06.53,1.65.83,1.65.83.11,0-1.01-.57-2.99-1.57-.66-.33-1.42-.71-2.24-1.11-8.83-3.9-18.61-6.78-26.39-12.98-.62-.33-1.24-.63-1.84-.93-4.83-2.39-9.1-4.54-11.91-5.99-1.1-.57-.78-2.22.45-2.34l7.17-.7,2.87-.28c6.15-1.37,10.17,3.8,15.92,4.95.57,0,1.44,0,2.01-.29,4.31-2.59,7.76-8.62,13.4-5.96.91.32,1.81.68,2.72,1.01,2.72,1,5.45,1.79,8.32.92,3.74-1.44,6.61-5.17,10.51-5.75.72-.13,1.44-.21,2.15-.28l16.84-1.65c.21-.02.42-.1.59-.22,1-.73,2.39-.66,3.33.19Z"/>
                <path class="cls-36" d="m412.8,266.16l-.16-.37c-.62-.18-1.23-.43-1.82-.76-3.17-.32-14.16-1.12-28.61-2.07-1.31-.09-2.54-.58-3.54-1.43l-7.72-6.5c-.6.24-1.27.52-1.89.77-3.22,1.32-5.28,2.15-6.77,2.43-1.29.24-2.6.07-3.79-.5l-20.02-9.61h-7.81l2.63-4.41c-7.4-.43-14.89-1.52-21.79-6.77-.6-.17-1.25-.35-2-.56l-10.37-2.85-.45-.28c-.38-.12-1.31-.27-1.87-.36-2.32-.36-5.5-.86-6.8-3.96-.75-1.79-.5-3.77.68-5.46,6.65-9.71,8.44-17.15,6.03-25.37-1.26-.64-2.48-1.53-3.57-2.77l-.13-.15c-1.06-1.29-1.8-2.84-2.21-4.6-.77-3.26-.03-6.17.56-8.52.63-2.5.82-3.53.24-4.5l-.34-.57-.17-.64c-.3-1.1-.48-2.13-.54-3.16-.3-4.95,2.12-10.09,6.64-14.11l.09-.08c2.95-2.5,6.28-3.69,9.22-4.74,1.62-.58,3.16-1.13,4.52-1.85.51-.29,1.03-.58,1.56-.87,1.44-.8,2.93-1.62,4.06-2.46l.17-.12,1.58-1.07c5.64-3.84,7.7-4.82,8.75-5.23,1.18-.45,2.46-.53,3.66-.24.65-.32,1.37-.53,2.12-.6l9.78-.96c5.36-1.08,9.47,1.13,12.79,2.92,1.43.77,2.8,1.5,4.11,1.9.65-.48,1.36-1.1,2.09-1.75,3.05-2.67,8.12-7.12,14.94-4.06.48.17.96.36,1.44.54.37.14.74.28,1.11.41,2.19.8,3.74,1.21,5.06.88.97-.41,2.05-1.19,3.2-2.02,2.21-1.59,4.72-3.4,8.08-3.92.91-.16,1.75-.25,2.48-.33l16.03-1.57c2.75-1.4,6.16-.99,8.5,1.14l.18.16c.96-.17,1.97-.11,2.95.2l13.63,4.37c1.78.68,3.45,1.43,5.06,2.16,3.91,1.76,7.28,3.29,11.04,3.29h.48l.47.09c1.85.37,3.71,1.08,5.7,2.16.78.38,1.57.74,2.37,1.08,4.04,1.7,8.35,2.83,12.81,3.34.8.09,1.62.17,2.44.22,3.47-.09,7.03-.28,10.47-.47,8.21-.45,16.69-.91,25.23-.08l.36.04.35.09c3.99,1,4.5,4.99,4.7,6.49.04.29.09.73.14.88l.14.42.05.41c.04.3.08.61.12.93.03.28.07.56.11.86.51,1.24,1.06,2.5,1.6,3.72,3.67,8.36,8.22,18.72-.49,29.35,0,.1.02.21.03.34l.03.49v1.9c.07,8.51,0,18.66-.27,26.61l3.73,4.34c.53.62,8.66,12.71,8.71,12.79,1.65,2.82,1.88,5.38.7,7.61-1.88,3.54-5.94,3.81-9.51,4.05-2.27.15-4.85.32-6.56,1.12q-1.31.61-18.93-.09c-1.43-.06-2.8-.11-3.57-.14l-3.57.95c-.74.2-1.43.38-2.12.6-7.46,4.43-15.39,5.6-23.07,6.74-2.04.3-4.14.61-6.18.98l-10.97,2.89c-2.08.35-4.24-.41-5.64-2l-5.64-6.42-22.63,8.58-4.2.08Zm-28.75-12.89c22.83,1.5,28.3,1.87,30.3,2.51.29-.28.6-.59.96-.94,1.23-1.2,2.67-2.56,3.84-3.66.81-.87,1.66-1.7,2.6-2.44l3.68-2.89,3.07,3.53c.05.06.53.64.87,1.53l9.17-3.48c2.38-.9,5.1-.22,6.78,1.68l5.82,6.62,8.82-2.32c2.26-.41,4.51-.75,6.69-1.07,7.2-1.07,14-2.08,19.9-5.71l.49-.3.55-.18c1.12-.37,2.14-.65,3.18-.92l4.79-1.27.55-.02c.28-.01.29-.01,4.7.17,3.98.16,12.72.51,15.44.56,2.71-1.04,5.55-1.33,8.02-1.51-1.31-1.94-2.97-4.39-4.2-6.2-.86.89-2.01,1.52-3.32,1.76-2.72.5-5.38-.83-6.6-3.31l-12.17-24.63-6.01-6.99c-.81-.94-1.37-2.07-1.64-3.27-.68-3.07.98-6.06,3.95-7.1,2.97-1.05,6.14.24,7.54,3.07l4.38,8.86,6.56,7.63c.06-4.72.07-9.95.03-15.46v-1.65c-.15-1.37-.36-4.6,1.71-6.82,5.22-5.94,3.43-10.86-.47-19.73-.64-1.47-1.31-2.98-1.93-4.54l-.2-.51-.09-.54c-.1-.61-.17-1.18-.23-1.72-.02-.15-.04-.3-.05-.44-.05-.18-.09-.35-.13-.52-6.77-.41-13.55-.04-20.67.35-3.59.2-7.3.4-10.98.49h-.21s-.21,0-.21,0c-1.06-.07-2.12-.16-3.16-.28-5.38-.62-10.59-1.98-15.49-4.04-1.01-.42-2.01-.88-2.99-1.36l-.2-.1c-.98-.54-1.84-.9-2.62-1.11-5.6-.13-10.12-2.17-14.49-4.15-.31-.14-.61-.27-.91-.41l20.65,18.83-1.23,5.54-2.71.84c-2.09.65-3.49-.08-4.73-1.08v.02s-.39-.34-.39-.34c-.2-.17-.39-.34-.59-.52l-2.69-2.42c-2.27-2.04-5.38-4.85-8.78-7.92-6.2-5.6-14.6-13.22-19.35-17.65-.25-.23-.48-.48-.68-.74l-1.86-1.7c-.41.13-.84.22-1.27.26l-16.84,1.65c-.57.06-1.18.12-1.73.22l-.18.03c-1.05.16-2.43,1.15-3.89,2.2-1.59,1.14-3.39,2.44-5.58,3.28l-.35.12c-4.17,1.25-7.95.25-11.41-1.02-.4-.15-.8-.3-1.19-.45-.49-.19-.99-.37-1.48-.55l-.44-.18c-.86-.41-1.4-.3-4.55,2.46-1.24,1.08-2.64,2.31-4.24,3.27l-.33.18c-1.61.8-3.29.8-4.2.8h-.48l-.47-.09c-2.97-.59-5.4-1.9-7.55-3.06-.78-.42-1.46-.78-2.09-1.08l.48.3c4.59,2.9,9.02,5.69,13.68,7.85,1.5.63,3.02,1.25,4.57,1.87,1.04.37,2.1.7,3.18.99l.08.02c1.81.52,3.19,1.39,4.3,2.08.09.06.18.11.26.17.8.4,1.53.76,2.18,1.08.98.49,1.76.88,2.29,1.16.32.16.56.3.72.39,2.58,1.45,2.97,3.93,2.53,5.62l-1,3.84-5.01-.24-.93-.47s-.58-.3-1.62-.82l-1.78-.89c-.74-.32-1.38-.67-1.97-1.02-2.05-.9-4.14-1.73-6.34-2.62-.12-.05-.24-.1-.36-.15-1.71-.61-3.38-1.3-5-2.05-5.18-2.2-10.34-4.72-15.01-8.35-.45-.23-.89-.45-1.33-.67-5.54-2.75-9.46-4.72-12-6.04-.46-.24-.88-.53-1.26-.86l-.08-.04c-1.01.58-2.72,1.64-5.49,3.52l-1.5,1.02c-1.64,1.2-3.46,2.21-5.08,3.1-.51.28-1.01.56-1.5.83l-.13.07c-2,1.07-3.97,1.77-5.88,2.46-2.45.88-4.56,1.63-6.16,2.96-2.2,1.98-3.45,4.28-3.34,6.17.01.21.04.44.09.69,2.18,4.26,1.18,8.23.43,11.17-.31,1.24-.59,2.35-.59,3.22.97-.63,2.03-1.08,3.11-1.3,1.08-.27,2.23-.39,3.51-.36,2.73.07,5.48.81,8.13,1.53,1.91.52,3.88,1.05,5.26,1.12l.38.02,4.17.89c3.2.69,4.39,3.31,4.14,5.46-.18,1.6-1.18,4.3-5.77,4.46-.76.03-1.8.03-3.01,0-1.11-.02-2.24-.06-3.38-.12l-.74-.04-.69-.25c-1.22-.44-3.38-.36-4.09-.33-.85.03-1.78.1-2.76.21-.42.08-.94.18-1.51.27,1.69,9.79-1.26,18.03-5.11,24.75.34.12.68.25,1.01.41l9.18,2.52c1.19.33,2.17.6,3.13.89l.91.28.74.6c5.87,4.77,12.84,5.07,20.9,5.41,1.34.06,2.7.11,4.07.19l.26.02c3.6.4,4.7,2.98,4.95,3.76.39,1.23.32,2.32-.01,3.28l14.41,6.92c1.11-.41,2.77-1.09,3.89-1.55,1.83-.75,3.41-1.41,4.54-1.75,2-.62,4.15-.18,5.75,1.17l8.43,7.1Zm131.13-8.14h0s0,0,0,0Zm-216.44-11.86s0,0,0,0c0,0,0,0,0,0Zm223.7-39.1s0,0,0,0t0,0Z"/>
              </g>
              <g>
                <path class="cls-36" d="m521.44,244.68s-25.91-9.78-49.04-18.51c-.74-.32-1.48-.62-2.22-.92-5.29-2.43-9.89-5.3-15.07-6.74-6.9-2.01-13.51-4.31-20.14-6.42-.61-.21-1.36-.48-2.21-.78-6.34-2.24-18.73-6.6-28.18-9.94-.59-.21-1.17-.41-1.75-.61-13.84-4.1-26.78-11.29-41.34-10.14-1.26-.15-2.46-.3-3.54-.46-3.25-.48-5.47-1-5.28-1.54h0c.19-.54,2.61-.78,5.96-.85.56-.01,1.14-.02,1.75-.02,5.05,0,10.8-2.01,15.11-.29,13.51,5.17,26.74,9.49,40.28,14.21l2.26.82,9.39,3.41,2.35.85c15,4.57,29.95,7.44,43.38,15.73l2.3.83c23.57,8.55,42.24,15.32,42.24,15.32,1.79.63,13.28,3.1,12.65,4.89l-2.59,4.31c-.63,1.79-4.51-2.53-6.3-3.16Z"/>
                <path class="cls-36" d="m527.15,253.17c-2.37,0-4.36-1.54-6.15-2.93-.44-.34-1.08-.84-1.38-1.02l-49.05-18.51-.11-.05c-.59-.26-1.18-.49-1.77-.73l-.54-.22c-1.76-.81-3.41-1.64-5.01-2.45-3.21-1.63-6.25-3.16-9.32-4.02l-.06-.02c-4.65-1.36-9.18-2.84-13.57-4.29-2.23-.73-4.46-1.46-6.69-2.17l-.14-.05-30.4-10.72c-.56-.2-1.09-.38-1.61-.57-3.94-1.17-7.79-2.58-11.52-3.93-9.5-3.46-18.47-6.73-27.95-5.99l-.47.04-.47-.05c-1.32-.15-2.57-.32-3.7-.48-5.04-.75-7.37-1.42-8.73-3.67-.79-1.31-.95-2.88-.45-4.32,1.38-3.94,6.01-4.03,10.48-4.11.58-.01,1.18-.02,1.8-.02,1.48,0,3.13-.22,4.87-.45,3.79-.51,8.08-1.08,12.06.5,9.56,3.66,19.21,6.97,28.55,10.17,3.78,1.29,7.68,2.63,11.56,3.99l.06.02,13.88,5.03c3.26.99,6.58,1.92,9.8,2.82,11.44,3.2,23.27,6.51,34.16,13.13l44.03,15.97c.28.09,1.23.34,2,.54,8.7,2.29,11.84,3.52,13.3,6.27.72,1.35.84,2.88.34,4.31l-.16.47-2.69,4.49c-.68,1.38-1.87,2.39-3.34,2.83-.55.16-1.08.24-1.6.24Z"/>
              </g>
              <g>
                <path class="cls-36" d="m420.45,203.69l-1.52-1.97c-.48-.62-1.06-1.36-1.98-2.19-4.95-4.58-11.28-6.31-17.31-10.05-1.15-.86-2.59-2.01-2.01-3.16,1.72-4.31,2.59-9.2-.73-12.82-.37-.51-.78-1.06-1.21-1.61l-6.97-8.57s-.75-.93-1.49-1.85c-2.24-3.32-6.26-4.47-9.14-7.34,4.6,1.15,8.62,3.74,11.19,7.44.52.65,1.11,1.4,1.76,2.21,1.71,2.14,3.81,4.79,6.11,7.67.38.48.77.97,1.15,1.46,4.51,4.22,1.35,9.1.77,13.99,0,1.15,1.72,2.01,3.16,2.87,6.32,3.45,13.22,6.04,18.34,11.14.24.27,1.18,1.16,1.97,2.03s1.44,1.74,1.13,2l-1.84,1.01c-.62.5-.91-1.71-1.35-2.26Z"/>
                <path class="cls-36" d="m421.62,210.9c-.47,0-.94-.07-1.41-.2-2.73-.79-3.55-3.23-3.94-4.4,0-.02-.01-.04-.02-.06l-1.19-1.54c-.43-.55-.8-1.02-1.4-1.56l-.04-.04c-2.54-2.35-5.64-3.85-9.22-5.58-2.38-1.15-4.84-2.34-7.34-3.89l-.36-.25c-4.68-3.51-4.57-6.8-3.57-9.02,2.13-5.41.69-6.98.15-7.57l-.2-.22-.17-.24c-.31-.44-.7-.94-1.07-1.43l-6.93-8.52s-.76-.94-1.5-1.86l-.25-.34c-.71-1.06-2.07-1.92-3.63-2.91-1.55-.99-3.31-2.1-4.91-3.71l-12.48-12.48,17.12,4.28c5.79,1.45,10.73,4.73,13.92,9.25l7.78,9.77c.32.41.65.82.97,1.23,5.1,5.04,3.62,10.85,2.64,14.72-.09.34-.17.67-.25.99.11.06.21.12.32.19,1.49.81,3.01,1.57,4.62,2.37,5.1,2.55,10.36,5.18,14.75,9.55l.18.19c.08.08.2.2.34.34.44.44,1.05,1.05,1.64,1.7.92,1.03,2.64,2.94,2.44,5.48-.11,1.39-.79,2.69-1.86,3.57l-.34.28-2.07,1.14c-.82.5-1.76.77-2.7.77Z"/>
              </g>
              <g>
                <path class="cls-36" d="m457.55,215.79c-3.59-4.76-9.05-7.92-11.35-13.38-.36-.83-.72-1.65-1.08-2.46s-.73-1.63-1.1-2.43c-2.99-5.45-9.6-6.89-15.06-9.19-1.44-.57-3.16-1.44-3.74-2.59-1.44-4.31,4.02-6.61,3.34-10.6-.25-1.05-.94-2.02-.94-2.02-.42-.57-8.41-6.34-7.77-6.81h0c.64-.47,8.45,5.11,8.87,5.68,0,0,.33.46.86,1.32,1.96,3.53-1.2,6.98-2.35,10.14-.29.57,0,1.15.29,1.72,5.75,4.89,14.37,5.17,18.02,12.06.41.81.81,1.62,1.21,2.44.4.82.79,1.64,1.19,2.47,2.87,5.46,8.05,9.2,12.65,13.8.57.86,2.01,1.72,1.15,2.59-.29.57-2.3,2.01-2.59-.28-.5-.86-1.14-1.97-1.59-2.44Z"/>
                <path class="cls-36" d="m460.12,224.37c-.32,0-.64-.03-.97-.08-1.81-.31-3.85-1.59-4.62-4.25-.22-.37-.47-.78-.61-.97l-.11-.12-.16-.22c-1.16-1.54-2.65-2.96-4.22-4.47-2.77-2.66-5.92-5.67-7.72-9.93-.35-.81-.7-1.61-1.06-2.4-.33-.73-.66-1.46-.99-2.19-1.57-2.72-5.09-4.04-9.15-5.57-1.12-.42-2.28-.85-3.41-1.33-2.05-.82-4.9-2.23-6.25-4.92l-.16-.31-.11-.33c-1.53-4.6.81-8,2.2-10.04.24-.35.57-.82.77-1.18-.38-.3-.86-.68-1.28-1-5.38-4.21-7.39-5.79-7.35-8.76.02-1.55.78-3.02,2.02-3.94,3.2-2.36,6.42-.18,10.15,2.33,4.62,3.12,5.27,4,5.55,4.38l.03.04c.07.1.46.65,1.05,1.61l.11.19c2.66,4.79.44,9.27-.99,12.02,1.34.77,2.85,1.43,4.41,2.12,4.5,1.99,9.6,4.24,12.58,9.87l.04.08c.42.83.83,1.66,1.24,2.5.39.8.78,1.6,1.16,2.41,1.72,3.23,4.7,5.97,7.85,8.86,1.27,1.17,2.59,2.38,3.89,3.68l.34.34.2.3c.05.06.11.12.16.18.45.48,1.14,1.22,1.62,2.26.92,2.03.63,4.25-.74,5.94-1.15,1.59-3.25,2.89-5.5,2.89Zm-6.12-5.22s0,0,0,0h0Z"/>
              </g>
              <g>
                <path class="cls-36" d="m493.37,231.27l-14.38-30.42-7.87-15.87-2.11-4.29c-.31-.63-6.52-8.03-5.98-8.3h0c.54-.27,6.61,6.91,6.92,7.54l23.76,48.86c.31.63,2.67,4.31,2.13,4.58l-1.57.36c-.54.27-.59-1.83-.91-2.46Z"/>
                <path class="cls-36" d="m494.19,238.64c-.77,0-1.54-.18-2.25-.53-2.4-1.2-2.85-3.57-3.09-4.84-.01-.07-.03-.15-.04-.22l-14.21-30.07-7.85-15.83-1.96-3.99c-.28-.37-.89-1.15-1.4-1.79-4.54-5.75-5.75-7.29-5.15-10,.33-1.46,1.29-2.68,2.63-3.35,3.32-1.65,5.91.92,6.88,1.89.68.67,1.52,1.58,2.5,2.69,3.48,3.95,3.94,4.87,4.09,5.17l23.75,48.82c.07.13.18.31.31.54,1.72,2.93,2.96,5.05,2.21,7.56-.4,1.33-1.34,2.45-2.58,3.07l-.52.26-1.9.43c-.46.13-.94.2-1.41.2Zm-5.42-5.79h0Z"/>
              </g>
              <g>
                <path class="cls-36" d="m400.64,197.88c-7.91.51-16.25.22-24.16,1.32l-3.46.19-5.25.29-17.7.54-4.77.17c-.71.02-10.18-2.7-10.15-1.91h0c.02.8,9.23,3.5,9.94,3.47,0,0,18.47-.75,33.86-1.38.73-.03,1.46-.06,2.17-.09,7.6-.37,15.36-.09,22.83-.95,1.15-.29-.29-1.15-.65-2.13-.47-.77-1.87.44-2.65.47Z"/>
                <path class="cls-36" d="m345.06,206.85c-.57,0-1.93-.13-6.71-1.67-4.28-1.38-7.98-2.57-8.1-6.55-.05-1.55.65-3.05,1.85-4.02,2.31-1.86,4.79-1.25,11.42.38.73.18,1.6.39,2.08.5l4.28-.15,17.66-.54,8.46-.47c5.22-.71,10.53-.85,15.67-.99,2.79-.07,5.44-.15,8.06-.3,4.81-2.15,7.12.85,7.72,1.82l.27.46s.01.02.02.02c.54.68,2.18,2.75,1.25,5.49-.58,1.72-1.99,2.98-3.87,3.44l-.31.08-.32.04c-4.98.58-10.05.66-14.95.75-2.71.05-5.51.1-8.2.23-.74.03-1.47.06-2.21.09l-33.92,1.38s-.1,0-.16,0Z"/>
              </g>
              <g>
                <path class="cls-36" d="m451.15,216.44c-1.78,2.07-4.37,2.65-6.9,2.71l-1.91.2-22.88,2.38-17.66,1.4-4.76.4c-.7.06-10.3-2.21-10.23-1.41h0c.06.79,9.39,3.05,10.1,2.99,0,0,32.73-2.93,47.28-4.23,1.04-.09,1.99-.18,2.82-.27,2.66-.36,5.53-.65,6.97-2.66.86-.86-.86-2.3-1.63-3.4-.7-1.27-.79,1.54-1.19,1.9Z"/>
                <path class="cls-36" d="m396.93,229.99c-.67,0-2.21-.16-6.6-1.35-4.34-1.17-8.1-2.18-8.41-6.15-.12-1.54.5-3.08,1.65-4.11,2.21-1.97,4.72-1.48,11.43-.17.74.14,1.62.32,2.1.4l4.27-.36,17.62-1.4,24.93-2.6h.2c1.46-.04,2.27-.28,2.76-.56.74-2.57,2.22-4.03,4.41-4.34,1.6-.22,3.73.31,5.09,2.44.09.11.24.29.35.42.52.61,1.16,1.37,1.65,2.33,1.14,2.25.89,4.69-.63,6.48-2.6,3.4-6.68,3.95-9.68,4.36l-.55.07c-.86.09-1.84.19-2.91.28l-47.34,4.23c-.09,0-.2.02-.35.02Z"/>
              </g>
              <g>
                <path class="cls-36" d="m481.73,230.31l-32.42,9.03-17.15,4.43-4.62,1.21c-.68.18-10.34.32-10.19.9h0c.15.58,9.55.48,10.23.3l52.49-13.99c.68-.18,5.01-.8,4.86-1.39l-.75-1.42c-.15-.58-1.77.75-2.45.92Z"/>
                <path class="cls-36" d="m423.57,251.22c-.41,0-.86,0-1.35,0-1.48-.01-2.72-.06-3.67-.13-1.37-.1-5-.38-5.93-3.97-.37-1.45-.08-2.97.81-4.18,1.65-2.23,3.61-2.32,10.93-2.65.82-.04,1.81-.08,2.27-.11l4.29-1.12,17.12-4.42,32.04-8.92c.06-.04.13-.08.19-.11,1.12-.65,3.2-1.87,5.68-.83,1.19.5,2.12,1.4,2.65,2.55l.92,1.72.14.56c.35,1.34.11,2.78-.63,3.96-1.41,2.21-3.82,2.66-7.16,3.28-.26.05-.47.09-.61.12l-52.42,13.97c-.33.09-1.18.31-5.28.31Z"/>
              </g>
            </g>
            <g>
              <g>
                <path class="cls-31" d="m419.21,135.03l35.45,32.31c.41.37-22.54-20.23-31.75-28.81-.97-.91-.04-2.5,1.23-2.09l10.22,3.27c1,.32,2.06.66,3.15,1.06,6.97,5.01,15.3,6.44,23.4,8.33.86.42,1.71.87,2.57,1.3,2.59,1.3,5.29,2.41,8.31,2.85,1.65.22,3.29.31,4.91.32.81,0,1.62,0,2.43-.03,11.92-.86,23.7-2.59,35.2-.29,1.94.43,2.1,3.29,2.21,6.13.04.95.06,1.9.15,2.75.52,7.79,9.43,14.4,5.98,21.88-2.01,4.02-5.75,7.47-5.05,12.43,0,.62,0,1.24,0,1.85.02,12.94-.24,25.08-.8,30.94-.12,1.25-1.8,1.55-2.35.43l-17.1-34.6c-.65-1.31-2.65-.62-2.33.81.09.41.28.8.58,1.15l26.63,30.98c.15.17,8.08,11.88,8.19,12.07,3.67,6.28-6.67,2.82-13.22,5.89-.33.15-20.62-.73-20.99-.72l-4.26,1.13-2.95.78c-8.88,4.41-18.37,5.85-28.23,7.49l-1.83.49-8.9,2.36c-.43.07-.86-.08-1.14-.4l-7.31-8.32c-.34-.39-.89-.53-1.38-.34l-24.2,9.18c-.58.01,9.17-8.97,8.72-8.61-4.3,3.38-7.88,11.15-12.17,7.75-.4-.32-26.46-2.04-30.07-2.27-.26-.02-.52-.12-.72-.29l-9.34-7.86c-.32-.27-.76-.36-1.16-.24-2.16.67-8.01,3.39-9.93,3.75-.26.05-.53.01-.77-.1,0,0-10.07-4.84-16.37-7.86l-1.61-.77c-1.03-.45-2.18-1.02-3.62-1.31,1.15-1.44,3.74-2.87,3.16-3.45-3.74-3.74-9.49.86-14.37-.29-4.31-1.44-8.05-4.02-11.8-6.33-.72-.36-1.63-.64-2.64-.94l-3.2-.88c-.64-.18-1.29-.35-1.93-.53-4.29-2.53-13.78-2.53-12.63-4.26,7.47-9.49,7.19-19.84,3.16-29.61-.57-1.44.86-2.59,1.62-3.96.64-.65,1.38-1.13,2.19-1.47,4.85-2.01,12.28,1.1,17.42,1.89l2.71.58,1.09.23c1.06.23-.7.31-3.53.26-1-.03-2.11-.07-3.33-.13-2.28-.97-5.37-.72-8.39-.39-1.01.11-2.01.23-2.97.32-2.2.07-4.79.65-6.76-1.16-.44-.47-.75-1.1-.9-1.93-.86-4.31,2.3-9.2-.87-12.98-.41-.68-.81-1.37-1.14-2.07-.67-1.4-1.05-2.87-.86-4.5,1.72-9.2,12.65-10.35,19.54-15.22.58-.42,1.15-.83,1.72-1.23,5.64-4.05,10.73-7.38,12.63-8.12.33-.13.69-.11,1.01.05l14.39,7.23c.62.31,1.25.64,1.9.99,4.88,3.08,8.9,7.96,14.65,9.98,5.46,1.72,11.21,2.01,15.83,5.32l1.66.84c.07,0-.41-.26-1.32-.72-.46-.23-1.03-.52-1.68-.85-1.55-.85-2.99-2-4.71-2-10.35-.86-17.54-7.76-25.77-13.03-.6-.3-1.2-.59-1.78-.89-4.09-2.03-7.67-3.83-10.12-5.11-1.1-.57-.78-2.22.45-2.34l7.17-.7,2.87-.28c5.61-.93,10.5,2.52,16.25,1.94,3.16-.29,5.46-2.59,8.34-3.74,1.72-.57,3.74-.57,5.34.04.67.19,1.34.41,2.01.64,2,.69,4.02,1.48,6.17,1.91,1.44.29,2.87-.29,4.02-.57,3.74-1.72,6.61-4.6,10.75-5.36.73-.1,1.45-.18,2.16-.25l16.84-1.65c.21-.02.42-.1.59-.22,1-.73,2.39-.66,3.33.19Z"/>
                <path class="cls-36" d="m414.3,260.22v-.02c-.9-.07-1.82-.38-2.77-1.01-2.5-.3-13.87-1.13-29.21-2.14-.82-.05-1.58-.36-2.2-.89l-8.77-7.38c-.85.31-2.05.81-3.22,1.29-2.99,1.23-5.04,2.06-6.32,2.3-.8.15-1.62.05-2.36-.31l-17.95-8.62-.44-.2c-.85-.38-1.66-.74-2.6-.93l-4.14-.83,2.64-3.3c.2-.25.42-.49.65-.72-.79.08-1.75.29-2.97.57-2.28.53-4.87,1.14-7.48.53l-.22-.06c-3.91-1.3-7.28-3.42-10.54-5.46-.56-.35-1.13-.71-1.69-1.05-.54-.25-1.33-.49-2.11-.73l-5.43-1.49-.3-.17c-1.69-1-4.78-1.59-7.26-2.07-3.56-.68-5.71-1.1-6.5-2.99-.39-.93-.28-1.97.3-2.84l.12-.17c6.07-7.71,7.02-16.81,2.8-27.04-.55-1.38-.33-2.58.1-3.56-.56-.76-.93-1.66-1.11-2.69-.42-2.12-.09-4.22.2-6.07.42-2.67.61-4.38-.51-5.73l-.13-.16-.11-.18c-.4-.68-.86-1.45-1.26-2.28-.96-2.02-1.32-3.96-1.09-5.91l.03-.17c1.43-7.64,7.98-10.62,13.77-13.25,2.5-1.14,4.86-2.21,6.81-3.59l1.7-1.22c3.76-2.69,10.47-7.37,13.2-8.43,1-.39,2.13-.33,3.09.15h.02c.57-.46,1.28-.77,2.07-.84l9.96-.98c3.41-.55,6.42.22,9.33.97,2.4.61,4.68,1.2,6.99.96,1.43-.13,2.74-.9,4.24-1.8,1.05-.62,2.14-1.27,3.39-1.77l.14-.05c2.26-.75,4.85-.74,6.95.04.6.17,1.25.38,2.04.65.4.14.79.28,1.19.42,1.59.56,3.09,1.09,4.65,1.4.55.11,1.35-.12,2.12-.34.18-.05.35-.1.52-.14,1.15-.55,2.24-1.23,3.39-1.95,2.3-1.44,4.67-2.93,7.78-3.5l.1-.02c.69-.1,1.41-.18,2.26-.26l16.51-1.62c1.96-1.2,4.52-.98,6.24.59l1.15,1.05c.86-.42,1.86-.5,2.83-.19l10.32,3.3c1.01.32,2.05.66,3.16,1.07l.33.12.28.2c5.74,4.12,12.5,5.65,19.65,7.27.95.21,1.89.43,2.83.65l.28.07.26.13c.5.24.99.5,1.49.75.37.19.73.37,1.1.56,2.12,1.06,4.66,2.19,7.52,2.6,1.4.18,2.9.28,4.57.29.72,0,1.46,0,2.28-.03,2.11-.15,4.25-.34,6.32-.51,9.7-.83,19.73-1.69,29.52.27h.05c3.93.89,4.11,5.5,4.22,8.56v.26c.04.84.07,1.63.14,2.33v.09c.18,2.65,1.64,5.32,3.18,8.14,2.41,4.42,5.14,9.43,2.58,14.99l-.03.07c-.63,1.25-1.37,2.41-2.1,3.53-1.65,2.56-3.08,4.77-2.71,7.39l.03.35v1.86c.02,8.95-.1,16.95-.33,23l4.33,5.04c.33.39,8.41,12.37,8.46,12.45.45.78,1.83,3.14.65,5.36-1.27,2.4-4.22,2.6-7.62,2.82-2.47.16-5.28.35-7.39,1.34q-.8.38-17.85-.31c-1.67-.07-3.26-.13-3.93-.15l-6.61,1.75c-8.77,4.3-17.84,5.8-27.44,7.39l-1.15.19-10.84,2.86c-1.3.22-2.64-.26-3.51-1.24l-6.7-7.63-23.76,9.01-1.65.03s-.1,0-.15,0h-.42Zm-31.2-8.28c30.03,1.98,30.21,2.12,31.06,2.8.22.18.38.3.61.28.54-.58,1.24-1.26,2.11-2.1,1.24-1.21,2.71-2.59,3.88-3.69.76-.81,1.54-1.58,2.38-2.24l1.93-1.52,1.62,1.85c.45.53,1.28,1.88-.24,3.59l12.85-4.88c1.48-.56,3.17-.14,4.22,1.05l6.76,7.7,10.07-2.66,1.27-.21c9.3-1.54,18.08-2.99,26.23-7.04l.23-.12,7.75-2.05h.29c.17-.02.2-.02,4.52.16,4.6.19,13.84.56,15.97.57,2.86-1.2,6.1-1.41,8.72-1.59.96-.06,2.16-.14,2.97-.28-.02-.04-.05-.08-.07-.13-.52-.78-7.27-10.75-8.02-11.82l-.77-.9c-.02.27-.05.53-.07.78-.17,1.71-1.42,3.07-3.11,3.38-1.69.31-3.35-.52-4.11-2.06l-12.3-24.89-6.2-7.21c-.56-.65-.95-1.43-1.14-2.27-.42-1.91.61-3.76,2.46-4.41,1.85-.65,3.83.15,4.69,1.91l4.5,9.11,10.72,12.47c.11-5,.17-10.85.16-17.21v-1.68c-.56-4.42,1.6-7.76,3.5-10.71.67-1.04,1.3-2.02,1.8-3,1.36-2.98-.02-5.9-2.44-10.33-1.73-3.17-3.52-6.45-3.78-10.22-.08-.85-.12-1.75-.15-2.62v-.25c-.04-.93-.12-3.03-.45-3.76-8.98-1.74-18.12-.96-27.78-.13-2.1.18-4.28.37-6.44.52h-.1c-.9.03-1.73.05-2.53.04-1.88-.01-3.59-.13-5.23-.34-3.62-.52-6.64-1.85-9.12-3.09-.38-.19-.77-.39-1.15-.58-.38-.2-.77-.39-1.15-.58-.83-.19-1.67-.38-2.51-.57-7.23-1.64-14.7-3.33-21.22-7.9-.89-.32-1.77-.6-2.63-.88l-4.31-1.38,28.12,25.64-.64,2.92-1.42.44c-1.03.32-1.65.08-2.48-.58v.02s-.37-.32-.37-.32c-.19-.16-.4-.35-.62-.55l-2.69-2.42c-2.27-2.04-5.38-4.84-8.78-7.92-6.2-5.6-14.58-13.2-19.32-17.63-.2-.19-.38-.39-.53-.61l-3.15-2.87s-.07-.02-.08,0c-.54.39-1.18.63-1.85.7l-16.84,1.65c-.76.07-1.4.15-1.99.23-2.11.4-3.96,1.56-5.92,2.79-1.3.82-2.64,1.66-4.17,2.36l-.22.1-.23.06c-.2.05-.4.11-.61.17-1.17.33-2.77.79-4.54.43-1.92-.38-3.66-1-5.35-1.6-.38-.14-.77-.27-1.15-.4-.74-.25-1.33-.44-1.87-.59l-.22-.07c-.99-.38-2.37-.39-3.53-.02-.86.35-1.71.86-2.61,1.39-1.79,1.06-3.81,2.26-6.38,2.49-3.2.32-6.02-.4-8.75-1.1-2.54-.65-4.93-1.26-7.31-.86l-.17.02-5.1.5,6.85,3.44c.64.32,1.3.66,1.97,1.02l.15.09c1.94,1.22,3.72,2.68,5.44,4.1.24.19.47.39.71.58,2.95,2.05,5.87,3.96,9,5.35,1.29.36,2.61.67,3.9.96,1.62.37,3.26.75,4.88,1.24,1.28.17,2.39.7,3.35,1.24.96.44,1.9.95,2.82,1.56.19.09.36.18.52.27.43.22.87.44,1.27.7l.04.02h0c1.01.66,1.72,1.49,1.34,2.95l-.53,2-2.63-.11-2.33-1.17-.16-.12s-.09-.06-.14-.1c-.27-.13-.55-.28-.86-.43l-.08-.04c-.37-.2-.74-.42-1.1-.64-.16-.1-.33-.2-.49-.29-.65-.28-1.32-.53-2-.76h-.11c-3.45-.3-6.55-1.19-9.44-2.44-.3-.09-.6-.18-.89-.27l-.08-.02c-3.67-1.29-6.6-3.53-9.38-5.79-.62-.43-1.24-.87-1.86-1.3-1.69-1.19-3.43-2.41-5.17-3.53l-1.66-.82c-4.58-2.28-7.91-3.96-10.16-5.13-.37-.19-.7-.44-.98-.72l-1.47-.74c-1.59.79-5.32,3.12-11.55,7.58l-1.72,1.23c-2.36,1.67-5.06,2.9-7.66,4.08-5.28,2.4-9.85,4.48-10.82,9.43-.1.96.1,1.89.64,3.01.26.56.61,1.15.93,1.69,2.52,3.16,1.96,6.75,1.51,9.65-.19,1.21-.37,2.36-.33,3.39.4-.24.82-.46,1.26-.64,4.28-1.77,9.59-.45,14.28.72,1.64.41,3.2.8,4.52,1l.15.03,3.8.81c2.05.44,2.43,2.05,2.33,2.93-.26,2.3-2.65,2.38-3.55,2.41-.72.02-1.72.03-2.89,0-1.16-.03-2.31-.08-3.43-.14l-.45-.02-.42-.18c-1.7-.72-4.45-.5-7.11-.2l-.85.1c-.73.08-1.46.17-2.16.23h-.15c-.34.02-.69.05-1.05.07-.91.06-1.97.14-3.07.03,4.11,10.62,3.39,20.27-2.13,28.72.42.08.85.17,1.23.24,2.75.53,6.14,1.18,8.59,2.51l4.89,1.35c1.04.31,2.11.64,3.04,1.1l.2.11c.61.38,1.22.76,1.83,1.14,2.96,1.86,6.03,3.78,9.31,4.9,1.42.29,3.17-.12,5.02-.55,3.24-.76,7.27-1.7,10.48,1.5.57.57.87,1.35.83,2.14-.04.87-.43,1.55-.99,2.16l17.46,8.38c1.09-.32,3.28-1.22,4.93-1.9,1.7-.7,3.31-1.36,4.34-1.68,1.24-.38,2.58-.11,3.58.73l9.01,7.58Zm130.25-30.33l1.24,2.51c.02-.33.03-.66.05-1.01l-1.29-1.5Z"/>
              </g>
              <g>
                <path class="cls-36" d="m521.4,241.08s-25.91-9.78-49.04-18.51c-.76-.43-1.53-.77-2.31-1.15-4.88-2.62-9.76-5.78-14.94-7.51-8.34-3.16-16.96-4.31-25.26-7.21l-1.64-.58c-3.26-1.15-7.15-2.52-11.15-3.93l-2.01-.71c-13.12-4.53-26.34-8.27-39.57-13.73-4.02-1.72-9.2,0-14.04-.76-1.25-.12-2.45-.27-3.53-.43-3.25-.48-5.47-1-5.28-1.54h0c.19-.54,2.61-.78,5.96-.85.56-.01,1.14-.02,1.74-.02,5.37.15,11.12-2.44,15.72-.14,15.81,8.34,32.77,10.92,48.96,17.45.8.28,1.58.56,2.36.84,16.24,3.27,31.76,7.3,45.68,16.4.79.34,1.57.65,2.34,1.02,23.57,8.55,42.24,15.32,42.24,15.32,1.79.63,13.28,3.1,12.65,4.89l-2.59,4.31c-.63,1.79-4.51-2.53-6.3-3.16Z"/>
                <path class="cls-36" d="m527.12,245.66c-1,0-2.14-.84-3.78-2.11-.83-.64-1.76-1.36-2.27-1.54h-.02s-49.11-18.54-49.11-18.54l-.07-.04c-.57-.32-1.15-.6-1.76-.89l-.49-.23c-1.27-.68-2.53-1.39-3.74-2.08-3.59-2.03-7.3-4.12-11.08-5.38-4.42-1.67-8.98-2.8-13.39-3.88-3.91-.96-7.96-1.96-11.89-3.33l-14.81-5.22c-4.23-1.46-8.56-2.87-12.74-4.23-8.8-2.86-17.89-5.81-26.87-9.52-2.13-.91-4.7-.76-7.42-.61-2.08.12-4.23.24-6.36-.08-1.11-.1-2.27-.25-3.56-.44-4.93-.73-5.62-1.26-5.96-1.83-.19-.31-.23-.68-.11-1.01.28-.78.96-1.39,6.87-1.51.39,0,.8-.01,1.22-.02h.53c1.9.05,3.88-.26,5.79-.55,3.53-.54,7.18-1.1,10.39.51,9.33,4.92,19.24,7.88,28.83,10.74,6.61,1.97,13.44,4.01,20.06,6.68.74.26,1.5.53,2.25.81,17.92,3.61,32.59,7.8,45.88,16.48l.39.17c.61.26,1.24.52,1.86.82l42.2,15.3c.35.12,1.25.36,2.29.63,6.59,1.74,10.08,2.88,10.85,4.32.2.38.24.8.1,1.18l-.08.18-2.54,4.24c-.19.46-.54.78-.99.92-.16.05-.32.07-.48.07Zm-5.38-5.51c.8.29,1.78,1.04,2.81,1.84.7.54,1.81,1.4,2.37,1.63l2.28-3.8c-1.29-1.03-7.36-2.62-9.43-3.17-1.17-.31-2.02-.53-2.46-.68l-42.34-15.36c-.59-.28-1.19-.53-1.82-.8l-.63-.28c-13.07-8.55-27.58-12.68-45.34-16.26l-.14-.04c-.78-.28-1.55-.56-2.35-.84-6.57-2.65-13.36-4.67-19.93-6.63-9.68-2.89-19.69-5.88-29.17-10.87-2.63-1.32-5.82-.83-9.19-.31-2,.3-4.06.62-6.1.56h-.5c-.41.01-.81.02-1.2.02-1.03.02-1.86.06-2.54.1.55.1,1.2.21,1.98.33,1.26.19,2.4.33,3.48.43h.06c1.93.31,3.99.19,5.97.08,2.83-.16,5.76-.33,8.3.76,8.9,3.67,17.96,6.62,26.72,9.46,4.19,1.36,8.53,2.77,12.78,4.24l14.81,5.22c3.84,1.34,7.84,2.33,11.71,3.28,4.47,1.1,9.08,2.24,13.58,3.94,3.93,1.31,7.72,3.45,11.39,5.52,1.2.68,2.45,1.38,3.66,2.04l.44.21c.6.28,1.21.57,1.83.92l48.96,18.48Z"/>
              </g>
              <g>
                <path class="cls-36" d="m420.25,200.08c-4.81-4.28-10.85-6.87-16.59-9.74-1.72-1.15-5.17-2.87-4.02-4.89,2.01-4.02,3.45-8.34.18-12,0,0-.53-.68-1.39-1.74l-6.86-8.45c-.83-1.02-1.55-1.91-2.07-2.54-2.8-4.61-7.69-6.33-11.43-9.78,4.89,2.3,10.06,4.31,12.92,9.22.65.81,1.35,1.69,2.11,2.64l7.13,8.96c.43.54.86,1.08,1.28,1.63,3.87,3.42,1.29,7.45.14,11.47-.57,1.72.86,3.16,2.3,4.31,6.61,4.6,14.66,6.04,19.62,12.14l-1.8,1.02c-.62.5-.99-1.71-1.52-2.26Z"/>
                <path class="cls-36" d="m421.59,202.81c-.05,0-.1,0-.15-.02-.46-.12-.71-.74-.99-1.45-.14-.36-.32-.81-.46-.97-4.01-3.57-8.97-5.99-13.77-8.33-.91-.45-1.83-.89-2.73-1.34-.28-.18-.54-.35-.83-.52-1.81-1.13-4.54-2.84-3.36-4.9,1.96-3.92,3.35-8.05.23-11.55-.02-.02-.54-.7-1.4-1.75l-6.86-8.45c-.83-1.02-1.55-1.91-2.07-2.54l-.03-.04c-1.72-2.84-4.23-4.53-6.87-6.32-1.52-1.03-3.08-2.09-4.48-3.38l-1.86-1.72,2.29,1.08c.47.22.94.44,1.41.65,4.43,2.05,9.02,4.17,11.67,8.7.64.8,1.34,1.68,2.09,2.62l7.13,8.96c.42.53.85,1.06,1.26,1.6,3.31,2.95,2.12,6.34.96,9.61-.26.73-.53,1.49-.74,2.23-.5,1.51.81,2.82,2.17,3.9,2.5,1.74,5.27,3.05,7.95,4.31,4.44,2.09,8.63,4.07,11.73,7.89l.29.36-2.18,1.23c-.12.09-.26.14-.4.14Zm-11.33-9.64c3.63,1.85,7.2,3.91,10.26,6.63l.02.02c.25.26.44.73.63,1.23.12.3.3.77.44.94l1.36-.77c-2.96-3.45-6.95-5.33-11.16-7.32-.51-.24-1.03-.49-1.55-.74Zm-20.44-32.66c.51.63,1.23,1.51,2.05,2.52l6.86,8.45c.86,1.06,1.39,1.74,1.39,1.74,3.42,3.83,1.85,8.43-.14,12.41-.75,1.32,1.03,2.59,3.09,3.88.29.18.56.35.8.51.86.43,1.77.87,2.68,1.32.39.19.78.38,1.17.57-1.36-.71-2.71-1.49-4-2.39-1.49-1.19-3.1-2.8-2.45-4.76.21-.75.48-1.52.75-2.26,1.12-3.18,2.18-6.19-.77-8.8l-.05-.06c-.41-.54-.84-1.08-1.27-1.62l-7.13-8.96c-.75-.95-1.46-1.84-2.11-2.64l-.03-.05c-2.23-3.82-5.98-5.89-9.81-7.7.62.45,1.26.87,1.88,1.29,2.59,1.75,5.28,3.57,7.09,6.54Z"/>
              </g>
              <g>
                <path class="cls-36" d="m454.89,210.22c-3.23-3.21-6.68-6.37-7.83-10.68-.22-.75-.45-1.49-.71-2.21-.29-.7-.6-1.39-.96-2.05-3.79-5.52-10.69-6.09-16.15-9.54-.57-.29-.86-1.15-.86-1.72.86-4.6,4.31-8.62.61-12.57l-1.41-1.93c-.42-.57-8.41-6.34-7.77-6.81h0c.64-.47,8.45,5.11,8.87,5.68l2.73,3.79c.32.93.75,1.92.94,3.07.91,3.31-2.83,7.04.05,9.34,4.89,4.31,12.36,5.46,15.27,11.82.4.79.78,1.59,1.16,2.4.38.81.75,1.63,1.11,2.45,2.01,4.89,7.47,7.47,10.35,12.07-1.15.29-2.87,1.44-3.54-.6-.63-.9-1.37-2.03-1.85-2.52Z"/>
                <path class="cls-36" d="m458.13,214.31c-.26,0-.52-.05-.77-.17-.43-.21-.76-.63-.97-1.23-.12-.18-.25-.36-.38-.55-.51-.74-1.04-1.51-1.4-1.87l-.69-.68c-3.02-2.98-6.14-6.07-7.24-10.17-.21-.73-.45-1.46-.7-2.18-.32-.78-.62-1.42-.93-1.99-2.35-3.41-5.94-4.87-9.75-6.41-2.11-.85-4.29-1.74-6.27-2.99-.67-.33-1.04-1.31-1.04-2.05v-.07c.26-1.33.71-2.59,1.15-3.82,1.11-3.09,2.06-5.75-.44-8.41l-1.44-1.97c-.14-.17-1.21-1.01-2.25-1.82-4.48-3.51-5.63-4.57-5.63-5.15,0-.15.07-.29.2-.38,1.14-.84,9.35,5.68,9.41,5.76l2.79,3.9c.07.19.14.39.21.58.28.75.59,1.61.75,2.55.41,1.47-.05,2.99-.5,4.46-.56,1.87-1.05,3.48.4,4.65,1.8,1.59,3.99,2.76,6.11,3.9,3.63,1.95,7.39,3.96,9.27,8.07.39.78.78,1.59,1.16,2.4.37.8.75,1.63,1.11,2.46,1.09,2.64,3.19,4.57,5.41,6.62,1.77,1.63,3.6,3.32,4.91,5.41l.28.45-.52.13c-.2.05-.43.13-.67.22-.51.18-1.06.38-1.59.38Zm-29.36-30.26c.01.5.27,1.15.65,1.34,1.96,1.24,4.11,2.1,6.18,2.95,3.75,1.52,7.62,3.09,10.12,6.72.35.63.66,1.29,1,2.12.27.75.51,1.5.73,2.25,1.04,3.91,4.09,6.92,7.04,9.83l.69.69c.41.41.96,1.21,1.49,1.98.14.2.28.4.41.59l.05.1c.14.43.33.7.59.83.45.22,1.14-.03,1.75-.24.08-.03.15-.05.23-.08-1.23-1.81-2.89-3.34-4.5-4.82-2.19-2.01-4.45-4.09-5.6-6.89-.36-.82-.73-1.64-1.1-2.44-.37-.8-.76-1.61-1.16-2.39-1.78-3.88-5.25-5.75-8.93-7.72-2.16-1.16-4.39-2.35-6.24-3.99-1.85-1.48-1.24-3.51-.65-5.47.41-1.36.84-2.78.48-4.06-.15-.91-.44-1.7-.72-2.45-.07-.18-.13-.36-.2-.54l-2.7-3.75c-.42-.52-5.57-4.17-7.66-5.25,1.06,1.02,3.39,2.85,4.79,3.94,1.62,1.27,2.24,1.77,2.4,1.98l1.41,1.93c2.79,2.97,1.71,5.98.57,9.17-.43,1.19-.86,2.41-1.1,3.66Z"/>
              </g>
              <g>
                <path class="cls-36" d="m493.33,227.67l-14.38-30.42-7.87-15.87-2.11-4.29c-.31-.63-6.52-8.03-5.98-8.3h0c.54-.27,6.61,6.91,6.92,7.54l23.76,48.86c.31.63,2.67,4.31,2.13,4.58l-1.57.36c-.54.27-.59-1.83-.91-2.46Z"/>
                <path class="cls-36" d="m494.15,230.49c-.08,0-.15-.02-.22-.05-.36-.18-.48-.73-.65-1.61-.07-.38-.15-.82-.25-1.01h0s-14.38-30.43-14.38-30.43l-7.86-15.86-2.11-4.29c-.09-.18-.94-1.26-1.76-2.3-3.55-4.5-4.39-5.71-4.28-6.18.03-.12.1-.22.21-.27.28-.14.59-.29,3.95,3.51,1.46,1.65,3.23,3.78,3.43,4.18l23.76,48.86c.07.13.23.42.44.78,1.3,2.22,1.93,3.44,1.77,3.96-.04.13-.13.24-.24.29l-.08.03-1.53.35c-.07.03-.13.04-.2.04Zm-.51-2.97c.14.27.22.71.3,1.18.06.34.17.88.27,1.09l1.33-.3c-.11-.62-1.25-2.56-1.7-3.32-.22-.38-.39-.67-.47-.82l-23.76-48.86c-.26-.52-3.87-4.78-5.69-6.57.89,1.28,2.51,3.34,3.52,4.61,1.13,1.43,1.72,2.19,1.84,2.42l2.11,4.29,7.87,15.87,14.39,30.43Z"/>
              </g>
              <g>
                <path class="cls-36" d="m398.57,194.35c-11.01-1.13-21.64,1.17-32.15,1.77-.82.03-1.97.07-3.28.11-5.25.16-13.11.4-13.11.4l-4.77.17c-.71.02-10.18-2.7-10.15-1.91h0c.02.8,9.23,3.5,9.94,3.47l20.42-.83,2.22-.09c11.83-1.35,23.33-1.06,35.12-1.63-.86-.57-1.44-1.15-2.21-1.86-.82-.8-1.28.41-2.02.4Z"/>
                <path class="cls-36" d="m345.04,198.75c-.5,0-3.21-.76-5.35-1.45-4.96-1.6-4.98-2.08-4.98-2.4,0-.15.06-.29.18-.39.45-.37,2-.11,7.52,1.25,1.28.32,2.61.64,2.83.65l4.77-.17,13.11-.4c1.34-.04,2.47-.08,3.27-.11,3.41-.2,6.92-.58,10.31-.95,7.09-.78,14.42-1.58,21.87-.82.15,0,.33-.14.52-.27.38-.28,1.01-.74,1.76-.02l.35.32c.59.55,1.1,1.02,1.8,1.49l.98.66-1.18.06c-4.07.2-8.16.3-12.12.39-7.49.18-15.24.36-22.97,1.24l-22.66.93s0,0-.01,0Zm-8.87-3.57c2.14.98,8.19,2.78,8.86,2.79l22.63-.92c7.74-.88,15.51-1.07,23.01-1.25,3.6-.09,7.31-.17,11.01-.34-.35-.29-.66-.58-1.01-.9l-.36-.33c-.26-.25-.35-.22-.76.08-.26.19-.58.42-.99.42,0,0,0,0,0,0h-.04c-7.37-.76-14.67.04-21.73.81-3.4.37-6.92.76-10.36.96-.82.03-1.95.07-3.24.11l-13.16.4-4.77.17c-.27,0-1.04-.18-3.04-.67-1.72-.42-4.6-1.13-6.06-1.34Z"/>
              </g>
              <g>
                <path class="cls-36" d="m448.52,210.9c-1.17,3.58-4.9,5.02-8.24,5.04-.67.08-1.36.15-2.05.22l-18.83,1.96-17.66,1.4-4.76.4c-.7.06-10.3-2.21-10.23-1.41h0c.06.79,9.39,3.05,10.1,2.99,0,0,26.1-2.33,42.04-3.76l1.86-.17c4.01.07,8.32-1.08,10.33-4.82.86-1.72-1.15-2.59-1.74-4.07-.56-1.2-.58,1.73-.84,2.22Z"/>
                <path class="cls-36" d="m396.84,221.89c-.58,0-3.25-.61-5.38-1.19-5.03-1.36-5.07-1.84-5.1-2.16-.01-.15.05-.3.16-.4.44-.39,1.99-.21,7.58.89,1.3.25,2.64.52,2.86.51l4.75-.4,17.66-1.4,18.82-1.96c.69-.07,1.38-.14,2.05-.22,3.1-.02,6.78-1.29,7.91-4.77l.03-.06c.06-.12.13-.62.17-.96.14-1.04.22-1.67.7-1.74.4-.06.6.37.66.51.19.48.55.9.9,1.31.7.82,1.5,1.75.83,3.1-2.42,4.5-7.74,5.08-10.69,5.03l-1.82.17-42.04,3.76s-.03,0-.04,0Zm-9-3.14c2.19.88,8.31,2.4,8.99,2.36l43.9-3.93c2.82.05,7.8-.48,10.02-4.61.42-.83.02-1.37-.73-2.23-.29-.34-.59-.69-.82-1.08-.03.21-.06.43-.09.6-.08.59-.13.97-.24,1.19-1.27,3.86-5.27,5.26-8.6,5.28-.63.07-1.32.15-2.01.22l-18.83,1.96-17.66,1.4-4.76.4c-.26.02-1.05-.13-3.07-.52-1.74-.34-4.65-.91-6.12-1.04Z"/>
              </g>
              <g>
                <path class="cls-36" d="m481.69,226.71l-32.42,9.03-17.15,4.43-4.62,1.21c-.68.18-10.34.32-10.19.9h0c.15.58,9.55.48,10.23.3l52.49-13.99c.68-.18,5.01-.8,4.86-1.39l-.75-1.42c-.15-.58-1.77.75-2.45.92Z"/>
                <path class="cls-36" d="m423.24,243.07c-.34,0-.68,0-1.01,0-5.08-.05-5.16-.39-5.24-.69-.03-.12,0-.24.07-.34.29-.39,1.76-.55,7.48-.81,1.32-.06,2.69-.12,2.89-.17l4.62-1.21,17.15-4.43,32.42-9.03c.2-.05.59-.27.92-.47.78-.45,1.27-.72,1.64-.57.14.06.24.17.29.31l.77,1.46c.03.13,0,.26-.06.38-.29.46-1.63.78-4.16,1.25-.41.08-.73.14-.88.17l-52.49,13.99c-.37.1-2.43.15-4.4.15Zm-4.47-.8c2.55.2,8.13.14,8.7,0l52.49-13.99c.16-.04.5-.1.93-.18.87-.16,3.08-.57,3.62-.89l-.64-1.2c-.22.06-.7.33-1,.51-.41.24-.8.46-1.09.54l-32.42,9.03-17.15,4.43-4.62,1.21c-.25.06-1.21.11-3.03.19-1.62.07-4.25.19-5.79.36Z"/>
              </g>
            </g>
          </g>
          <g>
            <g>
              <path class="cls-27" d="m528.6,179.44c0-3.3-1.05-6.38-2.59-8.93,0,0,0,0,0,0,0-11.38-52.88-61.98-117.97-61.98s-117.76,50.6-117.76,61.98c0,0,0,0,0,0-1.54,2.55-2.44,5.63-2.44,8.93v11.14c0,3.36.94,6.48,2.53,9.06,2.07,11.07,53.95,15.76,117.73,15.76s116.06-4.67,117.92-15.77c1.56-2.57,2.59-5.72,2.59-9.04v-11.14Z"/>
              <path class="cls-34" d="m408.09,221.52c-33.66,0-62.27-1.3-82.74-3.77-26.16-3.15-38.19-7.76-40.7-15.74-1.93-3.45-2.94-7.38-2.94-11.43v-11.14c0-3.83.91-7.56,2.64-10.88,2.05-10.53,19.63-26.94,37.02-38.43,15.68-10.36,47.79-27.74,86.67-27.74s71.05,17.38,86.77,27.73c17.43,11.48,35.06,27.88,37.13,38.41,1.83,3.44,2.79,7.18,2.79,10.9v11.14c0,3.93-1.03,7.84-2.97,11.36-2.41,8.03-14.45,12.66-40.7,15.81-20.5,2.47-49.19,3.77-82.96,3.77Zm-111.81-23.51c.97.9,6.81,5.04,34.38,8.02,19.65,2.12,46.42,3.25,77.43,3.25s57.83-1.12,77.5-3.23c27.5-2.95,33.45-7.06,34.48-7.99l.1-.62.61-1.01c1.09-1.79,1.69-3.87,1.69-5.86v-11.14c0-2.43-.93-4.47-1.71-5.77l-.88-1.46v-1.54c-.77-3.36-11.57-17.29-33.3-31.29-24.78-15.96-52.68-24.75-78.55-24.75s-53.73,8.79-78.45,24.75c-21.67,13.99-32.43,27.92-33.19,31.28v1.54l-.88,1.46c-1.02,1.69-1.56,3.69-1.56,5.77v11.14c0,2.11.56,4.13,1.62,5.85l.6.97.11.61Zm223.62-27.24h0s0,0,0,0Z"/>
            </g>
            <g>
              <path class="cls-34" d="m313.63,175.66c1.31-1.16,2.93-1.48,3.62-.71s.18,2.34-1.14,3.51-4.57,2.93-5.26,2.16,1.46-3.79,2.77-4.96Z"/>
              <path class="cls-34" d="m311.41,181.4c-.41,0-.76-.11-1-.38-.51-.58-.33-1.57.58-3.04.62-1.01,1.53-2.12,2.25-2.76,1.58-1.4,3.54-1.69,4.46-.66.48.54.58,1.31.3,2.18-.25.76-.78,1.53-1.49,2.16-.73.65-3.43,2.49-5.1,2.49Zm-.1-1.18c.6.15,3.06-1,4.4-2.2.55-.49.97-1.08,1.15-1.64.15-.45.12-.82-.06-1.03-.4-.45-1.67-.22-2.78.76h0c-1.35,1.19-2.78,3.5-2.71,4.11Z"/>
            </g>
            <g>
              <path class="cls-34" d="m488.28,185.08c1.76,0,3.18.78,3.18,1.75s-1.42,1.75-3.18,1.75-5.36-.78-5.36-1.75,3.61-1.75,5.36-1.75Z"/>
              <path class="cls-34" d="m488.28,189.15c-1.21,0-5.94-.61-5.94-2.32s4.73-2.32,5.94-2.32c2.1,0,3.75,1.02,3.75,2.32s-1.65,2.32-3.75,2.32Zm-4.76-2.32c.44.47,3.01,1.17,4.76,1.17,1.47,0,2.61-.63,2.61-1.17s-1.14-1.17-2.61-1.17c-1.75,0-4.32.7-4.76,1.17Z"/>
            </g>
            <g>
              <path class="cls-34" d="m403.63,175.3c1.76,0,3.18-.74,3.18-1.66s-1.42-1.66-3.18-1.66-5.36.74-5.36,1.66,3.61,1.66,5.36,1.66Z"/>
              <path class="cls-34" d="m403.63,175.86c-.74,0-5.92-.44-5.92-2.22s5.19-2.22,5.92-2.22c2.13,0,3.74.96,3.74,2.22s-1.61,2.22-3.74,2.22Zm-4.76-2.22c.49.45,2.99,1.1,4.76,1.1,1.6,0,2.62-.65,2.62-1.1s-1.02-1.1-2.62-1.1c-1.77,0-4.27.65-4.76,1.1Z"/>
            </g>
            <g>
              <path class="cls-34" d="m461.74,163.3c.63,1.64.35,3.27-.61,3.64s-2.26-.66-2.88-2.3-1.13-5.31-.17-5.68,3.04,2.7,3.66,4.34Z"/>
              <path class="cls-34" d="m460.71,167.6c-.5,0-1.02-.21-1.52-.6-.63-.5-1.16-1.27-1.5-2.16-.43-1.13-1.52-5.8.18-6.44.72-.28,1.59.25,2.64,1.61.73.94,1.44,2.18,1.79,3.08.75,1.98.33,3.91-.96,4.4-.2.08-.41.12-.63.12Zm-2.41-8.08c-.35.5-.14,3.22.5,4.9.26.69.67,1.29,1.13,1.65.37.29.73.41.99.31.56-.22.8-1.49.27-2.87-.64-1.68-2.29-3.84-2.89-3.99Z"/>
            </g>
            <g>
              <path class="cls-34" d="m345.76,182.39c-.62,1.64-1.85,2.7-2.75,2.36s-1.13-1.95-.51-3.59,2.62-4.74,3.53-4.4.36,3.99-.26,5.64Z"/>
              <path class="cls-34" d="m343.37,185.39c-.19,0-.38-.03-.56-.1-1.22-.46-1.59-2.36-.85-4.33.43-1.13,2.66-5.34,4.26-4.74,1.6.6.5,5.24.08,6.37h0c-.33.88-.84,1.65-1.43,2.16-.49.42-1.01.64-1.5.64Zm2.44-8.06c-.59.24-2.16,2.4-2.78,4.04-.52,1.37-.33,2.66.18,2.85.22.08.56-.04.91-.33.44-.38.85-.99,1.11-1.69h0c.62-1.64.87-4.29.58-4.87Z"/>
            </g>
            <g>
              <path class="cls-34" d="m355.15,159.24c-.62,1.64-.42,3.24.44,3.56s2.06-.75,2.68-2.39,1.2-5.28.34-5.61-2.83,2.79-3.45,4.43Z"/>
              <path class="cls-34" d="m355.92,163.42c-.18,0-.36-.03-.52-.1-.62-.23-1.02-.85-1.13-1.74-.09-.76.04-1.66.37-2.54.26-.69,2.5-5.39,4.17-4.76,1.67.63.25,5.64,0,6.33-.33.88-.83,1.64-1.4,2.15-.49.43-.99.66-1.47.66Zm2.47-8.04c-.6.3-2.09,2.4-2.71,4.06h0c-.26.7-.38,1.43-.31,2.01.05.44.21.75.41.83.21.08.53-.05.86-.35.43-.39.83-1.01,1.1-1.71.62-1.66.9-4.22.64-4.84Z"/>
            </g>
            <g>
              <path class="cls-34" d="m382.75,144.29c-.62,1.64-.42,3.24.44,3.56s2.06-.75,2.68-2.39,1.2-5.28.34-5.61-2.83,2.79-3.45,4.43Z"/>
              <path class="cls-34" d="m383.52,148.47c-.18,0-.36-.03-.52-.1-.62-.23-1.02-.85-1.13-1.74-.09-.76.04-1.66.37-2.54.26-.69,2.5-5.39,4.17-4.76,1.67.63.25,5.64,0,6.33-.33.88-.83,1.64-1.4,2.15-.49.43-.99.66-1.47.66Zm2.47-8.04c-.6.3-2.09,2.4-2.71,4.06-.26.7-.38,1.43-.31,2.01.05.44.21.75.41.83.2.08.53-.05.86-.35.43-.39.83-1.01,1.1-1.71.62-1.66.9-4.22.64-4.84Z"/>
            </g>
            <g>
              <path class="cls-34" d="m322.51,147.37c1.31,1.16,2.93,1.48,3.62.71s.18-2.34-1.14-3.51-4.57-2.93-5.26-2.16,1.46,3.79,2.77,4.96Z"/>
              <path class="cls-34" d="m325.05,149.09c-.91,0-1.99-.44-2.93-1.28h0c-.72-.64-1.63-1.75-2.25-2.76-.9-1.46-1.09-2.46-.58-3.04.51-.58,1.52-.51,3.08.21,1.08.5,2.29,1.26,3.01,1.9.71.63,1.24,1.4,1.49,2.16.28.87.18,1.65-.3,2.18-.37.42-.91.62-1.53.62Zm-2.14-2.17c1.11.98,2.38,1.21,2.78.76.18-.21.21-.58.06-1.03-.18-.56-.6-1.15-1.15-1.64-1.35-1.19-3.81-2.34-4.4-2.2-.07.61,1.37,2.92,2.71,4.11h0Z"/>
            </g>
            <g>
              <path class="cls-34" d="m417.53,199.19c1.76,0,3.18-.78,3.18-1.75s-1.42-1.75-3.18-1.75-5.36.78-5.36,1.75,3.61,1.75,5.36,1.75Z"/>
              <path class="cls-34" d="m417.53,199.76c-1.21,0-5.94-.61-5.94-2.32s4.73-2.32,5.94-2.32c2.1,0,3.75,1.02,3.75,2.32s-1.65,2.32-3.75,2.32Zm-4.76-2.32c.44.47,3.01,1.17,4.76,1.17,1.47,0,2.61-.63,2.61-1.17s-1.14-1.17-2.61-1.17c-1.75,0-4.32.7-4.76,1.17Z"/>
            </g>
            <g>
              <path class="cls-34" d="m409.06,128.76c1.76,0,3.18.74,3.18,1.66s-1.42,1.66-3.18,1.66-5.36-.74-5.36-1.66,3.61-1.66,5.36-1.66Z"/>
              <path class="cls-34" d="m409.06,132.64c-.74,0-5.92-.44-5.92-2.22s5.19-2.22,5.92-2.22c2.13,0,3.74.96,3.74,2.22s-1.61,2.22-3.74,2.22Zm-4.76-2.22c.49.45,2.99,1.1,4.76,1.1,1.6,0,2.62-.65,2.62-1.1s-1.02-1.1-2.62-1.1c-1.77,0-4.27.65-4.76,1.1Z"/>
            </g>
            <g>
              <path class="cls-34" d="m467.17,140.77c.63-1.64.35-3.27-.61-3.64s-2.26.66-2.88,2.3-1.13,5.31-.17,5.68,3.04-2.7,3.66-4.34Z"/>
              <path class="cls-34" d="m463.68,145.74c-.13,0-.26-.02-.39-.07-1.7-.65-.61-5.31-.18-6.44.34-.89.87-1.66,1.5-2.16.72-.57,1.48-.74,2.15-.49.67.26,1.12.89,1.28,1.8.13.79.02,1.72-.32,2.61h0c-.34.9-1.06,2.14-1.79,3.08-.87,1.13-1.61,1.68-2.25,1.68Zm2.46-8.09c-.23,0-.5.12-.79.34-.46.36-.87.97-1.13,1.65-.64,1.68-.85,4.39-.5,4.9.59-.15,2.25-2.31,2.89-3.99h0c.26-.69.36-1.41.26-1.98-.08-.46-.27-.79-.53-.89-.06-.02-.13-.04-.2-.04Z"/>
            </g>
            <g>
              <path class="cls-34" d="m358.38,128.86c-.62-1.64-1.85-2.7-2.75-2.36s-1.13,1.95-.51,3.59,2.62,4.74,3.53,4.4.36-3.99-.26-5.64Z"/>
              <path class="cls-34" d="m358.49,135.09c-.62,0-1.34-.57-2.19-1.72-.7-.95-1.39-2.19-1.73-3.08-.33-.88-.46-1.79-.35-2.57.13-.89.55-1.52,1.19-1.76.64-.24,1.37-.05,2.06.54.59.51,1.1,1.27,1.43,2.16.34.9.63,2.29.73,3.46.15,1.7-.12,2.65-.81,2.91-.11.04-.23.06-.35.06Zm-2.51-8.08c-.06,0-.11,0-.15.03-.22.08-.4.4-.46.85-.08.58.02,1.3.28,2,.62,1.64,2.18,3.8,2.77,4.04.29-.57.04-3.23-.58-4.87h0c-.26-.7-.67-1.31-1.11-1.69-.27-.23-.54-.36-.76-.36Z"/>
            </g>
            <g>
              <path class="cls-34" d="m374.09,190.54c-.62-1.64-.42-3.24.44-3.56s2.06.75,2.68,2.39,1.2,5.28.34,5.61-2.83-2.79-3.45-4.43Z"/>
              <path class="cls-34" d="m377.4,195.56c-.6,0-1.29-.56-2.13-1.74-.68-.95-1.37-2.19-1.7-3.08h0c-.33-.88-.46-1.78-.37-2.54.11-.89.51-1.51,1.13-1.74,1.19-.45,2.65.72,3.4,2.71.34.89.64,2.28.76,3.44.17,1.71-.07,2.63-.75,2.89-.11.04-.22.06-.34.06Zm-2.55-8.08s-.09,0-.13.02c-.21.08-.36.39-.41.83-.07.58.04,1.31.31,2.01h0c.62,1.66,2.11,3.76,2.71,4.06.25-.62-.02-3.18-.65-4.84-.51-1.36-1.36-2.08-1.83-2.08Z"/>
            </g>
            <g>
              <path class="cls-34" d="m389.49,118.84c1.31-1.16,2.93-1.48,3.62-.71s.18,2.34-1.14,3.51-4.57,2.93-5.26,2.16,1.46-3.79,2.77-4.96Z"/>
              <path class="cls-34" d="m387.27,124.57c-.41,0-.76-.11-1-.38-1.21-1.36,1.92-4.99,2.82-5.8h0c1.58-1.4,3.54-1.69,4.46-.66.92,1.03.39,2.94-1.19,4.35-.73.65-3.43,2.49-5.1,2.49Zm-.1-1.18c.59.15,3.06-1,4.4-2.2,1.11-.98,1.49-2.22,1.09-2.67-.4-.45-1.67-.22-2.78.76-1.35,1.19-2.78,3.5-2.71,4.11Z"/>
            </g>
            <g>
              <path class="cls-34" d="m502.33,170.23c1.76,0,3.18.78,3.18,1.75s-1.42,1.75-3.18,1.75-5.36-.78-5.36-1.75,3.61-1.75,5.36-1.75Z"/>
              <path class="cls-34" d="m502.33,174.29c-1.21,0-5.94-.61-5.94-2.32s4.73-2.32,5.94-2.32c2.1,0,3.75,1.02,3.75,2.32s-1.65,2.32-3.75,2.32Zm-4.76-2.32c.44.47,3.01,1.17,4.76,1.17,1.47,0,2.61-.63,2.61-1.17s-1.14-1.17-2.61-1.17c-1.75,0-4.32.7-4.76,1.17Z"/>
            </g>
            <g>
              <path class="cls-34" d="m424.87,149.53c1.76,0,3.18-.74,3.18-1.66s-1.42-1.66-3.18-1.66-5.36.74-5.36,1.66,3.61,1.66,5.36,1.66Z"/>
              <path class="cls-34" d="m424.87,150.09c-.74,0-5.92-.44-5.92-2.22s5.19-2.22,5.92-2.22c2.13,0,3.74.96,3.74,2.22s-1.61,2.22-3.74,2.22Zm-4.76-2.22c.49.45,2.99,1.1,4.76,1.1,1.6,0,2.62-.65,2.62-1.1s-1.02-1.1-2.62-1.1c-1.77,0-4.27.65-4.76,1.1Z"/>
            </g>
            <g>
              <path class="cls-34" d="m498.79,147.58c.63,1.64.35,3.27-.61,3.64s-2.26-.66-2.88-2.3-1.13-5.31-.17-5.68,3.04,2.7,3.66,4.34Z"/>
              <path class="cls-34" d="m497.76,151.89c-.5,0-1.02-.21-1.52-.6-.63-.5-1.16-1.27-1.5-2.16-.43-1.13-1.52-5.8.18-6.44.72-.28,1.59.25,2.64,1.61.73.94,1.44,2.18,1.79,3.08h0c.75,1.98.33,3.91-.96,4.4-.2.08-.41.12-.63.12Zm-2.41-8.08c-.35.5-.14,3.22.5,4.9.26.69.67,1.29,1.13,1.65.37.29.73.41.99.31.56-.22.8-1.49.27-2.87h0c-.64-1.68-2.29-3.84-2.89-3.99Z"/>
            </g>
            <g>
              <path class="cls-34" d="m441.17,182.49c-.62,1.64-1.85,2.7-2.75,2.36s-1.13-1.95-.51-3.59,2.62-4.74,3.53-4.4.36,3.99-.26,5.64Z"/>
              <path class="cls-34" d="m438.78,185.49c-.19,0-.38-.03-.56-.1-1.22-.46-1.59-2.36-.85-4.33.43-1.13,2.66-5.34,4.26-4.74,1.6.6.5,5.24.08,6.37h0c-.33.88-.84,1.65-1.43,2.16-.49.42-1.01.64-1.5.64Zm2.44-8.07c-.59.24-2.16,2.4-2.78,4.04-.52,1.37-.33,2.66.18,2.85.22.08.56-.04.91-.33.44-.38.85-.99,1.11-1.69h0c.62-1.64.87-4.29.58-4.87Z"/>
            </g>
            <g>
              <path class="cls-34" d="m430.73,130.87c-.62,1.64-.42,3.24.44,3.56s2.06-.75,2.68-2.39,1.2-5.28.34-5.61-2.83,2.79-3.45,4.43Z"/>
              <path class="cls-34" d="m431.49,135.05c-.18,0-.36-.03-.52-.1-.62-.23-1.02-.85-1.13-1.74-.09-.76.04-1.66.37-2.54.26-.69,2.5-5.39,4.17-4.76,1.67.63.25,5.64,0,6.33-.33.88-.83,1.64-1.4,2.15-.49.43-.99.66-1.47.66Zm2.47-8.04c-.6.3-2.09,2.4-2.71,4.06h0c-.26.7-.38,1.43-.31,2.01.05.44.21.75.41.83.21.08.53-.05.86-.35.43-.39.83-1.01,1.1-1.71.62-1.66.9-4.22.64-4.84Z"/>
            </g>
          </g>
        </g>
        <text/>
        <g>
          <path class="cls-17" d="m269.13,147.58c-1.61,1.63-2.4,2.46-3.97,4.15-2.74,2.97-4.67,5.26-5.8,6.74-1.01,1.32-1.74,2.31-2.2,2.86-1.14,1.36-2.32,2.23-3.55,2.58-1.21.34-2.23.2-3.04-.44-.52-.41-.81-.89-.87-1.44-.06-.54.06-1.65.39-3.33.18-.98,0-1.92-.57-2.82-.57-.91-2-2.6-4.3-5.04-3.57-3.8-8.28-8.19-14.08-13.11-2.13-1.8-3.72-2.8-4.76-2.98-1.05-.18-2.46.3-4.17,1.48-1.98,1.36-3.48,1.7-4.48.89-.82-.65-1.06-1.74-.68-3.27.37-1.53,1.27-3.16,2.71-4.86.79-.93,1.83-2.1,3.12-3.48,2.14-2.29,4.44-4.79,6.92-7.41,1.82-1.93,5.36-5.78,10.86-11.15,1.73-1.68,3.32-3.17,4.77-4.47,3.45-3.08,6.47-5.26,8.96-6.64,2.5-1.37,4.94-2.19,7.29-2.46,3.84-.45,6.71.74,8.68,3.41.98,1.33,1.55,2.9,1.73,4.71.19,1.81-.05,3.55-.71,5.24-.47,1.21-.53,2.03-.19,2.46.37.47,1.19.46,2.48-.02,2.51-.94,5.16-1.26,7.9-.94,2.83.33,5.07,1.74,6.74,4.12,1.97,2.82,2.5,6.26,1.78,10.31-.96,5.35-4.31,10.24-10.06,15.25-.78.68-2.75,2.31-5.81,5.02-2.79,2.47-4.47,4.06-5.09,4.65Zm-24.96-29.93c2.05,2.12,3.08,3.17,5.14,5.29.81.84,1.53,1.29,2.15,1.35s1.29-.25,2.01-.94c1.72-1.64,2.64-3.22,2.74-4.79.11-1.57-.6-3.21-2.15-4.94-1.5-1.67-3.1-2.57-4.82-2.66-1.72-.09-3.42.63-5.04,2.18-.86.82-1.3,1.57-1.3,2.22,0,.65.42,1.42,1.26,2.29Zm14.36,14.79c.95.98,1.42,1.46,2.37,2.44,2.18,2.24,3.83,3.53,4.94,3.88,1.11.35,2.28-.06,3.52-1.23,3.24-3.04,3.51-6.07.71-9.26-3.49-3.98-7.24-4.27-11.1-.63-1,.94-1.53,1.77-1.59,2.47-.07.7.32,1.47,1.15,2.33Z"/>
          <path class="cls-17" d="m342.9,67.36c1.07,3.33,1.6,4.99,2.66,8.32,1.61,5.02,2.29,8.72,2.09,11.1-.46,5.02-3.45,9.5-8.73,13.82-3.19,2.64-6.99,4.95-11.47,7.06-7.81,3.68-14.69,5.48-21.19,5.14-3.17-.18-5.84-.94-7.98-2.38-2.15-1.43-4.45-4-6.88-7.75-.95-1.46-2.44-3.92-4.48-7.34-1.44-2.41-2.42-4.01-2.91-4.77-1.07-1.66-1.99-2.71-2.75-3.13-.76-.42-1.9-.53-3.42-.32-2.38.35-3.93.04-4.65-1.01-.53-.77-.53-1.77,0-3,.54-1.23,1.51-2.47,2.93-3.71,2.84-2.47,6.45-5.04,10.83-7.57,4.82-2.79,9.05-4.68,12.57-5.8,3.45-1.1,5.62-.69,6.5,1.14.44.9.32,1.84-.32,2.82-.14.23-.86.99-2.13,2.3-.78.77-1.13,1.63-1.05,2.58.07.95.58,2.33,1.51,4.13.96,1.84,2.91,5.89,5.87,12.12,1.76,3.71,4.43,5.83,7.9,6.51,2.84.56,5.83.1,9.08-1.35,2.06-.92,3.8-2.04,5.23-3.39,1.43-1.35,2.37-2.78,2.84-4.25.37-1.14.51-2.31.37-3.48-.14-1.17-.56-2.69-1.26-4.54-1.12-2.94-1.68-4.42-2.81-7.36-2.3-5.59-3.78-8.81-4.43-9.67-.66-.86-1.93-1.26-3.8-1.15-1.76.1-3.03.09-3.77-.09-.75-.18-1.25-.58-1.51-1.19-.55-1.32.13-2.75,2.08-4.24,1.96-1.49,5.4-3.2,10.35-4.94,4.86-1.7,8.52-2.49,10.9-2.54,2.38-.05,3.76.63,4.15,1.98.19.67.15,1.21-.13,1.64-.28.43-1.11,1.21-2.49,2.34-1.42,1.18-2.11,2.21-2.09,3.06s.81,3.82,2.36,8.88Z"/>
          <path class="cls-17" d="m368.02,41.86c3.7-.69,7.24-1.02,10.59-1.02,4.51,0,6.88,1.13,7.13,3.22.08.69-.07,1.23-.46,1.62-.39.4-1.42,1.04-3.07,1.92-1.38.74-2.16,2.07-2.34,3.98-.18,1.91.14,5.53.93,10.86,1.35,9.01,2.46,14.55,3.29,16.62.29.66.66,1.14,1.11,1.45.45.31,1.2.61,2.23.91,1.9.47,2.91,1.41,3.07,2.76.23,1.9-1.25,3.38-4.37,4.53-3.36,1.25-7.53,2.3-12.49,3.32-8.47,1.74-13.02,1.58-13.81-1.27-.28-1.04.3-2.24,1.76-3.58,1.13-1.03,1.67-2.17,1.61-3.43-.13-2.76-1.25-8.44-3.34-17.02-1.45-5.93-2.77-9.64-3.99-11.11-.67-.84-1.94-1.43-3.76-1.78-1.42-.27-2.43-.58-2.98-.87-.55-.29-.91-.76-1.09-1.41-.27-.99.16-1.96,1.31-2.9,1.15-.94,3.36-2.07,6.6-3.34,3.86-1.51,7.9-2.69,12.05-3.46Z"/>
          <path class="cls-17" d="m419.89,53.91c-.12,6.57-.18,9.85-.3,16.42-.07,3.7.27,6.1.99,7.18.87,1.28,2.78,1.96,5.69,2.1,3.13.16,5.64-.25,7.57-1.29,1.93-1.03,3.42-2.77,4.39-5.2.59-1.48,1.64-2.17,3.16-2,1.52.17,2.68.89,3.49,2.14.8,1.25,1.06,2.77.81,4.57-.41,2.93-2.13,5.87-4.98,8.92-.9.97-1.66,1.62-2.28,1.95-.62.33-1.34.45-2.16.37-3.46-.74-5.21-1.07-8.71-1.66-9.4-.32-18.41-.24-27.8.25-1.83.14-3.13.07-3.9-.24-1.14-.44-1.77-1.2-1.88-2.3-.07-.66.06-1.18.39-1.53.33-.36,1.17-.91,2.53-1.62,1.49-.78,2.43-1.76,2.78-2.95.29-.99.27-3.86-.07-8.57-.16-2.19-.45-5.34-.9-9.44-.43-3.94-.76-6.92-.92-8.9-.15-1.89-.43-3.19-.88-3.86-.45-.67-1.32-1.12-2.61-1.32-2.14-.37-3.52-.67-4.12-.95-1.08-.49-1.67-1.11-1.75-1.87-.19-1.73,1.63-3.27,5.49-4.51,3.29-1.06,7.81-1.78,13.49-1.96,6.38-.2,11.16.1,14.28.66,4.04.73,6,2.15,5.91,4.08-.04.79-.33,1.36-.88,1.71-.55.36-1.86.81-3.92,1.4-1.22.37-2,1.05-2.34,2.02-.34.97-.53,3.1-.59,6.39Z"/>
          <path class="cls-17" d="m461.62,92.22c-1.12-.25-1.68-.38-2.81-.62-1.64-.35-3.5-.65-5.56-.88-1.29-.14-2.2-.25-2.69-.33-1.75-.3-3.12-.88-4.12-1.78-1-.9-1.42-1.93-1.25-3.11.12-.83.46-1.44,1.03-1.82.57-.39,1.46-.66,2.62-.75,1.1-.08,1.92-.33,2.39-.79.47-.47.96-1.45,1.43-2.93.54-1.7,1.32-5.12,2.41-10.19,1.08-5.07,2.08-10.11,2.97-15.14.35-1.97.38-3.33.09-4.05-.29-.73-1.18-1.42-2.62-2.07-2.07-.94-3.03-2.17-2.81-3.66.17-1.16,1.07-1.95,2.71-2.36,1.64-.41,3.85-.38,6.61.12.91.17,1.98.37,3.2.64,2.7.59,4.66,1.06,5.89,1.33,4.6,1.01,9.81,2.18,15.59,3.61,1.22.3,2.74.72,4.55,1.27,7.26,2.22,12.72,4.89,16.37,7.63,5.43,4.08,8.66,8.96,9.76,14.26.97,4.69.23,9.45-2.08,14.28-1.16,2.43-2.78,4.66-4.8,6.7s-4.16,3.64-6.41,4.8c-4.63,2.32-9.74,3.2-15.46,2.79-3.37-.24-6.75-.91-10.21-2.01-1.83-.64-2.75-.95-4.59-1.55-1.59-.51-2.38-.75-3.98-1.23-3.09-.93-5.84-1.65-8.23-2.19Zm18.32-35.42c-2.42,8.91-4.84,17.82-7.26,26.73-.39,1.45-.31,2.58.24,3.39.55.81,1.66,1.44,3.33,1.93,7.74,2.27,13.31-1.24,16.89-11.22,1.97-5.5,2.54-10.12,1.56-13.86-1.08-4.13-4.42-7.13-9.95-8.72-1.48-.43-2.59-.49-3.31-.22-.72.27-1.22.93-1.5,1.97Z"/>
          <path class="cls-17" d="m585.76,136.84c-1.79,6.62-2.78,9.87-4.96,16.27-.48,1.49-.72,2.58-.69,3.26.03.68.34,1.5.93,2.45,1.16,1.84,1.15,3.24,0,4.16-1.36,1.08-3.15.82-5.37-.68-2.22-1.5-5.18-4.46-9.06-8.66-4.39-4.75-7.65-8.18-9.57-10.63-.88-1.12-1.41-2.21-1.59-3.25-.18-1.05.04-1.92.66-2.61.48-.53,1.01-.8,1.61-.79.6,0,1.46.3,2.58.88,1.26.65,2.2.66,2.82,0,1.1-1.16.87-2.7-.71-4.52-1.7-1.96-4.33-4.49-7.92-7.46-3.02-2.5-4.99-3.76-5.82-3.93-.52-.1-1.1,0-1.75.28-.65.28-1.15.65-1.5,1.11-.32.42-.43.76-.33,1.03.1.27.57.98,1.42,2.07,1.09,1.41,1.25,2.63.45,3.64-1.77,2.22-5.69.75-12.08-3.79-3.63-2.58-6.22-4.57-7.68-6.14-1.35-1.45-1.59-2.89-.7-4.33.39-.63.88-1,1.46-1.12.58-.11,1.44-.01,2.57.31,1.84.53,3.43.66,4.77.37,1.35-.29,3.66-1.28,7.02-2.9,4.58-2.2,6.91-3.25,11.65-5.24,4.36-1.82,7.55-3.19,9.46-4.26,1.91-1.07,3.49-2.34,4.7-3.85,1.29-1.6,2.31-2.61,3.05-3.04.75-.43,1.8-.6,3.15-.49,2.89.17,5.78,1.46,8.61,3.9,2.66,2.3,4.69,5.34,5.61,8.83,2.45,9.3-.65,19.76-2.79,29.12Zm-26.87-19.17c2.79,2.28,4.17,3.45,6.88,5.85,1.25,1.1,2.05,1.46,2.44,1.03.53-.58.98-2.8,1.21-6.69.11-1.77.1-3.03-.03-3.77-.13-.74-.44-1.32-.93-1.73-.88-.75-2.14-.75-3.74,0-.23.09-1.13.45-2.67,1.1-2.55,1.06-3.96,1.8-4.26,2.18-.37.47,0,1.14,1.08,2.03Z"/>
        </g>
      </g>
      <text class="cls-18" transform="translate(86.64 510.62)"><tspan class="cls-21" x="0" y="0">C</tspan><tspan class="cls-23" x="21.68" y="0">A</tspan><tspan class="cls-24" x="45.67" y="0">T</tspan><tspan class="cls-20" x="66.92" y="0">C</tspan><tspan class="cls-19" x="89.24" y="0">H </tspan><tspan class="cls-25" x="121.42" y="0">O</tspan><tspan class="cls-22" x="144.02" y="0">VER </tspan><tspan class="cls-38" x="221.13" y="0">20 </tspan><tspan class="cls-6" x="276.23" y="0">BU</tspan><tspan class="cls-2" x="323.27" y="0">R</tspan><tspan class="cls-6" x="346.23" y="0">GER </tspan><tspan class="cls-9" x="423.08" y="0">P</tspan><tspan class="cls-6" x="441.72" y="0">A</tspan><tspan class="cls-8" x="467.02" y="0">R</tspan><tspan class="cls-4" x="489.66" y="0">T</tspan><tspan class="cls-7" x="511.13" y="0">S </tspan><tspan class="cls-5" x="538.51" y="0">T</tspan><tspan class="cls-6" x="559.81" y="0">O WIN</tspan><tspan class="cls-10" x="33.86" y="45.6">C</tspan><tspan class="cls-14" x="55.54" y="45.6">A</tspan><tspan class="cls-3" x="79.53" y="45.6">T</tspan><tspan class="cls-1" x="100.78" y="45.6">C</tspan><tspan class="cls-6" x="123.1" y="45.6">H</tspan><tspan class="cls-38" x="147.63" y="45.6" xml:space="preserve"> 3</tspan><tspan class="cls-11" x="179.94" y="45.6" xml:space="preserve"> POOP OR R</tspan><tspan class="cls-13" x="363.72" y="45.6">A</tspan><tspan class="cls-4" x="387.71" y="45.6">T</tspan><tspan class="cls-6" x="409.18" y="45.6">S AND </tspan><tspan class="cls-12" x="519.47" y="45.6">L</tspan><tspan class="cls-6" x="538.77" y="45.6">OOSE</tspan></text>
    </g>
  </g>
</svg>