<?xml version="1.0" encoding="UTF-8"?>
<svg id="Layer_2" data-name="Layer 2" xmlns="http://www.w3.org/2000/svg" viewBox="0 0 878.17 288.34">
  <defs>
    <style>
      .cls-1 {
        fill: #ed4d00;
      }

      .cls-2 {
        fill: #d10000;
      }

      .cls-3 {
        fill: #a80000;
      }
    </style>
  </defs>
  <g id="Layer_1-2" data-name="Layer 1">
    <g>
      <g>
        <path class="cls-2" d="m858.07,143.99c0-10.22-3.64-19.74-9-27.65,0,0,0-.02,0-.02,0-35.25-183.56-63.82-410-63.82S29.07,81.07,29.07,116.32c0,0,0,.02,0,.02-5.36,7.91-8.5,17.43-8.5,27.65v34.5c0,10.4,3.26,20.06,8.79,28.05,7.21,34.26,187.9,61.7,409.77,61.7s403.45-27.38,409.94-61.75c5.44-7.95,9-17.7,9-28v-34.5Z"/>
        <path class="cls-3" d="m439.12,288.34c-108.11,0-210.52-6.47-288.38-18.22-38.61-5.83-69.59-12.72-92.08-20.48-34.12-11.77-44.26-24.71-47.77-34.59C4.07,204.04.47,191.48.47,178.49v-34.5c0-12.21,3.18-24.07,9.24-34.58,5.94-26.67,47.7-44.28,136.35-58.08,78.43-12.21,182.49-18.93,293.01-18.93s214.58,6.72,293.01,18.93c88.59,13.79,130.35,31.38,136.34,58.02,6.4,10.9,9.76,22.78,9.76,34.65v34.5c0,12.63-3.63,25.11-10.54,36.32-3.38,10-13.44,23.02-47.51,34.82-22.44,7.77-53.42,14.67-92.09,20.5-77.88,11.74-180.48,18.21-288.91,18.21ZM48.61,200.43c3.64,3.2,25.53,18.56,120.65,31.75,74.22,10.29,170.06,15.96,269.87,15.96s195.73-5.64,269.92-15.89c94.71-13.08,116.86-28.32,120.68-31.62l.38-2.02,2.38-3.48c3.54-5.17,5.49-11.08,5.49-16.65v-34.5c0-6.78-3.01-12.65-5.54-16.37l-3.46-5.11v-2.73c-5.19-4.09-29.28-18.64-120.03-31.23-74.23-10.29-170.07-15.96-269.87-15.96s-195.65,5.67-269.87,15.96c-90.75,12.59-114.84,27.14-120.03,31.23v2.73l-3.46,5.11c-3.3,4.86-5.04,10.52-5.04,16.37v34.5c0,5.94,1.8,11.69,5.21,16.61l2.31,3.34.42,1.99Zm781.79-.45h0,0Z"/>
      </g>
      <g>
        <g>
          <path class="cls-2" d="m857.6,111.6c0-10.22-3.64-19.74-9-27.65,0,0,0-.02,0-.02,0-35.25-183.56-63.82-410-63.82S28.6,48.67,28.6,83.92c0,0,0,.02,0,.02-5.36,7.91-8.5,17.43-8.5,27.65v34.5c0,10.4,3.26,20.06,8.79,28.05,7.21,34.26,187.9,61.7,409.77,61.7s403.45-27.38,409.94-61.75c5.44-7.95,9-17.7,9-28v-34.5Z"/>
          <path class="cls-3" d="m438.65,255.95c-108.11,0-210.52-6.47-288.38-18.22-38.61-5.83-69.59-12.72-92.08-20.48-34.13-11.77-44.26-24.71-47.77-34.59-6.84-11-10.43-23.57-10.43-36.55v-34.5c0-12.21,3.18-24.07,9.24-34.58,5.94-26.67,47.7-44.28,136.35-58.08C224.02,6.72,328.08,0,438.6,0s214.58,6.72,293.01,18.93c88.59,13.79,130.35,31.38,136.34,58.02,6.4,10.9,9.76,22.78,9.76,34.65v34.5c0,12.63-3.63,25.11-10.54,36.32-3.38,10-13.44,23.02-47.51,34.82-22.44,7.77-53.42,14.67-92.09,20.5-77.88,11.74-180.48,18.21-288.91,18.21ZM48.14,168.04c3.64,3.2,25.53,18.56,120.65,31.75,74.22,10.29,170.06,15.96,269.87,15.96s195.72-5.64,269.92-15.89c94.71-13.08,116.86-28.32,120.68-31.62l.38-2.02,2.38-3.48c3.54-5.17,5.49-11.08,5.49-16.65v-34.5c0-6.78-3.01-12.65-5.54-16.37l-3.46-5.11v-2.73c-5.19-4.09-29.28-18.64-120.03-31.23-74.23-10.29-170.07-15.96-269.87-15.96s-195.65,5.67-269.87,15.96c-90.75,12.59-114.84,27.14-120.03,31.23v2.73l-3.46,5.11c-3.3,4.86-5.04,10.52-5.04,16.37v34.5c0,5.94,1.8,11.69,5.21,16.61l2.31,3.33.42,1.99Z"/>
        </g>
        <g>
          <path class="cls-2" d="m435.44,87.41l133.14-30.8c2.84-.66,5.29,2.07,4.35,4.82l-15.18,44.11c-.76,2.21.68,4.56,3,4.88l128.48,17.9c4.26.59,4.26,6.76,0,7.35l-128.48,17.9c-2.31.32-3.76,2.67-3,4.88l15.18,44.11c.95,2.76-1.51,5.48-4.35,4.82l-133.14-30.8c-.55-.13-1.12-.13-1.67,0l-133.14,30.8c-2.84.66-5.29-2.07-4.35-4.82l15.18-44.11c.76-2.21-.68-4.56-3-4.88l-128.48-17.9c-4.26-.59-4.26-6.76,0-7.35l128.48-17.9c2.31-.32,3.76-2.67,3-4.88l-15.18-44.11c-.95-2.76,1.51-5.48,4.35-4.82l133.14,30.8c.55.13,1.12.13,1.67,0Z"/>
          <path class="cls-3" d="m299.79,219.49c-4.4,0-8.66-1.85-11.68-5.19-3.82-4.24-5.04-10.23-3.18-15.63l11.9-34.59-118.51-16.51c-7.85-1.09-13.54-7.64-13.54-15.56s5.7-14.47,13.54-15.56l118.51-16.51-11.9-34.59c-1.86-5.4-.64-11.39,3.18-15.63,3.82-4.24,9.65-6.08,15.21-4.79l131.27,30.37,131.27-30.37c5.56-1.28,11.39.55,15.21,4.79,3.82,4.24,5.04,10.23,3.18,15.63l-11.9,34.59,118.51,16.51c7.85,1.09,13.54,7.64,13.54,15.56s-5.7,14.47-13.54,15.56l-118.51,16.51,11.9,34.59c1.86,5.4.64,11.39-3.18,15.63-3.82,4.24-9.65,6.08-15.21,4.79l-131.27-30.37-131.27,30.37c-1.17.27-2.36.4-3.54.4Zm134.81-54.99c1.19,0,2.38.13,3.54.4l118.56,27.43-10.31-29.96c-1.53-4.46-1-9.31,1.47-13.33,2.46-4.02,6.55-6.69,11.22-7.34l69.56-9.69-69.56-9.69c-4.66-.65-8.76-3.32-11.22-7.34s-3-8.88-1.47-13.33l10.31-29.96-118.57,27.43c-2.31.53-4.76.53-7.07,0l-118.57-27.43,10.31,29.96c1.53,4.46,1,9.32-1.47,13.33s-6.56,6.69-11.22,7.34l-69.56,9.69,69.56,9.69c4.67.65,8.76,3.33,11.22,7.34,2.46,4.02,3,8.87,1.47,13.33l-10.31,29.96,118.57-27.43c1.16-.27,2.35-.4,3.54-.4Zm-1.84-88.79s-.02,0-.02,0h.02Z"/>
        </g>
        <g>
          <path class="cls-2" d="m347.54,150.18c6.97-6.17,15.56-7.85,19.19-3.76,3.63,4.1.93,12.43-6.03,18.6s-24.23,15.54-27.86,11.44c-3.63-4.1,7.74-20.11,14.7-26.29Z"/>
          <path class="cls-1" d="m335.76,180.58c-2.18,0-4.01-.59-5.28-2.02-6.4-7.23,10.16-26.46,14.97-30.73h0c3.78-3.35,8.16-5.65,12.33-6.46,4.76-.93,8.78.12,11.3,2.98,4.86,5.48,2.09,15.6-6.3,23.04-3.86,3.42-18.2,13.19-27.02,13.19Zm-.5-6.26c3.16.78,16.22-5.33,23.35-11.65,5.87-5.2,7.89-11.77,5.77-14.16-.97-1.1-2.94-1.45-5.39-.97-3.04.59-6.45,2.42-9.36,5-7.13,6.32-14.76,18.56-14.37,21.78Z"/>
        </g>
        <g>
          <path class="cls-2" d="m521.06,150.41c-7.17-5.94-15.81-7.34-19.3-3.12s-.52,12.45,6.65,18.39,24.73,14.73,28.22,10.51-8.4-19.85-15.57-25.78Z"/>
          <path class="cls-1" d="m533.42,180.41c-8.86,0-23.12-9.06-27.03-12.3-8.63-7.16-11.73-17.18-7.06-22.82,2.43-2.93,6.41-4.12,11.2-3.35,4.19.68,8.64,2.83,12.53,6.05h0c3.94,3.26,8.92,8.98,12.4,14.22,5.04,7.6,6.21,12.83,3.58,15.99-1.29,1.56-3.27,2.2-5.62,2.2Zm-25.62-32.4c-1.64,0-2.92.45-3.62,1.3-2.04,2.46.19,8.96,6.23,13.96,7.34,6.08,20.6,11.75,23.73,10.87.28-3.23-7.75-15.22-15.08-21.3h0c-3-2.48-6.47-4.19-9.52-4.69-.61-.1-1.19-.15-1.73-.15Z"/>
        </g>
        <g>
          <path class="cls-2" d="m359.97,95.19c8.06,4.65,12.37,12.27,9.64,17.02s-11.49,4.82-19.55.16c-8.06-4.65-22.41-18.07-19.67-22.81s21.53.98,29.59,5.63Z"/>
          <path class="cls-1" d="m361.69,118.96c-4.21,0-8.89-1.37-13.21-3.86-5.57-3.21-25.65-18.75-20.82-27.11,2.06-3.56,7.37-4.28,16.24-2.2,6.12,1.44,13.21,4.12,17.64,6.68,4.38,2.53,7.94,5.95,10.03,9.65,2.39,4.22,2.66,8.37.75,11.67-1.9,3.3-5.63,5.14-10.48,5.18-.05,0-.11,0-.16,0Zm-28.5-27.78c.26,3.23,10.19,13.7,18.44,18.47,3.37,1.95,7.06,3.03,10.17,3.02,2.5-.02,4.35-.76,5.08-2.03.73-1.27.45-3.25-.78-5.42-1.53-2.69-4.33-5.35-7.7-7.3-8.25-4.76-22.28-8.13-25.21-6.74Z"/>
        </g>
        <g>
          <path class="cls-2" d="m321.77,127.1c9.31,0,16.85,2.26,16.85,5.05s-7.55,5.05-16.85,5.05c-9.31,0-28.44-2.26-28.44-5.05s19.13-5.05,28.44-5.05Z"/>
          <path class="cls-1" d="m321.77,139.45c-4.94,0-12.19-.6-18.05-1.51-10.52-1.62-12.63-3.42-12.63-5.79s2.11-4.17,12.63-5.79c5.86-.9,13.11-1.51,18.05-1.51,7.09,0,19.1,1.54,19.1,7.3s-12,7.3-19.1,7.3Zm-24.16-7.3c5.03,1.41,16.29,2.81,24.16,2.81,8.38,0,13.26-1.81,14.43-2.81-1.17-1-6.05-2.81-14.43-2.81-7.87,0-19.13,1.39-24.16,2.81Z"/>
        </g>
        <g>
          <path class="cls-2" d="m520.66,112.77c-7.17,5.94-15.81,7.34-19.3,3.12s-.52-12.45,6.65-18.39c7.17-5.94,24.73-14.73,28.22-10.51s-8.4,19.85-15.57,25.78Z"/>
          <path class="cls-1" d="m507.41,121.45c-3.48,0-6.5-1.16-8.48-3.56-2.43-2.93-2.86-7.06-1.21-11.63,1.44-3.99,4.38-7.97,8.27-11.19,3.94-3.26,10.48-7.1,16.27-9.54,8.4-3.54,13.76-3.72,16.38-.56,2.62,3.17,1.45,8.4-3.58,15.99-3.48,5.24-8.46,10.96-12.4,14.22-4.97,4.12-10.53,6.26-15.25,6.26Zm25.53-32.49c-4.14,0-16.11,5.3-22.93,10.96-3,2.48-5.32,5.58-6.37,8.49-.85,2.35-.8,4.34.14,5.47,2.04,2.46,8.84,1.47,14.88-3.53h0c7.34-6.08,15.36-18.06,15.08-21.3-.22-.06-.48-.09-.79-.09Z"/>
        </g>
        <g>
          <path class="cls-2" d="m540.58,127.05c-9.31,0-16.85,2.26-16.85,5.05s7.55,5.05,16.85,5.05,28.44-2.26,28.44-5.05-19.13-5.05-28.44-5.05Z"/>
          <path class="cls-1" d="m540.58,139.4c-7.09,0-19.1-1.54-19.1-7.3s12-7.3,19.1-7.3c4.94,0,12.19.6,18.05,1.51,10.52,1.62,12.63,3.42,12.63,5.79s-2.11,4.17-12.63,5.79c-5.86.9-13.11,1.51-18.05,1.51Zm-14.43-7.3c1.17,1,6.04,2.81,14.43,2.81,7.87,0,19.13-1.39,24.16-2.81-5.03-1.41-16.29-2.81-24.16-2.81-8.38,0-13.26,1.81-14.43,2.81Z"/>
        </g>
        <g>
          <ellipse class="cls-2" cx="434.6" cy="127.6" rx="41" ry="11.5"/>
          <path class="cls-1" d="m434.6,141.34c-21.49,0-43.25-4.72-43.25-13.75s21.75-13.75,43.25-13.75,43.25,4.72,43.25,13.75-21.75,13.75-43.25,13.75Zm0-23c-25.44,0-38.75,6.02-38.75,9.25s13.31,9.25,38.75,9.25,38.75-6.02,38.75-9.25-13.31-9.25-38.75-9.25Z"/>
        </g>
      </g>
    </g>
  </g>
</svg>