<?xml version="1.0" encoding="UTF-8"?>
<svg id="Layer_2" data-name="Layer 2" xmlns="http://www.w3.org/2000/svg" viewBox="0 0 880.5 314.31">
  <defs>
    <style>
      .cls-1 {
        fill: #ffd69e;
      }

      .cls-2 {
        fill: #c59b6d;
      }
    </style>
  </defs>
  <g id="Layer_1-2" data-name="Layer 1">
    <g>
      <g>
        <g>
          <path class="cls-1" d="m859.16,167.94c0-11.48-3.64-22.18-9-31.06,0,0,0-.02,0-.03,0-39.6-183.75-53.84-410.19-53.84S30.16,97.26,30.16,136.85c0,0,0,.02,0,.03-5.36,8.88-8.5,19.58-8.5,31.06v38.75c0,11.68,3.26,22.54,8.79,31.51,7.21,38.49,187.66,54.81,409.53,54.81s403.7-16.26,410.19-54.86c5.44-8.92,9-19.88,9-31.45v-38.75Z"/>
          <path class="cls-2" d="m439.97,314.31c-117.07,0-216.6-4.54-287.81-13.12-91.02-10.97-132.85-27-141.58-54.75C3.88,234.44.36,220.77.36,206.69v-38.75c0-13.27,3.14-26.19,9.11-37.68,4.7-24.93,35.49-35.18,46.16-38.73,21.68-7.22,51.81-12.98,92.1-17.6,70.59-8.1,168.92-12.21,292.25-12.21s221.75,4.11,292.43,12.21c40.35,4.62,70.51,10.38,92.22,17.6,10.68,3.55,41.46,13.79,46.21,38.68,6.31,11.92,9.62,24.87,9.62,37.74v38.75c0,13.68-3.57,27.27-10.35,39.5-8.39,27.92-50.25,44.03-141.57,55.01-71.32,8.58-171.11,13.11-288.58,13.11ZM51.05,232.52c3.38,3.14,23.7,17.54,119.59,27.9,68.35,7.39,161.48,11.29,269.33,11.29s201.16-3.88,269.58-11.22c95.67-10.27,116.37-24.54,119.92-27.78l.36-2.14,2.14-3.51c3.8-6.23,5.89-13.46,5.89-20.37v-38.75c0-8.44-3.23-15.56-5.94-20.05l-3.06-5.08v-2.76c-2.76-2.12-11.03-7.05-33-12.47-21.36-5.27-50.54-9.75-86.75-13.29-67.64-6.62-158.2-9.98-269.14-9.98s-201.4,3.36-268.96,9.98c-36.15,3.54-65.3,8.01-86.62,13.29-21.92,5.42-30.18,10.35-32.93,12.46v2.77l-3.06,5.08c-3.56,5.89-5.44,12.83-5.44,20.05v38.75c0,7.34,1.94,14.37,5.62,20.33l2.08,3.37.4,2.13Z"/>
        </g>
        <g>
          <path class="cls-1" d="m858.8,143.88c0-11.48-3.64-22.18-9-31.06,0,0,0-.02,0-.03,0-39.6-183.75-53.84-410.19-53.84S29.8,73.2,29.8,112.79c0,0,0,.02,0,.03-5.36,8.88-8.5,19.58-8.5,31.06v38.75c0,11.68,3.26,22.54,8.79,31.51,7.21,38.49,187.66,54.81,409.53,54.81s403.7-16.26,410.19-54.86c5.44-8.92,9-19.88,9-31.45v-38.75Z"/>
          <path class="cls-2" d="m439.62,290.25c-117.07,0-216.6-4.54-287.81-13.12-91.02-10.97-132.85-27-141.58-54.75-6.7-12-10.23-25.67-10.23-39.74v-38.75c0-13.27,3.13-26.19,9.11-37.68,4.7-24.93,35.49-35.18,46.16-38.73,21.68-7.22,51.81-12.98,92.1-17.6,70.59-8.1,168.92-12.21,292.25-12.21s221.75,4.11,292.43,12.21c40.35,4.62,70.51,10.38,92.22,17.6,10.68,3.55,41.46,13.79,46.21,38.68,6.31,11.92,9.62,24.87,9.62,37.74v38.75c0,13.68-3.57,27.27-10.35,39.5-8.39,27.92-50.25,44.03-141.57,55.01-71.32,8.58-171.11,13.11-288.58,13.11ZM50.7,208.46c3.38,3.14,23.7,17.54,119.59,27.9,68.35,7.38,161.48,11.29,269.33,11.29s201.16-3.88,269.58-11.22c95.67-10.27,116.37-24.54,119.92-27.78l.36-2.14,2.14-3.51c3.8-6.23,5.89-13.46,5.89-20.37v-38.75c0-8.44-3.23-15.57-5.94-20.05l-3.06-5.08v-2.76c-2.76-2.12-11.03-7.05-33-12.47-21.36-5.27-50.54-9.75-86.75-13.29-67.65-6.62-158.2-9.98-269.14-9.98s-201.4,3.36-268.96,9.98c-36.15,3.54-65.3,8.01-86.62,13.29-21.92,5.42-30.18,10.35-32.93,12.46v2.77l-3.06,5.08c-3.56,5.89-5.44,12.83-5.44,20.05v38.75c0,7.34,1.94,14.37,5.62,20.33l2.08,3.37.4,2.12Z"/>
        </g>
        <g>
          <path class="cls-1" d="m859.2,106.23c0-11.48-3.64-22.18-9-31.06,0,0,0-.02,0-.03,0-39.6-183.75-53.84-410.19-53.84S30.2,35.55,30.2,75.14c0,0,0,.02,0,.03-5.36,8.88-8.5,19.58-8.5,31.06v38.75c0,11.68,3.26,22.54,8.79,31.51,7.21,38.49,187.66,54.81,409.53,54.81s403.7-16.26,410.19-54.86c5.44-8.92,9-19.88,9-31.45v-38.75Z"/>
          <path class="cls-2" d="m440.02,252.6c-117.07,0-216.6-4.54-287.81-13.12-91.02-10.97-132.85-27-141.58-54.75C3.93,172.73.4,159.06.4,144.99v-38.75c0-13.27,3.13-26.19,9.11-37.68,4.7-24.93,35.49-35.18,46.16-38.73,21.68-7.22,51.81-12.98,92.1-17.6C218.36,4.11,316.69,0,440.02,0s221.75,4.11,292.43,12.21c40.35,4.62,70.51,10.38,92.22,17.6,10.68,3.55,41.46,13.79,46.21,38.68,6.31,11.92,9.62,24.87,9.62,37.74v38.75c0,13.68-3.57,27.27-10.35,39.5-8.39,27.92-50.25,44.03-141.57,55.01-71.32,8.58-171.11,13.11-288.58,13.11ZM51.1,170.81c3.38,3.14,23.7,17.54,119.59,27.9,68.35,7.38,161.48,11.29,269.33,11.29s201.16-3.88,269.58-11.22c95.67-10.27,116.37-24.54,119.92-27.78l.36-2.14,2.14-3.51c3.8-6.23,5.89-13.46,5.89-20.37v-38.75c0-8.44-3.23-15.57-5.94-20.05l-3.06-5.08v-2.76c-2.76-2.12-11.03-7.05-33-12.47-21.36-5.27-50.54-9.75-86.75-13.29-67.65-6.62-158.2-9.98-269.14-9.98s-201.4,3.36-268.96,9.98c-36.15,3.54-65.3,8.01-86.62,13.29-21.92,5.42-30.18,10.35-32.93,12.46v2.77l-3.06,5.08c-3.56,5.89-5.44,12.83-5.44,20.05v38.75c0,7.34,1.94,14.37,5.62,20.33l2.08,3.37.4,2.12Z"/>
        </g>
      </g>
      <g>
        <path class="cls-1" d="m358.04,177.87c3.99,2.3,4.48,8.92,1.1,14.77s-9.35,8.73-13.34,6.43c-3.99-2.3-9.45-11.78-6.07-17.64s14.32-5.86,18.31-3.56Z"/>
        <path class="cls-2" d="m348.87,202.31c-1.54,0-3.01-.37-4.3-1.12-4.9-2.83-11.22-13.64-6.97-21,1.9-3.29,5.72-5.43,10.76-6.05,4.09-.5,8.37.12,10.91,1.59h0c2.62,1.51,4.27,4.43,4.54,8,.25,3.28-.65,6.87-2.53,10.13-1.88,3.25-4.54,5.83-7.5,7.26-1.64.79-3.31,1.18-4.9,1.18Zm2.3-23.42c-.72,0-1.46.04-2.22.13-3.42.42-6,1.74-7.09,3.63-2.53,4.38,2.03,12.46,5.17,14.28,1.62.94,3.58.25,4.6-.24,2.05-.99,4.01-2.91,5.38-5.29,1.37-2.37,2.06-5.03,1.89-7.3-.08-1.13-.47-3.17-2.09-4.11h0c-1.06-.61-3.18-1.1-5.64-1.1Z"/>
      </g>
      <g>
        <path class="cls-1" d="m138.83,63.7c-5.29-3.05,1.51-5.9,4.87-11.73s2.71-3.05,8,0c5.29,3.05,12.75,4.67,9.38,10.5-3.37,5.83-16.97,4.28-22.26,1.23Z"/>
        <path class="cls-2" d="m150.92,69.25c-.09,0-.18,0-.27,0-4.86-.04-10.05-1.26-13.24-3.1-.73-.42-2.94-1.7-3.31-4.19-.4-2.69,1.52-4.75,3.56-6.92,1.23-1.31,2.62-2.79,3.59-4.47,1.52-2.64,2.67-4.4,4.67-4.76,1.85-.34,3.16.74,4.32,1.68.71.58,1.6,1.31,2.87,2.05,1.01.58,2.17,1.14,3.28,1.67,3.46,1.66,7.03,3.37,8.08,6.75.58,1.86.26,3.86-.94,5.94-2,3.46-6.47,5.36-12.61,5.36Zm-11.01-8.2c.09.06.2.13.33.2h0c1.9,1.1,5.99,2.3,10.46,2.34,4.06.07,7-.91,7.94-2.53.37-.64.53-1.16.44-1.44-.31-1.02-3.09-2.35-5.12-3.32-1.21-.58-2.47-1.18-3.67-1.87-1.5-.86-2.56-1.7-3.36-2.35-.21.33-.46.76-.78,1.31-1.29,2.24-2.99,4.06-4.35,5.51-.64.69-1.47,1.57-1.88,2.15Z"/>
      </g>
      <g>
        <path class="cls-1" d="m603.87,31.67c6.11,0,11.06,7.43,11.06,16.6s-4.95,16.6-11.06,16.6c-6.11,0-18.66-7.43-18.66-16.6s12.55-16.6,18.66-16.6Z"/>
        <path class="cls-2" d="m603.87,68.15c-3.9,0-9.25-2.18-13.63-5.54-5.37-4.13-8.33-9.23-8.33-14.35s2.96-10.21,8.33-14.35c4.38-3.37,9.73-5.54,13.63-5.54,8.05,0,14.35,8.74,14.35,19.89s-6.31,19.89-14.35,19.89Zm0-33.19c-4.8,0-15.36,6.43-15.36,13.3s10.56,13.3,15.36,13.3c4.13,0,7.76-6.21,7.76-13.3s-3.63-13.3-7.76-13.3Z"/>
      </g>
      <g>
        <path class="cls-1" d="m265.76,96.26c4.57-4.05,11.07-4.18,14.52-.29s2.54,10.33-2.03,14.38c-4.57,4.05-16.76,9.22-20.21,5.33-3.45-3.89,3.15-15.37,7.72-19.42Z"/>
        <path class="cls-2" d="m262.01,119.54c-2.55,0-4.52-.74-5.83-2.21-2.26-2.55-2.1-6.82.46-12.34,1.86-4.02,4.87-8.27,7.47-10.58,5.59-4.95,13.67-4.99,18.02-.08,4.35,4.91,3.34,12.93-2.24,17.88-2.61,2.31-7.19,4.78-11.4,6.15-2.44.79-4.62,1.19-6.48,1.19Zm11.64-23.93c-2.1,0-4.37.84-6.25,2.51h0c-2.11,1.87-4.68,5.55-6.26,8.96-1.75,3.78-1.87,6.25-1.25,6.96.63.71,3.1.88,7.06-.4,3.57-1.16,7.53-3.27,9.64-5.14,3.54-3.14,4.36-8.01,1.82-10.87-1.19-1.34-2.91-2-4.77-2Z"/>
      </g>
      <g>
        <path class="cls-1" d="m762.54,78.69c4.99,2.88,6.07,10.38,2.39,16.74s-10.7,9.18-15.69,6.29-12.28-13.97-8.61-20.33,16.91-5.59,21.91-2.71Z"/>
        <path class="cls-2" d="m753.52,105.7c-1.99,0-3.95-.48-5.71-1.5-6.07-3.51-14.33-16.16-9.66-24.24,2.13-3.69,6.67-5.91,12.78-6.25,4.84-.27,9.96.71,13.04,2.49h0c3.19,1.84,5.27,5.09,5.85,9.14.54,3.79-.31,7.88-2.41,11.51-3.22,5.58-8.71,8.84-13.9,8.84Zm-1.01-26.3c-.42,0-.84.01-1.26.03-4.05.22-7.02,1.46-8.13,3.39-2.6,4.5,3.55,14.09,7.56,16.41,3.56,2.05,8.95-.35,11.77-5.25,1.46-2.52,2.06-5.3,1.7-7.83-.32-2.27-1.41-4.04-3.04-4.99h0c-1.6-.93-4.96-1.77-8.6-1.77Z"/>
      </g>
      <g>
        <path class="cls-1" d="m820.68,155.17c-4.57-4.05-11.65-3.53-15.8,1.16s-3.82,11.78.75,15.83c4.57,4.05,17.33,8.57,21.49,3.88,4.16-4.69-1.87-16.82-6.44-20.87Z"/>
        <path class="cls-2" d="m821.42,180.78c-6.49,0-14.29-3.64-17.6-6.58-5.69-5.04-6.13-13.87-.98-19.68,2.48-2.8,5.89-4.5,9.59-4.77,3.73-.27,7.3.93,10.06,3.38,4.89,4.33,12.48,18.16,6.67,24.72-1.87,2.11-4.66,2.93-7.74,2.93Zm-7.97-25.61c-.21,0-.42,0-.63.02-2.27.17-4.37,1.21-5.91,2.95-3.15,3.56-2.92,8.93.52,11.98,5.15,4.56,15.52,6.51,17.64,4.11,2.12-2.39-1.06-12.46-6.21-17.02-1.5-1.33-3.4-2.04-5.42-2.04Z"/>
      </g>
      <g>
        <path class="cls-1" d="m487.77,120.23c-5.29,3.05-6.85,10.26-3.48,16.09s10.38,8.08,15.67,5.03c5.29-3.05,13.43-14.06,10.06-19.89s-16.97-4.28-22.26-1.23Z"/>
        <path class="cls-2" d="m494.85,145.54c-1.43,0-2.87-.23-4.3-.69-3.63-1.17-6.72-3.7-8.7-7.12-4.14-7.17-2.12-16.12,4.51-19.95h0c6.37-3.68,21.78-5.25,26.12,2.26,2.03,3.51,1.39,8.43-1.8,13.83-2.47,4.19-6.12,8.08-9.3,9.92-2.01,1.16-4.24,1.75-6.53,1.75Zm-5.66-22.87c-3.93,2.27-5.03,7.76-2.45,12.23,1.28,2.21,3.24,3.83,5.53,4.57,2.19.7,4.42.5,6.28-.57,1.9-1.1,4.98-4.04,7.26-7.89,2.05-3.47,2.71-6.52,1.77-8.14-2.15-3.73-13.75-2.88-18.4-.2h0Z"/>
      </g>
      <g>
        <path class="cls-1" d="m669.81,199.27c6.11,0,11.06-7.43,11.06-16.6,0-9.17-4.95-16.6-11.06-16.6-6.11,0-18.66,7.43-18.66,16.6,0,9.17,12.55,16.6,18.66,16.6Z"/>
        <path class="cls-2" d="m669.81,202.56c-3.9,0-9.25-2.18-13.63-5.54-5.37-4.13-8.33-9.23-8.33-14.35s2.96-10.21,8.33-14.35c4.38-3.37,9.73-5.54,13.63-5.54,8.05,0,14.35,8.74,14.35,19.89s-6.31,19.89-14.35,19.89Zm0-33.19c-4.8,0-15.36,6.43-15.36,13.3s10.56,13.3,15.36,13.3c4.13,0,7.76-6.21,7.76-13.3s-3.63-13.3-7.76-13.3Z"/>
      </g>
      <g>
        <path class="cls-1" d="m119.02,179.62c4.57,4.05,11.65,3.53,15.8-1.16s3.82-11.78-.75-15.83c-4.57-4.05-17.33-8.57-21.49-3.88-4.16,4.69,1.87,16.82,6.44,20.87Z"/>
        <path class="cls-2" d="m126.25,185.07c-3.23,0-6.46-1.12-9.04-3.41-2.72-2.41-5.56-6.83-7.23-11.27-2.19-5.79-1.99-10.57.56-13.45,5.81-6.56,20.45-.68,25.34,3.65,5.69,5.04,6.13,13.87.98,19.68-2.81,3.17-6.72,4.8-10.61,4.8Zm-7.98-25.54c-1.7,0-3.03.33-3.65,1.03-1.09,1.23-.92,4.26.46,7.9,1.34,3.56,3.71,7.31,5.75,9.12h0c3.44,3.05,8.8,2.63,11.96-.93,3.15-3.56,2.92-8.93-.52-11.98-3.64-3.23-9.89-5.14-14-5.14Z"/>
      </g>
      <g>
        <path class="cls-1" d="m409.93,58.56c5.29-3.05,6.85-10.26,3.48-16.09-3.37-5.83-10.38-8.08-15.67-5.03s-13.43,14.06-10.06,19.89c3.37,5.83,16.97,4.28,22.26,1.23Z"/>
        <path class="cls-2" d="m398.01,64.07c-5.37,0-10.55-1.46-12.78-5.33-4.34-7.51,4.73-20.07,11.1-23.75,6.63-3.83,15.39-1.11,19.53,6.07,4.14,7.17,2.12,16.12-4.51,19.95h0c-3.08,1.78-8.29,3.07-13.33,3.07Zm4.86-25.17c-1.29,0-2.56.32-3.72.98-4.65,2.68-11.18,12.3-9.03,16.03,2.16,3.73,13.75,2.88,18.4.2,3.93-2.27,5.03-7.76,2.44-12.23-1.82-3.16-5-4.98-8.09-4.98Z"/>
      </g>
    </g>
  </g>
</svg>