<?xml version="1.0" encoding="UTF-8"?>
<svg id="Layer_2" data-name="Layer 2" xmlns="http://www.w3.org/2000/svg" viewBox="0 0 676 676">
  <defs>
    <style>
      .cls-1, .cls-2, .cls-3, .cls-4 {
        stroke-miterlimit: 10;
      }

      .cls-1, .cls-3, .cls-4 {
        stroke: #000;
      }

      .cls-2 {
        stroke: #ff5c00;
      }

      .cls-5 {
        fill: #fff;
      }

      .cls-6, .cls-3 {
        fill: #ff5c00;
      }

      .cls-7, .cls-4 {
        fill: #aaffe1;
      }
    </style>
  </defs>
  <g id="Layer_1-2" data-name="Layer 1">
    <g>
      <g>
        <path class="cls-5" d="m338.5,659.98c-86.4,0-167.64-33.65-228.73-94.74C48.67,504.14,15.02,422.9,15.02,336.5S48.67,168.86,109.77,107.77C170.86,46.67,252.1,13.02,338.5,13.02s167.64,33.65,228.73,94.74c61.1,61.1,94.74,142.33,94.74,228.73s-33.65,167.64-94.74,228.73c-61.1,61.1-142.33,94.74-228.73,94.74Z"/>
        <path d="m338.5,660.98c-86.67,0-168.15-33.75-229.44-95.04C47.78,504.65,14.02,423.17,14.02,336.5S47.78,168.35,109.06,107.06C170.35,45.78,251.83,12.02,338.5,12.02s168.15,33.75,229.44,95.04c61.29,61.29,95.04,142.77,95.04,229.44s-33.75,168.15-95.04,229.44c-61.29,61.29-142.77,95.04-229.44,95.04Zm0-646.95c-86.14,0-167.12,33.54-228.02,94.45C49.57,169.38,16.02,250.36,16.02,336.5s33.54,167.12,94.45,228.02c60.91,60.91,141.89,94.45,228.02,94.45s167.12-33.54,228.02-94.45c60.91-60.91,94.45-141.89,94.45-228.02s-33.54-167.12-94.45-228.02C505.62,47.57,424.64,14.02,338.5,14.02Z"/>
      </g>
      <g>
        <path class="cls-5" d="m338.5,13.55c43.6,0,85.89,8.54,125.71,25.38,38.46,16.27,72.99,39.55,102.65,69.21,29.66,29.66,52.95,64.2,69.21,102.65,16.84,39.81,25.38,82.11,25.38,125.71s-8.54,85.89-25.38,125.71c-16.27,38.46-39.55,72.99-69.21,102.65s-64.2,52.95-102.65,69.21c-39.81,16.84-82.11,25.38-125.71,25.38s-85.89-8.54-125.71-25.38c-38.46-16.27-72.99-39.55-102.65-69.21s-52.95-64.2-69.21-102.65c-16.84-39.81-25.38-82.11-25.38-125.71s8.54-85.89,25.38-125.71c16.27-38.46,39.55-72.99,69.21-102.65,29.66-29.66,64.2-52.95,102.65-69.21,39.81-16.84,82.11-25.38,125.71-25.38m0-1.05C159.56,12.5,14.5,157.56,14.5,336.5s145.06,324,324,324,324-145.06,324-324S517.44,12.5,338.5,12.5h0Z"/>
        <path d="m338.5,661.5c-86.81,0-168.43-33.81-229.81-95.19S13.5,423.31,13.5,336.5,47.31,168.07,108.69,106.69,251.69,11.5,338.5,11.5s168.43,33.81,229.81,95.19c61.38,61.38,95.19,143,95.19,229.81s-33.81,168.43-95.19,229.81c-61.38,61.38-143,95.19-229.81,95.19Zm0-646.95c-43.46,0-85.63,8.51-125.32,25.3-38.34,16.21-72.77,39.43-102.34,69-29.57,29.57-52.78,64-69,102.34-16.79,39.69-25.3,81.85-25.3,125.32s8.51,85.63,25.3,125.32c16.22,38.34,39.43,72.77,69,102.34s64,52.78,102.34,69c39.69,16.79,81.85,25.3,125.32,25.3s85.63-8.51,125.32-25.3c38.34-16.22,72.77-39.43,102.34-69,29.57-29.57,52.78-64,69-102.34,16.79-39.69,25.3-81.85,25.3-125.32s-8.51-85.63-25.3-125.32c-16.22-38.34-39.43-72.77-69-102.34-29.57-29.57-64-52.78-102.34-69-39.69-16.79-81.85-25.3-125.32-25.3Z"/>
      </g>
      <g>
        <polygon class="cls-7" points="435 629.61 465.4 629.98 446.23 642.08 435 646.75 435 629.61"/>
        <path d="m434.25,647.88v-19.02l33.69.41-21.42,13.51-12.27,5.11Zm1.5-17.5v15.26l10.14-4.22,16.97-10.71-27.1-.33Z"/>
      </g>
      <g>
        <path d="m435.5,630.12l28.2.34-17.67,11.15-10.54,4.39v-15.88m-1-1.01v18.4l12-5,20.6-13-32.6-.4h0Z"/>
        <path d="m433.75,648.62v-20.28l35.89.44-22.85,14.41-13.04,5.43Zm2.5-17.75v14l9.44-3.93,15.47-9.76-24.91-.3Z"/>
      </g>
      <g>
        <polygon class="cls-7" points="624.03 441.9 655.17 442.28 637.09 468.21 624.03 484.1 624.03 441.9"/>
        <path d="m623.28,486.2v-45.06l33.32.4-18.89,27.1-14.43,17.56Zm1.5-43.54v39.35l11.73-14.27,17.24-24.73-28.97-.35Z"/>
      </g>
      <g>
        <path d="m624.53,442.41l29.7.36-17.52,25.13-12.18,14.81v-40.3m-1-1.01v44.11l13.97-17,18.62-26.71-32.6-.4h0Z"/>
        <path d="m622.78,487.59v-46.96l34.77.42-19.43,27.87-15.34,18.67Zm2.5-44.43v37.45l10.85-13.2,16.67-23.92-27.52-.33Z"/>
      </g>
      <g>
        <polygon class="cls-7" points="245 648.07 245.14 629.43 338.91 629.43 339 661.92 245 648.07"/>
        <path d="m339.75,662.79l-95.5-14.07.15-20.04h95.26l.09,34.11Zm-93.99-15.37l92.49,13.63-.08-30.87h-92.28l-.13,17.24Z"/>
      </g>
      <g>
        <path d="m338.41,629.93l.09,31.41-92.99-13.7.13-17.71h92.77m1-1h-94.76l-.14,19.57,95,14-.09-33.57h0Z"/>
        <path d="m340.25,663.37l-96.51-14.22.16-20.97h96.26l.1,35.19Zm-93.99-16.38l91.48,13.48-.08-29.79h-91.28l-.12,16.31Z"/>
      </g>
      <g>
        <polygon class="cls-7" points="339.11 67.11 339 7.1 433.99 23.92 432.89 67.11 339.11 67.11"/>
        <path d="m433.62,67.86h-95.26l-.11-61.66,96.51,17.09-1.14,44.57Zm-93.76-1.5h92.3l1.07-41.82-93.47-16.55.11,58.37Z"/>
      </g>
      <g>
        <path d="m339.5,7.69l93.98,16.64-1.08,42.28h-92.79l-.11-58.92m-1-1.19l.11,61.11h94.76l1.12-44.11-96-17h0Z"/>
        <path d="m434.11,68.36h-96.24l-.12-62.75,97.52,17.27-1.16,45.49Zm-93.75-2.5h91.31l1.04-40.9-92.46-16.37.11,57.27Z"/>
      </g>
      <g>
        <polygon class="cls-7" points="529.15 535.43 588.51 535.01 565.14 567.15 529.99 594.49 529.15 535.43"/>
        <path d="m529.26,596.01l-.87-61.32,61.6-.44-24.4,33.49-36.34,28.27Zm.65-59.83l.8,56.8,33.88-26.35,22.44-30.85-57.12.4Z"/>
      </g>
      <g>
        <path d="m587.53,535.51l-22.75,31.28-34.3,26.68-.81-57.55,57.87-.41m1.97-1.01l-60.86.43.86,60.57,36-28,24-33h0Z"/>
        <path d="m528.77,597.02l-.89-62.83,63.1-.45-25.02,34.35-37.19,28.93Zm1.65-60.35l.78,55.29,33.03-25.69,21.82-30-55.63.39Z"/>
      </g>
      <g>
        <polygon class="cls-4" points="150.2 68.86 150.58 59.59 243.6 21.99 243.94 68.86 150.2 68.86"/>
        <path class="cls-1" d="m244.7,69.61h-95.28l.43-10.53,94.49-38.2.35,48.73Zm-93.71-1.5h92.2l-.33-45.01-91.55,37.01-.33,8Z"/>
      </g>
      <g>
        <polyline class="cls-7" points="528.14 82.54 528.14 161.37 433.38 161.37 433.38 66.61 504.1 66.61"/>
        <polygon points="528.89 162.12 432.63 162.12 432.63 65.86 504.1 65.86 504.1 67.36 434.13 67.36 434.13 160.62 527.39 160.62 527.39 82.54 528.89 82.54 528.89 162.12"/>
      </g>
      <g>
        <polygon points="528.64 161.87 432.88 161.87 432.88 66.11 504.1 66.11 504.1 67.11 433.88 67.11 433.88 160.87 527.64 160.87 527.64 82.54 528.64 82.54 528.64 161.87"/>
        <polygon points="529.39 162.62 432.13 162.62 432.13 65.36 504.85 65.36 504.85 67.86 434.63 67.86 434.63 160.12 526.89 160.12 526.89 81.79 529.39 81.79 529.39 162.62"/>
      </g>
      <g>
        <rect class="cls-7" x="244.35" y="67.11" width="93.76" height="93.76"/>
        <path d="m338.86,161.62h-95.26v-95.26h95.26v95.26Zm-93.76-1.5h92.26v-92.26h-92.26v92.26Z"/>
      </g>
      <g>
        <path d="m337.61,67.61v92.76h-92.76v-92.76h92.76m1-1h-94.76v94.76h94.76v-94.76h0Z"/>
        <path d="m339.36,162.12h-96.26v-96.26h96.26v96.26Zm-93.76-2.5h91.26v-91.26h-91.26v91.26Z"/>
      </g>
      <g>
        <rect class="cls-7" x="339.11" y="160.87" width="93.76" height="93.76"/>
        <path d="m433.63,255.39h-95.26v-95.26h95.26v95.26Zm-93.76-1.5h92.26v-92.26h-92.26v92.26Z"/>
      </g>
      <g>
        <path d="m432.38,161.37v92.76h-92.76v-92.76h92.76m1-1h-94.76v94.76h94.76v-94.76h0Z"/>
        <path d="m434.13,255.89h-96.26v-96.26h96.26v96.26Zm-93.76-2.5h91.26v-91.26h-91.26v91.26Z"/>
      </g>
      <g>
        <rect class="cls-7" x="150.59" y="348.4" width="93.76" height="93.76"/>
        <path d="m245.1,442.91h-95.26v-95.26h95.26v95.26Zm-93.76-1.5h92.26v-92.26h-92.26v92.26Z"/>
      </g>
      <g>
        <path d="m243.85,348.9v92.76h-92.76v-92.76h92.76m1-1h-94.76v94.76h94.76v-94.76h0Z"/>
        <path d="m245.6,443.41h-96.26v-96.26h96.26v96.26Zm-93.76-2.5h91.26v-91.26h-91.26v91.26Z"/>
      </g>
      <g>
        <polygon class="cls-7" points="21.91 442 7.6 347.86 55.82 348.4 55.82 442.16 21.91 442"/>
        <path d="m56.57,442.92l-35.31-.17-14.54-95.65,49.85.56v95.26Zm-34.02-1.66l32.52.15v-92.27l-46.6-.52,14.08,92.64Z"/>
      </g>
      <g>
        <path d="m1.73,348.51l52.59.38v92.77l-33.01-.16L1.73,348.51m6.87-.65l11.9,94.64,34.82.17v-94.76l-50.72-.04h4Z"/>
        <path d="m56.07,443.42l-36.23-.17-1.59-12.67L.81,347.75l3.79.03v-.67s51.47.04,51.47.04v96.27Zm-34.15-2.66l31.65.15v-91.27l-44.03-.32,10.19,81.01,2.2,10.43ZM2.66,349.27l13.31,63.23-7.95-63.19-5.37-.04Z"/>
      </g>
      <g>
        <rect class="cls-7" x="340.11" y="348.4" width="93.76" height="93.76"/>
        <path d="m434.63,442.91h-95.26v-95.26h95.26v95.26Zm-93.76-1.5h92.26v-92.26h-92.26v92.26Z"/>
      </g>
      <g>
        <path d="m433.38,348.9v92.76h-92.76v-92.76h92.76m1-1h-94.76v94.76h94.76v-94.76h0Z"/>
        <path d="m435.13,443.41h-96.26v-96.26h96.26v96.26Zm-93.76-2.5h91.26v-91.26h-91.26v91.26Z"/>
      </g>
      <g>
        <rect class="cls-7" x="55.82" y="254.64" width="93.76" height="93.76"/>
        <path d="m150.34,349.15H55.07v-95.26h95.26v95.26Zm-93.76-1.5h92.26v-92.26H56.57v92.26Z"/>
      </g>
      <g>
        <path d="m149.09,255.14v92.76H56.32v-92.76h92.76m1-1H55.32v94.76h94.76v-94.76h0Z"/>
        <path d="m150.84,349.65H54.57v-96.26h96.26v96.26Zm-93.76-2.5h91.26v-91.26H57.07v91.26Z"/>
      </g>
      <g>
        <rect class="cls-7" x="245.35" y="254.64" width="93.76" height="93.76"/>
        <path d="m339.86,349.15h-95.26v-95.26h95.26v95.26Zm-93.76-1.5h92.26v-92.26h-92.26v92.26Z"/>
      </g>
      <g>
        <path d="m338.61,255.14v92.76h-92.76v-92.76h92.76m1-1h-94.76v94.76h94.76v-94.76h0Z"/>
        <path d="m340.36,349.65h-96.26v-96.26h96.26v96.26Zm-93.76-2.5h91.26v-91.26h-91.26v91.26Z"/>
      </g>
      <g>
        <rect class="cls-7" x="150.59" y="160.87" width="93.76" height="93.76"/>
        <path d="m245.1,255.39h-95.26v-95.26h95.26v95.26Zm-93.76-1.5h92.26v-92.26h-92.26v92.26Z"/>
      </g>
      <g>
        <path d="m243.85,161.37v92.76h-92.76v-92.76h92.76m1-1h-94.76v94.76h94.76v-94.76h0Z"/>
        <path d="m245.6,255.89h-96.26v-96.26h96.26v96.26Zm-93.76-2.5h91.26v-91.26h-91.26v91.26Z"/>
      </g>
      <g>
        <polygon class="cls-7" points="13.19 254.01 26.97 212.66 54.82 162.31 54.82 254.63 13.19 254.01"/>
        <path d="m55.57,255.39l-43.42-.65,14.16-42.45,29.25-52.89v95.99Zm-41.35-2.12l39.85.59v-88.65l-26.41,47.74-13.44,40.31Z"/>
      </g>
      <g>
        <path d="m54.32,164.25v89.87l-40.44-.6,13.54-40.62,26.9-48.65m1-3.88l-28.82,52.13-14,42,42.82.64v-94.76h0Z"/>
        <path d="m56.07,255.9l-44.61-.66,14.38-43.1,30.23-54.67v98.43Zm-41.16-3.11l38.66.58v-86.21l-25.46,46.05-13.19,39.58Z"/>
      </g>
      <g>
        <path class="cls-1" d="m150.09,66.61l-73.49,76.25-21.28,18.52h94.76v-94.76h0Z"/>
        <path class="cls-1" d="m150.84,162.12H53.32l22.79-19.83,74.73-77.54v97.37Zm-93.51-1.5h92.01v-92.15l-72.2,74.91-19.81,17.25Z"/>
      </g>
      <g>
        <polygon class="cls-4" points="56.12 160.86 70.61 139.84 149.6 67.66 149.6 160.86 56.12 160.86"/>
        <path class="cls-1" d="m150.35,161.61H54.7l15.41-22.32,80.24-73.33v95.65Zm-92.8-1.5h91.3v-90.74l-77.67,70.97-13.63,19.77Z"/>
      </g>
      <g>
        <rect class="cls-7" x="245.35" y="442.16" width="93.76" height="93.76"/>
        <path d="m339.86,536.68h-95.26v-95.26h95.26v95.26Zm-93.76-1.5h92.26v-92.26h-92.26v92.26Z"/>
      </g>
      <g>
        <path d="m338.61,442.67v92.76h-92.76v-92.76h92.76m1-1h-94.76v94.76h94.76v-94.76h0Z"/>
        <path d="m340.36,537.18h-96.26v-96.26h96.26v96.26Zm-93.76-2.5h91.26v-91.26h-91.26v91.26Z"/>
      </g>
      <g>
        <rect class="cls-7" x="434.88" y="442.16" width="93.76" height="93.76"/>
        <path d="m529.39,536.68h-95.26v-95.26h95.26v95.26Zm-93.76-1.5h92.26v-92.26h-92.26v92.26Z"/>
      </g>
      <g>
        <path d="m528.14,442.67v92.76h-92.76v-92.76h92.76m1-1h-94.76v94.76h94.76v-94.76h0Z"/>
        <path d="m529.89,537.18h-96.26v-96.26h96.26v96.26Zm-93.76-2.5h91.26v-91.26h-91.26v91.26Z"/>
      </g>
      <g>
        <polyline class="cls-7" points="72.64 536.43 150.09 536.43 150.09 441.66 55.32 441.66 55.32 516.82"/>
        <polygon points="150.84 537.18 72.64 537.18 72.64 535.68 149.34 535.68 149.34 442.41 56.07 442.41 56.07 516.82 54.57 516.82 54.57 440.91 150.84 440.91 150.84 537.18"/>
      </g>
      <g>
        <polygon points="150.59 536.93 72.64 536.93 72.64 535.93 149.59 535.93 149.59 442.16 55.82 442.16 55.82 516.82 54.82 516.82 54.82 441.16 150.59 441.16 150.59 536.93"/>
        <polygon points="151.34 537.68 71.89 537.68 71.89 535.18 148.84 535.18 148.84 442.91 56.57 442.91 56.57 517.57 54.07 517.57 54.07 440.41 151.34 440.41 151.34 537.68"/>
      </g>
      <g>
        <rect class="cls-7" x="340.11" y="535.93" width="93.76" height="93.76"/>
        <path d="m434.63,630.44h-95.26v-95.26h95.26v95.26Zm-93.76-1.5h92.26v-92.26h-92.26v92.26Z"/>
      </g>
      <g>
        <path d="m433.38,536.43v92.76h-92.76v-92.76h92.76m1-1h-94.76v94.76h94.76v-94.76h0Z"/>
        <path d="m435.13,630.94h-96.26v-96.26h96.26v96.26Zm-93.76-2.5h91.26v-91.26h-91.26v91.26Z"/>
      </g>
      <g>
        <polyline class="cls-7" points="186.63 630.19 244.85 630.19 244.85 535.43 150.09 535.43 150.09 610.7"/>
        <polygon points="245.6 630.94 186.63 630.94 186.63 629.44 244.1 629.44 244.1 536.18 150.84 536.18 150.84 610.7 149.34 610.7 149.34 534.68 245.6 534.68 245.6 630.94"/>
      </g>
      <g>
        <polygon points="245.35 630.69 186.63 630.69 186.63 629.69 244.35 629.69 244.35 535.93 150.59 535.93 150.59 610.7 149.59 610.7 149.59 534.93 245.35 534.93 245.35 630.69"/>
        <polygon points="246.1 631.44 185.88 631.44 185.88 628.94 243.6 628.94 243.6 536.68 151.34 536.68 151.34 611.45 148.84 611.45 148.84 534.18 246.1 534.18 246.1 631.44"/>
      </g>
      <g>
        <polyline class="cls-7" points="622.9 190.02 622.9 255.14 528.14 255.14 528.14 160.37 606.6 160.86"/>
        <polygon points="623.65 255.89 527.39 255.89 527.39 159.62 606.6 160.11 606.59 161.61 528.89 161.13 528.89 254.39 622.15 254.39 622.15 190.02 623.65 190.02 623.65 255.89"/>
      </g>
      <g>
        <polygon points="623.4 255.64 527.64 255.64 527.64 159.87 597.77 159.87 617.6 159.86 528.64 160.87 528.64 254.64 622.4 254.64 622.4 190.02 623.4 190.02 623.4 255.64"/>
        <polygon points="624.15 256.39 526.89 256.39 526.89 159.12 617.6 159.11 617.61 160.61 529.39 161.62 529.39 253.89 621.65 253.89 621.65 189.27 624.15 189.27 624.15 256.39"/>
      </g>
      <g>
        <polygon class="cls-7" points="623.4 255.64 654.6 255.99 662.95 347.61 623.4 348 623.4 255.64"/>
        <path d="m622.65,348.75v-93.87l32.63.36,8.49,93.1-41.12.4Zm1.5-92.35v90.84l37.98-.37-8.22-90.14-29.76-.33Z"/>
      </g>
      <g>
        <path d="m623.9,256.15l30.24.34,8.27,90.63-38.5.37v-91.34m-1-1.01v93.36l40.6-.4-8.45-92.61-32.15-.36h0Z"/>
        <path d="m622.15,349.26v-94.88l33.59.37,8.58,94.09-42.17.41Zm2.5-92.35v89.83l36.93-.36-8.13-89.15-28.8-.32Z"/>
      </g>
      <g>
        <rect class="cls-7" x="433.88" y="254.64" width="93.76" height="93.76"/>
        <path d="m528.39,349.15h-95.26v-95.26h95.26v95.26Zm-93.76-1.5h92.26v-92.26h-92.26v92.26Z"/>
      </g>
      <g>
        <path d="m527.14,255.14v92.76h-92.76v-92.76h92.76m1-1h-94.76v94.76h94.76v-94.76h0Z"/>
        <path d="m528.89,349.65h-96.26v-96.26h96.26v96.26Zm-93.76-2.5h91.26v-91.26h-91.26v91.26Z"/>
      </g>
      <g>
        <rect class="cls-7" x="528.64" y="348.4" width="93.76" height="93.76"/>
        <path d="m623.15,442.91h-95.26v-95.26h95.26v95.26Zm-93.76-1.5h92.26v-92.26h-92.26v92.26Z"/>
      </g>
      <g>
        <path d="m621.9,348.9v92.76h-92.76v-92.76h92.76m1-1h-94.76v94.76h94.76v-94.76h0Z"/>
        <path d="m623.65,443.41h-96.26v-96.26h96.26v96.26Zm-93.76-2.5h91.26v-91.26h-91.26v91.26Z"/>
      </g>
      <path class="cls-2" d="m338,1.51c45.43,0,89.5,8.9,130.98,26.44,40.07,16.95,76.06,41.21,106.96,72.11,30.9,30.9,55.17,66.89,72.11,106.96,17.55,41.48,26.44,85.55,26.44,130.98s-8.9,89.5-26.44,130.98c-16.95,40.07-41.21,76.06-72.11,106.96-30.9,30.9-66.89,55.17-106.96,72.11-41.48,17.55-85.55,26.44-130.98,26.44s-89.5-8.9-130.98-26.44c-40.07-16.95-76.06-41.21-106.96-72.11-30.9-30.9-55.17-66.89-72.11-106.96C10.4,427.5,1.51,383.43,1.51,338s8.9-89.5,26.44-130.98c16.95-40.07,41.21-76.06,72.11-106.96,30.9-30.9,66.89-55.17,106.96-72.11C248.5,10.4,292.57,1.51,338,1.51m0,655.86c43.11,0,84.94-8.44,124.31-25.1,38.03-16.09,72.18-39.11,101.51-68.44s52.36-63.48,68.44-101.51c16.65-39.37,25.1-81.2,25.1-124.31s-8.44-84.94-25.1-124.31c-16.09-38.03-39.11-72.18-68.44-101.51-29.33-29.33-63.48-52.36-101.51-68.44-39.37-16.65-81.2-25.1-124.31-25.1s-84.94,8.44-124.31,25.1c-38.03,16.09-72.18,39.11-101.51,68.44-29.33,29.33-52.36,63.48-68.44,101.51-16.65,39.37-25.1,81.2-25.1,124.31s8.44,84.94,25.1,124.31c16.09,38.03,39.11,72.18,68.44,101.51s63.48,52.36,101.51,68.44c39.37,16.65,81.2,25.1,124.31,25.1M338,.5C151.6.5.5,151.6.5,338s151.1,337.5,337.5,337.5,337.5-151.1,337.5-337.5S524.4.5,338,.5h0Zm0,655.86c-175.82,0-318.36-142.53-318.36-318.36S162.18,19.64,338,19.64s318.36,142.53,318.36,318.36-142.53,318.36-318.36,318.36h0Z"/>
      <path class="cls-3" d="m338,675c-90.02,0-174.65-35.05-238.29-98.7C36.06,512.65,1,428.02,1,338S36.06,163.36,99.71,99.71C163.36,36.06,247.98,1,338,1s174.65,35.05,238.29,98.7c63.65,63.65,98.7,148.28,98.7,238.29s-35.05,174.65-98.7,238.29c-63.65,63.65-148.28,98.7-238.29,98.7Zm0-655.86c-85.17,0-165.24,33.17-225.47,93.39S19.14,252.83,19.14,338s33.17,165.24,93.39,225.47,140.3,93.39,225.47,93.39,165.24-33.17,225.47-93.39,93.39-140.3,93.39-225.47-33.17-165.24-93.39-225.47S423.17,19.14,338,19.14Z"/>
      <circle class="cls-6" cx="338.4" cy="347.66" r="24.9"/>
      <path d="m338.4,373.6c-14.31,0-25.94-11.64-25.94-25.94s11.64-25.94,25.94-25.94,25.94,11.64,25.94,25.94-11.64,25.94-25.94,25.94Zm0-49.79c-13.15,0-23.85,10.7-23.85,23.85s10.7,23.85,23.85,23.85,23.85-10.7,23.85-23.85-10.7-23.85-23.85-23.85Z"/>
    </g>
  </g>
</svg>